<?xml version="1.0" encoding="utf-8"?>
<!-- Generator: Adobe Illustrator 16.0.0, SVG Export Plug-In . SVG Version: 6.00 Build 0)  -->
<!DOCTYPE svg PUBLIC "-//W3C//DTD SVG 1.1//EN" "http://www.w3.org/Graphics/SVG/1.1/DTD/svg11.dtd">
<svg version="1.1" id="Layer_1" xmlns="http://www.w3.org/2000/svg" xmlns:xlink="http://www.w3.org/1999/xlink" x="0px" y="0px"
	 width="512px" height="436.5px" viewBox="0 0 512 436.5" enable-background="new 0 0 512 436.5" xml:space="preserve">
<linearGradient id="SVGID_1_" gradientUnits="userSpaceOnUse" x1="-284.7368" y1="199.6377" x2="-134.3207" y2="599.0193" gradientTransform="matrix(1 0 0 1 488 -99)">
	<stop  offset="0" style="stop-color:#445EA0"/>
	<stop  offset="0.3216" style="stop-color:#415A9B"/>
	<stop  offset="0.6926" style="stop-color:#364D8D"/>
	<stop  offset="1" style="stop-color:#2A3D7C"/>
</linearGradient>
<path fill="url(#SVGID_1_)" d="M499.852,427.625H17.332c-6.711,0-12.148-5.438-12.148-12.148V114.512
	c0-32.004,25.945-57.949,57.945-57.949h423.383C500.59,56.563,512,67.977,512,82.051v333.425
	C512,422.188,506.563,427.625,499.852,427.625z"/>
<linearGradient id="SVGID_2_" gradientUnits="userSpaceOnUse" x1="-229.4077" y1="528.8896" x2="-229.4077" y2="358.8162" gradientTransform="matrix(1 0 0 1 488 -99)">
	<stop  offset="0" style="stop-color:#2A3D7C;stop-opacity:0"/>
	<stop  offset="0.3949" style="stop-color:#273A77;stop-opacity:0.3961"/>
	<stop  offset="0.8504" style="stop-color:#1E3069;stop-opacity:0.851"/>
	<stop  offset="1" style="stop-color:#1A2B63"/>
</linearGradient>
<path fill="url(#SVGID_2_)" d="M486.512,56.563H63.129c-32.004,0-57.945,25.945-57.945,57.949v157.562l155.551,155.551h339.117
	c6.711,0,12.148-5.438,12.148-12.148V82.051C512,67.977,500.59,56.563,486.512,56.563z"/>
<linearGradient id="SVGID_3_" gradientUnits="userSpaceOnUse" x1="44.0962" y1="342.4004" x2="-37.2173" y2="340.8945" gradientTransform="matrix(1 0 0 1 488 -99)">
	<stop  offset="0" style="stop-color:#2A3D7C;stop-opacity:0"/>
	<stop  offset="0.3949" style="stop-color:#273A77;stop-opacity:0.3961"/>
	<stop  offset="0.8504" style="stop-color:#1E3069;stop-opacity:0.851"/>
	<stop  offset="1" style="stop-color:#1A2B63"/>
</linearGradient>
<path fill="url(#SVGID_3_)" d="M486.352,56.563H436.5c6.711,0,12.148,5.441,12.148,12.152v346.761
	c0,6.711-5.438,12.148-12.148,12.148h63.352c6.711,0,12.148-5.438,12.148-12.148V82.215C512,68.047,500.516,56.563,486.352,56.563z"
	/>
<linearGradient id="SVGID_4_" gradientUnits="userSpaceOnUse" x1="-346.585" y1="137.8486" x2="-143.1953" y2="137.8486" gradientTransform="matrix(1 0 0 1 488 -99)">
	<stop  offset="0" style="stop-color:#FF4974"/>
	<stop  offset="0.3262" style="stop-color:#FE4672"/>
	<stop  offset="0.5324" style="stop-color:#FB3E6C"/>
	<stop  offset="0.7054" style="stop-color:#F52F60"/>
	<stop  offset="0.8591" style="stop-color:#EE1A51"/>
	<stop  offset="1" style="stop-color:#E4003D"/>
</linearGradient>
<path fill="url(#SVGID_4_)" d="M344.805,67.122h-18.195v-8.094c0-8.953-5.684-16.895-14.145-19.773
	c-20.176-6.855-44.156-10.48-69.355-10.48s-49.18,3.625-69.355,10.48c-8.461,2.879-14.145,10.82-14.145,19.773v8.094h-18.195v-8.094
	c0-16.746,10.641-31.617,26.484-37c22.035-7.492,48.047-11.453,75.211-11.453c27.167,0,53.176,3.961,75.215,11.453
	c15.84,5.383,26.479,20.254,26.479,37V67.122L344.805,67.122z"/>
<linearGradient id="SVGID_5_" gradientUnits="userSpaceOnUse" x1="-247.3179" y1="103.5879" x2="-247.3179" y2="151.7685" gradientTransform="matrix(1 0 0 1 488 -99)">
	<stop  offset="0" style="stop-color:#FFD00D"/>
	<stop  offset="0.2378" style="stop-color:#FFCB0E"/>
	<stop  offset="0.5353" style="stop-color:#FFBB11"/>
	<stop  offset="0.8632" style="stop-color:#FFA215"/>
	<stop  offset="1" style="stop-color:#FF9517"/>
</linearGradient>
<path fill="url(#SVGID_5_)" d="M296.738,45.872c-37.605-8.16-74.5-8.16-112.109,0c-7.012,1.523-14.004-2.625-16.008-9.516
	c-1.156-3.992-2.316-7.98-3.477-11.973c-2.191-7.547,2.422-15.43,10.102-17.125c43.852-9.676,87.023-9.676,130.875,0
	c7.676,1.695,12.293,9.578,10.098,17.125c-1.156,3.992-2.316,7.984-3.477,11.973C310.742,43.243,303.746,47.395,296.738,45.872z"/>
<linearGradient id="SVGID_6_" gradientUnits="userSpaceOnUse" x1="-283.083" y1="162.751" x2="-179.92" y2="436.6673" gradientTransform="matrix(1 0 0 1 488 -99)">
	<stop  offset="0" style="stop-color:#445EA0"/>
	<stop  offset="0.3216" style="stop-color:#415A9B"/>
	<stop  offset="0.6926" style="stop-color:#364D8D"/>
	<stop  offset="1" style="stop-color:#2A3D7C"/>
</linearGradient>
<path fill="url(#SVGID_6_)" d="M444.168,274.238H12.398C5.551,274.238,0,268.688,0,261.844v-155.89
	c0-27.277,22.113-49.391,49.391-49.391h433.195c-14.371,0-26.02,11.652-26.02,26.02V261.84
	C456.566,268.688,451.016,274.238,444.168,274.238z"/>
<linearGradient id="SVGID_7_" gradientUnits="userSpaceOnUse" x1="-48.4863" y1="453.7441" x2="-156.8252" y2="345.4052" gradientTransform="matrix(1 0 0 1 488 -99)">
	<stop  offset="0" style="stop-color:#2A3D7C;stop-opacity:0"/>
	<stop  offset="0.3949" style="stop-color:#273A77;stop-opacity:0.3961"/>
	<stop  offset="0.8504" style="stop-color:#1E3069;stop-opacity:0.851"/>
	<stop  offset="1" style="stop-color:#1A2B63"/>
</linearGradient>
<path fill="url(#SVGID_7_)" d="M374.023,243.383c-1.008-1.461-2.688-2.418-4.59-2.418h-42.017c-3.078,0-5.578,2.496-5.578,5.578
	v28.762c0,5.563,2.431,10.547,6.267,13.991l71.352,71.355c3.445,3.836,8.43,6.262,13.996,6.262h15.504
	c10.402,0,18.832-8.43,18.832-18.832v-28.758c0-1.906-0.957-3.582-2.414-4.59L374.023,243.383z"/>
<linearGradient id="SVGID_8_" gradientUnits="userSpaceOnUse" x1="-298.3975" y1="453.7441" x2="-406.7358" y2="345.4059" gradientTransform="matrix(1 0 0 1 488 -99)">
	<stop  offset="0" style="stop-color:#2A3D7C;stop-opacity:0"/>
	<stop  offset="0.3949" style="stop-color:#273A77;stop-opacity:0.3961"/>
	<stop  offset="0.8504" style="stop-color:#1E3069;stop-opacity:0.851"/>
	<stop  offset="1" style="stop-color:#1A2B63"/>
</linearGradient>
<path fill="url(#SVGID_8_)" d="M124.109,243.383c-1.004-1.461-2.684-2.418-4.59-2.418H77.508c-3.082,0-5.578,2.496-5.578,5.578
	v28.762c0,5.563,2.426,10.547,6.262,13.991l71.355,71.355c3.445,3.836,8.43,6.262,13.992,6.262h15.508
	c10.402,0,18.832-8.43,18.832-18.832v-28.758c0-1.906-0.957-3.582-2.414-4.59L124.109,243.383z"/>
<linearGradient id="SVGID_9_" gradientUnits="userSpaceOnUse" x1="-145.2505" y1="346.0645" x2="-126.9675" y2="394.6091" gradientTransform="matrix(1 0 0 1 488 -99)">
	<stop  offset="0" style="stop-color:#FFD00D"/>
	<stop  offset="0.2378" style="stop-color:#FFCB0E"/>
	<stop  offset="0.5353" style="stop-color:#FFBB11"/>
	<stop  offset="0.8632" style="stop-color:#FFA215"/>
	<stop  offset="1" style="stop-color:#FF9517"/>
</linearGradient>
<path fill="url(#SVGID_9_)" d="M356.18,294.137h-15.508c-10.402,0-18.832-8.434-18.832-18.832v-28.761
	c0-3.078,2.5-5.578,5.578-5.578h42.012c3.082,0,5.582,2.5,5.582,5.578v28.761C375.012,285.703,366.578,294.137,356.18,294.137z"/>
<linearGradient id="SVGID_10_" gradientUnits="userSpaceOnUse" x1="-129.1934" y1="334.874" x2="-129.1934" y2="371.68" gradientTransform="matrix(1 0 0 1 488 -99)">
	<stop  offset="0" style="stop-color:#FFD00D"/>
	<stop  offset="0.2378" style="stop-color:#FFCB0E"/>
	<stop  offset="0.5353" style="stop-color:#FFBB11"/>
	<stop  offset="0.8632" style="stop-color:#FFA215"/>
	<stop  offset="1" style="stop-color:#FF9517"/>
</linearGradient>
<path fill="url(#SVGID_10_)" d="M369.43,240.965h-13.574c3.082,0,5.578,2.496,5.578,5.578v28.762
	c0,10.397-8.43,18.827-18.832,18.827h13.578c10.398,0,18.832-8.43,18.832-18.827v-28.762
	C375.012,243.461,372.512,240.965,369.43,240.965z"/>
<linearGradient id="SVGID_11_" gradientUnits="userSpaceOnUse" x1="-124.8179" y1="377.6699" x2="-174.4057" y2="350.7077" gradientTransform="matrix(1 0 0 1 488 -99)">
	<stop  offset="0" style="stop-color:#FF9517;stop-opacity:0"/>
	<stop  offset="0.3074" style="stop-color:#EE8421;stop-opacity:0.3059"/>
	<stop  offset="0.6784" style="stop-color:#E07728;stop-opacity:0.6784"/>
	<stop  offset="1" style="stop-color:#DB722B"/>
</linearGradient>
<path fill="url(#SVGID_11_)" d="M356.18,294.137c10.313,0,18.68-8.297,18.816-18.578l-25.484-25.488
	c-0.852-1.059-2.145-1.754-3.613-1.754h-9.651c-2.565,0-4.647,2.082-4.647,4.648v18.988c0,1.469,0.69,2.758,1.754,3.609
	l18.569,18.573L356.18,294.137L356.18,294.137z"/>
<linearGradient id="SVGID_12_" gradientUnits="userSpaceOnUse" x1="-153.7422" y1="353.4688" x2="-138.4699" y2="371.3806" gradientTransform="matrix(1 0 0 1 488 -99)">
	<stop  offset="0" style="stop-color:#FFD00D"/>
	<stop  offset="0.2378" style="stop-color:#FFCB0E"/>
	<stop  offset="0.5353" style="stop-color:#FFBB11"/>
	<stop  offset="0.8632" style="stop-color:#FFA215"/>
	<stop  offset="1" style="stop-color:#FF9517"/>
</linearGradient>
<path fill="url(#SVGID_12_)" d="M345.898,276.602h-9.652c-2.566,0-4.648-2.082-4.648-4.647v-18.988c0-2.565,2.078-4.647,4.648-4.647
	h9.652c2.565,0,4.647,2.082,4.647,4.647v18.988C350.547,274.52,348.465,276.602,345.898,276.602z"/>
<linearGradient id="SVGID_13_" gradientUnits="userSpaceOnUse" x1="-395.1602" y1="346.0645" x2="-376.8767" y2="394.6102" gradientTransform="matrix(1 0 0 1 488 -99)">
	<stop  offset="0" style="stop-color:#FFD00D"/>
	<stop  offset="0.2378" style="stop-color:#FFCB0E"/>
	<stop  offset="0.5353" style="stop-color:#FFBB11"/>
	<stop  offset="0.8632" style="stop-color:#FFA215"/>
	<stop  offset="1" style="stop-color:#FF9517"/>
</linearGradient>
<path fill="url(#SVGID_13_)" d="M106.27,294.137H90.762c-10.402,0-18.832-8.434-18.832-18.832v-28.761
	c0-3.078,2.496-5.578,5.578-5.578h42.012c3.082,0,5.582,2.5,5.582,5.578v28.761C125.102,285.703,116.668,294.137,106.27,294.137z"/>
<linearGradient id="SVGID_14_" gradientUnits="userSpaceOnUse" x1="-379.103" y1="334.874" x2="-379.103" y2="371.68" gradientTransform="matrix(1 0 0 1 488 -99)">
	<stop  offset="0" style="stop-color:#FFD00D"/>
	<stop  offset="0.2378" style="stop-color:#FFCB0E"/>
	<stop  offset="0.5353" style="stop-color:#FFBB11"/>
	<stop  offset="0.8632" style="stop-color:#FFA215"/>
	<stop  offset="1" style="stop-color:#FF9517"/>
</linearGradient>
<path fill="url(#SVGID_14_)" d="M119.52,240.965h-13.574c3.082,0,5.578,2.496,5.578,5.578v28.762
	c0,10.397-8.43,18.827-18.832,18.827h13.578c10.398,0,18.832-8.43,18.832-18.827v-28.762
	C125.102,243.461,122.602,240.965,119.52,240.965z"/>
<linearGradient id="SVGID_15_" gradientUnits="userSpaceOnUse" x1="-374.7305" y1="377.6699" x2="-424.3174" y2="350.7082" gradientTransform="matrix(1 0 0 1 488 -99)">
	<stop  offset="0" style="stop-color:#FF9517;stop-opacity:0"/>
	<stop  offset="0.3074" style="stop-color:#EE8421;stop-opacity:0.3059"/>
	<stop  offset="0.6784" style="stop-color:#E07728;stop-opacity:0.6784"/>
	<stop  offset="1" style="stop-color:#DB722B"/>
</linearGradient>
<path fill="url(#SVGID_15_)" d="M106.27,294.137c10.313,0,18.68-8.297,18.816-18.578L99.598,250.07
	c-0.852-1.059-2.141-1.754-3.609-1.754h-9.656c-2.566,0-4.645,2.082-4.645,4.648v18.988c0,1.469,0.691,2.758,1.754,3.609
	l18.57,18.573L106.27,294.137L106.27,294.137z"/>
<linearGradient id="SVGID_16_" gradientUnits="userSpaceOnUse" x1="-403.6533" y1="353.4678" x2="-388.3816" y2="371.3789" gradientTransform="matrix(1 0 0 1 488 -99)">
	<stop  offset="0" style="stop-color:#FFD00D"/>
	<stop  offset="0.2378" style="stop-color:#FFCB0E"/>
	<stop  offset="0.5353" style="stop-color:#FFBB11"/>
	<stop  offset="0.8632" style="stop-color:#FFA215"/>
	<stop  offset="1" style="stop-color:#FF9517"/>
</linearGradient>
<path fill="url(#SVGID_16_)" d="M95.988,276.602h-9.656c-2.566,0-4.645-2.082-4.645-4.647v-18.988c0-2.565,2.078-4.647,4.645-4.647
	h9.656c2.566,0,4.648,2.082,4.648,4.647v18.988C100.637,274.52,98.555,276.602,95.988,276.602z"/>
<linearGradient id="SVGID_17_" gradientUnits="userSpaceOnUse" x1="-229.4077" y1="482.8838" x2="-229.4077" y2="531.2054" gradientTransform="matrix(1 0 0 1 488 -99)">
	<stop  offset="0" style="stop-color:#2A3D7C;stop-opacity:0"/>
	<stop  offset="0.3949" style="stop-color:#273A77;stop-opacity:0.3961"/>
	<stop  offset="0.8504" style="stop-color:#1E3069;stop-opacity:0.851"/>
	<stop  offset="1" style="stop-color:#1A2B63"/>
</linearGradient>
<path fill="url(#SVGID_17_)" d="M5.184,360.516v54.961c0,6.711,5.438,12.148,12.148,12.148h482.52
	c6.711,0,12.148-5.438,12.148-12.148v-54.961H5.184z"/>
<path fill="#FDC75B" stroke="#FAFAFA" stroke-width="3" stroke-miterlimit="10" d="M296.099,108.971
	c13.013,15.183,20.886,34.864,20.886,56.39c0,47.875-38.8,86.674-86.674,86.674c-20.884,0-40.083-7.391-55.024-19.761
	c-19.278-15.906-31.568-39.924-31.568-66.913c0-3.694,0.241-7.39,0.723-10.924c4.9-39.201,36.147-70.286,75.427-75.025
	c3.453-0.482,6.988-0.644,10.522-0.644C256.658,78.687,280.276,90.496,296.099,108.971z"/>
<path d="M274.732,160.461h-33.255v-33.979c0-4.418-3.615-8.033-8.033-8.033c-4.417,0-8.032,3.614-8.032,8.033v33.979h-33.979
	c-4.418,0-8.033,3.615-8.033,8.033c0,4.418,3.614,8.033,8.033,8.033h33.979v33.255c0,4.418,3.613,8.033,8.032,8.033
	c4.417,0,8.033-3.614,8.033-8.033v-33.255h33.255c4.418,0,8.034-3.614,8.034-8.033C282.765,164.076,279.15,160.461,274.732,160.461z
	"/>
</svg>
