<svg height="512pt" viewBox="0 0 512 512.001" width="512pt" xmlns="http://www.w3.org/2000/svg" xmlns:xlink="http://www.w3.org/1999/xlink"><linearGradient id="a" gradientUnits="userSpaceOnUse" x1="154.182338799" x2="376.5954351514" y1="154.1819391912" y2="376.5949351514"><stop offset="0" stop-color="#ffd00d"/><stop offset=".2378" stop-color="#ffcb0e"/><stop offset=".5353" stop-color="#fb1"/><stop offset=".8632" stop-color="#ffa215"/><stop offset="1" stop-color="#ff9517"/></linearGradient><linearGradient id="b"><stop offset="0" stop-color="#ff9517" stop-opacity="0"/><stop offset=".3074" stop-color="#ee8421" stop-opacity=".305882"/><stop offset=".6784" stop-color="#e07728" stop-opacity=".678431"/><stop offset="1" stop-color="#db722b"/></linearGradient><linearGradient id="c" gradientUnits="userSpaceOnUse" x1="337.8771753774" x2="224.1188582616" xlink:href="#b" y1="280.834128514" y2="214.7808797396"/><linearGradient id="d" gradientUnits="userSpaceOnUse" x1="307.3023292986" x2="212.366144192" xlink:href="#b" y1="372.9491924084" y2="272.632085774"/><linearGradient id="e"><stop offset="0" stop-color="#ff4974"/><stop offset=".4073" stop-color="#fe4772"/><stop offset=".5963" stop-color="#fb3f6d"/><stop offset=".7403" stop-color="#f73363"/><stop offset=".8615" stop-color="#f02055"/><stop offset=".9673" stop-color="#e70944"/><stop offset="1" stop-color="#e4003d"/></linearGradient><radialGradient id="f" cx="173.9167347296" cy="104.1060086546" gradientUnits="userSpaceOnUse" r="407.5552872782" xlink:href="#e"/><radialGradient id="g" cx="3387.6316" cy="2273.1401" gradientTransform="matrix(-1.003922 0 0 -1.003922 3716.518147 2648.345098)" gradientUnits="userSpaceOnUse" r="294.7711" xlink:href="#e"/><linearGradient id="h"><stop offset="0" stop-color="#445ea0"/><stop offset=".3216" stop-color="#415a9b"/><stop offset=".6926" stop-color="#364d8d"/><stop offset="1" stop-color="#2a3d7c"/></linearGradient><linearGradient id="i" gradientUnits="userSpaceOnUse" x1="114.8730701436" x2="397.1281498564" xlink:href="#h" y1="256.00011" y2="256.00011"/><linearGradient id="j" gradientUnits="userSpaceOnUse" x1="248.471195" x2="263.530025" xlink:href="#h" y1="121.350577633" y2="121.350577633"/><linearGradient id="k" gradientUnits="userSpaceOnUse" x1="248.471195" x2="263.530025" xlink:href="#h" y1="390.649642367" y2="390.649642367"/><linearGradient id="l" gradientTransform="matrix(0 1.003922 -1.003922 0 512.0005 0)" gradientUnits="userSpaceOnUse" x1="247.5" x2="262.5" xlink:href="#h" y1="120.8765" y2="120.8765"/><linearGradient id="m" gradientTransform="matrix(0 1.003922 -1.003922 0 512.0005 0)" gradientUnits="userSpaceOnUse" x1="247.5" x2="262.5" xlink:href="#h" y1="389.1235" y2="389.1235"/><linearGradient id="n"><stop offset="0" stop-color="#fffcf8"/><stop offset=".1875" stop-color="#faf8f6"/><stop offset=".4041" stop-color="#eceef2"/><stop offset=".6353" stop-color="#d5dcea"/><stop offset=".875" stop-color="#b5c4df"/><stop offset="1" stop-color="#a1b5d8"/></linearGradient><linearGradient id="o" gradientUnits="userSpaceOnUse" x1="256.00061" x2="256.00061" xlink:href="#n" y1="180.9461985346" y2="274.0720110986"/><linearGradient id="p" gradientUnits="userSpaceOnUse" x1="256.00061" x2="256.00061" xlink:href="#n" y1="292.9606027442" y2="372.5601726334"/><linearGradient id="q" gradientUnits="userSpaceOnUse" x1="298.4833764896" x2="237.8178759126" y1="325.9938530166" y2="304.4673559238"><stop offset="0" stop-color="#a1b5d8" stop-opacity="0"/><stop offset=".2564" stop-color="#98abca" stop-opacity=".254902"/><stop offset=".7358" stop-color="#8292a6" stop-opacity=".737255"/><stop offset="1" stop-color="#748290"/></linearGradient><linearGradient id="r"><stop offset="0" stop-color="#ff4974"/><stop offset=".3262" stop-color="#fe4672"/><stop offset=".5324" stop-color="#fb3e6c"/><stop offset=".7054" stop-color="#f52f60"/><stop offset=".8591" stop-color="#ee1a51"/><stop offset="1" stop-color="#e4003d"/></linearGradient><linearGradient id="s" gradientUnits="userSpaceOnUse" x1="243.151914283" x2="268.849305717" xlink:href="#r" y1="318.542944717" y2="318.542944717"/><linearGradient id="t" gradientUnits="userSpaceOnUse" x1="270.902828168" x2="248.6129487864" y1="301.4000730372" y2="279.1101936556"><stop offset="0" stop-color="#e4003d" stop-opacity="0"/><stop offset=".2234" stop-color="#cd1845" stop-opacity=".223529"/><stop offset=".5034" stop-color="#b82e4d" stop-opacity=".501961"/><stop offset=".7682" stop-color="#ab3c51" stop-opacity=".768627"/><stop offset="1" stop-color="#a64153"/></linearGradient><linearGradient id="u" gradientUnits="userSpaceOnUse" x1="241.1876404978" x2="270.8098649908" xlink:href="#r" y1="277.6502902832" y2="277.6502902832"/><path d="m427.515625 256c0 94.722656-76.789063 171.515625-171.515625 171.515625-94.722656 0-171.511719-76.792969-171.511719-171.515625s76.789063-171.515625 171.511719-171.515625c94.726562 0 171.515625 76.792969 171.515625 171.515625zm0 0" fill="url(#a)"/><path d="m377.675781 358c-6.867187 8.179688-14.535156 15.648438-22.898437 22.316406l-135.128906-135.128906c-10.652344-9.816406-17.316407-23.882812-17.316407-39.492188 0-29.636718 24.023438-53.679687 53.660157-53.679687 15.621093 0 29.675781 6.675781 39.492187 17.335937l116.476563 116.476563c-5.152344 27.132813-17.21875 51.820313-34.285157 72.171875zm0 0" fill="url(#c)"/><path d="m377.675781 358c-6.867187 8.179688-14.535156 15.648438-22.898437 22.316406-24.507813 19.484375-54.90625 31.882813-88.09375 34.09375l-85.9375-85.875c6.777344-30.582031 31.722656-54.304687 62.925781-59.324218 4.035156-.632813 8.140625-.972657 12.320313-.972657 21.292968 0 40.566406 8.644531 54.519531 22.578125zm0 0" fill="url(#d)"/><path d="m489.460938 184.375h-6.125c-20.085938 0-30.136719-24.273438-15.941407-38.484375l4.328125-4.324219c8.808594-8.808594 8.808594-23.074218 0-31.882812l-69.410156-69.40625c-8.804688-8.808594-23.070312-8.808594-31.878906 0l-4.324219 4.324218c-14.210937 14.199219-38.484375 4.148438-38.484375-15.9375v-6.125c.003906-12.445312-10.09375-22.539062-22.539062-22.539062h-98.171876c-12.445312 0-22.539062 10.09375-22.539062 22.542969v6.121093c0 20.089844-24.273438 30.136719-38.484375 15.941407l-4.324219-4.328125c-8.808594-8.804688-23.074218-8.804688-31.878906 0l-69.410156 69.410156c-8.808594 8.804688-8.808594 23.070312 0 31.878906l4.328125 4.328125c14.195312 14.207031 4.144531 38.480469-15.941407 38.480469h-6.125c-12.445312 0-22.539062 10.09375-22.539062 22.539062v98.171876c0 12.445312 10.09375 22.539062 22.542969 22.539062h6.121093c20.089844 0 30.140626 24.273438 15.941407 38.484375l-4.328125 4.324219c-8.804688 8.808594-8.804688 23.074218 0 31.882812l69.410156 69.40625c8.808594 8.808594 23.074219 8.808594 31.878906 0l4.328125-4.324218c14.207031-14.199219 38.480469-4.152344 38.480469 15.9375v6.125c0 12.445312 10.09375 22.539062 22.539062 22.539062h98.171876c9.328124 0 17.3125-5.671875 20.734374-13.746094.023438-.054687.042969-.109375.066407-.164062.164062-.394532.324219-.789063.464843-1.195313.171876-.480469.328126-.96875.464844-1.464843.066406-.234376.121094-.476563.191406-.722657.121094-.476562.21875-.964843.296876-1.453125.042968-.253906.078124-.5.113281-.742187.066406-.457031.109375-.910157.144531-1.375.019531-.167969.03125-.355469.03125-.535157.023438-.375.035156-.761718.035156-1.140624v-6.121094c0-20.089844 24.269532-30.140625 38.480469-15.941406l4.324219 4.324218c8.808594 8.808594 23.074218 8.808594 31.882812 0l69.40625-69.40625c8.808594-8.808594 8.808594-23.074218 0-31.882812l-4.324218-4.324219c-14.199219-14.210937-4.148438-38.480469 15.9375-38.480469h6.125c.378906 0 .765624-.011718 1.140624-.035156.179688 0 .367188-.011719.535157-.03125.464843-.035156.917969-.078125 1.375-.144531.242187-.035157.488281-.066407.742187-.113281.488282-.078126.976563-.175782 1.453125-.296876.242188-.066406.488281-.125.722657-.191406.496093-.136718.984374-.292968 1.464843-.464844.40625-.140624.800781-.300781 1.195313-.464843.054687-.023438.109375-.042969.164062-.066407 8.074219-3.425781 13.746094-11.410156 13.746094-20.734374v-98.171876c0-12.445312-10.09375-22.539062-22.539062-22.539062zm-392.214844 71.625c0-87.6875 71.066406-158.757812 158.753906-158.757812s158.757812 71.070312 158.757812 158.757812-71.070312 158.757812-158.757812 158.757812-158.753906-71.070312-158.753906-158.757812zm0 0" fill="url(#f)"/><path d="m256 441.882812c102.664062 0 185.882812-83.21875 185.882812-185.882812s-83.21875-185.882812-185.882812-185.882812c-3.148438 0-6.289062.078124-9.394531.234374-95.1875 4.734376-171.519531 81.066407-176.253907 176.253907-.15625 3.105469-.234374 6.246093-.234374 9.394531 0 102.664062 83.21875 185.882812 185.882812 185.882812zm0-27.125c-87.6875 0-158.753906-71.070312-158.753906-158.757812s71.066406-158.757812 158.753906-158.757812 158.757812 71.070312 158.757812 158.757812-71.070312 158.757812-158.757812 158.757812zm0 0" fill="url(#g)"/><path d="m256 397.128906c-77.816406 0-141.125-63.3125-141.125-141.128906s63.308594-141.128906 141.125-141.128906c77.820312 0 141.128906 63.3125 141.128906 141.128906s-63.308594 141.128906-141.128906 141.128906zm0-267.199218c-69.515625 0-126.066406 56.554687-126.066406 126.070312s56.550781 126.070312 126.066406 126.070312 126.070312-56.554687 126.070312-126.070312-56.554687-126.070312-126.070312-126.070312zm0 0" fill="url(#i)"/><path d="m248.472656 109.425781h15.058594v23.847657h-15.058594zm0 0" fill="url(#j)"/><path d="m248.472656 378.726562h15.058594v23.847657h-15.058594zm0 0" fill="url(#k)"/><path d="m378.726562 248.46875h23.847657v15.0625h-23.847657zm0 0" fill="url(#l)"/><path d="m109.429688 248.46875h23.84375v15.0625h-23.84375zm0 0" fill="url(#m)"/><path d="m309.675781 205.6875c0 29.644531-24.03125 53.671875-53.675781 53.671875s-53.671875-24.027344-53.671875-53.671875 24.027344-53.671875 53.671875-53.671875 53.675781 24.027344 53.675781 53.671875zm0 0" fill="url(#o)"/><path d="m331.25 328.53125c-19.164062 19.425781-45.804688 31.453125-75.25 31.453125s-56.085938-12.027344-75.25-31.453125c7.65625-34.507812 38.433594-60.300781 75.25-60.300781 21.292969 0 40.5625 8.636719 54.507812 22.582031 10.175782 10.164062 17.523438 23.171875 20.742188 37.71875zm0 0" fill="url(#p)"/><path d="m331.25 328.53125c-.296875.3125-.613281.613281-.925781.914062-18.121094 17.9375-42.714844 29.339844-69.953125 30.4375l-13.609375-13.632812-.207031-.171875c-2.402344-1.980469-3.652344-5.023437-3.367188-8.128906l4.738281-49.234375c.089844-.863282.457031-1.632813 1.003907-2.246094-.050782-.0625-.089844-.128906-.144532-.207031-.769531-.496094-1.421875-1.203125-1.8125-2.074219l-5.453125-12.082031c-.378906-.820313-.417969-1.695313-.195312-2.476563.691406-.132812 1.382812-.261718 2.085937-.367187.496094-.089844 1.007813-.167969 1.503906-.234375.390626-.066406.792969-.117188 1.199219-.171875.457031-.050781.914063-.117188 1.382813-.15625.558594-.0625 1.121094-.117188 1.683594-.167969.546874-.050781 1.109374-.089844 1.667968-.128906.574219-.042969 1.148438-.066406 1.722656-.09375 1.136719-.050782 2.28125-.078125 3.429688-.078125 2.101562 0 4.191406.078125 6.25.25.550781.050781 1.097656.089843 1.632812.15625 1.109376.101562 2.21875.246093 3.3125.402343.535157.078126 1.082032.171876 1.617188.261719.628906.089844 1.253906.210938 1.867188.339844 15.40625 2.960937 29.171874 10.515625 39.828124 21.175781 10.175782 10.160156 17.519532 23.167969 20.742188 37.714844zm0 0" fill="url(#q)"/><path d="m265.445312 346.082031-5.363281 4.441407c-2.367187 1.957031-5.792969 1.957031-8.160156 0l-5.367187-4.441407c-2.398438-1.984375-3.65625-5.027343-3.359376-8.128906l4.738282-49.234375c.195312-2.058594 1.921875-3.625 3.984375-3.625h8.167969c2.0625 0 3.789062 1.566406 3.988281 3.625l4.734375 49.234375c.296875 3.101563-.960938 6.144531-3.363282 8.128906zm0 0" fill="url(#s)"/><path d="m264.070312 288.71875c-.195312-2.058594-1.921874-3.625-3.988281-3.625h-8.164062c-1.21875 0-2.308594.554688-3.046875 1.421875l16.582031 16.582031zm0 0" fill="url(#t)"/><path d="m270.480469 272.105469-5.453125 12.082031c-.792969 1.761719-2.542969 2.882812-4.484375 2.882812h-9.082031c-1.945313 0-3.691407-1.121093-4.488282-2.882812l-5.453125-12.082031c-.378906-.820313-.417969-1.695313-.195312-2.476563 4.75-.914062 9.65625-1.398437 14.675781-1.398437 5.023438 0 9.929688.484375 14.679688 1.410156.21875.78125.167968 1.644531-.199219 2.464844zm0 0" fill="url(#u)"/></svg>