<?xml version="1.0" encoding="utf-8"?>
<!-- Generator: Adobe Illustrator 16.0.0, SVG Export Plug-In . SVG Version: 6.00 Build 0)  -->
<!DOCTYPE svg PUBLIC "-//W3C//DTD SVG 1.1//EN" "http://www.w3.org/Graphics/SVG/1.1/DTD/svg11.dtd">
<svg version="1.1" id="Capa_1" xmlns="http://www.w3.org/2000/svg" xmlns:xlink="http://www.w3.org/1999/xlink" x="0px" y="0px"
	 width="800px" height="648.375px" viewBox="240 75.813 800 648.375" enable-background="new 240 75.813 800 648.375"
	 xml:space="preserve">
<g>
	<rect x="320.279" y="75.813" fill="#444444" width="164.024" height="59.529"/>
	<path fill="#444444" d="M630.695,438.872c0,57.063-46.2,103.263-103.193,103.263c-57.063,0-103.239-46.2-103.239-103.263
		c0-56.924,46.153-103.193,103.239-103.193C584.495,335.702,630.695,381.948,630.695,438.872z"/>
	<path fill="#444444" d="M982.983,153.649h-685.92c-31.428,0-57.063,25.473-57.063,57.04v456.388
		c0,31.614,25.635,57.11,57.063,57.11h685.92c31.521,0,57.017-25.496,57.017-57.11V210.689
		C1040.023,179.122,1014.527,153.649,982.983,153.649z M883.629,199.942h69.462c20.681,0,37.43,16.772,37.43,37.476
		c0,20.634-16.772,37.383-37.43,37.383h-69.462c-20.727,0-37.476-16.772-37.476-37.383
		C846.153,216.714,862.902,199.942,883.629,199.942z M529.782,655.33c-119.547,0-216.412-96.865-216.412-216.412
		c0-119.5,96.865-216.412,216.412-216.412c119.546,0,216.411,96.912,216.411,216.412C746.193,558.465,649.328,655.33,529.782,655.33
		z M997.127,615.714h-80.604v82.233h-70.207v-82.233h-81.698v-70.253h81.699v-79.977h70.206v79.977h80.604V615.714z"/>
</g>
</svg>
