<?xml version="1.0" encoding="utf-8"?>
<!-- Generator: Adobe Illustrator 16.0.0, SVG Export Plug-In . SVG Version: 6.00 Build 0)  -->
<!DOCTYPE svg PUBLIC "-//W3C//DTD SVG 1.1//EN" "http://www.w3.org/Graphics/SVG/1.1/DTD/svg11.dtd">
<svg version="1.1" xmlns="http://www.w3.org/2000/svg" xmlns:xlink="http://www.w3.org/1999/xlink" x="0px" y="0px" width="97px"
	 height="65.879px" viewBox="0 0 97 65.879" enable-background="new 0 0 97 65.879" xml:space="preserve">
<g id="Layer_1" display="none">
	<path display="inline" fill="#F4F4F4" d="M-3.282-86.427c-55.071,0-99.718,44.642-99.718,99.72
		c0,55.07,44.647,99.714,99.718,99.714c55.074,0,99.718-44.644,99.718-99.714C96.436-41.786,51.792-86.427-3.282-86.427z
		 M-3.282,89.416c-42.042,0-76.123-34.085-76.123-76.123c0-42.046,34.081-76.123,76.123-76.123s76.123,34.077,76.123,76.123
		C72.841,55.331,38.76,89.416-3.282,89.416z"/>
	<path display="inline" fill="#2A2967" d="M-3.282,89.416c-42.042,0-76.123-34.085-76.123-76.123H-103
		c0,55.07,44.647,99.714,99.718,99.714c55.074,0,99.718-44.644,99.718-99.714H72.841C72.841,55.331,38.76,89.416-3.282,89.416z"/>
</g>
<g id="Layer_3" display="none">
	<path display="inline" fill="#F4F4F4" d="M-3.158-86.427C-58.297-86.427-103-41.726-103,13.415
		c0,55.142,44.703,99.843,99.842,99.843c55.142,0,99.842-44.701,99.842-99.843C96.685-41.726,51.984-86.427-3.158-86.427z
		 M-3.158,89.633c-42.095,0-76.218-34.124-76.218-76.218c0-42.093,34.123-76.218,76.218-76.218
		c42.094,0,76.218,34.125,76.218,76.218C73.061,55.509,38.937,89.633-3.158,89.633z"/>
	<path display="inline" fill="#2A2967" d="M72.065,25.665c-5.857,36.27-37.302,63.969-75.223,63.969
		c-42.095,0-76.218-34.124-76.218-76.218c0-42.093,34.123-76.218,76.218-76.218v-23.625C-58.297-86.427-103-41.726-103,13.415
		c0,55.142,44.703,99.843,99.842,99.843c50.991,0,93.024-38.233,99.068-87.594H72.065z"/>
</g>
<g id="Layer_2" display="none">
	<path display="inline" fill="#F4F4F4" d="M-3.155-86.427c-55.14,0-99.845,44.7-99.845,99.837c0,55.147,44.705,99.846,99.845,99.846
		c55.144,0,99.841-44.699,99.841-99.846C96.686-41.728,51.988-86.427-3.155-86.427z M-3.155,89.636
		c-42.095,0-76.218-34.128-76.218-76.226c0-42.092,34.123-76.217,76.218-76.217c42.095,0,76.219,34.125,76.219,76.217
		C73.063,55.508,38.939,89.636-3.155,89.636z"/>
	<path display="inline" fill="#2A2967" d="M-3.155,89.636c-42.095,0-76.218-34.128-76.218-76.226
		c0-42.092,34.123-76.217,76.218-76.217c29.478,0,55.027,16.747,67.707,41.235h25.816C76.19-59.454,39.675-86.427-3.155-86.427
		c-55.14,0-99.845,44.7-99.845,99.837c0,55.147,44.705,99.846,99.845,99.846V89.636z"/>
</g>
<g id="Layer_4" display="none">
	<linearGradient id="SVGID_1_" gradientUnits="userSpaceOnUse" x1="0" y1="40.8989" x2="97" y2="40.8989">
		<stop  offset="0" style="stop-color:#96DAF8"/>
		<stop  offset="1" style="stop-color:#35A6DE"/>
	</linearGradient>
	<polygon display="inline" fill="url(#SVGID_1_)" points="0,61.834 0,51.724 15.24,34.334 27.201,47.984 35.715,38.27 
		39.051,42.076 61.975,15.918 82.946,39.85 97,23.815 97,65.879 0,65.879 	"/>
</g>
<g id="Layer_4_copy" display="none">
	<linearGradient id="SVGID_2_" gradientUnits="userSpaceOnUse" x1="0" y1="40.8989" x2="97" y2="40.8989">
		<stop  offset="0" style="stop-color:#FEF04E"/>
		<stop  offset="0.4301" style="stop-color:#FCB557"/>
		<stop  offset="0.9624" style="stop-color:#F7911E"/>
	</linearGradient>
	<polygon display="inline" fill="url(#SVGID_2_)" points="0,61.834 0,51.724 15.24,34.334 27.201,47.984 35.715,38.27 
		39.051,42.076 61.975,15.918 82.946,39.85 97,23.815 97,65.879 0,65.879 	"/>
</g>
<g id="Layer_4_copy_2">
	<linearGradient id="SVGID_3_" gradientUnits="userSpaceOnUse" x1="0" y1="40.8989" x2="97" y2="40.8989">
		<stop  offset="0" style="stop-color:#91CE9F"/>
		<stop  offset="0.1782" style="stop-color:#7BC6A0"/>
		<stop  offset="0.4974" style="stop-color:#55BCA1"/>
		<stop  offset="0.7701" style="stop-color:#32B6A2"/>
		<stop  offset="0.9624" style="stop-color:#1DB4A3"/>
	</linearGradient>
	<polygon fill="url(#SVGID_3_)" points="0,61.834 0,51.724 15.24,34.334 27.201,47.984 35.715,38.27 39.051,42.076 61.975,15.918 
		82.946,39.85 97,23.815 97,65.879 0,65.879 	"/>
</g>
</svg>
