<?xml version="1.0" encoding="utf-8"?>
<!-- Generator: Adobe Illustrator 16.0.0, SVG Export Plug-In . SVG Version: 6.00 Build 0)  -->
<!DOCTYPE svg PUBLIC "-//W3C//DTD SVG 1.1//EN" "http://www.w3.org/Graphics/SVG/1.1/DTD/svg11.dtd">
<svg version="1.1" id="Capa_1" xmlns="http://www.w3.org/2000/svg" xmlns:xlink="http://www.w3.org/1999/xlink" x="0px" y="0px"
	 width="512px" height="512px" viewBox="0 0 512 512" enable-background="new 0 0 512 512" xml:space="preserve">
<path fill="#3972E5" d="M512,223.172v271.26c0,4.216-1.736,8.041-4.548,10.771c-2.711,2.65-6.415,4.287-10.511,4.287H15.059
	c-4.096,0-7.8-1.637-10.511-4.287C1.737,502.473,0,498.647,0,494.432v-271.26H512z"/>
<path fill="#1251E5" d="M512,223.172v271.26c0,4.216-1.736,8.041-4.548,10.771c-2.711,2.65-6.415,4.287-10.511,4.287H256V223.172
	H512z"/>
<path fill="#6092E5" d="M507.452,505.203c-2.711,2.65-6.415,4.287-10.511,4.287H15.059c-4.096,0-7.8-1.637-10.511-4.287L256,267.906
	L507.452,505.203z"/>
<path fill="#3972E5" d="M507.452,505.203c-2.711,2.65-6.415,4.287-10.511,4.287H256V267.906L507.452,505.203z"/>
<path fill="#FFD675" d="M512,223.172l-79.49,52.414l-0.051,0.051L264.293,386.54c-2.51,1.656-5.402,2.479-8.293,2.479
	c-2.891,0-5.783-0.823-8.292-2.479L79.511,275.617l-0.02-0.031L0,223.172L246.041,6.265c2.851-2.51,6.405-3.755,9.959-3.755
	s7.107,1.245,9.959,3.755L512,223.172z"/>
<path fill="#FFBB4F" d="M512,223.172l-79.49,52.414l-0.051,0.051L264.293,386.54c-2.51,1.656-5.402,2.479-8.293,2.479V2.51
	c3.554,0,7.107,1.245,9.959,3.755L512,223.172z"/>
<path fill="#DCF2EA" d="M432.51,86.146v189.439l-0.051,0.051L264.293,386.54c-2.51,1.656-5.402,2.479-8.293,2.479
	c-2.891,0-5.783-0.823-8.292-2.479L79.511,275.617l-0.02-0.031V86.146c0-8.313,6.736-15.059,15.059-15.059h322.902
	C425.773,71.088,432.51,77.834,432.51,86.146L432.51,86.146z"/>
<path fill="#B5E5D3" d="M432.51,86.146v189.439l-0.051,0.051L264.293,386.54c-2.51,1.656-5.402,2.479-8.293,2.479V71.088h161.451
	C425.773,71.088,432.51,77.834,432.51,86.146z"/>
<path fill="#FF3369" d="M305.143,172.464c0.361,15.259-6.205,29.555-18.011,39.223c-10.21,8.373-16.073,20.419-16.073,33.069v0.572
	c0,8.313-6.746,15.059-15.059,15.059s-15.059-6.746-15.059-15.059v-0.572c0-15.982,5.351-31.332,15.059-43.952
	c3.474-4.527,7.5-8.694,12.047-12.418c4.578-3.745,7.128-9.296,6.987-15.209c-0.23-9.999-8.563-18.332-18.563-18.563
	c-0.161,0-0.311-0.01-0.472-0.01c-10.551,0.01-19.044,8.513-19.044,19.044c0,8.313-6.736,15.059-15.059,15.059
	c-8.313,0-15.059-6.746-15.059-15.059c0-26.985,21.805-49.152,49.162-49.162c0.392,0,0.783,0,1.175,0.01
	C283.457,125.119,304.529,146.191,305.143,172.464z"/>
<path fill="#FF3369" d="M271.059,289.722v10.45c0,8.313-6.746,15.06-15.059,15.06s-15.059-6.746-15.059-15.06v-10.45
	c0-8.313,6.746-15.059,15.059-15.059S271.059,281.409,271.059,289.722z"/>
<g>
	<path fill="#DB2556" d="M271.059,289.722v10.45c0,8.313-6.746,15.06-15.059,15.06v-40.568
		C264.313,274.663,271.059,281.409,271.059,289.722z"/>
	<path fill="#DB2556" d="M305.143,172.464c0.361,15.259-6.205,29.555-18.011,39.223c-10.21,8.373-16.073,20.419-16.073,33.069v0.572
		c0,8.313-6.746,15.059-15.059,15.059v-59.583c3.474-4.527,7.5-8.694,12.047-12.418c4.578-3.745,7.128-9.296,6.987-15.209
		c-0.23-9.999-8.563-18.332-18.563-18.563c-0.161,0-0.311-0.01-0.472-0.01v-30.118c0.392,0,0.783,0,1.175,0.01
		C283.457,125.119,304.529,146.191,305.143,172.464z"/>
</g>
</svg>
