<?xml version="1.0" encoding="utf-8"?>
<!-- Generator: Adobe Illustrator 16.0.0, SVG Export Plug-In . SVG Version: 6.00 Build 0)  -->
<!DOCTYPE svg PUBLIC "-//W3C//DTD SVG 1.1//EN" "http://www.w3.org/Graphics/SVG/1.1/DTD/svg11.dtd">
<svg version="1.1" id="Layer_1" xmlns="http://www.w3.org/2000/svg" xmlns:xlink="http://www.w3.org/1999/xlink" x="0px" y="0px"
	 width="768px" height="1024px" viewBox="0 0 768 1024" enable-background="new 0 0 768 1024" xml:space="preserve">
<g>
	<defs>
		<rect id="SVGID_1_" width="769.348" height="1024"/>
	</defs>
	<clipPath id="SVGID_2_">
		<use xlink:href="#SVGID_1_"  overflow="visible"/>
	</clipPath>
	<g clip-path="url(#SVGID_2_)">
		<g>
			<g>
				<defs>
					<rect id="SVGID_3_" x="-193.05" width="1155.218" height="1362.379"/>
				</defs>
				<clipPath id="SVGID_4_">
					<use xlink:href="#SVGID_3_"  overflow="visible"/>
				</clipPath>
				<g clip-path="url(#SVGID_4_)">
					<g>
						<defs>
							<rect id="SVGID_5_" x="111.195" y="-1375.378" width="1416.9" height="1754.018"/>
						</defs>
						<clipPath id="SVGID_6_">
							<use xlink:href="#SVGID_5_"  overflow="visible"/>
						</clipPath>
						<g clip-path="url(#SVGID_6_)">
							<path fill="#91FBEE" d="M211.998,475.133c-6.648-35.641-13.453-71.204-21.088-106.23
								c-8.324-38.202-17.683-75.682-28.37-112.013c-9.178-31.21-18.762-63.881-32.65-89.508
								c-29.112-53.723-70.701-44.452-107.415-24.601c-2.44,1.318-3.31,5.09-3.042,8.582c-27.167,17.1-46.269,59.956-54.761,108.06
								c-11.872,67.241-3.365,139.269,5.106,206.041c4.647,36.633,9.576,73.378,11.343,110.878
								c1.809,38.395-0.575,76.599-1.816,114.914c-1.929,59.514,0.737,121.165,24.289,167.609
								c21.068,41.542,52.188,47.245,78.697,18.066c14.293-15.736,26.074-37.438,37.579-58.898
								c15.434-28.792,30.858-57.597,46.287-86.396c13.463-25.131,27.771-49.472,40.167-76.299
								c10.621-22.986,18.673-48.755,19.157-79.047C226.032,541.584,218.038,507.521,211.998,475.133z"/>
						</g>
						<g clip-path="url(#SVGID_6_)">
							<path fill="#FFD8EC" d="M1077.154-33.092c-23.771-18.417-50.435-7.41-74.691-21.474
								c-50.502-29.277-61.574-140.063-84.217-212.228c-11.088-35.34-26.072-66.382-47.277-83.199
								c-18.018-14.288-39.61-17.332-57.016,1.441c-17.701,19.095-26.129,53.807-33.155,86.675
								c-9.261,43.323-19.65,81.612-36.851,117.131c-32.469,67.046-76.14,119.411-98.334,200.717
								c-16.912,61.958-17.001,145.016,13.521,194.707c6.1,9.932,13.126,17.274,20.821,22.44
								c17.1,63.634,55.119,107.249,95.424,105.466c40.583-1.794,73.639-48.054,102.9-92.945
								c16.108-24.71,31.885-50.357,49.494-71.761c19.961-24.264,41.136-38.829,65.021-46.084
								c41.727-12.678,104.376-22.426,111.503-116.708C1107.106,13.932,1096.474-18.126,1077.154-33.092z"/>
							<path fill="#FFF6D5" d="M447.819,6.493c-25.673-7.345-51.854-16.824-74.107-41.911
								c-24.682-27.829-36.807-72.448-38.399-123.356c-3.018-96.505,24.412-196.196-4.015-287.584
								c-23.225-74.662-72.051-112.932-118.937-93.191c-10.632,4.476-20.706,11.939-30.072,21.783
								c-1.56-4.248-5.399-5.832-7.061-0.072c-14.717,51.013-29.434,102.024-44.15,153.039
								c-11.923,41.326-26.369,87.073-16.73,134.459c18.065,88.807,83.997,102.603,102.843,190.787
								c17.926,83.876-0.822,178.236,18.574,262.002c17.418,75.228,59.991,124.934,103.959,140.894
								c55.868,20.282,117.63-3.968,169.454-42.414c22.96-17.033,44.566-41.537,58.371-79.031
								c12.831-34.85,17.186-78.047,8.062-117.142C554.804,35.609,494.943,19.979,447.819,6.493z"/>
						</g>
					</g>
				</g>
				<g clip-path="url(#SVGID_4_)">
					<g>
						<defs>
							<rect id="SVGID_7_" x="111.195" y="378.64" width="1416.9" height="1754.017"/>
						</defs>
						<clipPath id="SVGID_8_">
							<use xlink:href="#SVGID_7_"  overflow="visible"/>
						</clipPath>
						<g clip-path="url(#SVGID_8_)">
							<path fill="#FFD8EC" d="M670.993,1409.301c-4.845-23.639-5.755-47.684,2.828-69.047c8.179-20.36,21.233-31.994,34.315-39.633
								c25.658-14.981,52.516-21.639,76.02-46.83c19.373-20.765,36.122-53.975,39.926-94.568
								c4.056-43.266-8.032-82.727-22.355-116.122c-26.921-62.772-62.103-136.387-111.756-117.78
								c-22.932,8.594-43.131,32.032-63.445,51.537c-25.06,24.063-49.504,37.201-78.312,34.832
								c-49.348-4.06-107.743-40.311-151.217,19.757c-36.164,49.968-39.937,145.524-8.951,204.553
								c7.392,14.079,16.329,25.09,26.251,32.809c10.478,47.595,15.351,98.236,13.854,149.311
								c-1.511,51.503-13.16,98.021-17.14,148.509c-3.145,39.909,2.396,78.566,21.614,102.917
								c21.702,27.499,49.314,26.805,74.819,25.186c49.37-3.136,104.913-7.458,143.931-68.293
								c16.608-25.896,29.888-61.362,33.865-100.313c1.794-17.565,1.747-35.535-0.459-52.981
								C681.955,1450.786,675.375,1430.695,670.993,1409.301z"/>
							<path fill="#91FBEE" d="M441.338,534.225c0.303-1.044,0.616-2.051,0.928-3.07c-8.847,42.621-0.127,91.172,17.013,124.455
								c22.52,43.735,57.082,59.828,88.528,72.179c18.013,7.075,36.196,13.517,53.581,24.669
								c19.333,12.397,34.599,33.629,51.678,53.05c13.986,15.906,30.427,28.646,47.418,24.104
								c14.075-3.762,24.901-20.182,33.355-39.524c11.533-26.39,20.901-56.108,30.982-84.249
								c11.187-31.225,22.373-62.453,33.559-93.678c16.349-45.631,37.473-105.257,18.242-158.401
								c-14.015-38.735-42.552-54.502-67.403-53.495c-37.358,1.512-70.858,38.086-107.519,46.84
								c-43.474,10.381-86.984-13.961-130.452-3.583c-30.942,7.385-62.454,31.777-77.264,83.105
								C431.499,535.24,438.842,542.869,441.338,534.225z"/>
							<path fill="#A6F3F8" d="M212.268,964.11c9.094,20.91,23.387,34.915,38.392,38.272c26.547,5.942,52.286-20.063,69.701-53.661
								c21.267-41.028,33.686-94.271,47.312-143.682c14.32-51.93,31.224-104.166,39.53-160.41
								c6.679-45.225,6.28-93.301-8.002-133.911c-12.037-34.232-33.032-60.117-56.633-54.921
								c-24.604,5.419-43.534,40.651-53.052,79.261c-12.407,50.322-10.484,106.745-13.725,160.181
								c-1.847,30.434-5.492,61.641-14.24,88.402c-8.619,26.366-22.347,42.683-35.567,61.122
								c-19.096,26.635-39.238,78.441-18.66,118.166C208.866,965.904,210.798,965.768,212.268,964.11z"/>
							<path fill="#91FBEE" d="M211.998,475.133c-6.648-35.641-13.453-71.204-21.088-106.23
								c-8.324-38.202-17.683-75.682-28.37-112.013c-9.178-31.21-18.762-63.881-32.65-89.508
								c-29.112-53.723-70.701-44.452-107.415-24.601c-2.44,1.318-3.31,5.09-3.042,8.582c-27.167,17.1-46.269,59.956-54.761,108.06
								c-11.872,67.241-3.365,139.269,5.106,206.041c4.647,36.633,9.576,73.378,11.343,110.878
								c1.809,38.395-0.575,76.599-1.816,114.914c-1.929,59.514,0.737,121.165,24.289,167.609
								c21.068,41.542,52.188,47.245,78.697,18.066c14.293-15.736,26.074-37.438,37.579-58.898
								c15.434-28.792,30.858-57.597,46.287-86.396c13.463-25.131,27.771-49.472,40.167-76.299
								c10.621-22.986,18.673-48.755,19.157-79.047C226.032,541.584,218.038,507.521,211.998,475.133z"/>
						</g>
					</g>
				</g>
				<g clip-path="url(#SVGID_4_)">
					<g>
						<defs>
							<rect id="SVGID_9_" x="-1305.704" y="-1375.378" width="1416.899" height="1754.018"/>
						</defs>
						<clipPath id="SVGID_10_">
							<use xlink:href="#SVGID_9_"  overflow="visible"/>
						</clipPath>
						<g clip-path="url(#SVGID_10_)">
							<path fill="#91FBEE" d="M211.998,475.133c-6.648-35.641-13.453-71.204-21.088-106.23
								c-8.324-38.202-17.683-75.682-28.37-112.013c-9.178-31.21-18.762-63.881-32.65-89.508
								c-29.112-53.723-70.701-44.452-107.415-24.601c-2.44,1.318-3.31,5.09-3.042,8.582c-27.167,17.1-46.269,59.956-54.761,108.06
								c-11.872,67.241-3.365,139.269,5.106,206.041c4.647,36.633,9.576,73.378,11.343,110.878
								c1.809,38.395-0.575,76.599-1.816,114.914c-1.929,59.514,0.737,121.165,24.289,167.609
								c21.068,41.542,52.188,47.245,78.697,18.066c14.293-15.736,26.074-37.438,37.579-58.898
								c15.434-28.792,30.858-57.597,46.287-86.396c13.463-25.131,27.771-49.472,40.167-76.299
								c10.621-22.986,18.673-48.755,19.157-79.047C226.032,541.584,218.038,507.521,211.998,475.133z"/>
						</g>
						<g clip-path="url(#SVGID_10_)">
							<path fill="#FFD8EC" d="M68.908-700.628c-8.416-2.079-16.561,0.935-23.579,9.067c-0.506-0.962-1.237-1.658-2.23-1.877
								c-47.725-10.433-79.175,70.837-87.331,144.086c-10.355,93.004,4.468,208.89-34.688,285.589
								c-27.892,54.634-74.056,58.644-111.938,75.009c-18.361,7.933-36.915,18.86-52.119,39.343
								c-18.365,24.742-29.473,61.205-33.224,101.21c-9.266,98.821,23.105,194.549,45.342,281.063
								c8.605,33.482,16.214,86.658,42.346,83.616c24.007-2.794,35.944-42.877,39.279-80.482c2.29-25.829,1.496-52.292,4.554-77.941
								c2.881-24.17,10.014-44.821,19.951-61.976c19.53-33.718,45.889-50.286,69.865-71.402
								C-32.23,4.746-13.187-20.224,0.633-58.199c15.512-42.626,26.681-90.896,39.226-136.366
								c26.668-96.656,53.88-192.319,65.355-298.876C112.32-559.427,123.306-687.188,68.908-700.628z"/>
						</g>
					</g>
				</g>
				<g clip-path="url(#SVGID_4_)">
					<g>
						<defs>
							<rect id="SVGID_11_" x="-1305.704" y="378.64" width="1416.899" height="1754.017"/>
						</defs>
						<clipPath id="SVGID_12_">
							<use xlink:href="#SVGID_11_"  overflow="visible"/>
						</clipPath>
						<g clip-path="url(#SVGID_12_)">
							<path fill="#91FBEE" d="M211.998,475.133c-6.648-35.641-13.453-71.204-21.088-106.23
								c-8.324-38.202-17.683-75.682-28.37-112.013c-9.178-31.21-18.762-63.881-32.65-89.508
								c-29.112-53.723-70.701-44.452-107.415-24.601c-2.44,1.318-3.31,5.09-3.042,8.582c-27.167,17.1-46.269,59.956-54.761,108.06
								c-11.872,67.241-3.365,139.269,5.106,206.041c4.647,36.633,9.576,73.378,11.343,110.878
								c1.809,38.395-0.575,76.599-1.816,114.914c-1.929,59.514,0.737,121.165,24.289,167.609
								c21.068,41.542,52.188,47.245,78.697,18.066c14.293-15.736,26.074-37.438,37.579-58.898
								c15.434-28.792,30.858-57.597,46.287-86.396c13.463-25.131,27.771-49.472,40.167-76.299
								c10.621-22.986,18.673-48.755,19.157-79.047C226.032,541.584,218.038,507.521,211.998,475.133z"/>
						</g>
						<g clip-path="url(#SVGID_12_)">
						</g>
					</g>
				</g>
			</g>
		</g>
		<path fill="#00135B" d="M554.69,941.216c0.024-1.581-0.779-2.456-1.686-2.634c-0.226-0.103-0.471-0.169-0.752-0.162
			c-8.873,0.21-16.876,5.428-21.766,15.355c-0.059,0.118-0.071,0.24-0.106,0.357c-0.128,0.118-0.254,0.256-0.374,0.44
			c-1.171,1.813-1.766,4.196-2.48,6.372c-0.636,1.937-1.291,3.742-1.569,5.795c-0.863-0.42-1.845-0.15-2.35,1.314
			c-4.265,12.373-8.527,24.745-12.791,37.116c-3.895,11.301-8.606,22.654-11.437,34.524c-0.598-0.239-1.197-0.464-1.797-0.667
			c-0.987-0.333-1.805,0.479-2.125,1.523c-0.199,0.197-0.377,0.471-0.518,0.836c-4.071,10.538-8.674,20.976-12.049,31.947
			c-0.363,1.181,0.173,2.089,0.905,2.435c7.027,7.624,14.98,14.908,22.79,21.004c0.84,0.653,1.782,0.126,2.293-0.769
			c0.321-0.1,0.625-0.365,0.854-0.858c5.083-11.046,10.064-22.142,14.817-33.455c0.764-1.818-0.185-3.515-1.344-3.936
			c-0.126-0.229-0.271-0.445-0.459-0.639c-0.523-0.534-1.062-1.068-1.598-1.603c8.687-24.053,15.799-48.817,25.492-72.281
			c0.396-0.957,0.284-1.876-0.073-2.574c0.391-1.284,0.188-2.767-1.042-3.46c-0.039-0.022-0.078-0.044-0.115-0.063
			c2.034-4.997,3.671-10.368,5.396-15.52c0.145-0.431,0.203-0.853,0.2-1.255C554.041,955.357,554.595,947.416,554.69,941.216z
			 M507.722,1092.144c-6.588-6.828-13.844-13.448-21.087-18.991c4.165-9.14,7.553-19.093,11.208-28.595
			c7.618,5.36,15.104,10.139,22.119,17.015C515.729,1071.664,511.686,1081.866,507.722,1092.144z M518.331,1052.789
			c-4.813-4.505-10.085-8.693-15.551-11.523c4.961-10.793,8.407-23.206,12.361-34.689c3.937-11.438,7.874-22.874,11.811-34.311
			c5.23,3.393,10.432,6.804,15.728,10.038C533.485,1004.722,523.926,1028.28,518.331,1052.789z M547.165,958.781
			c-1.797,5.371-3.819,10.807-5.303,16.393c-4.305-2.353-8.629-4.61-12.96-6.886c0.918-1.542,1.49-3.326,2.137-5.116
			c0.713-1.972,1.723-4.099,1.97-6.272c0.036-0.306,0.02-0.615-0.029-0.915c4.653-6.646,10.671-11.017,17.429-11.729
			c-0.139,2.228-0.387,4.43-0.786,6.63c-0.401,2.21-1.016,4.331-1.375,6.538C547.812,957.6,547.421,958.021,547.165,958.781z"/>
		<path fill="#00135B" d="M562.589,770.271c0.58-1.145,1.166-2.29,1.736-3.441c1.681,1.406,3.416,2.716,5.271,3.899
			c2.978,1.9,5.59-4.045,2.598-5.914c-4.468-2.791-8.881-6.095-13.023-9.663c-0.26-0.224-0.524-0.335-0.786-0.372
			c-0.782-0.872-1.917-1.078-2.781,0.249c-0.672,1.029-1.32,2.086-1.976,3.134c-5.219-5.614-10.828-10.402-15.729-16.637
			c-0.851-1.082-2.107,0.59-1.29,1.719c2.706,3.739,5.686,7.701,8.899,11.177c-3.014-2.689-6.109-5.247-9.047-7.957
			c-0.987-0.913-1.899,1.219-0.937,2.134c2.739,2.604,5.436,5.449,8.185,8.176c-2.938-2.581-6.009-4.963-8.88-7.466
			c-0.925-0.804-1.706,1.1-0.851,1.938c4.835,4.738,9.627,10.441,15.002,14.058c0.045,0.032,0.092,0.035,0.139,0.055
			c-0.349,0.568-0.702,1.132-1.049,1.703c-4.214-5.798-9.974-10.162-14.898-14.828c-0.958-0.907-1.799,1.147-0.906,2.063
			c4.706,4.836,9.474,10.831,14.768,14.459c-0.21,0.349-0.425,0.693-0.636,1.04c-1.998-2.243-4.478-3.829-6.649-5.742
			c-2.885-2.541-5.645-5.297-8.293-8.263c-0.837-0.938-2.029,0.579-1.22,1.623c2.232,2.875,4.586,5.568,7.083,8.026
			c-2.58-2.112-5.212-4.124-7.744-6.189c-1.058-0.864-1.964,1.277-0.962,2.189c4.837,4.409,9.729,9.458,14.947,13.043
			c-0.211,0.354-0.427,0.699-0.638,1.053c-0.054-0.079-0.093-0.165-0.165-0.234c-4.705-4.479-9.624-8.682-14.589-12.631
			c-0.898-0.714-1.593,1.027-0.8,1.822c4.616,4.616,9.389,9.088,14.273,13.19c-0.45,0.771-0.921,1.521-1.369,2.298
			c-3.863-5.28-8.835-9.33-13.226-13.78c-0.745-0.754-1.742,0.946-1.01,1.741c2.67,2.894,5.28,6.119,8.023,9.052
			c-2.724-2.607-5.666-4.949-8.319-7.337c-0.931-0.836-1.706,1.096-0.861,1.959c4.089,4.19,8.365,9.429,13.041,12.423
			c-0.19,0.336-0.386,0.663-0.575,1.001c-0.078,0.137-0.145,0.271-0.22,0.407c-3.668-5.12-8.795-8.893-13.144-12.914
			c-0.759-0.7-1.733,0.951-0.996,1.719c4.182,4.359,8.416,9.803,13.188,12.951c0.009,0.005,0.018,0.005,0.027,0.01
			c-0.208,0.418-0.415,0.834-0.605,1.246c-3.996-4.981-8.839-9.073-13.266-13.331c-0.809-0.777-1.872,1.03-1.076,1.855
			c4.37,4.525,8.729,9.655,13.514,13.378c-0.245,0.6-0.474,1.196-0.684,1.791c-1.826-2.563-4.175-4.692-6.186-6.913
			c-2.182-2.411-4.327-4.96-6.695-7.041c-0.753-0.659-1.54,0.797-0.942,1.624c2.148,2.971,4.664,5.519,7.043,8.154
			c1.947,2.159,3.853,4.709,6.031,6.477c-0.146,0.495-0.285,0.989-0.413,1.487c-3.91-5.646-8.861-10.433-13.576-14.654
			c-0.971-0.869-1.799,1.157-0.901,2.053c4.807,4.803,9.184,10.251,13.877,15.203c-0.886,4.396-1.237,8.982-1.65,14.349
			c-0.023,0.057-0.053,0.101-0.073,0.16c-8.387,23.694-15.106,48.675-22.526,72.936c-7.855,25.686-15.693,51.38-23.519,77.082
			c-7.665,25.177-15.225,50.376-22.713,75.646c-7.61,25.688-16.302,51.176-22.957,77.321c-0.224,0.879,0.098,1.626,0.589,2.077
			c0.242,3.261,2.423,5.855,5.406,4.47c3.093-1.438,4.124-6.492,5.26-10.084c2.336-7.391,4.672-14.782,7.007-22.172
			c9.512-30.09,19.021-60.181,28.531-90.271c18.683-59.109,37.65-118.057,56.376-177.144c1.869,0.464,3.811,0.289,5.771,0.295
			c3.254,0.011,6.502-0.005,9.754-0.093c3.321-0.089,3.33-6.989,0-6.876c-0.428,0.016-0.856,0.041-1.284,0.057
			c-4.554-2.427-8.746-5.565-12.275-10.2c0.33-0.591,0.647-1.196,0.975-1.789c1.566,1.959,3.497,3.433,5.287,4.986
			c2.17,1.885,4.303,4.015,6.639,5.517c1.058,0.682,2.368-1.16,1.345-2.319c-1.933-2.192-4.173-3.908-6.296-5.753
			c-1.865-1.619-3.724-3.434-5.775-4.63c0.409-0.746,0.805-1.508,1.21-2.257c0.072,0.253,0.184,0.493,0.386,0.683
			c3.656,3.419,7.302,7.546,11.31,10.194c1.052,0.697,2.311-1.125,1.326-2.287c-3.426-4.043-7.722-7.051-11.561-10.354
			c-0.137-0.117-0.272-0.18-0.401-0.211c0.324-0.605,0.642-1.222,0.965-1.83c0.003,0.006,0.004,0.008,0.007,0.014
			c3.572,3.59,7.459,7.772,11.52,10.307c0.965,0.604,2.099-0.991,1.211-2.087c-3.323-4.1-7.682-7.344-11.576-10.435
			c0.332-0.63,0.653-1.274,0.984-1.906c3.258,3.62,7.286,7.308,11.147,9.611c0.998,0.593,2.271-1.087,1.277-2.205
			c-3.264-3.686-7.521-7.003-11.415-9.362c0.366-0.708,0.726-1.422,1.093-2.132c0.025,0.027,0.037,0.064,0.067,0.09
			c3.208,2.878,6.552,6.627,10.144,8.558c0.887,0.477,1.528-1.261,0.903-2.066c-1.368-1.76-3.127-2.981-4.721-4.349
			c-1.746-1.496-3.5-2.975-5.263-4.438c0.424-0.824,0.842-1.651,1.264-2.476c3.279,3.46,7.11,6.736,10.8,9.341
			c1.144,0.809,1.968-1.258,0.988-2.25c-3.271-3.308-7.113-6.601-10.786-9.056c0.242-0.475,0.479-0.949,0.719-1.422
			c0.005,0.001,0.006,0.008,0.009,0.01c3.384,2.873,6.778,5.779,10.335,8.268c1.243,0.872,2.284-1.498,1.101-2.504
			c-3.358-2.852-6.905-5.32-10.429-7.788c0.224-0.438,0.443-0.88,0.667-1.318c2.956,2.667,6.281,5.756,9.637,7.288
			c0.884,0.404,1.665-1.315,0.934-2.132c-2.691-3.006-6.333-5.192-9.551-7.176c0.369-0.73,0.734-1.46,1.105-2.191
			c0.015,0.016,0.024,0.037,0.041,0.053c2.972,2.619,6.631,5.37,10.025,6.86c1.192,0.526,1.747-1.706,0.812-2.564
			C569.621,773.965,565.887,771.833,562.589,770.271z M547.6,760.465c0.982,0.883,1.98,1.719,2.99,2.513
			c-0.109,0.178-0.223,0.35-0.332,0.529c-0.039-0.069-0.063-0.141-0.115-0.207C549.335,762.306,548.478,761.374,547.6,760.465z
			 M543.114,770.562c0.686,0.468,1.383,0.879,2.095,1.188c-0.117,0.195-0.237,0.388-0.354,0.584
			C544.286,771.728,543.705,771.138,543.114,770.562z M536.177,779.146c0.982,0.957,1.986,1.86,3.021,2.678
			c-0.108,0.189-0.221,0.377-0.329,0.566C538.04,781.246,537.129,780.175,536.177,779.146z M491.419,968.584
			c-7.615,24.314-15.314,48.579-22.985,72.863c-4.003,12.67-8.006,25.341-12.008,38.01c-2.001,6.337-4.003,12.671-6.004,19.006
			c-0.834,2.639-1.668,5.278-2.502,7.919c-0.501,1.584-1.001,3.167-1.501,4.752c-0.117,3.154-1.176,5.082-3.177,5.784
			c0.296-0.998-0.021-1.891-0.566-2.47c7.817-22.747,14.204-46.564,21.381-69.672c7.965-25.654,15.897-51.301,23.75-77.015
			c7.688-25.17,15.395-50.33,23.118-75.482c1.543-5.026,3.13-10.044,4.726-15.063c0.89,1.374,2.212,2.459,3.489,2.855
			C509.895,909.572,500.66,939.08,491.419,968.584z M520.918,874.409c-0.697-0.233-1.24-0.157-1.687-0.604
			c-0.706-0.705-1.015-1.76-1.746-2.35c3.729-11.655,7.492-23.321,11.016-35.078c0.728,0.889,1.442,1.895,2.298,2.551
			c0.354,0.271,0.747,0.396,1.138,0.394C528.263,851.017,524.585,862.711,520.918,874.409z M540.576,805.342
			c-0.163,0.376-0.229,0.736-0.232,1.071c-0.415,0.979-0.436,2.235,0.318,3.286c1.982,2.761,4.168,5.137,6.532,7.076
			c-2.049,0.096-4.12,0.07-6.041,0.9c-1.105-0.362-2.464,0.146-3.021,1.916c-1.534,4.865-3.057,9.738-4.588,14.605
			c0,0,0-0.002-0.001-0.002c-0.554-0.882-1.36-1.546-2.039-2.248c-0.393-0.406-0.777-0.849-1.195-1.204
			c-0.039-0.034-0.082-0.053-0.121-0.084c1.493-5.119,2.938-10.261,4.302-15.429c0.156-0.591,0.134-1.146-0.001-1.638
			c0.592-2.429,0.729-4.805,0.908-7.679c0.477-7.61,2.225-12.119,5.58-18.051c5.335-9.435,11.014-18.508,16.871-27.374
			c0.903,1.034,1.818,2.017,2.75,2.952C553.758,777.182,546.769,791.075,540.576,805.342z"/>
		<path fill="#00135B" d="M730.054,880.876c-9.776,19.67-22.411,36.609-37.288,49.417c4.459-24.133,9.064-48.772,23.628-63.881
			c3.186-3.305-1.297-9.24-4.452-5.928c-10.147,10.661-15.459,26.223-19.172,42.32c-2.51,10.885-5.308,22.187-7.653,33.566
			c-14.246,10.539-29.084,17.929-41.04,33.665c-3.105,4.088-6.037,8.39-8.914,12.76c-9.967-13.973-27.989-17.748-39.189-3.972
			c-10.472,12.88-8.882,38.396,5.979,44.191c7.461,2.908,14.295-2.192,19.674-8.738c7.148-8.695,13.114-19.096,19.569-28.67
			c6.522-9.676,13.484-18.932,21.946-25.598c6.396-5.042,13.275-8.84,19.967-13.138c-0.984,5.611-1.81,11.215-2.376,16.771
			c-0.009,0.094-0.005,0.186-0.008,0.278c-9.821,19.155-18.584,39.259-27.594,59.098c-5.581,12.294-19.067,33.121-5.997,45.162
			c8.898,8.197,26.154,3.141,31.545-9.51c6.514-15.292-4.439-37.581-11.322-49.299c-0.251-0.428-0.526-0.725-0.808-0.958
			c6.683-14.714,13.234-29.531,19.166-44.779c0.272-0.696,0.31-1.354,0.203-1.93c1.853-6.342,3.342-13.113,4.708-20.064
			c0.182-0.14,0.368-0.267,0.55-0.408c17.827-13.907,32.839-33.304,44.229-56.195C737.61,880.601,732.246,876.465,730.054,880.876z
			 M626.771,995.651c-5.932,8.961-15.438,26.248-25.664,18.45c-11.799-8.994-5.148-30.065,5.529-34.791
			c9.554-4.231,17.819,1.408,25.62,7.941C630.434,990.06,628.614,992.87,626.771,995.651z M670.034,1058.981
			c-4.299,3.891-11.643,6.33-16.661,4.559c-8.644-3.055-5.64-13.662-2.36-20.982c4.017-8.967,8.117-17.878,12.199-26.811
			C668.916,1025.583,680.527,1049.485,670.034,1058.981z"/>
		<path fill="#00135B" d="M523.401,1025.831c-0.256-0.985-0.893-1.782-1.381-2.584c-0.618-1.014-1.961,0.345-1.372,1.408
			c0.46,0.828,0.881,1.853,1.529,2.427C522.769,1027.604,523.636,1026.733,523.401,1025.831z"/>
		<path fill="#00135B" d="M524.732,1020.64c-0.143-0.857-0.684-1.462-1.108-2.102c-0.635-0.956-1.801,0.275-1.315,1.35
			c0.339,0.748,0.603,1.57,1.186,2.019C524.154,1022.412,524.889,1021.58,524.732,1020.64z"/>
		<path fill="#00135B" d="M525.795,1014.124c-0.62-1.343-2.004-0.173-1.551,1.206c0.259,0.788,0.448,1.712,0.934,2.3
			c0.726,0.882,1.646-0.02,1.526-1.182C526.617,1015.604,526.126,1014.838,525.795,1014.124z"/>
		<path fill="#00135B" d="M527.504,1009.061c-0.641-1.099-1.891,0.301-1.41,1.447c0.379,0.903,0.638,1.86,1.414,2.229
			c0.553,0.263,1.049-0.412,1.079-1.093C528.632,1010.617,527.948,1009.819,527.504,1009.061z"/>
		<path fill="#00135B" d="M530.263,1006.87c-0.133-0.736-0.495-1.381-0.781-2.024c-0.603-1.35-2.124-0.155-1.578,1.227
			c0.265,0.669,0.486,1.396,0.891,1.934C529.43,1008.85,530.462,1007.987,530.263,1006.87z"/>
		<path fill="#00135B" d="M532.431,1002.472c-0.114-0.884-0.678-1.66-1.055-2.384c-0.705-1.351-2.376-0.085-1.673,1.302
			c0.416,0.82,0.795,1.875,1.444,2.395C531.854,1004.343,532.554,1003.422,532.431,1002.472z"/>
		<path fill="#00135B" d="M532.994,994.679c-0.667-1.136-2.044,0.329-1.489,1.531c0.409,0.89,0.798,2.214,1.534,2.667
			c0.572,0.353,1.431-0.045,1.375-1.05C534.344,996.579,533.555,995.633,532.994,994.679z"/>
		<path fill="#00135B" d="M536.522,991.611c-0.296-0.912-1.037-1.556-1.587-2.199c-0.879-1.032-1.941,0.489-1.255,1.672
			c0.455,0.783,0.879,1.775,1.559,2.235C536.127,993.924,536.889,992.737,536.522,991.611z"/>
		<path fill="#00135B" d="M537.809,983.502c-0.237-0.659-0.943-0.832-1.389-0.486c-0.512,0.4-0.589,1.181-0.363,1.849
			c0.335,0.987,0.627,2.51,1.27,3.199c0.611,0.656,1.564,0.269,1.585-0.874C538.934,985.961,538.201,984.591,537.809,983.502z"/>
		<path fill="#00135B" d="M546.437,949.188c-2.248,5.498-4.611,11.142-6.315,16.984c-0.379,1.296,1.144,2.068,1.65,0.928
			c2.358-5.31,4.215-11.168,6.104-16.795C548.302,949.034,546.96,947.909,546.437,949.188z"/>
		<g>
			<path fill="#00135B" d="M454.651,992.193c-4.413-30.142-8.728-60.314-13.207-90.438c-4.447-29.912-7.893-60.763-13.908-90.183
				c-0.198-0.97-0.821-1.481-1.484-1.589c-0.363-1.263-1.289-2.274-2.562-1.913c-12.992,3.699-25.994,7.334-38.994,10.997
				c-12.77,3.598-26.576,5.731-38.89,11.492c-0.726,0.341-1.099,1.24-1.154,2.143c-0.446,0.312-0.759,0.894-0.687,1.77
				c1.226,14.698,4.239,29.355,6.46,43.846c2.375,15.505,4.792,30.999,7.223,46.49c4.796,30.553,9.695,61.078,14.524,91.625
				c-0.283,1.056-0.048,2.313,0.784,2.663c0.746,0.891,1.964,0.733,2.759-0.134c12.083-1.467,24.421-6.517,36.229-9.846
				c13.235-3.729,27.42-6.176,40.223-11.989c0.513-0.234,0.89-0.702,1.133-1.269C454.109,995.321,454.916,993.999,454.651,992.193z
				 M375.847,1013.697c-4.671-29.582-9.28-59.182-13.989-88.754c-2.375-14.922-4.756-29.84-7.186-44.748
				c-2.443-14.987-4.177-30.649-7.562-45.322c12.446-1.486,25.063-6.553,37.266-9.957c13.304-3.711,26.604-7.448,39.915-11.123
				c2.766,29.44,8.073,58.866,12.261,87.993c4.32,30.048,8.838,60.046,13.249,90.069c-12.317,1.939-24.715,6.907-36.786,10.503
				C400.9,1005.968,387.687,1008.322,375.847,1013.697z"/>
			<path fill="#00135B" d="M436.989,958.906c-0.232,0.077-0.47,0.151-0.704,0.229c0.427-0.397,0.726-1.068,0.634-1.916
				c-2.36-21.807-5.122-43.552-7.758-65.302c-2.624-21.638-4.531-43.758-8.304-65.101c-0.067-0.384-0.275-0.604-0.516-0.704
				c-0.056-1.012-0.7-2.08-1.686-1.884c-20.923,4.146-42.752,9.92-62.453,20.423c-0.44,0.02-0.876,0.398-0.834,1.093
				c0.003,0.04,0.007,0.08,0.009,0.121c-0.033,0.274-0.009,0.542,0.063,0.791c1.413,21.794,5.677,43.395,9.64,64.557
				c4.296,22.938,8.723,45.833,13.113,68.742c0.192,1.002,0.839,1.315,1.431,1.167c0.165,0.541,0.571,0.957,1.154,0.818
				c19.085-4.558,38.274-12.528,56.944-19.5C439.43,961.803,438.713,958.338,436.989,958.906z M431.819,938.562
				c-8.485,1.896-16.899,4.866-25.284,7.533c-1.116-8.15-2.36-16.283-3.674-24.382c8.693-2.958,17.321-6.227,25.849-9.564
				C429.725,920.958,430.758,929.765,431.819,938.562z M425.541,884.96c0.254,2.088,0.511,4.178,0.754,6.264
				c0.677,5.815,1.345,11.638,2.014,17.458c-8.653,3.336-17.358,6.294-26.082,9.128c-0.833-5.059-1.682-10.104-2.534-15.131
				c-0.544-3.213-1.089-6.438-1.639-9.665c9.083-2.599,18.159-5.242,27.228-7.9C425.386,885.084,425.455,885.014,425.541,884.96z
				 M425.165,881.846c-0.17-0.048-0.357-0.052-0.561,0.005c-9.044,2.582-18.09,5.179-27.128,7.818
				c-1.505-8.772-3.055-17.562-4.759-26.289c9.688-3.002,19.376-6.007,29.059-9.035
				C422.838,863.527,424.035,872.697,425.165,881.846z M419.288,827.748c0.493,7.687,1.232,15.371,2.083,23.043
				c-9.769,3.088-19.532,6.202-29.297,9.32c-1.576-7.875-3.281-15.693-5.202-23.386
				C397.535,833.171,408.264,830.006,419.288,827.748z M357.321,847.178c9.234-3.317,18.364-6.671,27.53-9.769
				c1.36,7.894,2.838,15.753,4.345,23.604c-9.356,2.896-19.03,5.273-28.132,9.278C359.789,862.6,358.533,854.899,357.321,847.178z
				 M361.476,872.771c9.512-1.843,18.986-5.485,28.35-8.478c1.679,8.713,3.367,17.42,4.956,26.16
				c-9.612,2.82-19.214,5.697-28.792,8.676C364.451,890.355,362.946,881.571,361.476,872.771z M366.462,901.779
				c0.015-0.001,0.03,0.007,0.046,0c9.635-2.576,19.259-5.258,28.874-8c0.488,2.748,0.972,5.498,1.434,8.256
				c0.929,5.548,1.798,11.109,2.636,16.678c-9.431,3.041-18.879,5.975-28.31,9.125C369.557,919.158,367.992,910.476,366.462,901.779
				z M400.035,922.675c1.197,8.115,2.343,16.239,3.509,24.358c-9.087,2.796-18.281,5.274-27.252,8.683
				c-1.575-8.424-3.136-16.848-4.676-25.275C381.127,928.492,390.617,925.797,400.035,922.675z M380.69,979.166
				c-0.006-0.044,0.004-0.081-0.004-0.125c-1.323-6.962-2.63-13.917-3.933-20.873c9.151-2.104,18.205-5.164,27.262-7.889
				c0.893,6.187,1.8,12.369,2.767,18.536C397.943,971.879,389.173,975.212,380.69,979.166z M409.161,967.999
				c-0.616-6.204-1.374-12.401-2.192-18.59c8.419-2.446,16.963-4.626,25.228-7.804c0.673,5.534,1.34,11.07,2.057,16.592
				c0.105,0.816,0.495,1.204,0.939,1.295C426.601,962.303,417.856,965.036,409.161,967.999z"/>
			<path fill="#00135B" d="M387.592,1003.018c-0.35-1.056-1.454-1.706-2.148-2.32c-1.088-0.959-2.092,1.36-1.019,2.32
				c0.729,0.652,1.53,1.651,2.445,1.677C387.561,1004.712,387.837,1003.752,387.592,1003.018z"/>
			<path fill="#00135B" d="M393.826,1000.741c-0.528-0.932-1.322-1.592-2.011-2.307c-0.394-0.411-0.913-0.503-1.298,0
				c-0.32,0.415-0.393,1.323,0,1.727c0.75,0.772,1.486,1.727,2.363,2.217C393.532,1002.743,394.25,1001.487,393.826,1000.741z"/>
			<path fill="#00135B" d="M398.01,1000.05c-0.357-0.769-0.945-1.214-1.514-1.678c-0.579-0.476-1.161-0.953-1.742-1.426
				c-1.043-0.854-1.952,1.273-0.951,2.168c1.052,0.939,2.205,2.377,3.488,2.602C397.93,1001.828,398.313,1000.697,398.01,1000.05z"
				/>
			<path fill="#00135B" d="M401.188,999.004c-0.583-1.1-1.635-1.854-2.443-2.654c-0.86-0.851-2.012,1.112-1.155,1.993
				c0.794,0.816,1.631,1.979,2.579,2.427C400.886,1001.107,401.636,999.847,401.188,999.004z"/>
			<path fill="#00135B" d="M406.046,997.359c-0.38-0.852-1.107-1.412-1.698-1.991c-0.617-0.606-1.233-1.214-1.847-1.825
				c-0.745-0.737-1.704,0.912-0.998,1.721c0.583,0.664,1.163,1.334,1.743,2.002c0.561,0.648,1.127,1.441,1.843,1.752
				C405.801,999.326,406.411,998.182,406.046,997.359z"/>
			<path fill="#00135B" d="M411.687,995.746c-0.427-0.979-1.211-1.666-1.85-2.395c-0.675-0.771-1.351-1.54-2.025-2.31
				c-0.858-0.979-2.106,0.632-1.257,1.669c0.655,0.798,1.31,1.597,1.963,2.395c0.613,0.749,1.233,1.752,2.002,2.194
				C411.256,997.719,412.152,996.816,411.687,995.746z"/>
			<path fill="#00135B" d="M418.314,992.833c-0.47-0.697-1.124-1.145-1.714-1.644l-1.83-1.543c-1.018-0.858-1.955,1.289-0.942,2.146
				l1.83,1.543c0.597,0.503,1.169,1.068,1.852,1.34C418.339,995.004,418.844,993.62,418.314,992.833z"/>
			<path fill="#00135B" d="M424.963,992.32c-0.678-1.072-1.729-1.801-2.588-2.595c-0.935-0.859-1.868-1.72-2.803-2.581
				c-0.984-0.909-1.883,1.21-0.932,2.121c0.923,0.886,1.846,1.771,2.768,2.658c0.867,0.831,1.704,1.823,2.71,2.326
				C425.008,994.693,425.461,993.11,424.963,992.32z"/>
			<path fill="#00135B" d="M431.493,991.296c-0.872-1.326-2.066-2.366-3.106-3.452c-1.065-1.111-2.129-2.225-3.193-3.338
				c-0.859-0.898-2.091,0.657-1.228,1.634c1.09,1.228,2.178,2.458,3.267,3.686c1.015,1.146,2.013,2.474,3.173,3.349
				C431.318,993.864,432.152,992.302,431.493,991.296z"/>
			<path fill="#00135B" d="M436.634,988.602c-1.132-2.272-3.036-3.94-4.626-5.618c-1.652-1.744-3.351-3.382-5.1-4.949
				c-0.977-0.879-1.805,1.159-0.906,2.063c1.737,1.746,3.458,3.534,5.141,5.373c1.408,1.541,2.735,3.521,4.359,4.637
				C436.19,990.582,437.119,989.576,436.634,988.602z"/>
			<path fill="#00135B" d="M444.013,986.974c-0.915-1.582-2.302-2.643-3.503-3.824c-1.4-1.38-2.802-2.758-4.202-4.136
				c-1.009-0.994-1.949,1.236-0.978,2.226c1.31,1.335,2.618,2.667,3.927,4.001c1.191,1.214,2.357,2.728,3.758,3.46
				C443.699,989.058,444.473,987.771,444.013,986.974z"/>
			<path fill="#00135B" d="M441.666,977.508c-1.271-1.048-2.71-1.836-4.042-2.732c-0.934-0.625-1.74,1.166-0.825,1.878
				c1.286,1.005,2.562,2.184,3.908,3.034C441.8,980.373,442.718,978.376,441.666,977.508z"/>
			<path fill="#00135B" d="M439.2,969.64c-0.928-0.075-1.057,1.756-0.214,2.097c0.524,0.212,1.051,0.527,1.498,0.953
				c0.474,0.45,0.798,1.116,1.386,1.313c0.49,0.167,1.18-0.339,1.104-1.119C442.771,970.734,440.609,969.754,439.2,969.64z"/>
			<path fill="#00135B" d="M442.829,966.762c-0.396-1.01-1.494-1.524-2.214-2.071c-1.057-0.803-1.953,1.284-0.946,2.157
				c0.715,0.62,1.528,1.646,2.41,1.652C442.763,968.504,443.126,967.523,442.829,966.762z"/>
		</g>
		<g>
			<path fill="#00135B" d="M318.653,1084.35c-0.008-0.048-0.008-0.094-0.015-0.142c-1.999-10.974-5.54-21.674-8.451-32.28
				c-2.652-9.66-5.008-19.729-8.663-28.822c0.063-0.463,0.051-0.979-0.072-1.551c-4.807-22.6-10.499-44.869-15.353-67.461
				c-4.807-22.383-8.894-45.07-14.038-67.32c0.268-1.2-0.035-2.653-0.909-3.415c-1.322-1.152-3.167-0.858-4.643-0.432
				c-1.458,0.423-2.777,1.421-3.788,2.881c-0.661,0.957-0.561,2.424-0.022,3.35c0,0.003,0,0.004,0,0.007
				c7.83,45.256,12.887,90.9,15.863,137.152c0.043,0.691,0.218,1.264,0.461,1.743c-0.009,12.203,1.681,24.646,2.807,36.725
				c1.097,11.78,1.93,23.668,3.418,35.37c0.126,0.991,0.619,1.586,1.222,1.838c0.083,0.632,0.391,1.229,0.918,1.481
				c10.166,4.853,25.264-3.702,32.05-14.04C320.536,1087.762,319.893,1085.158,318.653,1084.35z M266.942,888.89
				c0.189-0.054,0.379-0.105,0.568-0.142c0.339-0.063,0.676-0.063,1.011-0.049c3.154,22.688,7.938,45.021,12.645,67.204
				c4.496,21.194,8.914,42.631,14.47,63.401c-1.95,0.2-3.967,0.919-5.66,1.448c-2.15,0.671-4.221,1.573-6.23,2.694
				C281.548,978.064,275.697,932.82,266.942,888.89z M289.35,1099.386c-0.72-12.656-2.164-25.301-3.314-37.899
				c-0.947-10.358-1.533-21.113-3.225-31.364c2.804-1.118,5.618-2.223,8.499-2.929c2.443-0.598,5.023-0.4,7.357-1.392
				c1.692,10.614,4.887,20.901,7.58,31.109c2.603,9.866,4.841,20.194,8.261,29.614c0.012,0.037,0.029,0.061,0.042,0.094
				c-3.876,3.643-7.565,7.08-12.228,9.229C298.083,1097.802,293.659,1098.134,289.35,1099.386z"/>
			<path fill="#00135B" d="M291.876,1013.063c-0.606-0.216-1.111,0.032-1.694,0.256c-1.013,0.386-0.865,2.651,0.259,2.532
				c0.568-0.063,1.181-0.036,1.66-0.491C292.734,1014.757,292.713,1013.363,291.876,1013.063z"/>
			<path fill="#00135B" d="M290.921,1008.304c-0.451-1.478-1.656-1.489-2.503-0.59c-0.342,0.362-0.311,1.117-0.069,1.533
				c0.286,0.494,0.724,0.538,1.133,0.303c-0.129,0.074-0.06,0.026,0.084,0.116c0.156,0.1,0.331,0.104,0.499,0.134
				C290.603,1009.894,291.123,1008.961,290.921,1008.304z"/>
			<path fill="#00135B" d="M289.049,999.586c-0.332-0.11-0.634-0.12-0.977-0.12c-1.163,0-1.163,2.402,0,2.402
				c0.342,0,0.645-0.011,0.977-0.121C289.852,1001.483,289.853,999.853,289.049,999.586z"/>
			<path fill="#00135B" d="M287.948,993.147c-0.212-0.188-0.359-0.271-0.613-0.323c-1.107-0.23-1.564,1.764-0.471,2.266
				c0.245,0.111,0.409,0.146,0.667,0.11C288.342,995.091,288.663,993.783,287.948,993.147z"/>
			<path fill="#00135B" d="M286.021,986.764c-0.236-0.124-0.386-0.148-0.639-0.117c-1.089,0.13-1.091,2.124,0,2.255
				c0.252,0.03,0.403,0.007,0.639-0.118C286.765,988.39,286.765,987.157,286.021,986.764z"/>
			<path fill="#00135B" d="M285.38,981.07c-0.216-0.163-0.378-0.255-0.622-0.311c-1.115-0.249-1.575,1.788-0.472,2.279
				c0.236,0.106,0.416,0.138,0.666,0.133C285.773,983.149,286.13,981.628,285.38,981.07z"/>
			<path fill="#00135B" d="M283.694,974.348c-0.177-0.396-0.406-0.609-0.682-0.87c-0.766-0.724-1.755,0.952-1.014,1.75
				c0.266,0.286,0.479,0.527,0.813,0.648C283.462,976.111,284.047,975.131,283.694,974.348z"/>
			<path fill="#00135B" d="M282.774,968.024c-0.078-0.329-0.174-0.557-0.362-0.795c-0.768-0.972-1.895,0.526-1.165,1.548
				c0.18,0.25,0.352,0.379,0.597,0.484C282.384,969.494,282.949,968.74,282.774,968.024z"/>
		</g>
		<g>
			<path fill="#00135B" d="M468.097,745.81c-0.162-0.353-0.386-0.677-0.685-0.95c-16.443-14.984-38.242-12.968-56.816-7.332
				c-0.146,0.044-0.275,0.115-0.394,0.201c-0.513-0.291-1.109-0.275-1.604-0.001c-0.106-0.024-0.215-0.051-0.332-0.054
				c-16.373-0.48-32.951-1.877-49.315-1.019c-1.375,0.073-1.788,1.791-1.337,3.023c-0.977,14.311-2.034,28.619-2.822,42.953
				c-0.038,0.671,0.135,1.151,0.41,1.458c0.155,0.567,0.467,1.056,0.995,1.232c15.862,5.304,33.647,5.205,49.932,4.711
				c0.177,0.286,0.422,0.524,0.746,0.666c18.063,7.988,37.611,8.445,56.133,3.199c1.242-0.354,1.609-1.759,1.372-3.033
				c0.009-0.046,0.029-0.073,0.039-0.124c2.141-14.157,3.803-28.514,4.428-42.944C468.891,746.812,468.565,746.155,468.097,745.81z
				 M357.854,781.39c1.107-13.422,1.989-26.875,2.93-40.32c15.735,1.593,31.716,1.246,47.482,1.708
				c1.114,6.593-0.46,14.883-0.903,21.33c-0.474,6.889-0.928,13.777-1.374,20.67C389.775,785.122,373.964,782.354,357.854,781.39z
				 M461.795,788.707c-17.863,5.147-35.445,3.996-53.102-1.657c0.069-0.199,0.129-0.407,0.15-0.649
				c0.731-8.513,1.445-17.023,2.14-25.543c0.496-6.088,1.763-12.798,0.826-18.886c18.449-2.218,36.872-6.973,53.287,7.879
				C464.216,762.849,463.259,775.795,461.795,788.707z"/>
			<path fill="#00135B" d="M454.783,774.821c-13.616,2.91-26.316,0.862-39.9-0.514c-1.999-0.204-2.051,3.604-0.385,4.366
				c13.001,5.93,28.207,4.79,41.556,1.978C458.941,780.041,457.65,774.208,454.783,774.821z"/>
			<path fill="#00135B" d="M396.986,769.163c-5.23-0.291-10.482,0.97-15.756,0.744c-5.863-0.25-11.564-1.64-17.363-2.66
				c-1.693-0.298-3.145,3.086-1.217,4.117c9.997,5.339,24.593,7.915,34.936,3.171C399.799,773.521,399.329,769.296,396.986,769.163z
				"/>
			<path fill="#00135B" d="M456.857,746.586c-0.438-1.131-1.841-0.294-1.537,0.906c1.167,4.612,2.574,9.479,4.349,13.743
				c0.477,1.145,1.855,0.313,1.573-0.928C460.185,755.661,458.525,750.903,456.857,746.586z"/>
			<path fill="#00135B" d="M451.078,745.772c-0.424-1.28-2.006-0.757-1.62,0.626c1.054,3.759,1.951,8.046,3.512,11.485
				c0.504,1.107,1.727,0.308,1.52-0.895C453.826,753.168,452.261,749.362,451.078,745.772z"/>
			<path fill="#00135B" d="M446.635,748.504c-0.393-1.339-0.796-2.659-1.269-3.948c-0.41-1.121-1.713-0.275-1.472,0.865
				c0.289,1.383,0.654,2.72,1.027,4.063c0.344,1.234,0.603,2.589,1.188,3.66c0.429,0.78,1.589,0.574,1.506-0.581
				C447.513,751.133,447.025,749.834,446.635,748.504z"/>
			<path fill="#00135B" d="M441.223,746.869c-0.322-1.063-0.672-2.111-1.02-3.158c-0.441-1.339-2.07-0.823-1.696,0.652
				c0.295,1.156,0.589,2.313,0.909,3.457c0.296,1.051,0.49,2.145,1.079,2.975c0.527,0.743,1.437,0.091,1.448-0.843
				C441.957,748.871,441.521,747.859,441.223,746.869z"/>
			<path fill="#00135B" d="M436.604,745.672c-0.239-0.771-0.477-1.543-0.716-2.314c-0.438-1.417-2.171-0.807-1.753,0.678
				c0.234,0.835,0.469,1.669,0.703,2.504c0.229,0.813,0.401,1.648,0.894,2.251c0.543,0.66,1.302,0.105,1.355-0.787
				C437.137,747.168,436.836,746.426,436.604,745.672z"/>
			<path fill="#00135B" d="M431.762,744.618c-0.422-1.438-2.171-0.777-1.744,0.672c0.366,1.252,0.639,2.713,1.297,3.75
				c0.449,0.709,1.373,0.072,1.346-0.784C432.62,747.01,432.099,745.766,431.762,744.618z"/>
			<path fill="#00135B" d="M428.148,746.359c-0.284-0.647-0.568-1.296-0.854-1.941c-0.61-1.393-2.18-0.1-1.6,1.308
				c0.488,1.184,0.944,2.963,1.814,3.701c0.55,0.467,1.289-0.193,1.272-1.014C428.766,747.614,428.441,747.027,428.148,746.359z"/>
			<path fill="#00135B" d="M423.681,747.068c-0.246-0.761-0.469-1.554-0.792-2.261c-0.538-1.178-1.863-0.334-1.629,0.958
				c0.146,0.799,0.399,1.574,0.636,2.333c0.237,0.774,0.458,1.521,0.875,2.155c0.483,0.738,1.493,0.096,1.448-0.843
				C424.18,748.576,423.929,747.83,423.681,747.068z"/>
			<path fill="#00135B" d="M418.504,746.547c-0.344-0.589-0.913-0.875-1.431-0.452c-0.437,0.355-0.688,1.309-0.341,1.9
				c0.747,1.273,1.453,2.782,2.396,3.808c0.826,0.902,1.847-0.272,1.406-1.518C420.051,748.918,419.198,747.734,418.504,746.547z"/>
			<path fill="#00135B" d="M365.792,746.315c-0.67-1.464-2.323-0.099-1.701,1.394c0.36,0.865,0.67,1.814,1.199,2.521
				c0.679,0.91,1.819-0.089,1.572-1.272C366.662,748,366.18,747.157,365.792,746.315z"/>
			<path fill="#00135B" d="M372.02,749.947c-0.579-1.306-1.158-2.607-1.738-3.911c-0.655-1.477-2.329-0.101-1.703,1.392
				c0.556,1.323,1.11,2.648,1.667,3.97c0.517,1.226,0.971,2.517,1.77,3.463c0.647,0.765,1.543-0.052,1.381-1.12
				C373.185,752.349,372.555,751.156,372.02,749.947z"/>
			<path fill="#00135B" d="M377.003,750.039c-0.53-1.143-1.074-2.271-1.626-3.397c-0.653-1.335-2.159-0.098-1.582,1.293
				c0.487,1.18,0.982,2.349,1.49,3.511c0.472,1.083,0.887,2.261,1.575,3.124c0.653,0.821,1.716-0.06,1.481-1.2
				C378.092,752.158,377.497,751.102,377.003,750.039z"/>
			<path fill="#00135B" d="M382.646,750.243c-0.538-1.034-1.076-2.066-1.614-3.098c-0.734-1.41-2.44-0.048-1.72,1.405
				c0.553,1.118,1.107,2.238,1.66,3.356c0.517,1.046,0.947,2.093,1.716,2.839c0.688,0.671,1.497-0.489,1.324-1.41
				C383.79,752.167,383.153,751.22,382.646,750.243z"/>
			<path fill="#00135B" d="M385.84,747.302c-0.712-1.162-2.213,0.443-1.546,1.671c0.702,1.286,1.351,2.62,1.925,4.016
				c0.541,1.311,0.93,2.722,1.641,3.884c0.513,0.84,1.758,0.109,1.653-0.96C389.2,752.731,387.324,749.719,385.84,747.302z"/>
			<path fill="#00135B" d="M391.686,747.187c-0.688-1.251-2.007-0.133-1.522,1.245c0.577,1.643,1.223,3.239,1.793,4.885
				c0.56,1.622,0.935,3.428,1.681,4.913c0.472,0.94,1.891,0.645,1.757-0.679C395.033,753.985,393.262,750.05,391.686,747.187z"/>
			<path fill="#00135B" d="M399.022,750.447c-0.454-1.116-0.927-2.34-2.011-2.279c-0.935,0.052-1.161,1.941-0.195,2.224
				c0.212,0.06,0.898,2.75,1.019,3.094c0.407,1.172,0.763,2.401,1.411,3.369c0.706,1.05,1.755-0.169,1.599-1.292
				C400.598,753.789,399.661,752.025,399.022,750.447z"/>
			<path fill="#00135B" d="M402.217,746.619c-0.59-0.516-1.519,0.411-1.236,1.318c0.285,0.915,0.72,1.708,1.029,2.604
				c0.313,0.905,0.391,1.944,0.819,2.771c0.427,0.821,1.499,0.738,1.672-0.342C404.85,750.82,403.549,747.779,402.217,746.619z"/>
		</g>
		<g>
			<path fill="#00135B" d="M673.732,823.405c-13.288-7.651-26.549-15.435-39.913-22.849c-12.446-6.907-26.078-14.513-39.738-15.063
				c-0.822-0.032-1.344,0.642-1.558,1.478c-0.126,0.172-0.244,0.364-0.35,0.595c-14.123,30.934-25.963,64.54-32.075,99.974
				c-0.32,1.857,0.825,3.038,1.907,2.974c4.578,4.523,9.935,9.968,15.502,13.563c-5.66-3.049-11.298-6.186-16.902-9.448
				c-0.155-0.39-0.385-0.738-0.716-0.994c-0.834-0.649-2.298-0.373-2.72,0.949c-0.475,1.485-0.948,2.971-1.423,4.458
				c-0.256,0.8-0.552,1.608-0.759,2.441c-0.194,0.614-0.38,1.232-0.529,1.863c-0.297,1.265,0.273,2.688,1.169,3.169
				c0.104,0.057,0.214,0.101,0.329,0.132c0.042,0.624,0.275,1.25,0.78,1.725c23.392,22.069,54.119,36.843,82.332,42.6
				c2.156,0.442,3.537-2.215,3.279-4.358c0.745-1.506,0.85-3.928,1.095-5.486c0.077-0.491,0.062-0.987-0.022-1.453
				c0.755-1.564,0.544-4.088-1.199-4.826c-0.271-0.114-0.541-0.233-0.812-0.35c0.521-0.646,0.763-1.635,0.707-2.601
				c7.947-17.212,14.72-35.939,21.456-54.035c5.766-15.487,10.433-31.59,10.626-49.007
				C675.415,827.28,675.678,824.525,673.732,823.405z M638.703,943.688c-13.463-3.771-26.781-7.958-39.748-14.2
				c-14.108-6.794-27.133-16.113-40.486-25.058c-0.011-0.008-0.021-0.01-0.032-0.016c0.204-0.727,0.39-1.458,0.572-2.196
				c0.319-0.839,0.594-1.723,0.856-2.592c10.877,10.191,25.438,15.523,37.711,21.508c13.756,6.708,27.622,12.986,41.586,18.89
				C639.017,941.123,638.779,942.423,638.703,943.688z M586.679,908.922c0.385-0.126,0.757-0.416,1.046-0.962
				c0.79-1.492,1.615-2.931,2.396-4.425c8.238,6.396,17.418,11.227,26.165,16.366c-0.24,1.057-0.461,2.111-0.672,3.169
				C605.9,918.582,596.252,913.882,586.679,908.922z M639.017,929.005c-6.685-0.204-13.046-2.136-19.426-4.728
				c0.359-1.069,0.7-2.156,1.029-3.258c1.47-1.118,2.07-4.104,0.145-5.25c-9.999-5.94-20.127-13.029-30.603-17.328
				c-0.13-0.052-0.254-0.08-0.374-0.094c-0.851-0.454-1.896-0.262-2.518,1.063c-0.43,0.918-0.812,1.86-1.183,2.809
				c-3.439-3.077-7.677-4.922-11.364-7.458c-3.646-2.509-7.169-5.278-10.611-8.248c7.704-33.674,17.451-65.907,31.839-95.644
				c12.655,4.685,24.842,9.455,37.012,16.416c12.35,7.063,24.589,14.462,36.877,21.706
				C669.448,865.391,649.708,896.883,639.017,929.005z"/>
			<path fill="#00135B" d="M657.613,833.855c-8.672-7.101-17.676-13.336-27.066-18.58c-8.984-5.021-19.124-10.942-28.908-11.995
				c-0.503-0.055-0.912,0.239-1.219,0.679c-0.639-0.294-1.364-0.143-1.956,0.777c-13.366,20.758-23.886,47.76-25.205,75.443
				c-0.122,2.573,2.971,3.138,3.39,0.612c4.469-26.898,11.109-50.902,24.783-72.104c0.095-0.148,0.171-0.302,0.239-0.456
				c8.727,5.042,18.249,7.8,27.046,12.826c8.703,4.972,17.066,10.873,25.15,17.427c-2.053,11.285-4.101,21.961-7.37,32.924
				c-3.526,11.82-7.782,23.177-11.592,34.819c-0.19-0.09-0.392-0.166-0.615-0.201c-9.918-1.625-19.458-2.866-28.958-7.354
				c-9.355-4.417-17.932-11.027-25.968-18.72c-1.562-1.494-3.542,1.897-2.066,3.564c14.979,16.91,36.745,29.786,56.756,28.69
				c0.7,1.26,2.167,1.638,3.005-0.171c5.446-11.766,9.52-24.699,13.404-37.494c3.293-10.848,8.074-23.802,7.761-35.893
				C659.005,837.234,659.065,835.044,657.613,833.855z"/>
			<path fill="#00135B" d="M604.159,887.05c-1.273,0-1.276,2.631,0,2.631C605.432,889.681,605.433,887.05,604.159,887.05z"/>
			<path fill="#00135B" d="M607.71,891.352c-1.129,0-1.132,2.338,0,2.338C608.84,893.689,608.843,891.352,607.71,891.352z"/>
			<path fill="#00135B" d="M609.381,884.854c-0.57-0.444-1.495,0.107-1.42,1.084c0.007,0.094,0.015,0.189,0.022,0.286
				c0.062,0.791,0.646,1.376,1.222,0.932c0.059-0.044,0.117-0.09,0.176-0.134C609.995,886.55,609.989,885.328,609.381,884.854z"/>
			<path fill="#00135B" d="M610.615,888.944c-1.103,0-1.104,2.283,0,2.283S611.722,888.944,610.615,888.944z"/>
			<path fill="#00135B" d="M613.738,893.745c-0.145-0.01-0.289-0.023-0.432-0.045c-1.552-0.196-0.896,3.554,0.477,2.34
				c0.117-0.107,0.237-0.208,0.359-0.306C614.843,895.162,614.522,893.81,613.738,893.745z"/>
			<path fill="#00135B" d="M617.505,888.832c-1.351,0-1.354,2.793,0,2.793C618.854,891.625,618.857,888.832,617.505,888.832z"/>
			<path fill="#00135B" d="M614.899,884.672c-0.037-0.049-0.073-0.094-0.111-0.141c-0.352-0.443-0.888-0.443-1.241,0
				c-0.037,0.047-0.073,0.092-0.111,0.141c-0.659,0.832-0.146,2.35,0.732,2.35C615.045,887.021,615.56,885.502,614.899,884.672z"/>
			<path fill="#00135B" d="M617.828,880.094c-1.351,0-1.354,2.792,0,2.792C619.178,882.886,619.181,880.094,617.828,880.094z"/>
			<path fill="#00135B" d="M620.195,884.719c-1.313,0-1.313,2.711,0,2.711C621.507,887.43,621.51,884.719,620.195,884.719z"/>
			<path fill="#00135B" d="M622.883,893.386c-0.017-0.027-0.031-0.054-0.048-0.082c-0.556-0.954-1.696-0.108-1.696,0.936
				c0,1.049,1.145,1.885,1.696,0.936c0.017-0.026,0.031-0.053,0.048-0.081C623.214,894.525,623.217,893.96,622.883,893.386z"/>
			<path fill="#00135B" d="M626.721,892.105c-0.796,1.808,1.624,3.021,1.908,1.07C628.846,891.688,627.345,890.686,626.721,892.105z
				"/>
			<path fill="#00135B" d="M617.808,894.532c-0.361,0.201-0.636,0.394-0.934,0.729c-1.027,1.165,0.602,3.334,1.478,1.967
				c0.252-0.396,0.399-0.766,0.548-1.242C619.146,895.197,618.4,894.204,617.808,894.532z"/>
			<path fill="#00135B" d="M625.85,885.874c-0.02-0.034-0.038-0.066-0.058-0.101c-0.421-0.738-1.085-0.738-1.507,0
				c-0.019,0.034-0.038,0.066-0.058,0.101c-0.446,0.781,0.166,1.879,0.812,1.879C625.686,887.753,626.296,886.655,625.85,885.874z"
				/>
			<path fill="#00135B" d="M624.646,876.241c-1.585,0.582-0.392,3.814,0.828,2.616C626.4,877.946,625.895,875.783,624.646,876.241z"
				/>
			<path fill="#00135B" d="M630.736,883.075c-0.035-0.049-0.069-0.1-0.103-0.149c-0.927-1.362-2.536,0.78-1.514,2.014
				c0.038,0.044,0.075,0.091,0.113,0.137C630.249,886.298,631.655,884.427,630.736,883.075z"/>
			<path fill="#00135B" d="M633.29,886.078c-0.057-0.051-0.112-0.099-0.17-0.148c-0.587-0.512-1.273,0.178-1.313,1.004
				c-0.005,0.096-0.01,0.189-0.013,0.285c-0.048,1.021,0.875,1.625,1.495,1.143C633.959,887.842,633.905,886.613,633.29,886.078z"/>
			<path fill="#00135B" d="M633.326,869.302c-1.396,0-1.398,2.888,0,2.888C634.723,872.189,634.726,869.302,633.326,869.302z"/>
			<path fill="#00135B" d="M628.151,869.253c-1.275-0.993-2.275,1.801-0.809,2.553C628.458,872.378,629.158,870.036,628.151,869.253
				z"/>
			<path fill="#00135B" d="M631.457,876.959c-0.17-0.214-0.315-0.363-0.527-0.497c-1.525-0.957-2.137,2.396-0.51,2.504
				c0.238,0.014,0.43-0.019,0.658-0.101C631.688,878.648,631.931,877.55,631.457,876.959z"/>
			<path fill="#00135B" d="M636.664,874.922c-1.364,0-1.366,2.819,0,2.819C638.026,877.741,638.028,874.922,636.664,874.922z"/>
			<path fill="#00135B" d="M637.847,858.174c-1.35,0-1.353,2.795,0,2.795C639.197,860.969,639.2,858.174,637.847,858.174z"/>
			<path fill="#00135B" d="M625.577,861.689c-1.415,0-1.418,2.926,0,2.926C626.993,864.615,626.994,861.689,625.577,861.689z"/>
			<path fill="#00135B" d="M616.81,872.229c-0.281,0.242-0.454,0.464-0.641,0.835c-0.344,0.681,0.114,1.575,0.685,1.586
				c0.263,0.004,0.428-0.026,0.673-0.163C618.802,873.779,617.906,871.286,616.81,872.229z"/>
			<path fill="#00135B" d="M604.785,880.592c-0.02,0.1-0.04,0.201-0.06,0.303c-0.203,1.021,0.863,2.027,1.424,1.104
				c0.049-0.079,0.097-0.158,0.146-0.239C607.276,880.143,605.142,878.798,604.785,880.592z"/>
			<path fill="#00135B" d="M599.638,881.635c-0.967,0-0.97,2.001,0,2.001C600.605,883.636,600.606,881.635,599.638,881.635z"/>
			<path fill="#00135B" d="M610.938,874.962c-1.323,0-1.326,2.74,0,2.74C612.264,877.702,612.266,874.962,610.938,874.962z"/>
			<path fill="#00135B" d="M621.917,867.304c-1.389,0-1.392,2.874,0,2.874C623.307,870.178,623.31,867.304,621.917,867.304z"/>
			<path fill="#00135B" d="M621.379,873.214c-1.214,0-1.216,2.513,0,2.513C622.593,875.727,622.596,873.214,621.379,873.214z"/>
			<path fill="#00135B" d="M632.466,861.382c-1.436,0-1.437,2.969,0,2.969C633.9,864.351,633.902,861.382,632.466,861.382z"/>
			<path fill="#00135B" d="M636.247,866.754c-1.097,1.46,0.951,3.469,1.642,1.684C638.417,867.067,637.116,865.6,636.247,866.754z"
				/>
			<path fill="#00135B" d="M640.43,867.802c-1.461,0-1.463,3.021,0,3.021C641.892,870.823,641.893,867.802,640.43,867.802z"/>
		</g>
		<g>
			<path fill="#00135B" d="M352.542,1125.865c-3.309-33.174-6.867-66.312-10.347-99.458c-3.865-36.796-7.766-73.587-11.719-110.37
				c1.194-0.186,2.292-1.367,2.144-3.421c-2.329-32.541-4.039-65.961-8.455-98.167c0.359-0.442,0.596-1.058,0.684-1.719
				c0.595-0.408,1.091-1.109,1.328-2.139c2.971-12.998,6.173-25.944,8.902-39.034c1.863-8.942,2.571-17.798-0.941-26.174
				c-6.963-16.598-22.482-19.748-35.282-15.404c-12.562,4.264-28.814,14.509-29.334,34.298c-0.254,9.68,4.498,17.91,8.502,25.461
				c5.346,10.085,11.102,19.796,17.421,28.859c1.192,16.247,4.096,32.594,6.443,48.617c2.371,16.186,4.649,32.404,7.258,48.524
				c0.069,0.432,0.192,0.805,0.346,1.132c-0.192,0.432-0.283,0.984-0.21,1.659c7.279,66.766,17.061,133.413,26.657,199.677
				c1.107,7.657,1.355,24.183,9.533,25.276C353.146,1144.51,353.221,1132.671,352.542,1125.865z M298.342,814.88
				c-7.616-12.208-15.856-24.7-21.668-38.552c-8.965-21.358,8.126-35.262,21.731-39.886c12.126-4.123,30.843-1.169,33.052,19.234
				c0.986,9.106-2.436,19.086-4.375,27.623c-0.9,3.966-1.799,7.935-2.699,11.899c2.527-17.854,4.239-37.186-3.633-52.289
				c-0.597-1.145-1.852,0.074-1.316,1.234c8.932,19.331,2.987,43.682,1.193,64.663c-0.233-0.031-0.466-0.068-0.697-0.097
				c1.65-21.229,2.78-43.962-3.656-64.088c-0.434-1.359-1.994-0.59-1.626,0.813c5.476,20.853,4.516,41.493,3.361,63.109
				c-0.211-0.01-0.423-0.031-0.637-0.039c-0.909-22.176-0.496-47.682-7.528-68.248c-0.406-1.19-1.728-0.535-1.434,0.716
				c5.214,22.156,5.714,44.576,7.201,67.492c-0.003,0-0.006,0-0.007,0c-3.037-22.444-7.499-44.943-11.796-67.024
				c-0.272-1.391-2.108-0.843-1.877,0.585c3.591,22.156,7.183,44.771,12.006,66.539c-0.328,0.03-0.655,0.047-0.983,0.086
				c-3.874-22.242-9.175-44.286-14-66.205c-0.344-1.562-2.102-0.659-1.781,0.885c4.549,21.841,8.736,44.124,14.215,65.596
				c-0.435,0.081-0.872,0.137-1.303,0.239c-1.528-10.576-3.879-21-6.345-31.256c-2.813-11.689-6.817-23.12-8.489-35.216
				c-0.227-1.638-2.195-1.394-1.965,0.264c1.498,10.794,4.877,20.889,7.489,31.267c2.938,11.675,5.146,23.558,7.65,35.391
				c-0.335,0.102-0.672,0.195-1.004,0.313c-2.497-21.803-9.818-43.698-19.498-61.603c-0.73-1.347-2.245,0.101-1.575,1.479
				c9.388,19.256,15.146,38.719,19.36,60.781c-0.296,0.125-0.594,0.231-0.887,0.369c0.005-0.128,0.009-0.258-0.018-0.398
				c-4.55-23.063-14.252-40.997-22.999-61.422c-0.523-1.223-2.101-0.117-1.646,1.157c3.452,9.656,8.579,18.048,12.569,27.308
				c4.592,10.655,7.928,22.009,10.373,33.807c0.03,0.147,0.083,0.251,0.135,0.353c-0.262,0.141-0.528,0.26-0.786,0.408
				c-0.006-0.118-0.018-0.242-0.062-0.377c-6.268-19.578-13.396-39.605-23.928-55.896c-0.789-1.221-2.301,0.131-1.557,1.461
				c9.782,17.477,16.419,36.042,24.041,55.155c0.072,0.183,0.171,0.303,0.282,0.4c-0.26,0.163-0.526,0.302-0.783,0.475
				c0.032-0.271,0.01-0.564-0.119-0.859c-7.441-16.845-15.395-34.219-24.273-49.813c-0.487-0.853-1.722-0.105-1.308,0.92
				c6.997,17.301,15.57,34.227,24.039,50.341c0.09,0.17,0.192,0.295,0.298,0.382C298.837,814.535,298.585,814.688,298.342,814.88z
				 M306.636,864.872c-2.28-15.03-4.171-30.472-7.368-45.236c6.579-4.662,13.889-6.37,21.222-4.961
				c0.729,31.778,4.15,63.999,6.972,95.599c-0.52,0.114-1,0.438-1.33,0.961c-1.919,0.254-3.83,0.729-5.735,1.108
				c-2.208,0.443-4.391,0.813-6.537,1.514C311.635,897.487,309.109,881.181,306.636,864.872z M348.62,1130.621
				c-0.896,0.512-1.791,1.021-2.688,1.533c-2.104,2.577-3.123,2.354-3.058-0.668c-1.102-2.763-1.043-7.522-1.437-10.601
				c-0.929-7.28-1.881-14.553-2.869-21.818c-3.803-27.957-7.557-55.925-11.406-83.872c-4.427-32.139-8.544-64.397-13.752-96.34
				c2.499,0.076,4.951-0.284,7.456-0.622c1.749-0.236,3.536-0.382,5.295-0.684c5.679,55.046,11.417,110.086,17.334,165.09
				c1.51,14.04,3.05,28.075,4.526,42.124C348.125,1125.762,348.938,1129.918,348.62,1130.621z"/>
			<path fill="#00135B" d="M325.867,904.106c-0.331-0.369-0.713-0.525-1.112-0.723c-1.276-0.635-2.056,2.066-0.777,2.596
				c0.512,0.212,0.933,0.39,1.476,0.362C326.328,906.298,326.417,904.724,325.867,904.106z"/>
			<path fill="#00135B" d="M324.857,897.425c-0.403-0.386-0.843-0.516-1.315-0.691c-1.098-0.414-1.788,1.746-0.668,2.232
				c0.555,0.241,1.028,0.472,1.617,0.444C325.231,899.376,325.391,897.941,324.857,897.425z"/>
			<path fill="#00135B" d="M324.686,891.888c-0.569-0.326-1.119-0.267-1.727-0.248c-1.11,0.034-1.36,2.108-0.195,2.351
				c0.583,0.122,1.159,0.3,1.74,0.085C325.288,893.786,325.52,892.361,324.686,891.888z"/>
			<path fill="#00135B" d="M324.785,887.771c-0.568-0.273-1.19-0.344-1.784-0.475c-0.981-0.216-1.127,1.779-0.17,2.03
				c0.52,0.135,1.067,0.346,1.596,0.354C325.215,889.694,325.635,888.177,324.785,887.771z"/>
			<path fill="#00135B" d="M323.482,882.846c-0.488-0.212-0.979-0.257-1.489-0.324c-1.064-0.141-1.214,1.921-0.181,2.176
				c0.508,0.126,0.977,0.244,1.497,0.222C324.115,884.88,324.211,883.164,323.482,882.846z"/>
			<path fill="#00135B" d="M322.188,878.261c-0.373-0.322-0.781-0.527-1.192-0.755c-0.943-0.526-1.522,1.422-0.587,1.959
				c0.415,0.236,0.806,0.469,1.244,0.606C322.39,880.298,322.792,878.783,322.188,878.261z"/>
			<path fill="#00135B" d="M322.264,874.008c-0.433-0.805-1.256-1.081-1.916-1.458c-1.06-0.604-1.653,1.514-0.654,2.183
				c0.682,0.457,1.298,1.025,2.086,0.941C322.399,875.609,322.576,874.59,322.264,874.008z"/>
			<path fill="#00135B" d="M321.111,868.208c-0.484-0.457-1.077-0.668-1.627-0.942c-1.006-0.5-1.603,1.499-0.617,2.058
				c0.544,0.31,1.083,0.699,1.674,0.813C321.332,870.293,321.756,868.816,321.111,868.208z"/>
			<path fill="#00135B" d="M320.941,863.821c-0.69-0.565-1.482-0.791-2.251-1.101c-1.091-0.437-1.764,1.733-0.663,2.209
				c0.754,0.324,1.539,0.792,2.337,0.848C321.104,865.827,321.684,864.431,320.941,863.821z"/>
			<path fill="#00135B" d="M320.815,858.562c-0.718-0.585-1.554-0.874-2.347-1.238c-1.008-0.465-1.624,1.561-0.616,2.06
				c0.782,0.385,1.58,0.895,2.411,1.049C320.997,860.568,321.488,859.109,320.815,858.562z"/>
			<path fill="#00135B" d="M319.138,852.571c-0.562-0.632-1.358-0.976-2.02-1.391c-0.75-0.468-1.45,1.146-0.718,1.711
				c0.628,0.482,1.303,1.172,2.004,1.425C319.216,854.605,319.826,853.344,319.138,852.571z"/>
			<path fill="#00135B" d="M319.233,846.557c-0.623-0.493-1.36-0.646-2.057-0.885c-0.442-0.153-0.902,0.016-1.09,0.624
				c-0.161,0.518,0.035,1.278,0.468,1.448c0.67,0.263,1.412,0.714,2.116,0.718C319.363,848.466,319.99,847.155,319.233,846.557z"/>
			<path fill="#00135B" d="M318.483,841.749c-0.727-0.977-1.915-1.229-2.885-1.593c-1.007-0.377-1.614,1.477-0.613,2.048
				c0.909,0.521,2.001,1.365,3.014,1.214C318.543,843.335,318.895,842.302,318.483,841.749z"/>
			<path fill="#00135B" d="M318.369,837.169c-0.709-0.767-1.71-1.223-2.53-1.765c-0.893-0.593-1.4,1.269-0.563,1.884
				c0.741,0.544,1.54,1.334,2.352,1.648C318.444,839.257,319.072,837.932,318.369,837.169z"/>
			<path fill="#00135B" d="M317.705,831.213c-0.792-0.476-1.683-0.738-2.513-1.078c-0.933-0.383-1.508,1.458-0.568,1.897
				c0.89,0.411,1.782,0.918,2.705,1.182C318.225,833.473,318.471,831.671,317.705,831.213z"/>
			<path fill="#00135B" d="M317.786,826.832c-0.333-0.662-0.838-1.133-1.295-1.635c-0.469-0.515-0.936-1.027-1.403-1.541
				c-0.796-0.875-1.669,0.785-0.94,1.682c0.847,1.035,1.71,2.413,2.75,3.09C317.65,828.918,318.175,827.603,317.786,826.832z"/>
			<path fill="#00135B" d="M317.353,818.779c-0.739-0.46-1.625-0.642-2.414-0.92c-0.438-0.153-0.896,0.018-1.082,0.621
				c-0.159,0.514,0.035,1.269,0.466,1.44c0.854,0.332,1.75,0.822,2.637,0.951C317.903,821.007,318.173,819.291,317.353,818.779z"/>
		</g>
		<g>
			<path fill="#00135B" d="M198.495,1073.044c0.226-0.641,0.265-1.433-0.003-2.368c-3.509-12.318-9.432-23.872-14.251-35.362
				c-4.796-11.436-9.169-23.958-15.339-34.2c-0.035-0.057-0.08-0.078-0.117-0.128c-0.751-1.724-2.389-2.888-4.135-1.8
				c-1.755,1.095-3.536,2.275-5.304,3.538c-5.821-18.141-12.568-35.848-19.57-53.221c-6.409-15.894-12.754-34.075-21.656-47.924
				c0.096-0.092,0.195-0.174,0.292-0.268c1.304-1.272,1.953-3.464,1.076-5.464c-0.76-1.731-2.78-2.692-4.105-1.432
				c-0.057,0.054-0.118,0.108-0.174,0.164c0.011-0.435-0.07-0.891-0.223-1.355c0.092-0.062,0.184-0.123,0.266-0.208
				c1.103-1.172,2.352-2.275,3.238-3.752c0.608-1.014-0.131-2.437-1.058-1.823c-1.258,0.832-2.339,2.188-3.418,3.39
				c-0.195-0.464-0.392-0.925-0.587-1.388c0.51-1.196,1.129-2.256,1.896-3.183c0.751-0.907,1.669-1.549,2.391-2.496
				c0.668-0.882-0.047-2.057-0.834-1.908c-1.891,0.351-3.522,2.656-4.598,4.879c-0.115-0.271-0.23-0.538-0.345-0.813
				c0.629-0.974,1.287-1.913,1.998-2.782c0.816-1.001,1.74-1.875,2.503-2.947c0.706-0.994-0.18-2.403-1.064-1.836
				c-0.309,0.198-0.606,0.437-0.898,0.692c0.185-0.271,0.378-0.531,0.544-0.824c0.541-0.955-0.475-1.997-1.146-1.525
				c-1.492,1.049-2.746,2.766-4.004,4.281c-0.02-0.046-0.039-0.093-0.059-0.139c0.017-0.026,0.038-0.039,0.053-0.069
				c0.672-1.293,1.414-2.505,2.241-3.628c0.792-1.079,1.724-2.01,2.443-3.174c0.643-1.037-0.141-2.449-1.076-1.856
				c-0.217,0.138-0.426,0.309-0.634,0.481c0.528-1.001-0.213-2.252-1.089-1.706c-0.417,0.261-0.811,0.591-1.193,0.949
				c0.174-0.349,0.349-0.698,0.484-1.071c0.449-1.23-0.606-2.267-1.386-1.423c-0.744,0.807-1.338,1.813-1.994,2.741
				c-0.315,0.444-0.648,0.867-0.974,1.299c-0.068-0.163-0.136-0.324-0.205-0.485c0.516-0.715,1.032-1.431,1.548-2.145
				c0.631-0.873,1.33-1.734,1.743-2.826c0.35-0.927-0.388-2.118-1.125-1.498c-0.784,0.656-1.354,1.622-1.951,2.549
				c-0.378,0.587-0.756,1.172-1.135,1.761c-0.115-0.267-0.226-0.536-0.341-0.799c1.137-1.448,2.267-2.921,3.169-4.636
				c0.489-0.929-0.5-2.292-1.202-1.597c-0.994,0.986-1.868,2.16-2.712,3.37c1.203-2.683,2.735-4.792,4.333-7.142
				c0.651-0.955-0.187-2.602-1.076-1.855c-1.939,1.63-3.461,4.327-4.6,7.065c-0.058-0.127-0.112-0.259-0.169-0.385
				c0.889-1.802,1.938-3.377,2.963-5.11c0.552-0.934-0.174-2.665-1.058-1.824c-0.416,0.394-0.803,0.849-1.171,1.335
				c0.619-1.206,1.211-2.431,1.731-3.696c0.433-1.055-0.689-2.36-1.307-1.342c-1.171,1.924-2.182,4.044-3.188,6.151
				c-0.049-0.104-0.094-0.211-0.144-0.313c0.981-1.826,1.986-3.687,2.668-5.706c0.351-1.039-0.603-2.287-1.276-1.31
				c-0.082,0.117-0.151,0.253-0.23,0.375c0.29-0.655,0.569-1.319,0.818-2.002c0.374-1.025-0.634-2.292-1.268-1.303
				c-0.734,1.146-1.391,2.375-2.014,3.635c0.392-0.922,0.763-1.861,1.013-2.853c0.304-1.211-0.936-1.667-1.43-0.802
				c-0.609,1.068-1.047,2.339-1.49,3.567c-0.092-0.168-0.177-0.348-0.269-0.514c0.855-1.817,1.554-4.017,2.038-5.979
				c0.301-1.219-0.979-1.772-1.476-0.828c-0.681,1.303-1.357,2.829-1.901,4.374c-1.031-1.697-3.727-0.806-2.981,1.723
				c0.272,0.924,0.583,1.834,0.876,2.752c-1.43,0.246-2.881,0.473-4.243,1.084c-0.965,0.434-0.823,2.372,0.244,2.399
				c0.656,0.018,1.314-0.058,1.971-0.164c-0.432,0.221-0.838,0.499-1.192,0.868c-0.382,0.4-0.366,1.21-0.167,1.727
				c0.439,1.141,1.268,0.532,1.894,0.179c0.959-0.54,2.117-0.779,3.146-0.938c0.027-0.005,0.045-0.024,0.071-0.031
				c0.174,0.491,0.363,0.973,0.541,1.461c-1.34,0.097-2.812,0.264-3.956,1.018c-0.847,0.559-0.425,2.351,0.474,2.328
				c0.71-0.018,1.402-0.326,2.101-0.491c0.736-0.174,1.478-0.286,2.224-0.362c0.027-0.002,0.046-0.022,0.072-0.026
				c0.121,0.316,0.25,0.632,0.372,0.948c-1.315-0.008-2.826,0.221-3.609,1.376c-0.412,0.605-0.278,1.688,0.376,1.896
				c0.735,0.234,1.429-0.089,2.158-0.258c0.717-0.165,1.439-0.229,2.166-0.231c0.081,0.203,0.168,0.398,0.25,0.601
				c-1.209,0.328-2.409,0.921-3.234,2.104c-0.577,0.831-0.011,2.2,0.834,1.908c1.187-0.408,2.257-1.146,3.459-1.464
				c0.103,0.248,0.21,0.491,0.313,0.738c-1.143-0.055-2.556,0.031-3.392,0.887c-0.732,0.746-0.504,2.211,0.471,2.313
				c0.604,0.063,1.186-0.252,1.781-0.358c0.588-0.108,1.183-0.114,1.775-0.075c0.191,0.011,0.347-0.047,0.482-0.136
				c0.1,0.235,0.202,0.467,0.303,0.701c-0.353,0.159-0.707,0.32-1.059,0.479c-0.69,0.314-1.428,0.496-1.821,1.378
				c-0.293,0.657,0.007,1.36,0.491,1.608c0.673,0.344,1.353-0.151,1.993-0.448c0.472-0.22,0.943-0.438,1.416-0.656
				c0.026,0.06,0.053,0.121,0.079,0.181c-0.389,0.129-0.771,0.279-1.149,0.467c-0.692,0.341-1.476,0.695-1.978,1.442
				c-0.63,0.936-0.06,2.179,0.796,2.115c-0.145,0.617,0.103,1.27,0.608,1.529c0.681,0.349,1.417-0.057,2.112-0.2
				c0.624-0.126,1.249-0.17,1.878-0.178c0.015,0.036,0.03,0.07,0.046,0.105c-0.406,0.119-0.814,0.224-1.211,0.387
				c-0.6,0.247-1.269,0.473-1.689,1.129c-0.519,0.807-0.168,1.983,0.639,2.051c0.208,0.019,0.409-0.027,0.607-0.094
				c-0.189,0.136-0.366,0.294-0.506,0.518c-0.486,0.774-0.134,1.732,0.578,1.856c0.582,0.104,1.138-0.297,1.693-0.488
				c0.576-0.202,1.156-0.323,1.749-0.38c0.105-0.01,0.191-0.057,0.276-0.1c0.083,0.188,0.161,0.373,0.243,0.562
				c-0.841,0.34-1.695,0.65-2.527,1.025c-0.681,0.312-1.34,0.823-1.321,1.896c0.016,0.882,0.697,1.356,1.268,0.969
				c0.434-0.295,0.773-0.546,1.252-0.758c0.617-0.272,1.234-0.545,1.852-0.816c0.146-0.064,0.261-0.164,0.354-0.282
				c0.16,0.368,0.315,0.732,0.474,1.099c-0.064,0.017-0.126,0.02-0.191,0.056c-0.558,0.321-1.116,0.642-1.673,0.964
				c-0.555,0.318-1.139,0.56-1.569,1.146c-0.494,0.673-0.163,2.045,0.614,1.972c0.665-0.064,1.208-0.497,1.796-0.884
				c0.579-0.383,1.156-0.765,1.734-1.145c0.06-0.04,0.092-0.096,0.139-0.142c0.096,0.222,0.191,0.446,0.289,0.67
				c-0.788,0.527-1.557,1.096-2.262,1.827c-0.663,0.687,0.058,2.164,0.805,1.841c0.849-0.367,1.637-0.913,2.41-1.494
				c0.366,0.768,0.858,1.197,1.386,1.346c-0.763,0.935-1.427,1.982-1.842,3.248c-0.59,1.801,0.054,4.61,1.891,4.385
				c0.481-0.059,0.935-0.164,1.379-0.304c5.324,17.005,13.792,32.871,20.269,49.123c6.969,17.484,13.265,35.348,19.645,53.212
				c-2.897,2.5-5.65,5.257-8.054,8.32c-0.743,0.946-0.761,2.049-0.391,2.911c-0.336,0.776-0.43,1.734-0.06,2.637
				c9.301,22.624,19.234,44.392,27.389,67.848c0.537,1.542,1.459,2.083,2.382,1.97c0.156,0.667,0.538,1.245,1.08,1.437
				c3.854,1.364,8.209-1.598,11.539-4.01c4.03-2.918,7.522-6.88,10.608-11.37C198.879,1075.78,198.909,1074.281,198.495,1073.044z
				 M184.68,1082.237c-2.17,1.688-4.785,2.755-7.043,4.386c-0.018-0.476-0.092-0.97-0.257-1.472
				c-7.566-22.989-16.631-46.357-28.464-66.04c6.054-3.72,11.929-8.262,17.85-12.367c3.131,10.705,7.91,20.829,11.985,30.866
				c4.679,11.518,8.834,24.485,14.657,35.071C190.874,1076.461,187.984,1079.669,184.68,1082.237z"/>
			<path fill="#00135B" d="M170.217,1021.483c-0.873-0.123-1.82,0.138-2.691,0.246c-1.082,0.136-1.112,2.382,0,2.283
				c0.951-0.083,1.99-0.031,2.912-0.365C171.39,1023.3,171.102,1021.609,170.217,1021.483z"/>
			<path fill="#00135B" d="M168.705,1017.37c-0.789-0.431-1.735-0.367-2.576-0.446c-1.144-0.107-1.115,2.204,0,2.35
				c0.855,0.112,1.727,0.344,2.576,0.09C169.531,1019.115,169.347,1017.72,168.705,1017.37z"/>
			<path fill="#00135B" d="M165.157,1012.03c-0.499-0.056-1.008,0.056-1.505,0.115c-1.072,0.126-1.102,2.335,0,2.257
				c0.574-0.043,1.163-0.039,1.727-0.211C166.338,1013.899,166.041,1012.125,165.157,1012.03z"/>
		</g>
		<g>
			<path fill="#00135B" d="M264.907,1049.972c-10.869-16.938-19.599-35.632-28.023-54.811c-0.207-0.469-0.503-0.772-0.835-0.943
				c0.038-0.378,0.027-0.765-0.042-1.124c0.496-0.687,0.763-1.668,0.544-2.868c-1.834-9.99-3.092-20.088-4.646-30.146
				c0.909-1.563,0.781-4.299-1.073-4.902c-10.149-3.307-20.442,0.803-26.531,12.364c-0.691,1.313-0.064,2.78,0.848,3.371
				c1.931,4.968,3.794,9.998,5.484,15.121c1.697,5.138,2.809,10.797,4.881,15.676c0.427,1.002,1.07,1.28,1.674,1.128
				c-0.735,18.293-0.568,36.658-0.687,54.975c-0.086,13.064,1.956,21.982,11.554,27.647c17.253,10.18,36.635-7.069,37.358-31.553
				C265.772,1052.682,265.716,1051.232,264.907,1049.972z M208.189,969.022c5.476-7.301,12.454-10.696,20.121-8.397
				c0.138,10.337,1.617,20.673,3.551,30.663c-4.537,0.098-9.895,2.023-13.559,5.45C216.61,987.086,212.077,977.086,208.189,969.022z
				 M223.994,1074.723c-5.628-6.82-3.098-25.865-3.074-35.235c0.03-12.228,0.141-24.438-0.24-36.656
				c-0.018-0.587-0.163-1.054-0.377-1.411c1.901-1.116,3.743-2.416,5.764-3.215c2.436-0.966,4.903-1.206,7.376-1.674
				c0.02,0.162,0.051,0.33,0.102,0.504c6.233,21.192,15.802,40.098,26.777,57.442
				C258.155,1076.577,237.94,1091.615,223.994,1074.723z"/>
			<path fill="#00135B" d="M229.078,985.744c-0.702-0.203-1.438-0.059-2.15-0.009c-1.139,0.078-1.142,2.452,0,2.364
				c0.702-0.056,1.479,0.004,2.15-0.297C229.779,987.49,229.9,985.982,229.078,985.744z"/>
			<path fill="#00135B" d="M228.265,980.711c-0.733-0.339-1.656-0.069-2.416,0.004c-1.277,0.125-1.307,2.633,0,2.673
				c0.754,0.023,1.707,0.244,2.416-0.138C229.164,982.768,229.237,981.164,228.265,980.711z"/>
			<path fill="#00135B" d="M226.824,975.828c-0.668-0.322-1.456-0.185-2.156-0.181c-1.202,0.004-1.204,2.479,0,2.483
				c0.702,0.003,1.488,0.144,2.156-0.179C227.607,977.573,227.608,976.206,226.824,975.828z"/>
			<path fill="#00135B" d="M226.69,970.367c-0.942-0.563-1.989-0.257-2.992-0.157c-1.176,0.116-1.209,2.485,0,2.472
				c0.981-0.012,2.108,0.211,2.992-0.446C227.186,971.867,227.257,970.708,226.69,970.367z"/>
			<path fill="#00135B" d="M225.747,964.115c-0.905-0.369-1.856-0.359-2.804-0.438c-1.178-0.097-1.128,2.231,0,2.404
				c0.866,0.131,1.724,0.347,2.582,0.209C226.417,966.147,226.705,964.506,225.747,964.115z"/>
			<path fill="#00135B" d="M242.281,1053.62c-0.712-0.765-1.533-1.247-2.349-1.789c-0.467-0.312-0.95-0.653-1.441-0.946
				c-0.09-0.153-0.197-0.265-0.325-0.319c0-0.035,0.003-0.07-0.003-0.109c-2.37-16.48-6.61-33.037-10.416-49.022
				c-0.354-1.494-2.065-0.882-1.77,0.65c3.112,16.162,6.088,33.102,10.59,48.688c-0.292,0.148-0.52,0.492-0.509,1.04
				c0.035,1.767-0.001,3.558,0.188,5.309c0.141,1.308,1.55,0.852,1.625-0.295c0.039-0.624,0.045-1.256,0.036-1.89
				c0.184,0.552,0.382,1.088,0.628,1.556c0.538,1.015,1.713,0.408,1.513-0.851c-0.049-0.308-0.127-0.614-0.207-0.921
				c0.5,0.364,1.01,0.708,1.555,0.92C242.22,1055.958,243.012,1054.399,242.281,1053.62z"/>
		</g>
		<g>
			<path fill="#00135B" d="M253.099,833.844c-9.771-34.504-36.674-54.13-63.788-47.202c-0.482,0.122-0.869,0.365-1.175,0.683
				c-0.164-0.015-0.332-0.008-0.51,0.027c-23.624,4.912-42.207,31.132-46.024,62.27c-3.817,31.141,7.703,62.818,28.268,78.455
				c21.414,16.281,49.295,11.747,67.558-10.07C254.78,897.271,261.335,862.93,253.099,833.844z M238.233,906.058
				c-14.484,21.814-38.365,29.784-58.843,19.471c-20.063-10.104-33.593-36.721-33.322-65.194
				c0.325-33.677,18.224-59.368,42.011-67.554c0.631,0.952,1.583,1.539,2.762,1.243c21.767-5.474,43.886,8.148,54.365,34.26
				C255.294,853.418,252.403,884.713,238.233,906.058z"/>
			<path fill="#00135B" d="M228.597,809.532c-33.411-33.478-83.569,7.113-77.808,61.662c3.273,30.968,22.762,53.666,46.302,53.247
				c0.254-0.004,0.445-0.127,0.601-0.292c20.135,4.999,38.93-18.569,46.064-41.883C251.65,856.484,245.269,826.235,228.597,809.532z
				 M197.611,921.142c-0.487-0.134-0.866,0.134-1.107,0.544c-24.278-0.307-43.886-25.735-44.275-58.364
				c-0.373-31.386,18.592-58.687,41.635-62.843c25.528-4.604,49.385,20.205,50.906,54.786
				C246.137,886.327,223.634,928.369,197.611,921.142z"/>
			<path fill="#00135B" d="M193.581,824.574c-8.856,10.078-17.145,21.155-25.591,31.833c-0.921,1.166,0.458,2.984,1.392,1.853
				c8.607-10.452,17.504-20.662,25.69-31.702C196.038,825.255,194.6,823.412,193.581,824.574z"/>
			<path fill="#00135B" d="M215.593,824.968c-16.704,21.166-32.354,44.236-47.906,66.891c-0.737,1.073,0.424,2.641,1.206,1.604
				c16.336-21.649,32.978-43.452,48.148-66.567C217.903,825.584,216.558,823.746,215.593,824.968z"/>
			<path fill="#00135B" d="M219.264,850.453c-9.596,13.281-18.57,27.572-27.402,41.751c-0.73,1.17,0.466,2.844,1.275,1.7
				c9.483-13.395,19.031-26.996,27.752-41.284C221.804,851.121,220.312,849.004,219.264,850.453z"/>
		</g>
		<g>
			<path fill="#00135B" d="M468.118,882.881c4.374-8.524,7.229-18.547,10.296-27.959c2.816-8.64,7.139-18.135,8.585-27.601
				c0.127-0.085,0.257-0.182,0.383-0.308c5.734-5.694,21.088-33.296,7.454-38.715c-13.014-5.173-15.579,22.567-10.446,33.163
				c-0.159,0.133-0.316,0.287-0.456,0.498c-5.29,7.916-7.813,20.16-11.004,29.765c-3.249,9.775-7.026,19.749-8.675,30.271
				c-0.109,0.035-0.221,0.088-0.334,0.162c-5.655,3.668-9.735,10.153-11.166,18.393c-1.056,6.088-0.966,15.815,4.272,18.522
				c5.728,2.962,9.183-5.937,11.199-11.413C471.198,899.584,472.459,890.529,468.118,882.881z M485.865,806.793
				c0.147-2.535,0.574-5.256,1.381-7.569c0.457-0.994,0.914-1.987,1.372-2.982c2.97-4.157,4.834-3.972,5.598,0.562
				c2.898,7.32-2.033,16.243-6.673,22.091C486.611,814.908,485.616,811.093,485.865,806.793z M456.821,909.872
				c-1.367-3.538,0.299-10.104,1.473-13.358c1.444-3.998,3.788-7.168,6.502-9.642c2.64,5.08,1.884,10.843,0.16,16.332
				C463.817,906.828,459.907,917.854,456.821,909.872z"/>
		</g>
		<g>
			<path fill="#00135B" d="M800.711,1103.144c0.656-0.652,0.896-1.484,0.862-2.296c0.433-0.708,0.619-1.636,0.229-2.479
				c-7.417-16.027-17.841-30.158-26.845-44.661c-9.487-15.284-18.549-31.738-28.979-45.891c-0.178-0.241-0.365-0.416-0.555-0.558
				c-0.667-1.18-2.008-1.8-3.001-0.652c-11.205,12.932-21.275,28-31.732,41.998c-10.523,14.086-21.044,28.174-31.573,42.252
				c-10.23,13.675-20.474,27.33-30.678,41.036c-9.83,13.204-20.275,25.964-29.476,39.948c-0.535,0.814-0.577,1.743-0.334,2.56
				c-0.048,0.099-0.078,0.212-0.118,0.315c-0.437-0.093-0.893,0.029-1.282,0.485c-7.037,8.212-13.666,16.968-20.33,25.714
				c-0.574,0.751-0.803,1.538-0.808,2.272c-0.032,0.269-0.028,0.559,0.042,0.876c2.487,11.083,8.466,21.352,13.888,30.207
				c5.026,8.212,11.104,18.315,18.273,23.545c0.323,1.123,1.112,1.885,2.134,1.062c0.05-0.039,0.097-0.084,0.145-0.122
				c0.29-0.11,0.536-0.337,0.743-0.634c8.627-7.166,16.532-16.764,24.289-25.535c1.169,0.396,2.389-0.392,2.945-1.661
				c24.489-17.844,47.812-39.442,70.898-60.254C753.596,1148.903,777.342,1126.367,800.711,1103.144z M613.879,1230.034
				c-4.924-8.008-8.573-17.248-13.258-25.408c6.382-8.433,12.744-16.854,18.764-25.747c4.882,9.278,11.06,17.561,16.725,25.965
				c5.32,7.895,10.533,15.984,16.03,23.674c-7.36,7.611-15.243,15.272-21.798,24.084
				C625.42,1244.607,618.849,1238.113,613.879,1230.034z M657.316,1225.899c-5.772-9.144-12.011-17.821-18.038-26.661
				c-5.444-7.985-10.764-16.509-16.873-23.641c10.519-12.468,20.105-26.616,30.036-39.908c10.526-14.087,21.01-28.234,31.51-42.355
				c10.2-13.718,20.41-27.422,30.618-41.132c9.676-12.994,20.008-25.566,29.105-39.318c8.301,15.702,18.322,30.196,27.482,44.998
				c8.436,13.634,16.405,28.863,25.968,41.216c-22.843,22.604-46.037,44.574-69.599,65.832
				C704.407,1185.789,680.333,1204.878,657.316,1225.899z"/>
		</g>
		<g>
			<path fill="#00135B" d="M82.268,1085.766c6.168-7.037,12.34-14.069,18.497-21.129c6.157-7.055,12.313-14.111,18.47-21.167
				c5.904-6.766,12.49-13.187,17.364-21.322c0.688-1.147,0.289-2.651-0.478-3.476c-0.084-0.358-0.208-0.719-0.4-1.078
				c-8.276-15.598-18.668-29.673-28.011-44.164l-28.275-43.861c-9.148-14.19-18.302-28.372-27.456-42.558
				c-4.715-7.307-9.431-14.613-14.146-21.922c-4.488-6.954-8.685-15.019-14.174-20.6c-0.311-0.315-0.652-0.428-0.993-0.445
				c-0.526-0.713-1.306-1.076-2.002-0.506C7.489,854.342-4.103,870.214-15.85,883.576c-6.093,6.929-12.192,13.849-18.277,20.791
				c-5.845,6.664-12.402,12.969-17.366,20.818c-0.287,0.454-0.406,0.971-0.409,1.49c-1.001,0.872-1.514,2.729-0.555,4.478
				c8.239,15.036,18.03,28.804,27.106,42.956c9.397,14.654,18.829,29.267,28.247,43.896c9.141,14.199,18.281,28.398,27.421,42.599
				c9.331,14.494,18.145,30.438,28.652,43.432c0.75,0.928,1.595,1.103,2.306,0.815c0.641,0.974,1.67,1.49,2.581,0.758
				C70.573,1100.189,76.319,1092.555,82.268,1085.766z M35.332,1057.12c-9.423-14.624-18.846-29.247-28.269-43.871
				c-9.146-14.191-18.279-28.399-27.441-42.573c-9.039-13.984-17.714-28.799-27.449-41.954c6.213-5.286,11.64-12.52,17.22-18.89
				c6.083-6.945,12.154-13.911,18.231-20.864c11.117-12.722,23.888-24.928,33.738-39.534c3.127,6.931,7.68,12.847,11.611,18.962
				c4.705,7.32,9.41,14.639,14.114,21.959c9.41,14.637,18.818,29.276,28.233,43.91c9.138,14.201,18.277,28.403,27.415,42.604
				c9.373,14.566,18.285,30.406,28.572,43.856c-5.588,4.986-10.553,11.436-15.637,17.21c-6.179,7.02-12.36,14.04-18.54,21.061
				c-6.18,7.018-12.345,14.061-18.513,21.1c-5.543,6.323-11.603,12.336-16.489,19.604
				C54.352,1084.542,44.305,1071.045,35.332,1057.12z"/>
			<path fill="#00135B" d="M32.706,908.56c4.538-11.572,1.018-24.434-6.117-32.259c-0.083-0.231-0.233-0.413-0.458-0.496
				c-0.104-0.109-0.2-0.227-0.305-0.333c-0.412-0.416-0.829-0.369-1.163-0.106c-9.126-2.488-18.583-0.54-23.29,11.72
				c-4.346,11.324-0.723,25.862,7.778,31.513C17.667,924.256,28.284,919.835,32.706,908.56z M7.51,913.392
				c-6.623-7.042-7.588-20.07-2.298-28.801c5.02-8.283,11.922-8.266,19.027-6.896c0.072,0.14,0.145,0.277,0.261,0.395
				c6.272,6.337,9.657,16.695,6.8,26.932C27.714,917.87,15.326,921.704,7.51,913.392z"/>
			<path fill="#00135B" d="M24.339,890.588c-4.461-2.085-9.323-3.103-13.926-4.536c-1.196-0.372-1.853,2.028-0.633,2.438
				c4.668,1.568,9.406,3.656,14.177,4.551C25.039,893.241,25.339,891.057,24.339,890.588z"/>
			<path fill="#00135B" d="M21.655,898.84c-4.075-2.276-8.5-3.654-12.729-5.348c-1.083-0.435-1.664,1.745-0.577,2.221
				c4.196,1.833,8.417,4.068,12.738,5.311C22.161,901.331,22.71,899.43,21.655,898.84z"/>
			<path fill="#00135B" d="M10.286,906.832c-0.875-1.358-2.462,0.449-1.586,1.81C9.574,910,11.162,908.191,10.286,906.832z"/>
			<path fill="#00135B" d="M13.942,907.86c0.031-0.091,0.063-0.181,0.094-0.269c0.247-0.704-0.246-1.538-0.78-1.584
				c-0.534-0.044-1.118,0.647-0.953,1.406l0.062,0.283C12.6,908.77,13.587,908.874,13.942,907.86z"/>
			<path fill="#00135B" d="M15.154,911.183c-0.836-1.299-2.354,0.429-1.516,1.731C14.474,914.212,15.993,912.483,15.154,911.183z"/>
			<path fill="#00135B" d="M19.35,909.227c-0.791-1.228-2.225,0.405-1.433,1.634C18.708,912.087,20.141,910.456,19.35,909.227z"/>
			<path fill="#00135B" d="M23.89,909.424c-0.757-1.174-2.128,0.389-1.371,1.563C23.275,912.164,24.647,910.6,23.89,909.424z"/>
			<path fill="#00135B" d="M58.572,951.504c4.537-11.572,1.018-24.434-6.117-32.258c-0.082-0.232-0.233-0.414-0.458-0.499
				c-0.103-0.107-0.2-0.226-0.304-0.331c-0.412-0.416-0.829-0.368-1.163-0.106c-9.126-2.488-18.583-0.54-23.29,11.72
				c-4.346,11.324-0.723,25.865,7.777,31.513C43.533,967.2,54.149,962.782,58.572,951.504z M33.375,956.338
				c-6.623-7.044-7.587-20.072-2.296-28.803c5.019-8.283,11.921-8.266,19.026-6.896c0.072,0.138,0.146,0.275,0.261,0.394
				c6.273,6.338,9.657,16.696,6.8,26.933C53.58,960.815,41.192,964.649,33.375,956.338z"/>
			<path fill="#00135B" d="M50.205,933.531c-4.462-2.084-9.323-3.101-13.926-4.535c-1.195-0.373-1.853,2.027-0.633,2.438
				c4.668,1.568,9.406,3.658,14.177,4.55C50.905,936.186,51.205,933.999,50.205,933.531z"/>
			<path fill="#00135B" d="M47.521,941.783c-4.075-2.273-8.5-3.653-12.729-5.347c-1.083-0.435-1.664,1.747-0.578,2.221
				c4.197,1.833,8.418,4.068,12.739,5.31C48.026,944.275,48.576,942.374,47.521,941.783z"/>
			<path fill="#00135B" d="M36.151,949.776c-0.875-1.358-2.461,0.449-1.585,1.809C35.44,952.943,37.027,951.136,36.151,949.776z"/>
			<path fill="#00135B" d="M39.809,950.805c0.031-0.092,0.062-0.182,0.094-0.27c0.247-0.703-0.247-1.538-0.78-1.583
				c-0.534-0.044-1.119,0.647-0.953,1.405l0.062,0.284C38.466,951.714,39.453,951.818,39.809,950.805z"/>
			<path fill="#00135B" d="M41.021,954.128c-0.837-1.3-2.355,0.428-1.517,1.729C40.34,957.157,41.858,955.428,41.021,954.128z"/>
			<path fill="#00135B" d="M45.216,952.17c-0.791-1.227-2.224,0.406-1.433,1.636C44.573,955.031,46.008,953.4,45.216,952.17z"/>
			<path fill="#00135B" d="M49.756,952.368c-0.756-1.174-2.129,0.387-1.372,1.563C49.141,955.107,50.513,953.544,49.756,952.368z"/>
			<path fill="#00135B" d="M85.655,992.71c4.538-11.572,1.018-24.434-6.116-32.259c-0.083-0.231-0.234-0.413-0.458-0.498
				c-0.103-0.107-0.2-0.226-0.305-0.331c-0.412-0.415-0.829-0.368-1.163-0.106c-9.126-2.488-18.583-0.539-23.289,11.722
				c-4.347,11.322-0.724,25.862,7.777,31.511C70.616,1008.407,81.234,1003.988,85.655,992.71z M60.46,997.544
				c-6.623-7.044-7.588-20.071-2.297-28.803c5.02-8.282,11.922-8.266,19.027-6.896c0.072,0.138,0.145,0.278,0.261,0.395
				c6.272,6.338,9.657,16.695,6.8,26.933C80.664,1002.021,68.276,1005.856,60.46,997.544z"/>
			<path fill="#00135B" d="M77.29,974.737c-4.462-2.083-9.324-3.1-13.927-4.533c-1.196-0.375-1.853,2.027-0.633,2.436
				c4.668,1.567,9.406,3.657,14.177,4.551C77.989,977.395,78.289,975.205,77.29,974.737z"/>
			<path fill="#00135B" d="M74.605,982.99c-4.075-2.275-8.5-3.654-12.729-5.349c-1.083-0.435-1.664,1.748-0.577,2.223
				c4.197,1.831,8.417,4.068,12.738,5.31C75.11,985.481,75.661,983.58,74.605,982.99z"/>
			<path fill="#00135B" d="M63.235,990.983c-0.875-1.359-2.462,0.448-1.586,1.809C62.524,994.15,64.111,992.344,63.235,990.983z"/>
			<path fill="#00135B" d="M66.893,992.009c0.031-0.089,0.063-0.178,0.093-0.268c0.247-0.704-0.246-1.537-0.78-1.582
				c-0.534-0.045-1.118,0.646-0.953,1.404l0.062,0.284C65.549,992.922,66.537,993.023,66.893,992.009z"/>
			<path fill="#00135B" d="M68.104,995.334c-0.837-1.3-2.355,0.429-1.517,1.73C67.424,998.364,68.942,996.635,68.104,995.334z"/>
			<path fill="#00135B" d="M72.3,993.378c-0.791-1.229-2.225,0.404-1.433,1.634C71.658,996.237,73.091,994.606,72.3,993.378z"/>
			<path fill="#00135B" d="M76.839,993.575c-0.756-1.176-2.128,0.389-1.371,1.563C76.225,996.314,77.598,994.752,76.839,993.575z"/>
			<path fill="#00135B" d="M112.521,1032.076c4.537-11.572,1.018-24.435-6.116-32.259c-0.083-0.231-0.234-0.413-0.458-0.498
				c-0.104-0.108-0.2-0.227-0.305-0.331c-0.412-0.416-0.829-0.371-1.163-0.107c-9.125-2.488-18.582-0.539-23.289,11.721
				c-4.347,11.324-0.724,25.862,7.777,31.513C97.482,1047.772,108.1,1043.352,112.521,1032.076z M87.326,1036.907
				c-6.623-7.041-7.588-20.069-2.297-28.8c5.019-8.284,11.922-8.266,19.027-6.896c0.071,0.138,0.145,0.275,0.262,0.394
				c6.272,6.338,9.657,16.696,6.799,26.932C107.531,1041.386,95.142,1045.219,87.326,1036.907z"/>
			<path fill="#00135B" d="M104.155,1014.104c-4.462-2.086-9.323-3.102-13.925-4.536c-1.196-0.372-1.853,2.028-0.634,2.438
				c4.668,1.567,9.406,3.656,14.177,4.55C104.854,1016.758,105.155,1014.57,104.155,1014.104z"/>
			<path fill="#00135B" d="M101.471,1022.355c-4.075-2.275-8.5-3.653-12.729-5.349c-1.083-0.433-1.665,1.747-0.578,2.223
				c4.197,1.832,8.418,4.068,12.739,5.31C101.976,1024.848,102.526,1022.943,101.471,1022.355z"/>
			<path fill="#00135B" d="M2.185,943.384c4.537-11.572,1.018-24.434-6.117-32.259c-0.083-0.231-0.234-0.413-0.458-0.498
				c-0.104-0.107-0.2-0.226-0.305-0.331c-0.412-0.416-0.829-0.37-1.163-0.106c-9.125-2.489-18.582-0.542-23.289,11.72
				c-4.347,11.324-0.724,25.862,7.777,31.513C-12.854,959.08-2.237,954.659,2.185,943.384z M-23.011,948.217
				c-6.623-7.043-7.588-20.07-2.297-28.802c5.019-8.283,11.922-8.266,19.027-6.896c0.071,0.138,0.145,0.275,0.261,0.395
				c6.272,6.338,9.657,16.695,6.799,26.932C-2.806,952.694-15.195,956.527-23.011,948.217z"/>
			<path fill="#00135B" d="M29.032,985.207c4.537-11.572,1.018-24.434-6.117-32.257c-0.082-0.232-0.234-0.415-0.457-0.499
				c-0.104-0.105-0.201-0.225-0.305-0.332c-0.412-0.414-0.829-0.367-1.163-0.104c-9.126-2.49-18.583-0.542-23.29,11.721
				c-4.346,11.321-0.724,25.861,7.777,31.511C13.993,1000.905,24.61,996.485,29.032,985.207z M3.835,990.041
				c-6.623-7.042-7.587-20.07-2.297-28.801c5.019-8.282,11.921-8.267,19.026-6.896c0.072,0.138,0.145,0.278,0.262,0.394
				c6.272,6.338,9.657,16.696,6.8,26.935C24.041,994.52,11.651,998.354,3.835,990.041z"/>
			<path fill="#00135B" d="M20.665,967.237c-4.462-2.086-9.323-3.101-13.926-4.536c-1.196-0.372-1.853,2.027-0.634,2.436
				c4.668,1.569,9.407,3.659,14.177,4.551C21.364,969.892,21.664,967.704,20.665,967.237z"/>
			<path fill="#00135B" d="M17.981,975.49c-4.075-2.276-8.5-3.654-12.729-5.351c-1.083-0.433-1.664,1.749-0.578,2.222
				c4.197,1.833,8.418,4.069,12.738,5.31C18.486,977.979,19.036,976.077,17.981,975.49z"/>
			<path fill="#00135B" d="M6.611,983.481c-0.875-1.357-2.461,0.448-1.585,1.808C5.9,986.647,7.488,984.842,6.611,983.481z"/>
			<path fill="#00135B" d="M10.268,984.508c0.031-0.088,0.063-0.178,0.094-0.269c0.246-0.703-0.246-1.535-0.78-1.582
				c-0.534-0.046-1.119,0.646-0.953,1.406l0.062,0.285C8.926,985.419,9.913,985.521,10.268,984.508z"/>
			<path fill="#00135B" d="M11.48,987.832c-0.837-1.299-2.355,0.43-1.517,1.73C10.8,990.861,12.318,989.134,11.48,987.832z"/>
			<path fill="#00135B" d="M15.675,985.875c-0.79-1.228-2.224,0.407-1.433,1.635C15.033,988.736,16.467,987.104,15.675,985.875z"/>
			<path fill="#00135B" d="M20.216,986.073c-0.757-1.175-2.129,0.389-1.372,1.564C19.6,988.812,20.973,987.249,20.216,986.073z"/>
			<path fill="#00135B" d="M55.135,1027.534c4.537-11.572,1.018-24.435-6.117-32.259c-0.083-0.232-0.233-0.414-0.458-0.498
				c-0.104-0.107-0.2-0.226-0.305-0.332c-0.412-0.416-0.829-0.368-1.163-0.105c-9.125-2.488-18.582-0.541-23.289,11.721
				c-4.346,11.323-0.723,25.863,7.777,31.511C40.096,1043.229,50.713,1038.812,55.135,1027.534z M29.939,1032.368
				c-6.623-7.045-7.588-20.073-2.297-28.803c5.019-8.282,11.922-8.267,19.027-6.896c0.071,0.139,0.145,0.276,0.261,0.395
				c6.272,6.338,9.657,16.695,6.799,26.932C50.144,1036.846,37.755,1040.679,29.939,1032.368z"/>
			<path fill="#00135B" d="M46.768,1009.562c-4.461-2.083-9.323-3.1-13.926-4.533c-1.196-0.375-1.853,2.024-0.634,2.436
				c4.669,1.567,9.407,3.657,14.178,4.55C47.468,1012.217,47.768,1010.029,46.768,1009.562z"/>
			<path fill="#00135B" d="M44.084,1017.814c-4.075-2.275-8.5-3.655-12.729-5.349c-1.083-0.435-1.664,1.748-0.577,2.223
				c4.196,1.831,8.418,4.066,12.739,5.31C44.589,1020.306,45.139,1018.403,44.084,1017.814z"/>
		</g>
		<g>
			<path fill="#00135B" d="M775.773,880.788c-0.361,0.566-0.51,1.159-0.535,1.726c-0.242,0.672-0.292,1.448,0.039,2.171
				c0.087,0.189,0.185,0.366,0.273,0.555c-0.705,0.506-1.309,1.202-1.905,2.014c-0.647,0.883-1.291,1.929-1.38,3.146
				c-0.092,0.146-0.184,0.293-0.274,0.438c-0.208,0.331-0.261,0.72-0.212,1.096c-0.092,0.234-0.147,0.479-0.187,0.728
				c-0.028,0.019-0.059,0.019-0.087,0.038c-8.591,6.117-15.943,18.114-23.121,26.85c-7.975,9.703-16.688,19.002-23.729,29.934
				c-0.425,0.659-0.553,1.359-0.505,1.999c-0.252,0.728-0.299,1.556,0.062,2.322c0.393,0.832,0.82,1.634,1.263,2.422
				c-3.21,2.332-5.766,6.3-8.432,9.58c-2.388,2.938-5.274,5.813-7.141,9.444c-0.489-0.033-0.987,0.197-1.404,0.802
				c-3.913,5.654-7.183,15.868-5.43,23.676c-0.261,1.638,0.663,3.652,2.313,3.314c5.949-1.213,12.066-4.395,16.817-9.49
				c0.326,0.091,0.675,0.049,1.01-0.204c3.215-2.428,5.771-6.006,8.487-9.303c2.273-2.762,5.016-5.368,6.822-8.743
				c0.916,1.087,1.88,2.074,2.932,2.866c0.629,0.476,1.278,0.371,1.777-0.042c0.548,0.102,1.139-0.092,1.674-0.731
				c8.05-9.627,16.1-19.253,24.148-28.879c7.165-8.567,15.492-16.771,21.676-26.658c0.433,0.416,0.87,0.817,1.327,1.185
				c0.6,0.479,1.238,0.359,1.724-0.063c0.071-0.03,0.14-0.033,0.212-0.074c1.242-0.694,2.138-2.275,3.08-3.521
				c0.36-0.477,0.706-0.952,1.044-1.437c1.332,1.085,2.761-0.014,2.939-1.695c6.723-6.575,13.432-14.807,19.188-22.786
				c0.21-0.292,0.355-0.598,0.461-0.908c0.819-0.579,1.343-1.936,0.831-3.201c-2.439-6.023-6.427-10.863-9.857-15.923
				c-3.885-5.734-7.56-11.997-11.995-16.968c-0.794-0.891-1.655-1.019-2.355-0.681c-0.283-0.018-0.573,0.036-0.85,0.265
				c-3.718,3.075-6.827,7.284-10.065,11.181C782.772,871.611,778.948,875.798,775.773,880.788z M728.857,979.894
				c-2.276,2.751-4.682,5.343-6.648,8.473c-0.029,0.018-0.056,0.014-0.085,0.035c-5.14,3.803-9.992,6.87-15.591,8.801
				c0.313-2.49,0.491-5.013,1.088-7.448c0.92-3.76,2.452-6.86,4.111-10.093c0.012-0.023,0.018-0.05,0.03-0.073
				c3.231-2.028,5.866-5.942,8.497-9.079c2.656-3.167,5.8-6.13,7.852-10.055c1.415,2.078,2.904,4.08,4.318,6.126
				c1.149,1.664,2.282,3.472,3.468,5.213C733.267,973.877,731.095,977.19,728.857,979.894z M766.081,944.171
				c-7.813,9.353-15.629,18.704-23.442,28.057c-1.818-3.676-4.388-6.85-6.563-10.065c-2.418-3.574-4.718-7.437-7.44-10.614
				c8.21-8.068,15.546-18.024,23.086-27.116c6.968-8.396,16.296-16.82,21.746-27.141c2.458,4.232,5.303,8.05,8.024,11.996
				c2.101,3.047,4.126,6.451,6.408,9.389C780.015,925.793,773.133,935.733,766.081,944.171z M794.299,915.331
				c-0.422,0.524-0.9,1.049-1.354,1.601c-2.194-4.378-5.238-8.14-7.854-12.001c-2.979-4.396-5.823-8.979-9.151-12.899
				c0.2-0.184,0.394-0.377,0.579-0.576c0.531-0.573,1.011-1.158,1.412-1.823c2.337,3.856,5.046,7.372,7.557,10.988
				c3.175,4.574,6.236,9.432,9.611,13.778C794.832,914.707,794.563,915.004,794.299,915.331z M807.973,877.918
				c2.823,4.092,5.48,8.604,8.674,12.204c-6.019,6.423-12.219,13.859-17.425,21.489c-3.104-5.377-6.775-10.284-10.164-15.315
				c-2.993-4.447-5.822-9.238-9.214-13.146c3.421-3.46,6.497-7.527,9.663-11.385c2.625-3.2,5.381-6.266,7.751-9.796
				C800.43,867.656,804.382,872.711,807.973,877.918z"/>
			<path fill="#00135B" d="M713.941,981.842c1.049,0.624,2.025,0.944,2.873,2.068c0.841,1.119,1.139,2.422,1.512,3.876
				c0.297,1.17,1.604,1.186,1.684-0.182c0.233-3.976-2.98-8.435-5.987-8.048C713.027,979.686,713.241,981.426,713.941,981.842z"/>
			<path fill="#00135B" d="M767.677,911.172c-0.233,0.817-0.204,1.802-0.245,2.673c-0.04,0.878-0.123,1.787,0.021,2.655
				c0.198,1.21,1.387,1.162,1.705,0.107c0.248-0.817,0.27-1.764,0.338-2.633c0.069-0.882,0.203-1.811,0.072-2.685
				C769.369,909.95,768.012,910,767.677,911.172z"/>
			<path fill="#00135B" d="M763.933,916.441c-0.184,0.81-0.075,1.677-0.038,2.513c0.038,0.842,0.086,1.679,0.184,2.514
				c0.154,1.329,1.644,1.088,1.716-0.186c0.047-0.851,0.042-1.696,0.025-2.548c-0.017-0.858,0.017-1.667-0.22-2.477
				C765.307,915.252,764.146,915.502,763.933,916.441z"/>
			<path fill="#00135B" d="M760.004,921.391c-0.015,1.283,0.4,2.642,0.759,3.813c0.292,0.954,1.538,0.615,1.499-0.425
				c-0.05-1.266-0.1-2.729-0.521-3.883C761.343,919.813,760.018,920.168,760.004,921.391z"/>
			<path fill="#00135B" d="M756.5,923.732c-0.213,0.901-0.159,1.938-0.179,2.877c-0.018,0.937-0.109,1.935,0.059,2.851
				c0.189,1.025,1.232,1.063,1.503,0.094c0.245-0.88,0.235-1.897,0.297-2.828c0.063-0.944,0.203-1.95,0.066-2.886
				C758.072,922.647,756.77,922.6,756.5,923.732z"/>
			<path fill="#00135B" d="M752.489,928.952c-0.104,1.396,0.022,2.866,0.053,4.267s1.625,1.539,1.653,0.104
				c0.031-1.505,0.145-3.06,0.031-4.56C754.121,927.386,752.584,927.697,752.489,928.952z"/>
			<path fill="#00135B" d="M749.235,932.457c-0.453,1.235-0.253,2.996-0.205,4.345c0.05,1.372,1.47,1.477,1.604,0.103
				c0.129-1.335,0.438-3.087,0.064-4.354C750.477,931.792,749.506,931.715,749.235,932.457z"/>
			<path fill="#00135B" d="M746.189,936.66c-0.281,1.18-0.047,2.695-0.003,3.924c0.048,1.366,1.607,1.516,1.621,0.102
				c0.012-1.207,0.226-2.786-0.077-3.93C747.482,935.82,746.453,935.551,746.189,936.66z"/>
			<path fill="#00135B" d="M742.164,939.748c-0.155,0.812-0.053,1.638-0.008,2.463c0.048,0.847,0.095,1.692,0.143,2.536
				c0.076,1.37,1.669,1.539,1.643,0.104c-0.017-0.9-0.033-1.8-0.05-2.697c-0.017-0.884,0.008-1.738-0.22-2.575
				C743.429,938.683,742.329,938.881,742.164,939.748z"/>
			<path fill="#00135B" d="M738.691,943.841c-0.31,0.764-0.334,1.603-0.415,2.45c-0.081,0.864-0.145,1.725-0.197,2.592
				c-0.073,1.225,1.45,1.64,1.626,0.383c0.119-0.844,0.234-1.687,0.324-2.537c0.089-0.836,0.264-1.704,0.116-2.54
				C739.995,943.342,739.035,942.991,738.691,943.841z"/>
			<path fill="#00135B" d="M735.439,949.491c-0.331,1.063-0.192,2.502-0.173,3.632c0.025,1.477,1.523,1.528,1.693,0.109
				c0.135-1.129,0.41-2.513,0.187-3.635C736.91,948.415,735.775,948.414,735.439,949.491z"/>
		</g>
		<g>
			<path fill="#00135B" d="M145.19,769.611c-3.979-11.672-7.483-24.704-12.987-35.158c-0.519-0.985-1.459-0.964-2.158-0.416
				c-0.314,0.008-0.645,0.1-0.987,0.302c-8.234,4.9-16.477,9.778-24.707,14.701c-7.287,4.355-15.098,8.205-21.857,13.934
				c-1.7-4.477-3.408-8.945-5.146-13.396c-0.896-2.291-2.944-2.046-3.959-0.621c-5.083,1.533-9.997,4.926-14.78,7.49
				c-6.192,3.321-12.379,6.671-18.541,10.088c-5.235,2.906-11.699,7.879-10.368,15.311c-0.219,0.53-0.3,1.187-0.108,1.928
				c3.607,13.941,8.584,27.364,13.059,40.845c2.91,8.766,5.49,20.934,12.596,25.367c5.95,3.711,12.368,0.299,17.91-3.071
				c9.71-5.905,19.351-12.097,28.951-18.311c0.932-0.602,1.314-1.648,1.318-2.704c0.771-0.508,1.355-1.815,1.029-3.06
				c-1.604-6.11-3.675-12.064-5.895-17.938c8.171-3.405,15.814-9.763,23.426-14.93c6.876-4.665,14.554-8.728,21.02-14.496
				c1.381,0.354,2.75-1.35,2.806-3.242C146.035,771.295,145.74,770.314,145.19,769.611z M100.062,822.819
				c-7.446,4.628-14.837,9.422-22.249,14.146c-6.764,4.311-17.3,13.912-23.8,4.372c-4.808-7.057-7.118-18.448-10-27.004
				c-3.075-9.127-5.985-18.462-9.404-27.397c1.116-1.085,1.745-3.257,0.693-5.177c-3.119-5.685,18.141-15.129,20.845-16.652
				c5.759-3.241,12.356-5.995,17.835-10.375c4.429,11.881,9.015,23.662,13.528,35.482c4.124,10.804,7.922,22.23,12.874,32.455
				C100.277,822.715,100.171,822.752,100.062,822.819z M118.732,784.76c-7.219,5.016-15.176,9.4-21.672,15.98
				c-0.026,0.029-0.037,0.068-0.062,0.096c-1.938-4.975-3.931-9.901-5.795-14.816c-2.363-6.229-4.706-12.476-7.063-18.714
				c7.686-2.882,15.028-8.066,22.301-12.359c7.928-4.683,15.841-9.407,23.761-14.111c2.434,9.988,6.38,19.744,9.785,29.227
				C132.667,773.853,125.606,779.981,118.732,784.76z"/>
			<path fill="#00135B" d="M102.265,791.695c-0.78-1.166-1.988-1.748-2.972-2.573c-1.048-0.88-2.054-1.837-3.014-2.88
				c-0.966-1.047-2.419,1.058-1.478,2.192c0.993,1.195,2.016,2.337,3.138,3.315c1.025,0.893,2.219,2.055,3.476,2.148
				C102.263,793.96,102.865,792.596,102.265,791.695z"/>
			<path fill="#00135B" d="M104.683,785.313l-2.528-2.621c-0.992-1.028-2.014,1.061-1.091,2.116c0.813,0.931,1.626,1.86,2.44,2.788
				c0.76,0.87,1.487,1.873,2.422,2.384c0.961,0.524,1.511-1.054,1.035-2C106.411,786.885,105.458,786.115,104.683,785.313z"/>
			<path fill="#00135B" d="M112.325,783.95c-0.603-0.785-1.402-1.259-2.134-1.81c-0.753-0.569-1.505-1.135-2.258-1.703
				c-1.07-0.806-2.176,1.261-1.097,2.127c0.739,0.593,1.479,1.188,2.218,1.78c0.702,0.567,1.428,1.329,2.219,1.637
				C112.11,786.308,113.063,784.909,112.325,783.95z"/>
			<path fill="#00135B" d="M115.011,778.865c-0.788-0.522-1.514-1.174-2.194-1.917c-0.823-0.901-2.057,0.888-1.264,1.872
				c0.769,0.955,1.587,1.828,2.513,2.499c0.886,0.645,1.913,1.427,2.919,0.959c0.583-0.271,0.6-1.276,0.294-1.829
				C116.788,779.56,115.736,779.346,115.011,778.865z"/>
			<path fill="#00135B" d="M119.366,774.468l-2.479-1.058c-1.196-0.513-1.858,1.904-0.661,2.449c0.82,0.376,1.639,0.75,2.458,1.126
				c0.73,0.334,1.695,1.068,2.464,0.759c0.653-0.262,0.936-1.135,0.514-1.902C121.175,774.958,120.117,774.787,119.366,774.468z"/>
			<path fill="#00135B" d="M126.069,773.156c-0.569-0.743-1.366-0.741-2.069-1.188c-0.667-0.427-1.217-1.063-1.678-1.828
				c-0.807-1.331-2.271,0.372-1.509,1.725c0.568,1.011,1.294,1.865,2.129,2.469c0.783,0.564,1.959,1.331,2.822,0.724
				C126.247,774.716,126.519,773.741,126.069,773.156z"/>
			<path fill="#00135B" d="M129.575,770.63c-0.523-0.453-1.145-0.599-1.665-1.048c-0.52-0.448-0.876-1.064-1.118-1.817
				c-0.49-1.511-2.126-0.425-1.716,1.076c0.605,2.226,2.494,4.583,4.378,3.774C130.09,772.344,130.075,771.061,129.575,770.63z"/>
			<path fill="#00135B" d="M131.595,766.268c-0.529-0.538-1.064-1.063-1.593-1.594c-0.845-0.846-2.08,0.899-1.266,1.872
				c0.493,0.59,0.986,1.177,1.479,1.766c0.508,0.606,0.958,1.304,1.674,1.366c0.541,0.046,1.139-0.634,0.979-1.418
				C132.675,767.288,132.17,766.854,131.595,766.268z"/>
			<path fill="#00135B" d="M91.585,821.673c-6.645,2.972-13.433,5.223-20.375,6.538c-1.781,0.339-4.837,1.508-6.611,0.785
				c-2.648-1.079-5.389-5.751-6.598-8.886c-1.539-3.995-2.446-8.805-3.608-13.006c-2.687-9.712-7.311-20.23-0.539-28.832
				c4.851-6.162,11.061-10.9,16.314-16.483c0.96-1.02-0.248-2.79-1.223-1.896c-4.478,4.106-8.854,8.406-13.212,12.732
				c-2.676,2.654-5.889,5.27-7.291,9.518c-2.928,8.872,2.462,21.145,4.673,29.154c2.406,8.718,3.742,20.476,12.165,20.96
				c9.004,0.518,18.979-3.707,27.407-7.474C94.259,824.082,93.145,820.978,91.585,821.673z"/>
		</g>
		<g>
			<path fill="#00135B" d="M799.298,832.554c0.271-0.894,0.208-1.734-0.046-2.435c0.035-0.827-0.146-1.703-0.624-2.449
				c-5.947-9.268-13.148-20.639-21.529-26.488c0.088-0.579,0.004-1.229-0.359-1.892c-7.246-13.29-12.095-27.621-14.2-43.824
				c-1.337-10.3-2.754-20.452-9.944-26.453c-16.003-13.357-37.665,1.536-48.884,17.722c-7.088,10.224-12.284,22.722-15.956,35.687
				c-2.873,10.142-4.653,21.641-1.058,31.917c3.854,11.014,12.237,13.953,20.311,17.012c11.742,4.447,23.483,8.889,35.225,13.33
				c0.139,0.054,0.26,0.048,0.39,0.067c0.03,0.063,0.036,0.13,0.073,0.189c6.664,10.847,15.584,19.854,23.372,29.247
				c0.458,0.555,0.959,0.768,1.439,0.763c0.351,0.413,0.831,0.619,1.413,0.346C783.119,868.6,793.839,850.622,799.298,832.554z
				 M733.353,738.793c4.369,28.501,12.037,56.44,28.957,75.866c-0.234,0.329-0.479,0.641-0.713,0.967
				c-0.039-0.055-0.059-0.114-0.107-0.164c-17.473-17.586-28.708-41.763-34.384-69.744c-0.288-1.428-1.828-0.733-1.619,0.663
				c4.263,28.538,17.166,53.813,34.479,71.283c0.029,0.028,0.059,0.031,0.088,0.058c-0.289,0.395-0.588,0.774-0.879,1.167
				c-16.741-19.372-30.303-40.997-41.31-66.703c-0.567-1.326-1.983-0.083-1.49,1.237c9.663,25.868,24.083,49.738,41.238,67.535
				c-0.084,0.111-0.172,0.221-0.257,0.334c-0.063-0.228-0.166-0.452-0.362-0.643c-17.395-16.872-32.99-36.608-46.837-58.529
				c-0.605-0.961-1.874,0.425-1.286,1.418c13.423,22.645,29.044,42.373,46.53,59.414c0.148,0.143,0.304,0.236,0.46,0.283
				c-0.097,0.124-0.197,0.247-0.293,0.371c-15.763-16.65-32.498-31.765-49.737-45.553c-1.079-0.863-1.95,1.43-0.893,2.304
				c16.939,14.004,33.151,29.24,48.985,45.342c-0.215,0.274-0.434,0.546-0.648,0.82c-0.052-0.086-0.088-0.176-0.163-0.253
				c-15.439-16.059-33.1-30.177-51.948-37.788c-0.937-0.38-1.505,1.664-0.586,2.168c18.361,10.078,35.364,21.291,51.092,37.703
				c0.035,0.035,0.071,0.04,0.104,0.069c-0.687,0.87-1.393,1.736-2.084,2.604c-16.057-14.026-33.314-25.271-51.499-33.532
				c-0.883-0.4-1.447,1.635-0.56,2.069c17.766,8.69,34.615,19.816,50.563,33.335c-0.591,0.74-1.188,1.48-1.776,2.22
				c-0.021-0.013-0.031-0.036-0.056-0.05c-16.354-9.154-32.7-18.345-49.146-27.207c-1.049-0.564-1.883,1.5-0.817,2.116
				c16.056,9.271,32.219,18.226,48.365,27.207c-0.506,0.635-1.005,1.267-1.519,1.9c-0.03-0.013-0.055-0.032-0.084-0.044
				c-8.61-3.259-17.221-6.519-25.831-9.777c-8.207-3.104-20.948-4.909-25.788-15.527c-5-10.972-1.156-24.839,2.395-35.458
				c3.639-10.883,8.357-21.161,14.704-29.632c10.714-14.302,40.627-32.208,47.852-3.326c2.519,10.073,2.804,20.781,5.671,30.828
				c2.428,8.51,5.715,16.469,9.805,23.732c-0.281,0.483-0.575,0.939-0.859,1.418c-4.926-9.185-9.784-18.095-13.57-28.312
				c-4.295-11.586-7.267-23.807-9.648-36.307c-0.243-1.278-1.604-0.646-1.438,0.586c3.149,23.43,11.247,48.324,23.282,66.298
				c-0.764,1.238-1.545,2.44-2.326,3.642c-13.339-19.996-21.992-43.702-25.689-70.021c-0.165-1.172-1.696-0.834-1.56,0.355
				c3.084,26.827,12.089,51.77,25.851,71.796c-0.696,1.039-1.404,2.06-2.113,3.078c-16.51-19.114-24.101-46.504-29.019-74.241
				C734.637,736.827,733.149,737.476,733.353,738.793z M769.211,870.036c-0.047-0.066-0.083-0.134-0.135-0.198
				c-7.592-9.076-15.028-19.598-23.496-27.257c11.126-9.964,20.613-23.858,28.842-37.801c3.166,4.511,7.052,8.207,10.426,12.435
				c3.286,4.112,6.355,8.475,9.307,13c0.019,0.604,0.203,1.186,0.602,1.62C789.261,848.779,780.333,859.643,769.211,870.036z"/>
		</g>
	</g>
</g>
</svg>
