<?xml version="1.0" encoding="utf-8"?>
<!-- Generator: Adobe Illustrator 16.0.0, SVG Export Plug-In . SVG Version: 6.00 Build 0)  -->
<!DOCTYPE svg PUBLIC "-//W3C//DTD SVG 1.1//EN" "http://www.w3.org/Graphics/SVG/1.1/DTD/svg11.dtd">
<svg version="1.1" xmlns="http://www.w3.org/2000/svg" xmlns:xlink="http://www.w3.org/1999/xlink" x="0px" y="0px" width="512px"
	 height="512px" viewBox="0 0 512 512" enable-background="new 0 0 512 512" xml:space="preserve">
<g id="Capa_1">
	<g>
		<g>
			<path fill="#FCE25C" d="M175.895,175.895l54.069-54.069l-60.43-104.958l-18.04,54.12c-1.536,4.608-6.083,7.518-10.911,6.98
				l-70.441-7.827l7.827,70.441c0.536,4.828-2.373,9.375-6.981,10.911l-54.12,18.04l104.958,60.43L175.895,175.895z"/>
			<path fill="#FBD307" d="M131.367,131.367c-22.188,22.188-39.012,47.734-50.506,75.011l40.964,23.586l54.069-54.069l54.069-54.069
				l-23.586-40.964C179.101,92.355,153.555,109.18,131.367,131.367z"/>
			<g>
				<circle fill="#FB636F" cx="70.142" cy="70.142" r="16.867"/>
				<circle fill="#FB636F" cx="169.534" cy="16.867" r="16.867"/>
				<circle fill="#FB636F" cx="16.867" cy="169.534" r="16.867"/>
			</g>
		</g>
		<g>
			<circle fill="#7FD061" cx="298.346" cy="298.346" r="213.654"/>
			<path fill="#51BE26" d="M410.013,116.173c19.962,32.495,31.481,70.734,31.481,111.667c0,117.998-95.656,213.654-213.654,213.654
				c-40.933,0-79.172-11.52-111.667-31.481C153.754,471.193,221.281,512,298.346,512C416.344,512,512,416.344,512,298.346
				C512,221.281,471.193,153.754,410.013,116.173z"/>
			<circle fill="#EFF3F5" cx="298.346" cy="298.346" r="173.594"/>
		</g>
		<g>
			<path fill="#595959" d="M306.072,284.311v-74.097c0-4.267-3.459-7.726-7.727-7.726c-4.267,0-7.726,3.459-7.726,7.726v74.097
				c-4.945,2.728-8.298,7.988-8.298,14.035c0,3.034,0.857,5.86,2.322,8.278l-30.378,52.619c-2.134,3.696-0.868,8.421,2.828,10.554
				c1.217,0.703,2.545,1.037,3.856,1.037c2.67,0,5.268-1.386,6.698-3.865l30.377-52.616c0.108,0.003,0.213,0.017,0.321,0.017
				c8.851,0,16.024-7.174,16.024-16.023C314.37,292.299,311.018,287.038,306.072,284.311L306.072,284.311z"/>
			<path fill="#595959" d="M298.346,174.446c4.269,0,7.727-3.459,7.727-7.726v-8.584c0-4.267-3.459-7.726-7.727-7.726
				c-4.267,0-7.726,3.459-7.726,7.726v8.584C290.62,170.987,294.078,174.446,298.346,174.446z"/>
			<path fill="#595959" d="M234.932,173.057c-2.134-3.696-6.86-4.96-10.554-2.828c-3.696,2.134-4.962,6.859-2.828,10.554
				l4.292,7.434c1.431,2.479,4.028,3.865,6.698,3.865c1.311,0,2.64-0.335,3.856-1.037c3.696-2.134,4.962-6.859,2.828-10.554
				L234.932,173.057z"/>
			<path fill="#595959" d="M188.218,225.842l-7.434-4.292c-3.696-2.134-8.421-0.868-10.554,2.828
				c-2.134,3.695-0.868,8.421,2.828,10.554l7.434,4.292c1.217,0.703,2.545,1.037,3.856,1.037c2.67,0,5.267-1.386,6.698-3.865
				C193.18,232.701,191.913,227.976,188.218,225.842z"/>
			<path fill="#595959" d="M174.446,298.346c0-4.267-3.459-7.726-7.726-7.726h-8.584c-4.267,0-7.726,3.459-7.726,7.726
				c0,4.268,3.459,7.727,7.726,7.727h8.584C170.987,306.072,174.446,302.613,174.446,298.346z"/>
			<path fill="#595959" d="M180.491,357.468l-7.434,4.292c-3.696,2.134-4.962,6.859-2.828,10.555
				c1.431,2.479,4.028,3.864,6.698,3.864c1.311,0,2.64-0.335,3.856-1.037l7.434-4.292c3.696-2.134,4.962-6.858,2.828-10.554
				C188.911,356.601,184.186,355.335,180.491,357.468z"/>
			<path fill="#595959" d="M236.396,405.646c-3.695-2.136-8.421-0.868-10.554,2.827l-4.292,7.435
				c-2.134,3.694-0.868,8.421,2.828,10.554c1.217,0.703,2.545,1.037,3.856,1.037c2.67,0,5.267-1.386,6.698-3.865l4.292-7.434
				C241.358,412.506,240.092,407.78,236.396,405.646z"/>
			<path fill="#595959" d="M298.346,422.246c-4.268,0-7.726,3.459-7.726,7.726v8.584c0,4.268,3.459,7.727,7.726,7.727
				c4.268,0,7.727-3.459,7.727-7.727v-8.584C306.072,425.705,302.614,422.246,298.346,422.246L298.346,422.246z"/>
			<path fill="#595959" d="M370.85,408.474c-2.134-3.694-6.859-4.961-10.554-2.826c-3.696,2.134-4.962,6.859-2.828,10.555
				l4.293,7.434c1.433,2.479,4.028,3.864,6.698,3.864c1.311,0,2.641-0.335,3.855-1.037c3.696-2.134,4.963-6.859,2.828-10.555
				L370.85,408.474z"/>
			<path fill="#595959" d="M423.635,361.76l-7.434-4.292c-3.694-2.135-8.421-0.867-10.554,2.827
				c-2.135,3.696-0.867,8.421,2.827,10.555l7.435,4.292c1.216,0.703,2.545,1.037,3.855,1.037c2.671,0,5.268-1.386,6.698-3.863
				C428.597,368.619,427.33,363.894,423.635,361.76L423.635,361.76z"/>
			<path fill="#595959" d="M438.556,290.62h-8.585c-4.268,0-7.726,3.459-7.726,7.726c0,4.268,3.459,7.727,7.726,7.727h8.585
				c4.269,0,7.727-3.459,7.727-7.727C446.283,294.079,442.824,290.62,438.556,290.62z"/>
			<path fill="#595959" d="M412.345,240.261c1.312,0,2.641-0.334,3.856-1.037l7.434-4.292c3.695-2.134,4.962-6.859,2.828-10.555
				c-2.134-3.696-6.861-4.961-10.554-2.827l-7.435,4.292c-3.694,2.134-4.962,6.859-2.828,10.555
				C407.078,238.875,409.675,240.261,412.345,240.261z"/>
			<path fill="#595959" d="M372.314,170.229c-3.693-2.134-8.42-0.868-10.554,2.827l-4.293,7.434
				c-2.134,3.695-0.868,8.421,2.828,10.555c1.216,0.703,2.545,1.037,3.856,1.037c2.67,0,5.267-1.386,6.697-3.864l4.293-7.434
				C377.277,177.089,376.011,172.363,372.314,170.229z"/>
		</g>
	</g>
</g>
<g id="Capa_1_copy" display="none">
	<g display="inline">
		<g>
			<circle fill="#EC407A" cx="257.955" cy="256.346" r="228.654"/>
			<path fill="#D81B60" d="M377.462,61.383c21.363,34.777,33.691,75.701,33.691,119.507c0,126.282-102.372,228.654-228.654,228.654
				c-43.806,0-84.73-12.328-119.507-33.691C103.212,441.328,175.479,485,257.955,485c126.282,0,228.654-102.372,228.654-228.654
				C486.609,173.871,442.938,101.603,377.462,61.383z"/>
			<circle fill="#EFF3F5" cx="257.955" cy="256.346" r="185.782"/>
		</g>
		<g>
			<path fill="#595959" d="M266.224,241.325v-79.299c0-4.566-3.701-8.269-8.269-8.269c-4.566,0-8.268,3.702-8.268,8.269v79.299
				c-5.292,2.919-8.88,8.549-8.88,15.021c0,3.247,0.917,6.271,2.485,8.859l-32.511,56.313c-2.284,3.956-0.929,9.012,3.026,11.295
				c1.302,0.752,2.723,1.109,4.127,1.109c2.857,0,5.637-1.482,7.168-4.137l32.51-56.31c0.116,0.003,0.228,0.018,0.344,0.018
				c9.472,0,17.149-7.678,17.149-17.148C275.104,249.875,271.517,244.244,266.224,241.325L266.224,241.325z"/>
			<path fill="#595959" d="M257.955,123.747c4.568,0,8.269-3.702,8.269-8.269v-9.187c0-4.566-3.701-8.268-8.269-8.268
				c-4.566,0-8.268,3.702-8.268,8.268v9.187C249.687,120.045,253.388,123.747,257.955,123.747z"/>
			<path fill="#595959" d="M190.089,122.261c-2.284-3.956-7.341-5.308-11.295-3.026c-3.955,2.284-5.31,7.34-3.026,11.295
				l4.593,7.956c1.532,2.654,4.311,4.137,7.168,4.137c1.403,0,2.826-0.358,4.127-1.11c3.955-2.284,5.31-7.34,3.026-11.295
				L190.089,122.261z"/>
			<path fill="#595959" d="M140.095,178.751l-7.956-4.593c-3.956-2.284-9.012-0.929-11.295,3.027
				c-2.284,3.955-0.929,9.012,3.027,11.295l7.956,4.593c1.303,0.752,2.724,1.109,4.127,1.109c2.857,0,5.637-1.483,7.168-4.136
				C145.406,186.092,144.05,181.036,140.095,178.751z"/>
			<path fill="#595959" d="M125.356,256.346c0-4.566-3.702-8.268-8.268-8.268h-9.187c-4.566,0-8.268,3.702-8.268,8.268
				c0,4.567,3.702,8.269,8.268,8.269h9.187C121.655,264.614,125.356,260.913,125.356,256.346z"/>
			<path fill="#595959" d="M131.826,319.618l-7.956,4.594c-3.956,2.283-5.311,7.341-3.026,11.296
				c1.532,2.652,4.311,4.136,7.168,4.136c1.403,0,2.825-0.359,4.127-1.11l7.956-4.594c3.956-2.283,5.311-7.34,3.027-11.294
				C140.837,318.69,135.781,317.336,131.826,319.618z"/>
			<path fill="#595959" d="M191.656,371.18c-3.955-2.285-9.012-0.929-11.295,3.025l-4.593,7.957
				c-2.284,3.953-0.929,9.012,3.026,11.295c1.303,0.752,2.724,1.109,4.127,1.109c2.857,0,5.637-1.483,7.168-4.137l4.593-7.955
				C196.966,378.521,195.611,373.463,191.656,371.18z"/>
			<path fill="#595959" d="M257.955,388.944c-4.567,0-8.268,3.702-8.268,8.269v9.187c0,4.567,3.702,8.269,8.268,8.269
				c4.567,0,8.269-3.701,8.269-8.269v-9.187C266.224,392.646,262.523,388.944,257.955,388.944L257.955,388.944z"/>
			<path fill="#595959" d="M335.549,374.205c-2.283-3.953-7.341-5.309-11.294-3.024c-3.956,2.284-5.311,7.341-3.027,11.296
				l4.595,7.955c1.533,2.653,4.312,4.136,7.169,4.136c1.402,0,2.825-0.358,4.126-1.109c3.955-2.284,5.311-7.342,3.026-11.296
				L335.549,374.205z"/>
			<path fill="#595959" d="M392.04,324.212l-7.955-4.594c-3.954-2.284-9.013-0.928-11.295,3.026
				c-2.284,3.955-0.928,9.012,3.025,11.295l7.957,4.594c1.301,0.753,2.724,1.11,4.126,1.11c2.858,0,5.638-1.483,7.169-4.135
				C397.351,331.553,395.995,326.495,392.04,324.212L392.04,324.212z"/>
			<path fill="#595959" d="M408.009,248.078h-9.188c-4.567,0-8.269,3.702-8.269,8.268c0,4.567,3.702,8.269,8.269,8.269h9.188
				c4.568,0,8.269-3.701,8.269-8.269C416.279,251.779,412.577,248.078,408.009,248.078z"/>
			<path fill="#595959" d="M379.958,194.183c1.403,0,2.825-0.357,4.127-1.109l7.955-4.593c3.955-2.284,5.311-7.34,3.027-11.296
				c-2.284-3.955-7.344-5.309-11.295-3.025l-7.957,4.593c-3.953,2.284-5.31,7.341-3.026,11.296
				C374.321,192.7,377.101,194.183,379.958,194.183z"/>
			<path fill="#595959" d="M337.117,119.234c-3.953-2.284-9.012-0.929-11.295,3.025l-4.595,7.956
				c-2.283,3.954-0.929,9.012,3.027,11.296c1.301,0.752,2.724,1.11,4.127,1.11c2.857,0,5.637-1.483,7.167-4.136l4.595-7.956
				C342.428,126.576,341.072,121.519,337.117,119.234z"/>
		</g>
	</g>
</g>
</svg>
