<?xml version="1.0" encoding="utf-8"?>
<!-- Generator: Adobe Illustrator 16.0.0, SVG Export Plug-In . SVG Version: 6.00 Build 0)  -->
<!DOCTYPE svg PUBLIC "-//W3C//DTD SVG 1.1//EN" "http://www.w3.org/Graphics/SVG/1.1/DTD/svg11.dtd">
<svg version="1.1" xmlns="http://www.w3.org/2000/svg" xmlns:xlink="http://www.w3.org/1999/xlink" x="0px" y="0px"
	 width="896.955px" height="434.978px" viewBox="0 0 896.955 434.978" enable-background="new 0 0 896.955 434.978"
	 xml:space="preserve">
<g id="Layer_1">
	<g>
		<g>
			<path fill="#22F1F7" d="M290.1,219.195v208.074l-250.326,0.88c0.628-9.097-40.576-129.061,12.239-197.595
				c74.948-97.289,138.996-18.611,223.542-11.779C280.333,219.153,285.154,219.321,290.1,219.195z"/>
			<path fill="#D0FAFB" d="M865.279,423.245c-0.335,2.6-27.456-0.419-27.832,2.138l-169.218,0.587H290.1V219.195
				c4.778-0.126,9.599-0.503,14.544-1.174c16.599-2.264,33.995-7.964,52.438-18.695c190.888-110.701,346.315-80.647,433.584,5.785
				c10.731,10.646,20.457,22.174,29.091,34.371C856.854,292.003,873.62,357.435,865.279,423.245z"/>
			<path opacity="0.6" fill="#D7FBFC" d="M867.375,390.508c0.042,11.359-0.628,22.761-2.096,34.204
				c-0.335,2.599-27.456-0.42-27.832,2.138l-169.218,0.586H290.1v-0.167l378.129-1.3l169.218-0.587
				c0.376-2.557,27.497,0.462,27.832-2.138C866.663,412.305,867.375,401.364,867.375,390.508z"/>
			<polygon fill="#22F1F7" points="792.959,267.844 792.959,425.974 304.646,425.974 304.646,288.371 342.077,288.371 
				342.077,250.817 379.509,250.817 379.509,301.553 409.812,301.553 409.812,290.216 462.6,290.216 462.6,309.381 485.574,309.381 
				485.574,266.34 547.07,266.34 547.07,192.528 595.696,192.528 595.696,231.896 606.786,231.896 606.786,198.918 655.412,198.918 
				655.412,249.715 699.483,249.715 699.483,218.542 746.618,218.542 746.618,249.715 755.407,249.715 755.407,267.844 			"/>
			<g>
				<path fill="#29D3CE" d="M232.708,281.699H191.4c-2.575,0-4.682-2.106-4.682-4.682v-39.795c0-2.575,2.107-4.682,4.682-4.682
					h41.308c2.575,0,4.682,2.106,4.682,4.682v39.795C237.39,279.592,235.283,281.699,232.708,281.699z"/>
				<path fill="#BBF9FA" d="M230.918,279.57h-37.729c-2.352,0-4.276-1.925-4.276-4.276v-36.348c0-2.352,1.924-4.276,4.276-4.276
					h37.729c2.352,0,4.276,1.925,4.276,4.276v36.348C235.195,277.645,233.271,279.57,230.918,279.57z"/>
				<g>
					<g>
						<circle fill="#29D3CE" cx="212.054" cy="239.157" r="1.05"/>
						<circle fill="#29D3CE" cx="220.392" cy="241.15" r="1.05"/>
						<circle fill="#29D3CE" cx="227.299" cy="247.287" r="1.05"/>
						<circle fill="#29D3CE" cx="230.325" cy="256.377" r="1.049"/>
						<circle fill="#29D3CE" cx="227.747" cy="266.424" r="1.05"/>
						<circle fill="#29D3CE" cx="221.156" cy="273.033" r="1.05"/>
						<circle fill="#29D3CE" cx="212.054" cy="275.697" r="1.05"/>
					</g>
					<g>
						<circle fill="#29D3CE" cx="203.683" cy="241.15" r="1.05"/>
						<circle fill="#29D3CE" cx="196.776" cy="247.287" r="1.05"/>
						<circle fill="#29D3CE" cx="193.75" cy="256.377" r="1.049"/>
						<circle fill="#29D3CE" cx="196.328" cy="266.424" r="1.05"/>
						<circle fill="#29D3CE" cx="202.919" cy="273.033" r="1.05"/>
					</g>
				</g>
				<g>
					<circle fill="#29D3CE" cx="212.821" cy="256.376" r="1.05"/>
					<g>
						<rect x="212.678" y="243.264" fill="#29D3CE" width="0.287" height="13.112"/>
					</g>
					<g>
						
							<rect x="215.735" y="249.211" transform="matrix(0.6171 0.7869 -0.7869 0.6171 282.3389 -72.9833)" fill="#29D3CE" width="0.86" height="8.838"/>
					</g>
				</g>
			</g>
			<path fill="#29D3CE" d="M304.646,218.021v206.861h-29.097V218.765C284.977,219.534,294.661,219.396,304.646,218.021z"/>
			<path fill="#29D3CE" d="M819.761,239.485v185.397h-29.097V205.109C801.418,215.763,811.137,227.276,819.761,239.485z"/>
			<path fill="#414143" d="M886.644,427.854h-873.6c-0.898,0-1.634-0.734-1.634-1.634v-0.502c0-0.898,0.735-1.634,1.634-1.634h873.6
				c0.898,0,1.635,0.735,1.635,1.634v0.502C888.278,427.12,887.542,427.854,886.644,427.854z"/>
			<g>
				<polygon fill="#37B5A0" points="328.502,351.867 323.835,351.867 329.55,424.193 340.901,424.193 				"/>
				<g>
					<path fill="#414143" d="M421.306,330.761l-1.001,0.202c-4.461,0.901-8.848-2.011-9.749-6.472l-1.058-5.236
						c-0.901-4.461,2.011-8.848,6.472-9.749l1.001-0.202c4.461-0.901,8.848,2.011,9.75,6.472l1.058,5.236
						C428.679,325.473,425.767,329.86,421.306,330.761z"/>
					<path fill="#22F1F7" d="M323.835,351.867c0,0,25.485-11.963,60.402-4.005l-55.735,4.005H323.835z"/>
					<path fill="#35D3BC" d="M340.901,424.883l-12.399-73.017c0,0,39.047-13.114,69.343,0l18.02,72.557L340.901,424.883z"/>
					<g>
						<path fill="#7EAA37" d="M610.873,402.274c-0.692,7.922-5.166,10.368-7.133,10.157c-1.968-0.209-13.473-4.603-13.721-2.99
							c-0.252,1.611,6.674,6.877,11.522,7.123c0,0-9.156,10.099-15.24,7.184c-6.086-2.914-6.604-7.533-10.397-9.266
							s-7.03-1.729-5.465,0.039c1.565,1.767,8.431,3.483,10.6,7.321c0.512,0.905,1.012,1.742,1.395,2.479l-12.813-0.025
							c-4.062-2.019-7.484-4.803-7.74-7.805c-0.02-0.229-0.037-0.448-0.055-0.657c-0.395-4.618-0.395-4.618-0.395-4.618
							s-6.579-7.674-3.158-14.041c0.566-1.058,1.41-2.079,2.606-3.024c0,0,6.131-3.712,11.131-3.409c0,0-3.874,6.496-4.965,10.357
							c-0.385,1.36-0.423,2.395,0.173,2.702c0.653,0.337,1.499-0.643,2.374-2.215c2.19-3.936,4.565-11.592,4.565-11.592
							s3.687-0.357,7.882-0.411c1.883-0.024,3.867,0.013,5.667,0.17c1.987,0.174,3.747,0.497,4.893,1.047
							c0,0-0.25,0.205-0.671,0.558c-0.626,0.524-1.629,1.374-2.743,2.36c-3.309,2.927-7.608,7.054-6.001,7.425
							c1.301,0.302,5.385-2.125,9.02-4.533c3.384-2.24,6.376-4.467,6.376-4.467S611.566,394.352,610.873,402.274z"/>
						<g>
							<path fill="#7EAA37" d="M604.493,402.488c0,0-35.271-1.359-43.062,8.728c0,0-1.723,5.16-7.023,9.858l-0.826,2.252
								c0,0,6.112-6.445,8.299-6.835C561.881,416.491,558.46,403.994,604.493,402.488z"/>
							<path fill="#7EAA37" d="M555.891,421.015c-0.303,0.332-0.755,0.783-1.403,1.381l-0.014,0.014
								c-0.225,0.208-0.443,0.433-0.656,0.671c-0.327,0.363-0.641,0.759-0.94,1.181l-1.648-0.003
								c1.697-2.089,3.179-3.185,3.179-3.185s0.002-0.002,0.005-0.004C554.541,420.993,557.579,419.156,555.891,421.015z"/>
						</g>
					</g>
					<g>
						<path fill="#8EC63F" d="M522.927,398.091c0,0,14.231-7.97,7.59-18.785c0,0-5.313-6.641-11.005-8.348
							c0,0,3.036,16.127,0,16.507s-2.087-18.215-2.087-18.215s-14.989-7.21-20.871-6.642c0,0,9.297,15.749,6.262,15.369
							c-3.036-0.379-13.472-16.317-13.472-16.317s-15.369-2.846-17.836,6.262s1.519,13.661,3.795,14.23s16.887,0.38,16.508,2.276
							c-0.38,1.897-10.246,4.934-15.749,3.226c0,0,6.072,14.989,14.041,14.23s10.436-5.692,15.369-6.071
							c4.933-0.38,8.538,0.948,6.071,2.277c-2.467,1.328-10.815,0.435-14.8,3.822s-7.21,5.475,0.19,6.992
							c7.399,1.519,20.681,0.569,23.338-5.123C522.927,398.091,522.927,398.091,522.927,398.091z"/>
						<g>
							<path fill="#7EAA37" d="M478.528,370.768c0,0,39.846,12.902,44.398,27.323c0,0-0.189,6.451,3.795,13.851v2.846
								c0,0-4.174-9.677-6.45-11.005C520.271,403.783,529.188,391.26,478.528,370.768z"/>
							<path fill="#7EAA37" d="M530.413,424.231l-2.276-0.005c-0.072-3.294-0.453-6.99-1.576-9.807c0-0.002,0-0.002,0-0.002
								c-0.142-0.354-0.293-0.691-0.458-1.014c-0.001-0.004-0.003-0.008-0.004-0.011c-0.473-0.925-0.792-1.607-0.994-2.101
								l-0.002-0.002c-1.165-2.856,1.619,0.651,1.619,0.651S530.062,417.013,530.413,424.231z"/>
						</g>
					</g>
					<g>
						<path fill="#8EC63F" d="M545.567,387.1c0,0-18.759-10.505-10.005-24.761c0,0,7.003-8.754,14.506-11.005
							c0,0-4.001,21.26,0,21.76c4.003,0.5,2.752-24.011,2.752-24.011s19.759-9.504,27.512-8.754c0,0-12.255,20.76-8.253,20.26
							c4.001-0.501,17.758-21.51,17.758-21.51s20.259-3.752,23.51,8.253c3.252,12.005-2,18.008-5.002,18.759
							c-3.001,0.75-22.26,0.5-21.76,3.001c0.501,2.501,13.506,6.503,20.76,4.252c0,0-8.004,19.759-18.509,18.758
							c-10.504-1-13.756-7.503-20.259-8.003s-11.255,1.251-8.004,3.001c3.252,1.751,14.257,0.574,19.509,5.039
							c5.253,4.466,9.505,7.217-0.25,9.218c-9.754,2.001-27.263,0.75-30.764-6.753C545.567,387.1,545.567,387.1,545.567,387.1z"/>
						<g>
							<path fill="#7EAA37" d="M604.093,351.084c0,0-52.523,17.008-58.525,36.016c0,0,0.25,8.504-5.003,18.259v3.751
								c0,0,5.503-12.755,8.504-14.506C549.068,394.604,537.313,378.096,604.093,351.084z"/>
							<path fill="#7EAA37" d="M542.7,404.496c-0.001,0.003-0.003,0.004-0.003,0.006c-0.266,0.653-0.688,1.556-1.312,2.777
								c-0.002,0.003-0.003,0.004-0.005,0.008c-0.217,0.423-0.416,0.869-0.601,1.333c-0.002,0-0.002,0.001-0.002,0.003
								c-1.798,4.506-2.154,10.725-2.087,15.625l-3.014-0.006c-0.359-10.916,4.887-18.884,4.887-18.884s0,0,0.002-0.002
								C540.646,405.257,544.216,400.78,542.7,404.496z"/>
						</g>
					</g>
					<path fill="#58595B" d="M452.176,424.423h-71.348c-1.055-2.557-1.98-5.289-2.791-8.134c-2.034-7.113-3.351-14.954-4.19-22.634
						c-0.01-0.097-0.021-0.198-0.032-0.295c-1.44-13.32-1.447-26.134-1.253-33.83c0.112-4.454,0.288-7.197,0.299-7.33v-0.004
						c0.151-0.064,0.306-0.126,0.458-0.188c3.784-1.588,7.413-2.956,10.89-4.14c0.018-0.004,0.029-0.008,0.029-0.008
						c2.923-0.997,5.739-1.857,8.446-2.599c4.759-1.307,9.188-2.247,13.284-2.898c4.828-0.764,9.198-1.127,13.115-1.21
						c0.177-0.007,0.35-0.007,0.526-0.011c1.033-0.018,2.034-0.014,3.002,0.007c9.767,0.209,16.266,2.153,19.553,3.449
						c0.457,0.181,0.85,0.35,1.177,0.501c0.043,0.018,0.087,0.036,0.13,0.054c0.37,0.166,0.659,0.306,0.86,0.407
						c0.025,0.011,0.054,0.025,0.079,0.043c0.097,0.05,0.19,0.104,0.281,0.158l5.145,54.07L452.176,424.423z"/>
					<path fill="#58595B" d="M523.274,412.734c-7.148,3.319-49.667,6.104-53.752,4.929c-2.094-0.605-10.859-8.326-19.679-17.824
						c-0.008-0.006-0.008-0.006-0.008-0.006c-8.346-8.984-16.76-19.56-19.598-27.17c-5.837-15.638-0.819-29.523-0.819-29.523
						s10.849-0.046,15.272,2.625c4.424,2.677,29.71,49.248,33.091,50.477c3.382,1.236,43.438,3.525,48.024,5.702
						C525.806,401.943,530.416,409.417,523.274,412.734z"/>
					<path fill="#FE9378" d="M419.601,343.036l-0.01,2.633c0,0,0.729,8.233-9.408,9.451c-10.137,1.222-17.826-3.184-17.561-9.538
						c0.906-4.921,1.903-8.301,1.965-12.372c0.022-1.513-0.083-3.118-0.368-4.93l19.646-0.423l5.789,0.937L419.601,343.036z"/>
					<path fill="#F36523" d="M419.654,328.793l-0.053,14.242c-2.085,0.974-4.439,1.569-7.08,1.573
						c-9.03,0.015-18.018-14.518-18.302-16.329L419.654,328.793z"/>
					<path fill="#FE9378" d="M420.812,335.712c0,0-25.155,5.122-28.104-10.593c-2.949-15.714-8.181-25.637,7.755-29.571
						c15.937-3.935,20.191,1.475,22.451,6.48C425.174,307.035,427.279,333.975,420.812,335.712z"/>
					<path fill="#D35422" d="M427.789,290.343c0,0-7.019-0.529-15.3-4.115c-6.722-2.91-15.192,0.319-17.941,1.773
						c0.073-0.444,0.25-1.05,0.668-1.657c0,0-1.234,0.878-1.414,2.103c-0.127,0.094-0.184,0.159-0.151,0.181
						c0,0-1.4-0.254-2.3,0.152c0,0,0.63-0.091,0.855,0.313c0.023,0.043,0.059,0.079,0.101,0.111
						c-10.471,5.079-11.414,21.642-8.036,25.468c4.064,4.604,8.945,14.979,8.945,14.979s1.77-2.455,1.026-6.511
						s2.76-4.062,7.183-5.912c4.423-1.852,0.727-7.009,4.594-10.15c3.868-3.141,18.07-1.317,17.882-3.715
						C429.171,301.434,427.789,290.882,427.789,290.343z"/>
					<path fill="#414143" d="M380.828,424.423c-1.055-2.557-1.98-5.289-2.791-8.134c-2.034-7.113-3.351-14.954-4.19-22.634
						c-0.01-0.097-0.021-0.198-0.032-0.295c0.054,0.025,0.144,0.172,0.202,0.101c2.778-3.374,10.361-7.066,19.545,6.377
						c1.833,2.679,9.868,21.449,11.149,24.585H380.828z"/>
					<path fill="#FE9378" d="M388.284,424.423c-0.206-1.214,0.021-2.74,0.968-4.645c0,0,1.177-0.764,2.74-1.652
						c2.329-1.314,5.516-2.906,6.959-2.65c0.26,0.048,0.608,0.123,1.022,0.224c3.424,0.821,11.405,3.279,12.611,4.72
						c0.994,1.185,2.347,2.693,3.28,4.004H388.284z"/>
					<path fill="#58595B" d="M393.562,424.423h-67.226c-0.18-0.864-0.188-1.66,0.05-2.262c2.005-5.064,5.918-13.403,10.426-22.35
						c3.316-6.581,6.949-13.493,10.379-19.675c4.763-8.583,9.126-15.762,11.69-18.706c2.02-2.314,4.572-4.259,7.232-5.861
						c2.257-1.36,4.594-2.477,6.747-3.369v-0.004c0.151-0.064,0.306-0.126,0.458-0.188c4.68-1.897,8.392-2.729,8.392-2.729
						s0.051,2.124,0.054,5.39c0.014,9.476-0.349,28.57-3.374,33.229c-0.842,1.299-2.412,3.262-4.374,5.562
						c-0.058,0.065-0.111,0.13-0.169,0.194c-1.062,1.246-2.239,2.585-3.474,3.964c-7.017,7.859-15.902,17.09-16.986,18.213
						c-0.076,0.076-0.111,0.115-0.111,0.115h0.129l18.85,0.263l5.782,0.079l11.989,0.166c0.828,0.356,1.473,0.943,1.966,1.671
						C393.151,419.822,393.508,422.292,393.562,424.423z"/>
					<path fill="#414143" d="M523.274,412.734c-7.148,3.319-49.667,6.104-53.752,4.929c-2.094-0.605-10.859-8.326-19.679-17.824
						c0.436,0.058,4.468-6.665,22.857,9.422c0,0,4.815,2.144,17.922,0.943S520.561,408.562,523.274,412.734z"/>
					<g>
						<path fill="#D35422" d="M481.504,424.294h-48.606l0,0c0-2.14,1.735-3.875,3.875-3.875h44.731V424.294z"/>
						<polygon fill="#D35422" points="481.364,371.357 556.515,371.357 538.489,424.294 462.852,424.294 						"/>
						<polygon fill="#D76336" points="557.621,371.356 539.596,424.293 463.958,424.293 482.472,371.356 						"/>
						<path fill="#FE8D71" d="M517.104,397.336c-0.467,2.022-2.484,3.662-4.508,3.662c-2.022,0-3.283-1.64-2.816-3.662
							c0.467-2.023,2.485-3.662,4.508-3.662S517.571,395.313,517.104,397.336z"/>
						<polygon fill="#D35422" points="557.621,371.356 539.596,424.293 504.409,424.293 546.554,371.356 						"/>
					</g>
					<path fill="#414143" d="M400.018,330.761l-1.001,0.202c-4.46,0.901-8.848-2.011-9.749-6.472l-1.058-5.236
						c-0.901-4.461,2.011-8.848,6.472-9.749l1.001-0.202c4.46-0.901,8.848,2.011,9.749,6.472l1.058,5.236
						C407.391,325.473,404.479,329.86,400.018,330.761z"/>
					<g>
						<path fill="#414143" d="M392.223,311.903c-0.67-1.211-1.655-10.957,1.024-18.717c1.295-3.751,3.388-5.89,6.015-7.333
							c0.95-0.522,2.015-0.801,3.099-0.801l2.64,0.044c-8.693,3.681-10.708,23.371-10.031,25.471
							c-0.021-0.064-0.048-0.111-0.067-0.146L392.223,311.903z"/>
					</g>
					<g>
						<path fill="#414143" d="M417.593,332.401c-14.61,0-21.841-11.545-21.913-11.662l1.306-0.799l-0.653,0.399l0.653-0.399
							c0.068,0.109,6.877,10.931,20.608,10.931c0.092,0,0.183-0.001,0.276-0.001l0.016,1.53
							C417.789,332.401,417.69,332.401,417.593,332.401z"/>
					</g>
					<path fill="#58595B" d="M397.663,325.634l-0.499,0.101c-2.223,0.449-4.409-1.002-4.858-3.224l-0.527-2.609
						c-0.449-2.223,1.002-4.408,3.225-4.857l0.499-0.101c2.223-0.449,4.408,1.002,4.857,3.224l0.527,2.609
						C401.336,323,399.885,325.185,397.663,325.634z"/>
					<path fill="#414143" d="M419.409,332.911h-1.378c-0.701,0-1.275-0.575-1.275-1.276l0,0c0-0.701,0.574-1.275,1.275-1.275h1.378
						c0.701,0,1.275,0.574,1.275,1.275l0,0C420.685,332.335,420.11,332.911,419.409,332.911z"/>
				</g>
			</g>
			<g>
				<path fill="#D35422" d="M127.114,310.045c0,0-12.259,6.268-3.326,19.731c0,0-10.532,1.216-13.181-1.812
					c0,0,0.399,1.326,0.865,1.971c0,0-10.203-1.337-13.859-5.204c-3.656-3.866,7.744-55.305,34.92-44.778
					c0,0,24.162,2.203,17.305,29.438s2.151,28.747,2.151,28.747s-2.713,0.814-3.922,0.611c0,0-1.655-0.971-1.839-2.007
					c0,0,0.091,1.594,0.462,2.158c0,0-9.878-0.711-14.118-5.196C128.334,329.219,124.772,315.508,127.114,310.045z"/>
				<path fill="#FFFFFF" d="M144.612,323.502l-0.981,0.136c-4.37,0.606-8.442-2.474-9.048-6.844l-0.712-5.13
					c-0.606-4.37,2.474-8.442,6.844-9.048l0.981-0.137c4.37-0.606,8.442,2.474,9.048,6.844l0.712,5.13
					C152.062,318.824,148.982,322.896,144.612,323.502z"/>
				<path fill="#FFB3A3" d="M147.411,364.625c-3.657,2.824-5.971,13.018-11.869,14.699c-22.107,6.311-33.975-19.941-37.857-32.757
					c2.962-1.901,5.813-2.433,7.461-2.716c1.607-0.272,3.301-0.486,4.706-0.628c2.414-2.052,5.755-10.117,5.959-22.387l1.067,0.229
					l17.877,3.926c0,0-0.522,5.646-0.647,10.964c-0.095,4.16-0.229,5.155,0.092,5.651c1.391,0.228,3.029,3.783,3.029,3.783
					s0.001,0.006,0.01,0.017C137.495,345.783,143.039,353.933,147.411,364.625z"/>
				<path fill="#FE8D71" d="M134.756,324.996c0,0-0.525,5.641-0.647,10.963c-10.04-0.491-15.161-9.765-17.232-14.889
					L134.756,324.996z"/>
				<g>
					<path fill="#35D3BC" d="M225.684,417.711c0,0-10.513,0.386-21.929,0.425c-1.35,0.007-2.718,0.007-4.078,0
						c-9.297-0.039-18.435-0.365-22.322-1.367c-3.798-0.979-18.41-10.882-30.103-22.879c-0.004-0.004-0.004-0.007-0.004-0.007
						c-0.907,2.161-1.591,3.813-1.608,3.943c-0.344,2.692-0.918,5.393-1.612,7.983c-2.65,9.885-7.068,18.184-7.221,18.47
						l-6.261-0.01l-48.881-0.071c0,0,9.233-14.223,6.753-50.657c-0.063-0.921,8.511-30.318,8.511-30.318s6.661-1.166,14.36-1.786
						c0.726,0.662,2.222,20.001,11.852,21.121c1.566,0.181,11.615,15.529,11.615,15.529l3.043-15.679l-3.6-20.802
						c4.62,1.354,7.154,1.839,10.995,3.373c2.615,1.049,4.779,2.977,6.129,5.446c6.729,12.295,28.565,51.953,30.794,52.878
						c2.087,0.864,9.953,2.438,18.275,3.958h0.007c11.136,2.034,23.091,3.965,23.091,3.965L225.684,417.711z"/>
					<polygon fill="#9FF7F8" points="140.297,424.284 136.796,424.294 136.807,424.28 					"/>
				</g>
				<path fill="#FFB3A3" d="M137.736,330.37c0,0-23.771-0.466-23.253-15.266s-2.201-24.827,12.999-25.155
					c15.199-0.328,17.949,5.423,18.978,10.404C147.487,305.335,143.933,330.109,137.736,330.37z"/>
				<path fill="#37B5A0" d="M203.755,418.136c-1.35,0.007-2.718,0.007-4.078,0c-9.297-0.039-18.435-0.365-22.322-1.367
					c-3.798-0.979-18.41-10.882-30.103-22.879c-0.004-0.004-0.004-0.007-0.004-0.007s2.466-9.442,3.529-11.022
					c1.063-1.584,5.258,13.779,15.058,20.029c9.801,6.25,25.139,10.629,32.587,8.857
					C203.44,410.553,203.954,415.064,203.755,418.136z"/>
				<path fill="#FFFFFF" d="M133.067,322.132c0,0,0.151,1.771,4.049,2.051c0,0,3.273,0.235,3.409-1.669
					C140.526,322.514,137.547,320.725,133.067,322.132z"/>
				<g>
					<path fill="#414143" d="M134.354,328.118c-13.507-4.268-16.819-17.053-16.852-17.182l1.44-0.357l-0.72,0.179l0.72-0.18
						c0.03,0.122,3.166,12.114,15.859,16.125c0.085,0.026,0.169,0.053,0.256,0.079l-0.433,1.42
						C134.535,328.174,134.444,328.146,134.354,328.118z"/>
				</g>
				<path fill="#FFFFFF" d="M135.884,329.119l-1.273-0.403c-0.649-0.204-1.012-0.903-0.807-1.552l0,0
					c0.205-0.648,0.903-1.012,1.551-0.807l1.274,0.402c0.649,0.205,1.012,0.903,0.807,1.552l0,0
					C137.231,328.959,136.533,329.323,135.884,329.119z"/>
				<path fill="#D35422" d="M139.086,287.986c0,0-6.086,18.027-15.215,21.086c-9.129,3.059-12.158-0.563-12.158-0.563
					s6.728-6.179,7.5-16.178C119.213,292.332,133.963,280.615,139.086,287.986z"/>
				<path fill="#D35422" d="M127.72,293.292c0,0,12.395-0.695,16.098,2.833c2.671,2.545,2.608,3.873,2.816,7.267
					c0,0,5.42-8.361-0.157-14.213C140.564,282.974,127.72,293.292,127.72,293.292z"/>
				<path fill="#D35422" d="M138.559,289.893c0,0-3.104,17.249-14.451,23.515c0,0,10.99-11.249,11.185-22.502
					C135.487,279.652,138.559,289.893,138.559,289.893z"/>
				<path fill="#D35422" d="M97.613,324.73c3.655,3.868,13.857,5.208,13.857,5.208c-0.466-0.645-0.862-1.973-0.862-1.973
					c5.244,4.251,18.122,1.163,18.122,1.163c-10.273-2.269-6.946-17.094-3.453-17.726c2.037-11.181,6.075-25.101,7.966-31.353
					c-0.455-0.074-0.712-0.098-0.712-0.098C105.358,269.426,93.959,320.868,97.613,324.73z"/>
				<g>
					<path fill="#FFFFFF" d="M119.928,321.982l-0.981,0.136c-4.371,0.606-8.442-2.474-9.049-6.844l-0.711-5.13
						c-0.606-4.37,2.473-8.442,6.844-9.049l0.981-0.136c4.37-0.606,8.442,2.474,9.048,6.844l0.712,5.13
						C127.378,317.303,124.298,321.375,119.928,321.982z"/>
					<g>
						<path fill="#FFFFFF" d="M113.508,303.268c-0.583-1.094,1.462-9.591,4.471-16.182c1.454-3.185,5.124-7.449,7.743-8.548
							c0.947-0.397,2.204-0.235,3.229-0.003c0.745,0.168,2.834,1.143,2.834,1.143c-8.609,2.684-16.09,20.725-15.548,22.592
							c-0.017-0.058-0.041-0.101-0.057-0.132L113.508,303.268z"/>
					</g>
					<path fill="#E6E7EA" d="M117.954,316.879l-0.488,0.068c-2.178,0.303-4.207-1.232-4.509-3.41l-0.354-2.556
						c-0.302-2.178,1.232-4.206,3.41-4.509l0.489-0.067c2.177-0.302,4.206,1.232,4.508,3.41l0.354,2.556
						C121.666,314.549,120.132,316.578,117.954,316.879z"/>
				</g>
				<path fill="#FFB3A3" d="M175.636,409.141c0,0,10.194-0.586,11.185-0.052c1.609,0.866,7.084,4.393,7.942,5.417
					c0.859,1.024,3.105,5.136,3.105,5.136s-0.973,0.271-1.412-0.125c-0.439-0.394-3.765-3.929-3.765-3.929l3.417,5.19
					c0,0-1.182-0.052-1.65-0.567c-0.469-0.516-3.661-3.762-3.661-3.762l-1.088-0.214c0,0,1.107,0.888,1.709,1.691
					c0.601,0.805,0.999,1.67,0.999,1.67s-0.974-0.165-1.277-0.311c-0.303-0.146-3.166-2.651-3.166-2.651l1.518,2.071
					c0,0-1.023-0.051-1.359-0.278c-0.336-0.227-2.566-2.281-2.962-2.276c-0.396,0.004-3.242-0.114-4.465-0.763
					c-1.222-0.647-5.06-2.133-5.06-2.133L175.636,409.141z"/>
				<path fill="#37B5A0" d="M112.693,338.6c0,0-6.817,1.987-8.371,3.553c0,0,7.126,18.219,17.402,26.723l2.746-1.949v4.43
					l10.287,6.731C134.756,378.087,112.166,344.111,112.693,338.6z"/>
				<path fill="#37B5A0" d="M144.028,405.81c-2.65,9.885-7.068,18.184-7.221,18.47l3.49,0.004l-3.5,0.011h-32.475
					c0,0,3.768-0.007,3.76-0.024c-0.088-0.33,5.492-15.458-3.76-21.658c-9.269-6.212-12.63-21.484-12.63-21.484l29.494-7.204
					c0,0,12.153,17.732,15.611,21.112c2.655,2.596,8.844,2.791,8.844,2.791L144.028,405.81z"/>
				<path fill="#37B5A0" d="M134.2,341.607c0,0,3.137,24.788,0.557,36.48c0,0,4.211-7.736,4.801-9.153l-0.708-4.251l2.716,0.944
					c0,0-2.396-19.764-4.564-23.228c-2.168-3.465-2.966-3.8-2.966-3.8L134.2,341.607z"/>
				<path fill="#FFB3A3" d="M225.684,417.711c0,0-13.152,0.485-26.007,0.425c-3.189-4.946,0.715-10.874,0.715-10.874h0.007
					c11.136,2.034,23.091,3.965,23.091,3.965L225.684,417.711z"/>
				<path fill="#F36523" d="M226.931,424.294h-48.606l0,0c0-2.14,1.735-3.875,3.875-3.875h44.732V424.294z"/>
				<polygon fill="#D35422" points="301.94,371.356 283.917,424.294 208.279,424.294 226.792,371.356 				"/>
				<polygon fill="#F36523" points="301.94,371.356 284.082,423.805 283.917,424.294 209.384,424.294 227.897,371.356 				"/>
				<path fill="#FFC4B7" d="M262.532,397.336c-0.467,2.022-2.485,3.662-4.508,3.662c-2.022,0-3.284-1.64-2.817-3.662
					c0.467-2.023,2.485-3.662,4.508-3.662C261.738,393.674,262.999,395.313,262.532,397.336z"/>
				<polygon fill="#D35422" points="301.94,371.356 284.082,423.805 249.837,423.805 291.592,371.356 				"/>
				<path fill="#FFB3A3" d="M175.647,413.257c0,0-25.021,2.186-38.851,1.569v-13.588c9.06,2.502,38.84,7.901,38.84,7.901
					L175.647,413.257z"/>
				<path fill="#35D3BC" d="M104.322,342.153c0,0-14.31,0.326-18.739,5.109c-4.429,4.783,4.395,31.818,4.395,31.818
					s26.673,32.667,40.016,34.971c0,0,5.832,0.796,8.553,0.84c0,0-2.669-7.77,2.295-12.646c0,0-5.713-1.599-5.95-2.308
					S104.322,342.153,104.322,342.153z"/>
			</g>
			<g>
				<g>
					<path fill="#5B5C5E" d="M702.313,280.585c0,0-14.493-5.392-23.548,5.195c-5.192,6.069-38.391,69.358-37.995,74.899
						c0.396,5.541,3.563,8.312,3.563,8.312s-1.386-4.849-0.347-7.372c0,0-0.668,8.534,4.601,12.171
						c2.745,1.895,71.089-1.814,77.027-10.092c12.912-17.998-15.286-27.309-14.594-46.751
						C711.421,305.673,722.497,281.724,702.313,280.585z"/>
					<path fill="#FFFFFF" d="M716.123,320.897l-0.971,0.196c-4.325,0.874-8.578-1.949-9.452-6.274l-1.025-5.077
						c-0.874-4.324,1.949-8.577,6.274-9.451l0.971-0.196c4.325-0.874,8.578,1.949,9.452,6.274l1.025,5.076
						C723.271,315.77,720.448,320.023,716.123,320.897z"/>
					<path fill="#F36523" d="M778.132,424.198h-45.344c-7.691-12.209-14.453-28.694-16.029-41.532
						c-0.751-6.091-0.332-11.359,1.704-14.96c6.334-11.188-3.714-24.322-3.714-24.322s13.833,3.915,17.048,15.319
						c3.276,11.617,12.071,50.262,12.071,50.262l33.67,6.925C779.12,419.849,778.132,424.198,778.132,424.198z"/>
					<path fill="#D35422" d="M778.132,424.198h-45.344c-7.691-12.209-14.453-28.694-16.029-41.532l6.727-2.06
						c0,0,8.51,38.845,13.458,39.439C741.889,420.639,778.132,424.198,778.132,424.198z"/>
					<path fill="#FFB3A3" d="M721.446,361.771c-3.478,3.043-7.964,5.735-13.747,7.776c-21.678,7.657-32.333-10.19-36.996-22.743
						c2.84-2.08,5.652-2.785,7.28-3.169c1.587-0.371,3.265-0.688,4.658-0.916c2.283-2.197,5.122-10.453,4.571-22.711l1.079,0.162
						l18.085,2.819c0,0-0.174,5.668,0.027,10.982c0.162,4.159,0.56,8.106,1.45,8.982c1.401,0.143,2.245,0.243,2.245,0.243
						s0.002,0.006,0.011,0.017C710.39,343.573,716.424,351.368,721.446,361.771z"/>
					<path fill="#FE8D71" d="M706.378,322.994c0,0-0.177,5.663,0.028,10.981c-10.051,0.128-15.732-8.813-18.114-13.801
						L706.378,322.994z"/>
					<path fill="#F36523" d="M730.065,380.606c-0.05,0.389-4.882,16.103-4.933,16.497c-1.677,13.155-4.714,27.192-4.714,27.192
						l-6.641-0.012l-43.82-0.086c0,0,5.286-15.951-8.658-40.407c-0.457-0.802-0.936-1.612-1.434-2.432
						c-1.986-3.262,10.545-38.137,10.545-38.137s5.486-0.97,13.184-1.59c0.727,0.664,6.073,20.223,15.749,20.819
						c12.631,0.777,7.843-21.016,7.843-21.016c5.144,1.033,6.999,1.41,13.604,4.574C720.79,346.01,730.333,378.459,730.065,380.606z
						"/>
					<path fill="#FFB3A3" d="M709.683,328.174c0,0-23.756,0.996-24.148-13.808c-0.393-14.803-3.723-24.644,11.428-25.906
						c15.15-1.262,18.249,4.309,19.581,9.218C717.876,302.587,715.852,327.534,709.683,328.174z"/>
					<path fill="#FFFFFF" d="M704.516,320.24c0,0,0.261,1.759,4.169,1.798c0,0,3.281,0.034,3.3-1.876
						C711.984,320.162,708.9,318.56,704.516,320.24z"/>
					<g>
						<path fill="#414143" d="M706.168,326.134c-13.743-3.429-17.836-15.986-17.876-16.113l1.416-0.444L689,309.798l0.707-0.223
							c0.038,0.119,3.905,11.896,16.821,15.119c0.086,0.021,0.173,0.042,0.26,0.063l-0.344,1.443
							C706.353,326.179,706.26,326.157,706.168,326.134z"/>
					</g>
					<path fill="#5B5C5E" d="M707.757,327.039l-1.296-0.323c-0.66-0.164-1.065-0.839-0.9-1.499l0,0
						c0.164-0.66,0.839-1.065,1.499-0.9l1.296,0.323c0.66,0.165,1.065,0.84,0.9,1.499l0,0
						C709.092,326.798,708.417,327.204,707.757,327.039z"/>
					<path fill="#5B5C5E" d="M696.223,279.251c0,0,15.296-2.389,21.624,10.346c4.816,9.693,0.8,15.746-1.089,17.601
						c0,0-2.498-13.922-7.173-15.109c0,0-3.015-0.92-5.069,1.47c-2.055,2.389-5.027,13.043-8.441,14.676
						c0,0-10.599,2.617-11.119-1.081c-0.52-3.699-0.229-15.213,2.441-17.068C690.068,288.229,696.223,279.251,696.223,279.251z"/>
					<g>
						<path fill="#FFFFFF" d="M691.393,320.897l-0.971,0.196c-4.325,0.874-8.578-1.949-9.452-6.274l-1.025-5.077
							c-0.874-4.324,1.949-8.577,6.274-9.451l0.971-0.196c4.324-0.874,8.578,1.949,9.452,6.274l1.025,5.076
							C698.541,315.77,695.718,320.023,691.393,320.897z"/>
						<g>
							<path fill="#FFFFFF" d="M683.835,302.614c-0.65-1.056-1.604-9.55,0.992-16.313c1.256-3.269,3.285-5.133,5.832-6.391
								c0.921-0.455,1.953-0.698,3.004-0.698l2.56,0.039c-8.429,3.207-10.382,20.368-9.726,22.198
								c-0.021-0.057-0.047-0.098-0.065-0.128L683.835,302.614z"/>
						</g>
						<path fill="#E6E7EA" d="M689.108,315.926l-0.483,0.098c-2.155,0.436-4.274-0.971-4.709-3.126l-0.511-2.529
							c-0.436-2.154,0.971-4.273,3.126-4.71l0.483-0.097c2.154-0.436,4.273,0.971,4.709,3.126l0.512,2.529
							C692.671,313.372,691.264,315.491,689.108,315.926z"/>
					</g>
					<path fill="#D35422" d="M669.958,424.198c0,0,5.286-15.951-8.658-40.407l5.194-6.489c0,0,9.196,26.047,20.688,33.644
						c11.47,7.577,24.967,5.995,26.596,13.339L669.958,424.198z"/>
					<path fill="#F36523" d="M670.411,343.222c0,0-9.457,0.823-15.789,12.01c-6.333,11.188-18.354,52.99-18.354,68.965h50.608
						c0,0,0.989-4.349-0.593-8.307l-31.319-6.043c0,0,18.852-27.993,19.05-40.064S670.411,343.222,670.411,343.222z"/>
					<path fill="#FFB3A3" d="M687.183,419.056c0,0,9.861-0.964,11.494-0.519c1.632,0.444,6.307,2.374,7.346,3.042
						s3.043,2.617,3.043,2.617s-1.262,0.239-2.004,0.072c-0.742-0.166-2.968-0.314-3.562-0.364s-2.722,0.391-2.722,0.391h-15.286
						L687.183,419.056z"/>
				</g>
				<g>
					<path fill="#58595B" d="M776.481,424.294h-48.606l0,0c0-2.14,1.734-3.875,3.875-3.875h44.731V424.294z"/>
					<polygon fill="#414143" points="851.49,371.356 833.467,424.294 757.829,424.294 776.343,371.356 					"/>
					<polygon fill="#58595B" points="851.49,371.356 833.633,423.805 833.467,424.294 758.935,424.294 777.448,371.356 					"/>
					<path fill="#E6E7EA" d="M812.082,397.336c-0.467,2.022-2.485,3.662-4.508,3.662s-3.283-1.64-2.816-3.662
						c0.467-2.023,2.485-3.662,4.508-3.662S812.55,395.313,812.082,397.336z"/>
					<polygon fill="#414143" points="851.49,371.356 833.633,423.805 799.388,423.805 841.143,371.356 					"/>
				</g>
			</g>
		</g>
	</g>
</g>
<g id="Layer_2">
	<g>
		<g>
			<linearGradient id="SVGID_1_" gradientUnits="userSpaceOnUse" x1="671.6201" y1="75.0444" x2="687.6951" y2="199.4503">
				<stop  offset="0.0639" style="stop-color:#F9DB00"/>
				<stop  offset="1" style="stop-color:#FF7200"/>
			</linearGradient>
			<path fill="url(#SVGID_1_)" d="M717.67,132.034v30.11c0,4.612-3.738,8.352-8.351,8.352h-56.778c-4.611,0-8.352-3.739-8.352-8.352
				v-30.11c0-4.612,3.74-8.351,8.352-8.351h56.778C713.932,123.683,717.67,127.421,717.67,132.034z"/>
			<path fill="#FE8000" d="M680.93,148.253l-32.404-23.5c-1.016,0.562-1.896,1.317-2.598,2.232l35.002,25.38l35.01-25.373
				c-0.701-0.917-1.582-1.673-2.598-2.236L680.93,148.253z"/>
		</g>
		<linearGradient id="SVGID_2_" gradientUnits="userSpaceOnUse" x1="705.8223" y1="95.3608" x2="713.8597" y2="158.6118">
			<stop  offset="0" style="stop-color:#FF5E4F"/>
			<stop  offset="1" style="stop-color:#F00612"/>
		</linearGradient>
		<circle fill="url(#SVGID_2_)" cx="709.16" cy="121.623" r="13.302"/>
		<g>
			<g>
				<path fill="#FFFFFF" d="M712.308,122.92h1.207v2.121h-1.207v2.52h-2.749v-2.52h-4.591l-0.163-1.68l4.754-7.65v-0.024h2.749
					V122.92z M707.422,122.92h2.137v-3.654l-0.171,0.277L707.422,122.92z"/>
			</g>
		</g>
	</g>
	<g>
		
			<linearGradient id="SVGID_3_" gradientUnits="userSpaceOnUse" x1="-603.3662" y1="-6.145" x2="-584.578" y2="146.2482" gradientTransform="matrix(-1 0 0 1 -41.916 0)">
			<stop  offset="0.0639" style="stop-color:#F9DB00"/>
			<stop  offset="1" style="stop-color:#FF7200"/>
		</linearGradient>
		<path fill="url(#SVGID_3_)" d="M523.831,81.05c0.009-1.274,0.231-2.493,0.635-3.631l19.089-4.43l3.425,7.923l0.009,0.017
			c10.775-3.677,19.262-12.252,22.816-23.057l-0.016-0.008l-7.961-3.341l4.232-19.128c1.133-0.414,2.357-0.65,3.624-0.673
			c0.072-0.008,0.155-0.008,0.228-0.009c6.391-0.033,11.607,5.12,11.639,11.519c0.135,25.585-20.496,46.432-46.079,46.565
			c-6.399,0.034-11.615-5.12-11.648-11.517C523.822,81.206,523.823,81.123,523.831,81.05z"/>
		
			<linearGradient id="SVGID_4_" gradientUnits="userSpaceOnUse" x1="-586.7139" y1="-35.7729" x2="-563.2286" y2="93.1346" gradientTransform="matrix(-1 0 0 1 -41.916 0)">
			<stop  offset="0" style="stop-color:#3DCAFF"/>
			<stop  offset="1" style="stop-color:#2D52DD"/>
		</linearGradient>
		<path fill="url(#SVGID_4_)" d="M533.154,62.762h8.563c-0.021-2.565,0.97-5.13,2.909-7.069c1.938-1.938,4.504-2.928,7.068-2.908
			v-8.563c-4.767,0-9.492,1.778-13.128,5.413C534.952,53.25,533.135,58.016,533.154,62.762z M518.855,62.762h8.604
			c-0.02-6.2,2.343-12.441,7.069-17.167c4.726-4.726,10.946-7.109,17.167-7.109v-8.563c-8.402,0-16.804,3.191-23.227,9.614
			C522.066,45.938,518.876,54.34,518.855,62.762z M504.598,62.762h8.563c-0.02-9.876,3.757-19.752,11.27-27.265
			c7.514-7.513,17.389-11.29,27.266-11.269v-8.563c-12.058-0.021-24.135,4.584-33.324,13.774
			C509.202,38.607,504.598,50.685,504.598,62.762z"/>
	</g>
	<g>
		<g>
			
				<linearGradient id="SVGID_5_" gradientUnits="userSpaceOnUse" x1="1299.6846" y1="-0.855" x2="1277.2048" y2="180.3892" gradientTransform="matrix(1 0 0 1 -933.0586 0)">
				<stop  offset="0.0639" style="stop-color:#F9DB00"/>
				<stop  offset="1" style="stop-color:#FF7200"/>
			</linearGradient>
			<path fill="url(#SVGID_5_)" d="M326.992,129.112c-9.178-7.805-15.017-19.418-15.017-32.41c0-23.5,19.051-42.552,42.551-42.552
				s42.551,19.051,42.551,42.552s-19.051,42.551-42.551,42.551c-4.31,0-8.466-0.652-12.386-1.844l-26.224,18.777L326.992,129.112z"
				/>
			<circle fill="#FFFFFF" cx="368.229" cy="96.703" r="4.243"/>
			<circle fill="#FFFFFF" cx="354.526" cy="96.703" r="4.242"/>
			<circle fill="#FFFFFF" cx="340.823" cy="96.703" r="4.242"/>
		</g>
		<g>
			
				<linearGradient id="SVGID_6_" gradientUnits="userSpaceOnUse" x1="1151.0537" y1="-16.0273" x2="1219.5463" y2="168.3761" gradientTransform="matrix(1 0 0 1 -933.0586 0)">
				<stop  offset="0" style="stop-color:#3DCAFF"/>
				<stop  offset="1" style="stop-color:#2D52DD"/>
			</linearGradient>
			<path fill="url(#SVGID_6_)" d="M296.958,154.843c9.178-7.805,15.017-19.418,15.017-32.41c0-23.5-19.051-42.552-42.552-42.552
				s-42.551,19.051-42.551,42.552s19.051,42.551,42.551,42.551c4.311,0,8.466-0.653,12.387-1.845l26.224,18.777L296.958,154.843z"/>
			<g>
				<g>
					<circle fill="#FFFFFF" cx="255.72" cy="122.434" r="4.243"/>
				</g>
			</g>
			<g>
				<g>
					<circle fill="#FFFFFF" cx="269.423" cy="122.434" r="4.243"/>
				</g>
			</g>
			<g>
				<g>
					<circle fill="#FFFFFF" cx="283.126" cy="122.434" r="4.243"/>
				</g>
			</g>
		</g>
	</g>
</g>
</svg>
