<?xml version="1.0" encoding="utf-8"?>
<!-- Generator: Adobe Illustrator 16.0.0, SVG Export Plug-In . SVG Version: 6.00 Build 0)  -->
<!DOCTYPE svg PUBLIC "-//W3C//DTD SVG 1.1//EN" "http://www.w3.org/Graphics/SVG/1.1/DTD/svg11.dtd">
<svg version="1.1" id="Layer_1" xmlns="http://www.w3.org/2000/svg" xmlns:xlink="http://www.w3.org/1999/xlink" x="0px" y="0px"
	 width="200px" height="200px" viewBox="0 0 200 200" enable-background="new 0 0 200 200" xml:space="preserve">
<g opacity="0.5">
	
		<image overflow="visible" enable-background="new    " width="1042" height="496" xlink:href="C8E49FF8.png"  transform="matrix(0.2223 0 0 0.2205 -18.7217 114.7012)">
	</image>
</g>
<g>
	
		<image overflow="visible" opacity="0.15" enable-background="new    " width="800" height="871" xlink:href="C8E49FFF.png"  transform="matrix(0.2225 0 0 0.222 12.5469 4.4995)">
	</image>
	<g>
		<g>
			<g>
				<g>
					<g>
						<defs>
							<polygon id="SVGID_1_" points="79.728,189.897 16.26,149.339 16.26,35.167 79.626,73.731 							"/>
						</defs>
						<clipPath id="SVGID_2_">
							<use xlink:href="#SVGID_1_"  overflow="visible"/>
						</clipPath>
						<path clip-path="url(#SVGID_2_)" fill="#5AC2B0" d="M16.26,35.167v154.73V35.167z"/>
						<rect x="16.26" y="35.167" clip-path="url(#SVGID_2_)" fill="#5AC2B0" width="1.27" height="154.73"/>
						<rect x="17.529" y="35.167" clip-path="url(#SVGID_2_)" fill="#59C2B1" width="1.269" height="154.73"/>
						<rect x="18.798" y="35.167" clip-path="url(#SVGID_2_)" fill="#58C1B2" width="1.27" height="154.73"/>
						<rect x="20.068" y="35.167" clip-path="url(#SVGID_2_)" fill="#57C1B3" width="1.27" height="154.73"/>
						<rect x="21.337" y="35.167" clip-path="url(#SVGID_2_)" fill="#56C0B4" width="1.269" height="154.73"/>
						<rect x="22.606" y="35.167" clip-path="url(#SVGID_2_)" fill="#55C0B5" width="1.27" height="154.73"/>
						<rect x="23.876" y="35.167" clip-path="url(#SVGID_2_)" fill="#54BFB6" width="1.269" height="154.73"/>
						<rect x="25.145" y="35.167" clip-path="url(#SVGID_2_)" fill="#53BFB7" width="1.27" height="154.73"/>
						<rect x="26.415" y="35.167" clip-path="url(#SVGID_2_)" fill="#52BEB8" width="1.27" height="154.73"/>
						<rect x="27.684" y="35.167" clip-path="url(#SVGID_2_)" fill="#51BEB9" width="1.269" height="154.73"/>
						<rect x="28.953" y="35.167" clip-path="url(#SVGID_2_)" fill="#50BDBA" width="1.27" height="154.73"/>
						<rect x="30.223" y="35.167" clip-path="url(#SVGID_2_)" fill="#4FBDBB" width="1.27" height="154.73"/>
						<rect x="31.492" y="35.167" clip-path="url(#SVGID_2_)" fill="#4EBCBC" width="1.269" height="154.73"/>
						<rect x="32.761" y="35.167" clip-path="url(#SVGID_2_)" fill="#4DBCBD" width="1.27" height="154.73"/>
						<rect x="34.031" y="35.167" clip-path="url(#SVGID_2_)" fill="#4CBBBE" width="1.27" height="154.73"/>
						<rect x="35.3" y="35.167" clip-path="url(#SVGID_2_)" fill="#4BBBBF" width="1.269" height="154.73"/>
						<rect x="36.569" y="35.167" clip-path="url(#SVGID_2_)" fill="#4ABAC0" width="1.27" height="154.73"/>
						<rect x="37.839" y="35.167" clip-path="url(#SVGID_2_)" fill="#49BAC1" width="1.27" height="154.73"/>
						<rect x="39.108" y="35.167" clip-path="url(#SVGID_2_)" fill="#48B9C2" width="1.269" height="154.73"/>
						<rect x="40.377" y="35.167" clip-path="url(#SVGID_2_)" fill="#47B9C3" width="1.27" height="154.73"/>
						<rect x="41.647" y="35.167" clip-path="url(#SVGID_2_)" fill="#46B8C4" width="1.269" height="154.73"/>
						<rect x="42.916" y="35.167" clip-path="url(#SVGID_2_)" fill="#45B8C5" width="1.27" height="154.73"/>
						<rect x="44.186" y="35.167" clip-path="url(#SVGID_2_)" fill="#44B7C6" width="1.27" height="154.73"/>
						<rect x="45.455" y="35.167" clip-path="url(#SVGID_2_)" fill="#43B7C7" width="1.269" height="154.73"/>
						<rect x="46.724" y="35.167" clip-path="url(#SVGID_2_)" fill="#42B6C8" width="1.27" height="154.73"/>
						<rect x="47.994" y="35.167" clip-path="url(#SVGID_2_)" fill="#42B6CA" width="1.27" height="154.73"/>
						<rect x="49.263" y="35.167" clip-path="url(#SVGID_2_)" fill="#41B5CB" width="1.269" height="154.73"/>
						<rect x="50.532" y="35.167" clip-path="url(#SVGID_2_)" fill="#40B5CC" width="1.27" height="154.73"/>
						<rect x="51.802" y="35.167" clip-path="url(#SVGID_2_)" fill="#3FB4CD" width="1.27" height="154.73"/>
						<rect x="53.071" y="35.167" clip-path="url(#SVGID_2_)" fill="#3EB4CE" width="1.269" height="154.73"/>
						<rect x="54.34" y="35.167" clip-path="url(#SVGID_2_)" fill="#3DB3CF" width="1.27" height="154.73"/>
						<rect x="55.61" y="35.167" clip-path="url(#SVGID_2_)" fill="#3CB3D0" width="1.269" height="154.73"/>
						<rect x="56.879" y="35.167" clip-path="url(#SVGID_2_)" fill="#3BB2D1" width="1.27" height="154.73"/>
						<rect x="58.148" y="35.167" clip-path="url(#SVGID_2_)" fill="#3AB2D2" width="1.27" height="154.73"/>
						<rect x="59.418" y="35.167" clip-path="url(#SVGID_2_)" fill="#39B1D3" width="1.269" height="154.73"/>
						<rect x="60.687" y="35.167" clip-path="url(#SVGID_2_)" fill="#38B1D4" width="1.27" height="154.73"/>
						<rect x="61.957" y="35.167" clip-path="url(#SVGID_2_)" fill="#37B0D5" width="1.27" height="154.73"/>
						<rect x="63.226" y="35.167" clip-path="url(#SVGID_2_)" fill="#36B0D6" width="1.269" height="154.73"/>
						<rect x="64.495" y="35.167" clip-path="url(#SVGID_2_)" fill="#35AFD7" width="1.27" height="154.73"/>
						<rect x="65.765" y="35.167" clip-path="url(#SVGID_2_)" fill="#34AFD8" width="1.27" height="154.73"/>
						<rect x="67.034" y="35.167" clip-path="url(#SVGID_2_)" fill="#33AED9" width="1.269" height="154.73"/>
						<rect x="68.303" y="35.167" clip-path="url(#SVGID_2_)" fill="#32AEDA" width="1.27" height="154.73"/>
						<rect x="69.573" y="35.167" clip-path="url(#SVGID_2_)" fill="#31ADDB" width="1.27" height="154.73"/>
						<rect x="70.842" y="35.167" clip-path="url(#SVGID_2_)" fill="#30ADDC" width="1.269" height="154.73"/>
						<rect x="72.111" y="35.167" clip-path="url(#SVGID_2_)" fill="#2FACDD" width="1.27" height="154.73"/>
						<rect x="73.381" y="35.167" clip-path="url(#SVGID_2_)" fill="#2EACDE" width="1.269" height="154.73"/>
						<rect x="74.65" y="35.167" clip-path="url(#SVGID_2_)" fill="#2DABDF" width="1.27" height="154.73"/>
						<rect x="75.919" y="35.167" clip-path="url(#SVGID_2_)" fill="#2CABE0" width="1.27" height="154.73"/>
						<rect x="77.189" y="35.167" clip-path="url(#SVGID_2_)" fill="#2BAAE1" width="1.269" height="154.73"/>
						<rect x="78.458" y="35.167" clip-path="url(#SVGID_2_)" fill="#2AAAE2" width="1.27" height="154.73"/>
						<path clip-path="url(#SVGID_2_)" fill="#2AAAE2" d="M79.728,189.897V35.167V189.897z"/>
					</g>
				</g>
			</g>
			<g>
				<g>
					<g>
						<defs>
							<polygon id="SVGID_3_" points="182.915,159.331 79.78,190.27 79.78,73.731 182.915,47.945 							"/>
						</defs>
						<clipPath id="SVGID_4_">
							<use xlink:href="#SVGID_3_"  overflow="visible"/>
						</clipPath>
						<path clip-path="url(#SVGID_4_)" fill="#5AC2B0" d="M79.78,47.945V190.27V47.945z"/>
						<rect x="79.78" y="47.945" clip-path="url(#SVGID_4_)" fill="#5AC2B0" width="2.063" height="142.324"/>
						<rect x="81.842" y="47.945" clip-path="url(#SVGID_4_)" fill="#59C2B1" width="2.063" height="142.324"/>
						<rect x="83.905" y="47.945" clip-path="url(#SVGID_4_)" fill="#58C1B2" width="2.063" height="142.324"/>
						<rect x="85.968" y="47.945" clip-path="url(#SVGID_4_)" fill="#57C1B3" width="2.063" height="142.324"/>
						<rect x="88.031" y="47.945" clip-path="url(#SVGID_4_)" fill="#56C0B4" width="2.063" height="142.324"/>
						<rect x="90.093" y="47.945" clip-path="url(#SVGID_4_)" fill="#55C0B5" width="2.063" height="142.324"/>
						<rect x="92.156" y="47.945" clip-path="url(#SVGID_4_)" fill="#54BFB6" width="2.063" height="142.324"/>
						<rect x="94.219" y="47.945" clip-path="url(#SVGID_4_)" fill="#53BFB7" width="2.063" height="142.324"/>
						<rect x="96.281" y="47.945" clip-path="url(#SVGID_4_)" fill="#52BEB8" width="2.063" height="142.324"/>
						<rect x="98.344" y="47.945" clip-path="url(#SVGID_4_)" fill="#51BEB9" width="2.063" height="142.324"/>
						<rect x="100.407" y="47.945" clip-path="url(#SVGID_4_)" fill="#50BDBA" width="2.063" height="142.324"/>
						<rect x="102.47" y="47.945" clip-path="url(#SVGID_4_)" fill="#4FBDBB" width="2.063" height="142.324"/>
						<rect x="104.532" y="47.945" clip-path="url(#SVGID_4_)" fill="#4EBCBC" width="2.063" height="142.324"/>
						<rect x="106.595" y="47.945" clip-path="url(#SVGID_4_)" fill="#4DBCBD" width="2.063" height="142.324"/>
						<rect x="108.657" y="47.945" clip-path="url(#SVGID_4_)" fill="#4CBBBE" width="2.063" height="142.324"/>
						<rect x="110.721" y="47.945" clip-path="url(#SVGID_4_)" fill="#4BBBBF" width="2.063" height="142.324"/>
						<rect x="112.783" y="47.945" clip-path="url(#SVGID_4_)" fill="#4ABAC0" width="2.063" height="142.324"/>
						<rect x="114.846" y="47.945" clip-path="url(#SVGID_4_)" fill="#49BAC1" width="2.063" height="142.324"/>
						<rect x="116.908" y="47.945" clip-path="url(#SVGID_4_)" fill="#48B9C2" width="2.063" height="142.324"/>
						<rect x="118.971" y="47.945" clip-path="url(#SVGID_4_)" fill="#47B9C3" width="2.063" height="142.324"/>
						<rect x="121.034" y="47.945" clip-path="url(#SVGID_4_)" fill="#46B8C4" width="2.063" height="142.324"/>
						<rect x="123.097" y="47.945" clip-path="url(#SVGID_4_)" fill="#45B8C5" width="2.063" height="142.324"/>
						<rect x="125.159" y="47.945" clip-path="url(#SVGID_4_)" fill="#44B7C6" width="2.063" height="142.324"/>
						<rect x="127.222" y="47.945" clip-path="url(#SVGID_4_)" fill="#43B7C7" width="2.063" height="142.324"/>
						<rect x="129.285" y="47.945" clip-path="url(#SVGID_4_)" fill="#42B6C8" width="2.063" height="142.324"/>
						<rect x="131.348" y="47.945" clip-path="url(#SVGID_4_)" fill="#42B6CA" width="2.063" height="142.324"/>
						<rect x="133.41" y="47.945" clip-path="url(#SVGID_4_)" fill="#41B5CB" width="2.063" height="142.324"/>
						<rect x="135.473" y="47.945" clip-path="url(#SVGID_4_)" fill="#40B5CC" width="2.063" height="142.324"/>
						<rect x="137.535" y="47.945" clip-path="url(#SVGID_4_)" fill="#3FB4CD" width="2.063" height="142.324"/>
						<rect x="139.599" y="47.945" clip-path="url(#SVGID_4_)" fill="#3EB4CE" width="2.063" height="142.324"/>
						<rect x="141.661" y="47.945" clip-path="url(#SVGID_4_)" fill="#3DB3CF" width="2.063" height="142.324"/>
						<rect x="143.724" y="47.945" clip-path="url(#SVGID_4_)" fill="#3CB3D0" width="2.063" height="142.324"/>
						<rect x="145.786" y="47.945" clip-path="url(#SVGID_4_)" fill="#3BB2D1" width="2.063" height="142.324"/>
						<rect x="147.849" y="47.945" clip-path="url(#SVGID_4_)" fill="#3AB2D2" width="2.063" height="142.324"/>
						<rect x="149.912" y="47.945" clip-path="url(#SVGID_4_)" fill="#39B1D3" width="2.063" height="142.324"/>
						<rect x="151.975" y="47.945" clip-path="url(#SVGID_4_)" fill="#38B1D4" width="2.063" height="142.324"/>
						<rect x="154.037" y="47.945" clip-path="url(#SVGID_4_)" fill="#37B0D5" width="2.063" height="142.324"/>
						<rect x="156.1" y="47.945" clip-path="url(#SVGID_4_)" fill="#36B0D6" width="2.063" height="142.324"/>
						<rect x="158.162" y="47.945" clip-path="url(#SVGID_4_)" fill="#35AFD7" width="2.063" height="142.324"/>
						<rect x="160.226" y="47.945" clip-path="url(#SVGID_4_)" fill="#34AFD8" width="2.063" height="142.324"/>
						<rect x="162.288" y="47.945" clip-path="url(#SVGID_4_)" fill="#33AED9" width="2.063" height="142.324"/>
						<rect x="164.351" y="47.945" clip-path="url(#SVGID_4_)" fill="#32AEDA" width="2.063" height="142.324"/>
						<rect x="166.413" y="47.945" clip-path="url(#SVGID_4_)" fill="#31ADDB" width="2.063" height="142.324"/>
						<rect x="168.477" y="47.945" clip-path="url(#SVGID_4_)" fill="#30ADDC" width="2.063" height="142.324"/>
						<rect x="170.539" y="47.945" clip-path="url(#SVGID_4_)" fill="#2FACDD" width="2.063" height="142.324"/>
						<rect x="172.602" y="47.945" clip-path="url(#SVGID_4_)" fill="#2EACDE" width="2.063" height="142.324"/>
						<rect x="174.664" y="47.945" clip-path="url(#SVGID_4_)" fill="#2DABDF" width="2.063" height="142.324"/>
						<rect x="176.727" y="47.945" clip-path="url(#SVGID_4_)" fill="#2CABE0" width="2.063" height="142.324"/>
						<rect x="178.79" y="47.945" clip-path="url(#SVGID_4_)" fill="#2BAAE1" width="2.063" height="142.324"/>
						<rect x="180.853" y="47.945" clip-path="url(#SVGID_4_)" fill="#2AAAE2" width="2.063" height="142.324"/>
						<path clip-path="url(#SVGID_4_)" fill="#2AAAE2" d="M182.915,190.27V47.945V190.27z"/>
					</g>
				</g>
			</g>
			<g>
				<g>
					<g>
						<defs>
							<polygon id="SVGID_5_" points="182.915,47.945 79.78,73.731 16.464,35.167 112.787,8.213 							"/>
						</defs>
						<clipPath id="SVGID_6_">
							<use xlink:href="#SVGID_5_"  overflow="visible"/>
						</clipPath>
						<path clip-path="url(#SVGID_6_)" fill="#5AC2B0" d="M16.464,8.213v65.518V8.213z"/>
						<rect x="16.464" y="8.213" clip-path="url(#SVGID_6_)" fill="#5AC2B0" width="3.329" height="65.518"/>
						<rect x="19.793" y="8.213" clip-path="url(#SVGID_6_)" fill="#59C2B1" width="3.329" height="65.518"/>
						<rect x="23.122" y="8.213" clip-path="url(#SVGID_6_)" fill="#58C1B2" width="3.329" height="65.518"/>
						<rect x="26.451" y="8.213" clip-path="url(#SVGID_6_)" fill="#57C1B3" width="3.329" height="65.518"/>
						<rect x="29.78" y="8.213" clip-path="url(#SVGID_6_)" fill="#56C0B4" width="3.329" height="65.518"/>
						<rect x="33.109" y="8.213" clip-path="url(#SVGID_6_)" fill="#55C0B5" width="3.329" height="65.518"/>
						<rect x="36.438" y="8.213" clip-path="url(#SVGID_6_)" fill="#54BFB6" width="3.329" height="65.518"/>
						<rect x="39.767" y="8.213" clip-path="url(#SVGID_6_)" fill="#53BFB7" width="3.329" height="65.518"/>
						<rect x="43.096" y="8.213" clip-path="url(#SVGID_6_)" fill="#52BEB8" width="3.329" height="65.518"/>
						<rect x="46.425" y="8.213" clip-path="url(#SVGID_6_)" fill="#51BEB9" width="3.329" height="65.518"/>
						<rect x="49.754" y="8.213" clip-path="url(#SVGID_6_)" fill="#50BDBA" width="3.329" height="65.518"/>
						<rect x="53.083" y="8.213" clip-path="url(#SVGID_6_)" fill="#4FBDBB" width="3.329" height="65.518"/>
						<rect x="56.412" y="8.213" clip-path="url(#SVGID_6_)" fill="#4EBCBC" width="3.329" height="65.518"/>
						<rect x="59.741" y="8.213" clip-path="url(#SVGID_6_)" fill="#4DBCBD" width="3.329" height="65.518"/>
						<rect x="63.07" y="8.213" clip-path="url(#SVGID_6_)" fill="#4CBBBE" width="3.329" height="65.518"/>
						<rect x="66.399" y="8.213" clip-path="url(#SVGID_6_)" fill="#4BBBBF" width="3.329" height="65.518"/>
						<rect x="69.728" y="8.213" clip-path="url(#SVGID_6_)" fill="#4ABAC0" width="3.329" height="65.518"/>
						<rect x="73.057" y="8.213" clip-path="url(#SVGID_6_)" fill="#49BAC1" width="3.329" height="65.518"/>
						<rect x="76.386" y="8.213" clip-path="url(#SVGID_6_)" fill="#48B9C2" width="3.329" height="65.518"/>
						<rect x="79.715" y="8.213" clip-path="url(#SVGID_6_)" fill="#47B9C3" width="3.329" height="65.518"/>
						<rect x="83.044" y="8.213" clip-path="url(#SVGID_6_)" fill="#46B8C4" width="3.329" height="65.518"/>
						<rect x="86.374" y="8.213" clip-path="url(#SVGID_6_)" fill="#45B8C5" width="3.329" height="65.518"/>
						<rect x="89.702" y="8.213" clip-path="url(#SVGID_6_)" fill="#44B7C6" width="3.329" height="65.518"/>
						<rect x="93.031" y="8.213" clip-path="url(#SVGID_6_)" fill="#43B7C7" width="3.329" height="65.518"/>
						<rect x="96.36" y="8.213" clip-path="url(#SVGID_6_)" fill="#42B6C8" width="3.329" height="65.518"/>
						<rect x="99.689" y="8.213" clip-path="url(#SVGID_6_)" fill="#42B6CA" width="3.329" height="65.518"/>
						<rect x="103.019" y="8.213" clip-path="url(#SVGID_6_)" fill="#41B5CB" width="3.329" height="65.518"/>
						<rect x="106.348" y="8.213" clip-path="url(#SVGID_6_)" fill="#40B5CC" width="3.329" height="65.518"/>
						<rect x="109.677" y="8.213" clip-path="url(#SVGID_6_)" fill="#3FB4CD" width="3.329" height="65.518"/>
						<rect x="113.006" y="8.213" clip-path="url(#SVGID_6_)" fill="#3EB4CE" width="3.329" height="65.518"/>
						<rect x="116.335" y="8.213" clip-path="url(#SVGID_6_)" fill="#3DB3CF" width="3.329" height="65.518"/>
						<rect x="119.664" y="8.213" clip-path="url(#SVGID_6_)" fill="#3CB3D0" width="3.328" height="65.518"/>
						<rect x="122.992" y="8.213" clip-path="url(#SVGID_6_)" fill="#3BB2D1" width="3.329" height="65.518"/>
						<rect x="126.321" y="8.213" clip-path="url(#SVGID_6_)" fill="#3AB2D2" width="3.329" height="65.518"/>
						<rect x="129.65" y="8.213" clip-path="url(#SVGID_6_)" fill="#39B1D3" width="3.329" height="65.518"/>
						<rect x="132.979" y="8.213" clip-path="url(#SVGID_6_)" fill="#38B1D4" width="3.329" height="65.518"/>
						<rect x="136.309" y="8.213" clip-path="url(#SVGID_6_)" fill="#37B0D5" width="3.329" height="65.518"/>
						<rect x="139.638" y="8.213" clip-path="url(#SVGID_6_)" fill="#36B0D6" width="3.329" height="65.518"/>
						<rect x="142.967" y="8.213" clip-path="url(#SVGID_6_)" fill="#35AFD7" width="3.329" height="65.518"/>
						<rect x="146.296" y="8.213" clip-path="url(#SVGID_6_)" fill="#34AFD8" width="3.329" height="65.518"/>
						<rect x="149.625" y="8.213" clip-path="url(#SVGID_6_)" fill="#33AED9" width="3.329" height="65.518"/>
						<rect x="152.954" y="8.213" clip-path="url(#SVGID_6_)" fill="#32AEDA" width="3.329" height="65.518"/>
						<rect x="156.283" y="8.213" clip-path="url(#SVGID_6_)" fill="#31ADDB" width="3.329" height="65.518"/>
						<rect x="159.612" y="8.213" clip-path="url(#SVGID_6_)" fill="#30ADDC" width="3.328" height="65.518"/>
						<rect x="162.94" y="8.213" clip-path="url(#SVGID_6_)" fill="#2FACDD" width="3.329" height="65.518"/>
						<rect x="166.27" y="8.213" clip-path="url(#SVGID_6_)" fill="#2EACDE" width="3.329" height="65.518"/>
						<rect x="169.599" y="8.213" clip-path="url(#SVGID_6_)" fill="#2DABDF" width="3.329" height="65.518"/>
						<rect x="172.928" y="8.213" clip-path="url(#SVGID_6_)" fill="#2CABE0" width="3.329" height="65.518"/>
						<rect x="176.257" y="8.213" clip-path="url(#SVGID_6_)" fill="#2BAAE1" width="3.329" height="65.518"/>
						<rect x="179.586" y="8.213" clip-path="url(#SVGID_6_)" fill="#2AAAE2" width="3.329" height="65.518"/>
						<path clip-path="url(#SVGID_6_)" fill="#2AAAE2" d="M182.915,73.731V8.213V73.731z"/>
					</g>
				</g>
			</g>
		</g>
	</g>
</g>
<g>
	<path fill="#E82264" d="M144.495,73.917c19.552,0,34.856,15.586,34.856,40.523c0,24.938-15.444,40.808-34.856,40.808
		c-11.62,0-19.98-5.242-24.373-12.185v11.052H95.894V69.702L63.595,47.945l21.681-7.439l34.846,23.139v22.599
		C124.515,79.159,133.158,73.917,144.495,73.917z M137.267,95.029c-9.067,0-17.286,6.944-17.286,19.553
		c0,12.612,8.219,19.554,17.286,19.554c9.21,0,17.43-7.084,17.43-19.695C154.696,101.83,146.478,95.029,137.267,95.029z"/>
</g>
</svg>
