<?xml version="1.0" encoding="utf-8"?>
<!-- Generator: Adobe Illustrator 16.0.0, SVG Export Plug-In . SVG Version: 6.00 Build 0)  -->
<!DOCTYPE svg PUBLIC "-//W3C//DTD SVG 1.1//EN" "http://www.w3.org/Graphics/SVG/1.1/DTD/svg11.dtd">
<svg version="1.1" id="Capa_1" xmlns="http://www.w3.org/2000/svg" xmlns:xlink="http://www.w3.org/1999/xlink" x="0px" y="0px"
	 width="512px" height="512px" viewBox="0 0 512 512" enable-background="new 0 0 512 512" xml:space="preserve">
<g>
	<g>
		<path fill="#A79BA7" d="M332.194,102.157c7.614-34.497-8.944-69.798-40.337-85.999c-22.409-11.565-49.029-11.565-71.438,0
			c-31.393,16.202-47.95,51.502-40.337,85.999l7.418,31.527h135.936L332.194,102.157z"/>
		<path fill="#918291" d="M333.887,80.893c-9.831-6.612-20.566-11.952-31.969-15.752l-0.64-0.213
			c-5.377-1.79-11.007-2.702-16.673-2.702H225.37c-0.744,0-1.589,0.05-2.496,0.136c-6.965,0.664-11.894-6.59-8.679-12.806
			c7.229-13.971,18.691-25.792,33.432-33.399c7.043-3.635,14.501-6.125,22.115-7.475c-16.61-2.946-33.957-0.456-49.323,7.475
			c-31.393,16.202-47.95,51.502-40.337,85.999l7.418,31.527h13.379h13.83h108.728l8.758-31.527
			C333.764,95.044,334.291,87.899,333.887,80.893L333.887,80.893z"/>
		<path fill="#A79BA7" d="M294.953,83.905l0.639,0.213c33.499,11.167,59.88,37.307,71.35,70.704l1.652,4.812l5.975,53.175
			l-243.707-8.794l10.543-44.381l1.652-4.812c11.471-33.396,37.85-59.537,71.35-70.704l0.639-0.213
			c3.329-1.109,6.814-1.675,10.323-1.675h59.26C288.139,82.23,291.625,82.796,294.953,83.905L294.953,83.905z"/>
		<g id="XMLID_319_">
			<g>
				<path fill="#F9F7F8" d="M398.312,238.435v56.942H111.648v-56.942c0-24.295,7.362-47.36,20.365-66.645
					c12.993-19.274,31.617-34.748,54.132-43.86c22.075-8.932,45.45-13.393,68.835-13.393c23.375,0,46.75,4.461,68.825,13.393
					C368.836,146.144,398.312,189.854,398.312,238.435L398.312,238.435z"/>
			</g>
		</g>
		<g>
			<path fill="#FFE5C2" d="M381.406,317.245c14.002,0,25.354-11.352,25.354-25.354c0-14.003-11.352-25.354-25.354-25.354H349.35
				v50.708H381.406z"/>
			<path fill="#FFE5C2" d="M130.594,317.245c-14.002,0-25.354-11.352-25.354-25.354c0-14.003,11.352-25.354,25.354-25.354h40.999
				v50.708H130.594z"/>
			<path fill="#FFE5C2" d="M302.013,442.096l6.698,18.921c0.871,2.461,2.893,4.337,5.412,5.023l76.463,20.826
				c10.628,2.895,20.404,8.298,28.511,15.755l2.04,1.877l0.935,1.128c1.461,1.764,0.202,4.432-2.09,4.425l-327.09-1.075
				c-2.314-0.008-3.548-2.731-2.027-4.477l2.04-1.877c8.106-7.458,17.883-12.861,28.511-15.755l76.464-20.826
				c2.519-0.687,4.54-2.563,5.411-5.023l6.698-18.921l12.201-37.831l73.936-3.346L302.013,442.096z"/>
		</g>
		<g>
			<g id="XMLID_313_">
				<g>
					<path fill="#97DA7B" d="M369.595,246.086v71.536c0,54.102-30.127,103.703-78.138,128.639l-18.244,9.481
						c-11.102,5.771-24.325,5.771-35.427,0l-18.244-9.481c-48.011-24.936-78.137-74.537-78.137-128.639v-71.536
						c0-3.181,1.6-6.151,4.251-7.912l1.05-0.69c65.955-43.66,151.633-43.66,217.587,0l1.051,0.69
						C367.995,239.935,369.595,242.906,369.595,246.086L369.595,246.086z"/>
				</g>
			</g>
			<path fill="#80D261" d="M369.596,261.885v-15.798c0-3.181-1.601-6.151-4.251-7.912l-1.05-0.69
				c-65.955-43.66-151.634-43.66-217.588,0l-1.05,0.69c-2.651,1.76-4.251,4.731-4.251,7.912v15.134
				C211.102,217.166,300.092,217.388,369.596,261.885L369.596,261.885z"/>
			<g>
				<ellipse fill="#FFE5C2" cx="204.395" cy="282.59" rx="35.405" ry="32.608"/>
				<ellipse fill="#FFE5C2" cx="307.605" cy="282.59" rx="35.404" ry="32.608"/>
				<ellipse fill="#FFE5C2" cx="255.5" cy="384.93" rx="45.512" ry="35.47"/>
			</g>
		</g>
	</g>
	<g>
		<path d="M215.8,152.212c-28.001,3.457-53.378,18.669-69.623,41.737l-1.514,2.149c-2.386,3.387-1.574,8.067,1.813,10.453
			c1.313,0.925,2.82,1.369,4.313,1.369c2.358,0,4.679-1.108,6.141-3.183l1.514-2.149c13.813-19.613,35.388-32.547,59.195-35.487
			c4.112-0.507,7.034-4.252,6.525-8.364C223.656,154.626,219.898,151.702,215.8,152.212L215.8,152.212z"/>
		<path d="M296.2,152.212c-4.114-0.506-7.855,2.415-8.364,6.526c-0.508,4.111,2.414,7.856,6.525,8.364
			c23.809,2.938,45.383,15.874,59.195,35.487l1.515,2.149c1.462,2.074,3.782,3.183,6.141,3.183c1.492,0,2.999-0.444,4.313-1.369
			c3.387-2.386,4.198-7.066,1.813-10.453l-1.515-2.148C349.578,170.882,324.201,155.668,296.2,152.212L296.2,152.212z"/>
		<path d="M204.395,242.48c-23.658,0-42.906,17.993-42.906,40.109s19.248,40.11,42.906,40.11s42.907-17.993,42.907-40.11
			C247.302,260.474,228.053,242.48,204.395,242.48L204.395,242.48z M204.395,307.697c-15.386,0-27.903-11.263-27.903-25.107
			c0-13.844,12.518-25.105,27.903-25.105c15.386,0,27.903,11.262,27.903,25.105S219.782,307.697,204.395,307.697z"/>
		<path d="M204.395,270.316c-4.144,0-7.501,3.359-7.501,7.502v8.076c0,4.144,3.357,7.502,7.501,7.502s7.502-3.358,7.502-7.502
			v-8.076C211.897,273.676,208.538,270.316,204.395,270.316z"/>
		<path d="M350.512,282.59c0-22.116-19.248-40.109-42.906-40.109s-42.906,17.993-42.906,40.109s19.248,40.11,42.906,40.11
			S350.512,304.706,350.512,282.59z M279.701,282.59c0-13.844,12.519-25.105,27.904-25.105c15.385,0,27.902,11.262,27.902,25.105
			s-12.518,25.107-27.902,25.107C292.22,307.697,279.701,296.434,279.701,282.59z"/>
		<path d="M315.106,285.895v-8.077c0-4.144-3.357-7.502-7.501-7.502c-4.145,0-7.502,3.358-7.502,7.502v8.077
			c0,4.143,3.357,7.501,7.502,7.501C311.749,293.396,315.106,290.037,315.106,285.895z"/>
		<path d="M202.487,384.931c0,23.694,23.781,42.972,53.014,42.972c29.232,0,53.013-19.276,53.013-42.972
			S284.732,341.96,255.5,341.96C226.268,341.96,202.487,361.235,202.487,384.931L202.487,384.931z M293.51,384.931
			c0,15.422-17.052,27.969-38.01,27.969s-38.01-12.546-38.01-27.969c0-15.422,17.052-27.968,38.01-27.968
			S293.51,369.509,293.51,384.931z"/>
		<path d="M234.271,379.236c-2.039,3.606-0.77,8.184,2.837,10.224c5.819,3.292,12.344,4.938,18.869,4.938
			c6.523,0,13.05-1.646,18.869-4.938c3.605-2.039,4.876-6.616,2.836-10.223s-6.615-4.876-10.223-2.836
			c-7.084,4.007-15.884,4.006-22.966,0C240.886,374.361,236.311,375.631,234.271,379.236z"/>
		<path d="M426.216,498.979l-2.04-1.878c-8.951-8.233-19.885-14.276-31.619-17.473l-19.818-5.397
			c-3.994-1.086-8.121,1.269-9.209,5.268c-1.09,3.998,1.27,8.12,5.268,9.209l19.818,5.397c9.428,2.567,18.212,7.422,25.401,14.037
			l2.039,1.876c1.441,1.327,3.263,1.981,5.078,1.981c2.024,0,4.043-0.814,5.522-2.422
			C429.461,506.53,429.265,501.784,426.216,498.979L426.216,498.979z"/>
		<path d="M341.689,465.773l-25.597-6.971c-0.146-0.04-0.261-0.147-0.312-0.289l-5.281-14.916
			c39.53-26.865,64.189-70.634,66.41-118.85h4.494c18.117,0,32.856-14.739,32.856-32.855c0-8.441-3.203-16.148-8.453-21.973v-31.487
			c0-4.038-0.215-8.254-0.64-12.534c-0.408-4.123-4.066-7.132-8.205-6.726c-4.122,0.409-7.134,4.082-6.726,8.205
			c0.376,3.79,0.565,7.508,0.565,11.053v21.982c-2.979-0.892-6.133-1.378-9.398-1.378h-4.311v-12.948
			c0-5.714-2.846-11.01-7.613-14.168l-1.044-0.691c-68.609-45.408-157.269-45.407-225.874-0.001l-1.049,0.694
			c-4.766,3.156-7.611,8.451-7.611,14.166v12.948h-3.31c-4.024,0-7.881,0.729-11.446,2.061v-22.665
			c0-45.748,27.403-86.393,69.814-103.547c42.57-17.219,89.459-17.22,132.029,0c28.52,11.536,51.236,34.625,62.323,63.348
			c1.491,3.864,5.833,5.79,9.7,4.297c3.865-1.491,5.788-5.834,4.297-9.699c-5.221-13.526-12.723-25.946-22.019-36.788l-1.257-3.658
			c-6.794-19.779-18.683-37.306-34.046-50.987c7.079-37.012-11.04-74.539-44.694-91.906c-24.52-12.655-53.797-12.655-78.318,0
			c-33.139,17.102-51.22,53.75-45.009,90.206c-16.311,13.916-28.928,32.076-36.007,52.688l-1.18,3.437
			c-3.205,3.733-6.212,7.659-8.991,11.781c-14.162,21.004-21.648,45.497-21.648,70.829v33.997
			c-4.022,5.453-6.405,12.184-6.405,19.463c0,18.116,14.738,32.855,32.856,32.855h3.482c0.624,13.4,3.003,26.635,7.108,39.433
			c1.265,3.944,5.487,6.115,9.435,4.852c3.945-1.265,6.118-5.489,4.852-9.435c-4.355-13.578-6.564-27.7-6.564-41.975v-71.534
			c0-0.667,0.333-1.288,0.888-1.654l1.048-0.693c63.576-42.079,145.736-42.08,209.316,0.001l1.043,0.69
			c0.559,0.369,0.892,0.988,0.892,1.656v71.534c0,51.501-28.392,98.244-74.093,121.986l-18.24,9.475
			c-8.928,4.639-19.589,4.639-28.52,0l-18.239-9.476c-22.892-11.892-41.926-29.947-55.046-52.213
			c-2.104-3.569-6.702-4.757-10.272-2.654c-3.568,2.104-4.758,6.701-2.654,10.271c11.624,19.727,27.444,36.461,46.28,49.124
			l-5.09,14.38c-0.05,0.14-0.166,0.247-0.311,0.287l-76.463,20.826c-11.734,3.195-22.668,9.238-31.617,17.472l-2.041,1.877
			c-3.05,2.804-3.248,7.55-0.442,10.599c1.479,1.608,3.497,2.424,5.522,2.424c1.814,0,3.636-0.655,5.076-1.98l2.042-1.877
			c7.189-6.616,15.974-11.47,25.401-14.037l76.462-20.827c4.893-1.332,8.823-4.979,10.513-9.758l4.07-11.495
			c0.553,0.297,1.098,0.607,1.655,0.896l18.238,9.476c6.631,3.444,13.902,5.167,21.177,5.167c7.273,0,14.547-1.723,21.175-5.167
			l18.239-9.476c0.841-0.438,1.663-0.899,2.493-1.351l4.23,11.95c1.692,4.777,5.622,8.426,10.512,9.757l25.598,6.972
			c0.658,0.18,1.322,0.266,1.977,0.266c3.299,0,6.322-2.194,7.232-5.532C348.046,470.986,345.688,466.862,341.689,465.773
			L341.689,465.773z M216.781,91.235l5.665-1.889c3.931-1.31,6.054-5.558,4.744-9.489c-1.311-3.931-5.558-6.054-9.489-4.745
			l-5.665,1.888c-9.254,3.084-18.023,7.292-26.156,12.439c-1.584-27.383,13.012-53.731,37.979-66.617
			c20.211-10.431,44.345-10.432,64.559,0c25.394,13.105,40.056,40.137,37.879,68.019c-8.734-5.793-18.248-10.479-28.332-13.841
			l-5.664-1.888c-3.934-1.312-8.18,0.814-9.489,4.745c-1.311,3.931,0.813,8.179,4.744,9.489l5.664,1.889
			c21.719,7.239,40.414,21.479,53.341,39.971c-6.297-3.973-12.966-7.408-19.942-10.229c-46.198-18.688-97.083-18.688-143.282,0
			c-6.941,2.808-13.56,6.208-19.819,10.128C176.44,112.663,195.102,98.461,216.781,91.235L216.781,91.235z M112.742,291.892
			c0-9.843,8.009-17.853,17.853-17.853h3.31v35.704h-3.31C120.75,309.743,112.742,301.734,112.742,291.892L112.742,291.892z
			 M381.405,274.039c9.845,0,17.853,8.01,17.853,17.853s-8.008,17.852-17.853,17.852h-4.31v-35.704H381.405z"/>
	</g>
</g>
</svg>
