<?xml version="1.0" encoding="utf-8"?>
<svg version="1.1" xmlns:xlink="http://www.w3.org/1999/xlink" width="55px" height="53px" xmlns="http://www.w3.org/2000/svg">
  <defs>
    <path d="M 0 0  L 200 0  L 200 200  L 0 200  Z " fill-rule="evenodd" fill="black" id="path25" />
    <clipPath id="clip26">
      <use xlink:href="#path25" />
    </clipPath>
    <filter x="-50.00%" y="-50.00%" width="200.00%" height="200.00%" filterUnits="objectBoundingBox" id="filter27">
      <feColorMatrix type="matrix" values="1 0 0 0 0  0 1 0 0 0  0 0 1 0 0  0 0 0 1 0  " in="SourceGraphic" />
    </filter>
  </defs>
  <g transform="matrix(1 0 0 1 -80 0 )">
    <g transform="matrix(0.265 0 0 0.265 81 0 )" clip-path="url(#clip26)" filter="url(#filter27)">
      <g id="Layer_1" display="none">
	<circle display="inline" fill="#F4C018" cx="100.07" cy="99.72" r="100.385" />
	<g display="inline">
		<defs>
			<circle id="SVGID_1_" cx="100.07" cy="99.72" r="100.385" />
		</defs>
		<clipPath id="SVGID_2_">
			<use xlink:href="#SVGID_1_" overflow="visible" />
		</clipPath>
		<g clip-path="url(#SVGID_2_)">
			<g>
				<path fill="#F2CAA5" d="M148.145,161.509c-6.471-12.249-48.075-19.937-48.075-19.937s-41.604,7.688-48.075,19.937      c-4.783,17-8.784,38.6-8.784,38.6h56.859h56.859C156.929,200.108,154.227,176.948,148.145,161.509z" />
				<path fill="#E4B692" d="M100.069,141.572c0,0,41.604,7.688,48.075,19.937c6.082,15.439,8.784,38.6,8.784,38.6h-56.859V141.572z" />
				<rect x="88.743" y="116.668" fill="#F2CAA5" width="22.652" height="37.91" />
				<rect x="100.069" y="116.668" fill="#E4B692" width="11.326" height="37.91" />
				<path opacity="0.1" fill="#DDAD8D" d="M88.743,134.234c2.037,5.849,10.259,9.2,16.297,9.2c2.185,0,4.309-0.365,6.355-1.036      v-25.73H88.743V134.234z" />
				<path fill="#F2CAA5" d="M129.192,92.747c0-23.679-13.039-37.144-29.123-37.144S70.946,69.068,70.946,92.747      c0,31.85,13.039,42.876,29.123,42.876S129.192,123.269,129.192,92.747z" />
				<path fill="#E4B692" d="M124.76,109.167c-5.279-0.553-8.844-6.241-7.95-12.698c0.884-6.463,5.884-11.261,11.165-10.711      c5.276,0.55,8.836,6.235,7.944,12.698C135.033,104.918,130.039,109.713,124.76,109.167z" />
				<path fill="#F2CAA5" d="M64.425,98.456c-0.891-6.463,2.668-12.148,7.942-12.698c5.284-0.55,10.284,4.249,11.17,10.711      c0.891,6.457-2.676,12.146-7.952,12.698C70.306,109.713,65.311,104.918,64.425,98.456z" />
				<path fill="#E4B692" d="M129.192,92.747c0-23.679-13.039-37.144-29.123-37.144v80.02      C116.153,135.623,129.192,123.269,129.192,92.747z" />
			</g>
			<path fill="#303030" d="M126.267,112.593c-1.566,4.404-4.217,9.7-9.006,9.7c-5.986,0-10.267-4.865-17.133-4.865     c-0.019,0-0.038,0.003-0.057,0.003c-0.021,0-0.04-0.003-0.06-0.003c-6.865,0-11.145,4.865-17.132,4.865     c-4.789,0-7.438-5.296-9.004-9.7l-1.356-8.484v10.153c0,0,2.275,11.957,6.643,14.846c3.558,3.161,15.169,8.574,20.848,8.574     h0.001c0.019,0,0.039-0.003,0.06-0.003c0.019,0,0.039,0.003,0.057,0.003h0.003c5.68,0,17.292-5.413,20.848-8.574     c4.367-2.889,6.643-14.846,6.643-14.846v-10.153L126.267,112.593z" />
			<path fill="#303030" d="M85.967,60.134c0,0,5.409,21.894,35.547,32.969c-2.835-4.895-3.35-10.818-3.35-10.818     s4.895,5.151,12.878,9.273c4.38-8.757,9.532-21.894-2.06-29.105C117.393,55.239,89.831,42.36,85.967,60.134z" />
			<path fill="#303030" d="M75.922,91.301c0,0,2.237-24.995,11.55-30.523c-7.943-3.466-20.049,7.084-18.763,13.522     C69.998,80.74,75.922,91.301,75.922,91.301z" />
			<path fill="#F26426" d="M148.145,161.509c-3.78-7.153-19.529-12.746-31.987-16.164c-0.487,8.474-7.492,15.199-16.088,15.199     s-15.6-6.726-16.088-15.199c-12.458,3.418-28.208,9.011-31.987,16.164c-4.783,17-8.784,38.6-8.784,38.6h56.859h56.859     C156.929,200.108,154.227,176.948,148.145,161.509z" />
			<path opacity="0.2" fill="#E44125" d="M83.05,149.505c0.516,8.474,7.925,15.199,17.02,15.199c9.094,0,16.504-6.726,17.02-15.199     c11.418,2.96,25.434,7.557,31.581,13.383c-0.172-0.466-0.347-0.926-0.525-1.379c-3.78-7.153-19.529-12.746-31.987-16.164     c-0.487,8.474-7.492,15.199-16.088,15.199s-15.6-6.726-16.088-15.199c-12.458,3.418-28.208,9.011-31.987,16.164     c-0.112,0.401-0.225,0.808-0.337,1.213C57.895,156.975,71.741,152.437,83.05,149.505z" />
			<path fill="#E44125" d="M79.244,146.709c1.578,10.097,10.287,17.83,20.825,17.83s19.247-7.733,20.825-17.83     c-1.61-0.487-3.199-0.942-4.737-1.364c-0.487,8.474-7.492,15.199-16.088,15.199s-15.6-6.726-16.088-15.199     C82.443,145.767,80.854,146.222,79.244,146.709z" />
			<path fill="#FFFFFF" d="M104.808,125.06c0,0-0.693-3.087-4.738-3.087c-3.699,0-4.739,3.087-4.739,3.087H104.808z" />
		</g>
	</g>
</g>
      <g id="Layer_2">
	<ellipse fill="#F2682E" cx="99.783" cy="99.247" rx="99.783" ry="97.344" />
	<g>
		<defs>
			<circle id="SVGID_3_" cx="99.047" cy="100.95" r="99.047" />
		</defs>
		<clipPath id="SVGID_4_">
			<use xlink:href="#SVGID_3_" overflow="visible" />
		</clipPath>
		<g clip-path="url(#SVGID_4_)">
			<g>
				<ellipse fill="#11303F" cx="99.219" cy="87.725" rx="40.55" ry="40.814" />
				<path fill="#F2CAA5" d="M146.653,161.916c-6.385-12.087-47.435-19.672-47.435-19.672s-41.05,7.585-47.435,19.672      C47.064,178.688,43.117,200,43.117,200h56.102h56.101C155.319,200,152.654,177.149,146.653,161.916z" />
				<path fill="#E4B692" d="M99.219,142.244c0,0,41.05,7.585,47.435,19.672c6.001,15.233,8.666,38.084,8.666,38.084H99.219V142.244z      " />
				<rect x="88.044" y="117.672" fill="#F2CAA5" width="22.35" height="37.404" />
				<rect x="99.219" y="117.672" fill="#E4B692" width="11.175" height="37.404" />
				<path opacity="0.1" fill="#DDAD8D" d="M88.044,135.004c2.009,5.77,10.122,9.077,16.079,9.077c2.154,0,4.251-0.36,6.271-1.021      v-25.388h-22.35V135.004z" />
				<path fill="#F2CAA5" d="M127.953,94.07c0-23.363-12.865-36.649-28.734-36.649c-15.87,0-28.735,13.286-28.735,36.649      c0,23.363,12.866,42.304,28.735,42.304C115.088,136.374,127.953,117.433,127.953,94.07z" />
				<path fill="#E4B692" d="M124.605,110.27c-5.207-0.535-8.724-6.06-7.843-12.33c0.871-6.275,5.804-10.935,11.016-10.4      c5.206,0.535,8.718,6.055,7.839,12.331C134.743,106.146,129.814,110.802,124.605,110.27z" />
				<path fill="#F2CAA5" d="M63.081,99.87c-0.879-6.276,2.633-11.796,7.835-12.331c5.215-0.535,10.148,4.125,11.022,10.4      c0.88,6.271-2.641,11.795-7.846,12.33C68.883,110.802,63.955,106.146,63.081,99.87z" />
				<path fill="#E4B692" d="M127.953,94.07c0-23.363-12.865-36.649-28.734-36.649v78.953      C115.088,136.374,127.953,117.433,127.953,94.07z" />
			</g>
			<path fill="#11303F" d="M100.87,50.271c-17.173,0-32.746,19.125-32.746,37.249c0,0.069,0.004,0.136,0.004,0.206h16.218     l1.535-12.094v12.094h16.419V75.631l2.88,12.094H115.6V77.683l2.499,10.042h12.211c0-0.07,0.004-0.137,0.004-0.206     C130.313,69.396,118.044,50.271,100.87,50.271z" />
			<path fill="#11303F" d="M118.604,62.773c0,0,15.28-33.525,37.174-15.964c21.894,17.562-15.624,71.651,17.674,68.23     c-11.858,12.544-27.937,5.661-29.305-21.934s-13.833-17.789-13.833-17.789" />
			<path fill="#11303F" d="M80.207,62.773c0,0-15.28-33.525-37.173-15.964C21.14,64.37,57.942,117.435,24.645,114.014     c11.858,12.543,28.65,6.687,30.019-20.909s13.833-17.789,13.833-17.789" />
			<path fill="#FAE440" d="M98.259,63.318c14.833,0,27.154,8.563,29.662,19.834c0.307-1.376,0.476-2.792,0.476-4.237     c0-13.293-13.493-24.072-30.137-24.072c-16.643,0-30.135,10.779-30.135,24.072c0,1.446,0.168,2.861,0.476,4.237     C71.106,71.881,83.426,63.318,98.259,63.318z" />
			<path fill="#B3B335" d="M146.653,161.916c-1.687-3.192-5.796-6.066-10.923-8.574c-8.033,1.484-21.386,2.458-36.512,2.458     c-15.125,0-28.478-0.974-36.512-2.458c-5.127,2.508-9.236,5.382-10.922,8.574C47.064,178.688,43.117,200,43.117,200h56.102     h56.101C155.319,200,152.654,177.149,146.653,161.916z" />
		</g>
	</g>
</g>
    </g>
  </g>
</svg>