<svg id="Layer_37" enable-background="new 0 0 64 64" height="512" viewBox="0 0 64 64" width="512" xmlns="http://www.w3.org/2000/svg"><g><g><g><path d="m46 16c1 6 2 24 2 24l-.46.06c.28.54.46 1.17.46 1.94 0 4-3 5-3 7 0 .93.65 1.86 1.15 3 .56 1.3.92 2.86-.15 5-2 4-9 5-9 5 3-5-1.23-6.93-2-10-1-4 2-5 2-8 0-2.24-3-3-3-6 0-1.8 1.01-2.79 2.12-3.88 1.36-1.33 2.88-2.82 2.88-6.12 0-.82 0-1.86 0-3 0-3.05 0-6.82 0-9 0-3-4-3-7-5-3 2-7 2-7 5v9 3c0 3.3 1.52 4.79 2.88 6.12 1.11 1.09 2.12 2.08 2.12 3.88 0 3-3 3.76-3 6 0 3 3 4 2 8-.77 3.07-5 5-2 10 0 0-7-1-9-5-1.07-2.14-.71-3.7-.15-5 .5-1.14 1.15-2.07 1.15-3 0-2-3-3-3-7 0-.9.24-1.6.61-2.2h-.6c.11-2 1.05-18.18 1.99-23.8 1-6 4-14 14-14s13 8 14 14z" fill="#656d78"/></g><g><path d="m16.61 39.8c-.37.6-.61 1.3-.61 2.2 0 4 3 5 3 7 0 .93-.65 1.86-1.15 3h-8.85s1-6 2-8c2-4 5-4 5-4s0-.07.01-.2z" fill="#f0d0b4"/></g><g><path d="m48 40s3 0 5 4c1 2 2 8 2 8h-8.85c-.5-1.14-1.15-2.07-1.15-3 0-2 3-3 3-7 0-.77-.18-1.4-.46-1.94z" fill="#f0d0b4"/></g><g><path d="m35 30.06c.02 1.98 1 3.94 1 3.94l.12.12c-1.11 1.09-2.12 2.08-2.12 3.88 0 3 3 3.76 3 6 0 3-3 4-2 8h-6c1-4-2-5-2-8 0-2.24 3-3 3-6 0-1.8-1.01-2.79-2.12-3.88l.12-.12s.98-1.96 1-3.94c.94.59 1.97.94 3 .94s2.06-.35 3-.94z" fill="#f0d0b4"/></g><g><path d="m35 30.06c-.94.59-1.97.94-3 .94s-2.06-.35-3-.94c-1.82-1.12-3.34-3.09-4-5.06 0-3.05 0-6.82 0-9 0-3 4-3 7-5 3 2 7 2 7 5v9c-.66 1.97-2.18 3.94-4 5.06z" fill="#f0d0b4"/></g></g><g><path d="m56.181 53-.194-1.165c-.042-.251-1.037-6.172-2.092-8.283-1.559-3.117-3.714-4.1-4.941-4.41-.209-3.6-1.078-17.976-1.967-23.307-1.618-9.705-6.8-14.835-14.987-14.835s-13.369 5.13-14.986 14.835c-.889 5.331-1.758 19.707-1.967 23.307-1.228.31-3.383 1.293-4.941 4.41-1.055 2.11-2.05 8.032-2.092 8.283l-.195 1.165h8.646c-.28 1.216-.247 2.674.64 4.447 2.209 4.418 9.446 5.499 9.753 5.542l2.08.297-1.081-1.802c-1.732-2.888-.721-4.371.561-6.249.479-.703.968-1.426 1.298-2.236h4.568c.33.81.818 1.533 1.298 2.236 1.281 1.878 2.293 3.361.561 6.249l-1.081 1.802 2.08-.297c.307-.043 7.544-1.125 9.753-5.542.887-1.774.92-3.231.64-4.447zm-4.076-8.553c.623 1.247 1.318 4.508 1.701 6.553h-7.024c-.062-.128-.124-.253-.185-.373-.32-.642-.597-1.196-.597-1.627 0-.46.344-.922.905-1.638.884-1.129 2.095-2.674 2.095-5.362 0-.268-.021-.52-.055-.761.859.342 2.143 1.173 3.16 3.208zm-34.703 6.18c-.06.12-.122.246-.185.373h-7.024c.383-2.044 1.077-5.305 1.701-6.553 1.025-2.051 2.304-2.88 3.161-3.216-.034.244-.055.498-.055.769 0 2.688 1.211 4.233 2.095 5.362.561.716.905 1.178.905 1.638 0 .431-.277.985-.598 1.627zm17.664-4.038c-.638 1.095-1.395 2.423-1.233 4.411h-3.666c.161-1.989-.595-3.316-1.233-4.411-.501-.858-.934-1.599-.934-2.589 0-.623.41-1.113 1.081-1.862.855-.956 1.919-2.146 1.919-4.138 0-1.881-.887-3.033-1.883-4.052.214-.512.529-1.366.72-2.359.698.259 1.423.411 2.163.411s1.465-.152 2.163-.411c.191.993.506 1.848.72 2.359-.996 1.019-1.883 2.171-1.883 4.052 0 1.992 1.064 3.182 1.919 4.138.671.749 1.081 1.239 1.081 1.862 0 .99-.433 1.731-.934 2.589zm1.362-14.222c-.167-.511-.328-1.137-.394-1.785.705-.502 1.354-1.107 1.921-1.78-.151 1.639-.758 2.685-1.527 3.565zm1.572-7.545c-.903 2.527-3.486 5.178-6 5.178s-5.097-2.651-6-5.178v-8.822c0-1.171.903-1.642 3.121-2.513.908-.356 1.917-.752 2.879-1.31.962.558 1.971.954 2.879 1.31 2.218.871 3.121 1.342 3.121 2.513zm-10.034 5.76c-.066.648-.227 1.273-.394 1.785-.769-.88-1.375-1.926-1.527-3.565.567.673 1.216 1.278 1.921 1.78zm16.844 20.939c.723 1.446 1.405 2.812.296 5.031-.583 1.165-1.694 2.045-2.915 2.706.53-.964.809-2.056.809-3.258 0-1.803-.647-2.774-1.168-3.555-.465-.697-.832-1.248-.832-2.445 0-1.167.603-1.97 1.3-2.9.797-1.063 1.7-2.267 1.7-4.1s-.903-3.038-1.7-4.1c-.697-.93-1.3-1.733-1.3-2.9h-2c0 1.833.903 3.038 1.7 4.1.697.93 1.3 1.733 1.3 2.9s-.603 1.97-1.3 2.9c-.797 1.062-1.7 2.267-1.7 4.1 0 1.803.647 2.774 1.168 3.555.465.697.832 1.248.832 2.445 0 1.872-.923 3.123-2.097 3.959.556-2.544-.64-4.343-1.669-5.85-.549-.806-1.068-1.566-1.265-2.352-.48-1.924.124-2.96.824-4.16.566-.968 1.207-2.066 1.207-3.597 0-1.418-.845-2.362-1.59-3.195-.757-.847-1.41-1.577-1.41-2.805 0-1.378.765-2.126 1.822-3.163 1.416-1.387 3.178-3.114 3.178-6.837v-12c0-2.651-2.232-3.527-4.391-4.375-1.039-.408-2.113-.83-3.055-1.458l-.554-.369-.555.37c-.941.627-2.016 1.049-3.055 1.458-2.158.847-4.39 1.723-4.39 4.374v12c0 3.723 1.762 5.45 3.178 6.837 1.057 1.037 1.822 1.785 1.822 3.163 0 1.228-.653 1.958-1.41 2.805-.745.833-1.59 1.777-1.59 3.195 0 1.531.641 2.629 1.206 3.597.7 1.2 1.305 2.236.824 4.161-.196.786-.716 1.546-1.265 2.352-1.028 1.507-2.225 3.306-1.669 5.849-1.173-.836-2.096-2.087-2.096-3.959 0-1.197.367-1.748.832-2.445.521-.781 1.168-1.752 1.168-3.555 0-1.833-.903-3.038-1.7-4.1-.697-.93-1.3-1.733-1.3-2.9s.603-1.97 1.3-2.9c.797-1.063 1.7-2.267 1.7-4.1h-2c0 1.167-.603 1.97-1.3 2.9-.797 1.062-1.7 2.267-1.7 4.1s.903 3.038 1.7 4.1c.697.93 1.3 1.733 1.3 2.9 0 1.197-.367 1.748-.832 2.445-.521.781-1.168 1.752-1.168 3.555 0 1.193.276 2.277.799 3.235-1.239-.677-2.341-1.557-2.904-2.683-1.109-2.219-.427-3.585.296-5.031.398-.795.809-1.618.809-2.521 0-1.173-.677-2.037-1.331-2.872-.82-1.047-1.669-2.13-1.669-4.128 0-1.446.774-2.197 1.847-3.237 1.405-1.363 3.153-3.059 3.153-6.763h-2c0 2.857-1.236 4.057-2.546 5.328-.103.1-.208.204-.313.307.311-5.109 1.084-16.901 1.845-21.47 1.456-8.736 5.834-13.165 13.014-13.165s11.558 4.429 13.014 13.165c.761 4.569 1.534 16.361 1.845 21.47-.105-.103-.21-.207-.313-.307-1.31-1.271-2.546-2.471-2.546-5.328h-2c0 3.704 1.748 5.4 3.153 6.763 1.073 1.04 1.847 1.791 1.847 3.237 0 1.998-.849 3.081-1.669 4.128-.654.835-1.331 1.699-1.331 2.872 0 .903.411 1.726.81 2.521z"/><path d="m20 21h2v9h-2z"/><path d="m42 21h2v9h-2z"/></g></g></svg>