<?xml version="1.0" encoding="utf-8"?>
<!-- Generator: Adobe Illustrator 16.0.0, SVG Export Plug-In . SVG Version: 6.00 Build 0)  -->
<!DOCTYPE svg PUBLIC "-//W3C//DTD SVG 1.1//EN" "http://www.w3.org/Graphics/SVG/1.1/DTD/svg11.dtd">
<svg version="1.1" id="Layer_3" xmlns="http://www.w3.org/2000/svg" xmlns:xlink="http://www.w3.org/1999/xlink" x="0px" y="0px"
	 width="512px" height="512px" viewBox="0 0 512 512" enable-background="new 0 0 512 512" xml:space="preserve">
<g>
	<path fill="#2B3B4E" d="M90.257,72.555L50.309,160.25l0,0c-0.696,1.529,0,3.34,1.67,4.037c1.53,0.695,3.34,0,4.037-1.672
		L93.04,73.668c0.278-0.697,0-1.532-0.694-1.948C91.37,71.442,90.535,71.72,90.257,72.555z"/>
	<path fill="#2B3B4E" d="M103.34,78.262l-39.948,87.694l0,0c-0.697,1.53,0,3.34,1.669,4.037c1.532,0.695,3.34,0,4.037-1.67
		l37.027-88.947c0.278-0.697,0-1.532-0.697-1.949C104.594,77.149,103.759,77.564,103.34,78.262z"/>
	<path fill="#2B3B4E" d="M116.565,83.969l-39.949,87.694l0,0c-0.696,1.532,0,3.34,1.67,4.037c1.532,0.695,3.34,0,4.038-1.67
		l37.027-88.948c0.278-0.696,0-1.532-0.697-1.948C117.818,82.855,116.983,83.271,116.565,83.969z"/>
	<path fill="#2B3B4E" d="M129.789,89.676L89.841,177.37l0,0c-0.697,1.532,0,3.34,1.67,4.037c1.529,0.694,3.339,0,4.037-1.67
		l37.024-88.948c0.278-0.697,0-1.532-0.695-1.948C130.902,88.701,130.067,88.979,129.789,89.676z"/>
	<path fill="#2B3B4E" d="M142.875,95.523l-39.951,87.694l0,0c-0.697,1.529,0,3.34,1.67,4.037c1.532,0.694,3.339,0,4.037-1.673
		l37.027-88.946c0.278-0.696,0-1.532-0.697-1.947C144.126,94.408,143.291,94.688,142.875,95.523z"/>
	<path fill="#2B3B4E" d="M156.097,101.23l-39.948,87.695l0,0c-0.697,1.529,0,3.339,1.67,4.037c1.532,0.694,3.34,0,4.037-1.673
		l37.026-88.945c0.279-0.697,0-1.532-0.696-1.949C157.35,100.116,156.375,100.395,156.097,101.23z"/>
	<path fill="#2B3B4E" d="M169.32,106.936l-39.948,87.695l0,0c-0.697,1.53,0,3.34,1.669,4.037c1.53,0.694,3.34,0,4.038-1.67
		l37.026-88.948c0.276-0.697,0-1.532-0.696-1.949C170.434,105.823,169.599,106.24,169.32,106.936z"/>
	<path fill="#2B3B4E" d="M182.406,112.644l-39.95,87.694l0,0c-0.697,1.532,0,3.34,1.67,4.037c1.532,0.695,3.34,0,4.038-1.67
		l37.026-88.947c0.279-0.698,0-1.532-0.697-1.949C183.658,111.669,182.823,111.947,182.406,112.644z"/>
	<path fill="#2B3B4E" d="M195.628,118.351l-39.948,87.694l0,0c-0.697,1.532,0,3.34,1.669,4.037c1.532,0.695,3.34,0,4.038-1.67
		l37.026-88.947c0.278-0.697,0-1.532-0.697-1.948C196.882,117.375,195.906,117.653,195.628,118.351z"/>
	<path fill="#2B3B4E" d="M208.853,124.196l-39.949,87.694l0,0c-0.696,1.532,0,3.343,1.67,4.037c1.532,0.697,3.34,0,4.037-1.669
		l37.027-88.946c0.278-0.697,0-1.532-0.697-1.951C209.966,123.082,209.131,123.36,208.853,124.196z"/>
	<path fill="#2B3B4E" d="M221.938,129.904l-39.95,87.694l0,0c-0.697,1.53,0,3.34,1.67,4.035c1.532,0.697,3.34,0,4.037-1.669
		l37.026-88.945c0.278-0.697,0-1.532-0.696-1.951C223.19,128.792,222.355,129.208,221.938,129.904z"/>
	<path fill="#2B3B4E" d="M235.16,135.611l-39.948,87.695l0,0c-0.697,1.529,0,3.339,1.67,4.037c1.532,0.694,3.34,0,4.037-1.672
		l37.029-88.946c0.276-0.697,0-1.532-0.699-1.948C236.417,134.498,235.441,134.915,235.16,135.611z"/>
	<path fill="#2B3B4E" d="M248.386,141.319l-39.95,87.694l0,0c-0.696,1.53,0,3.34,1.67,4.037c1.532,0.694,3.34,0,4.037-1.673
		l37.027-88.945c0.28-0.697,0-1.532-0.699-1.948C249.5,140.343,248.663,140.622,248.386,141.319z"/>
	<path fill="#2B3B4E" d="M261.47,147.164l-39.95,87.694l0,0c-0.694,1.532,0,3.342,1.67,4.037c1.532,0.697,3.342,0,4.037-1.67
		l37.027-88.945c0.28-0.697,0-1.532-0.699-1.951C262.722,146.05,261.889,146.328,261.47,147.164z"/>
	<path fill="#2B3B4E" d="M274.697,152.87l-39.956,87.694l0,0c-0.694,1.532,0,3.342,1.675,4.037c1.532,0.697,3.34,0,4.034-1.67
		l37.025-88.945c0.281-0.697,0-1.532-0.694-1.951C275.942,151.756,274.973,152.035,274.697,152.87z"/>
	<path fill="#2B3B4E" d="M287.913,158.579l-39.946,87.694l0,0c-0.694,1.53,0,3.34,1.671,4.035c1.532,0.697,3.34,0,4.039-1.669
		l37.025-88.946c0.274-0.697,0-1.532-0.695-1.951C289.031,157.464,288.194,157.882,287.913,158.579z"/>
	<path fill="#2B3B4E" d="M301.002,164.286l-39.949,87.694l0,0c-0.695,1.529,0,3.34,1.669,4.037c1.532,0.694,3.345,0,4.04-1.672
		l37.024-88.946c0.275-0.697,0-1.532-0.695-1.948C302.254,163.171,301.416,163.59,301.002,164.286z"/>
	<path fill="#2B3B4E" d="M314.225,169.993l-39.946,87.694l0,0c-0.699,1.529,0,3.34,1.664,4.037c1.533,0.694,3.346,0,4.04-1.673
		l37.03-88.946c0.276-0.696,0-1.532-0.699-1.948C315.479,169.018,314.504,169.296,314.225,169.993z"/>
	<path fill="#2B3B4E" d="M327.45,175.838l-39.951,87.696l0,0c-0.698,1.532,0,3.341,1.671,4.035c1.533,0.694,3.34,0,4.035-1.67
		l37.029-88.948c0.28-0.695,0-1.53-0.7-1.949C328.563,174.725,327.727,175.003,327.45,175.838z"/>
	<path fill="#2B3B4E" d="M340.534,181.544l-39.951,87.695l0,0c-0.694,1.531,0,3.345,1.671,4.04c1.532,0.694,3.341,0,4.034-1.676
		l37.03-88.945c0.28-0.695,0-1.53-0.7-1.949C341.785,180.432,340.953,180.71,340.534,181.544z"/>
	<path fill="#2B3B4E" d="M353.76,187.254l-39.954,87.694l0,0c-0.695,1.527,0,3.34,1.674,4.035c1.533,0.699,3.341,0,4.035-1.671
		l37.024-88.945c0.281-0.697,0-1.532-0.693-1.95C355.007,186.139,354.036,186.557,353.76,187.254z"/>
	<path fill="#2B3B4E" d="M366.978,192.961l-39.946,87.692l0,0c-0.693,1.532,0,3.339,1.671,4.039c1.532,0.693,3.339,0,4.038-1.67
		l37.025-88.948c0.276-0.697,0-1.532-0.694-1.948C368.095,191.986,367.263,192.264,366.978,192.961z"/>
	<path fill="#2B3B4E" d="M380.065,198.668l-39.95,87.694l0,0c-0.694,1.532,0,3.34,1.67,4.034c1.533,0.695,3.345,0,4.04-1.67
		l37.025-88.945c0.274-0.697,0-1.532-0.695-1.948C381.317,197.693,380.479,197.971,380.065,198.668z"/>
	<path fill="#2B3B4E" d="M393.287,204.513l-39.944,87.692l0,0c-0.695,1.532,0,3.345,1.664,4.039c1.532,0.699,3.346,0,4.04-1.67
		l37.029-88.948c0.275-0.695,0-1.53-0.699-1.948C394.545,203.399,393.568,203.678,393.287,204.513z"/>
	<path fill="#2B3B4E" d="M406.515,210.22l-39.951,87.693l0,0c-0.699,1.533,0,3.341,1.669,4.035c1.533,0.699,3.341,0,4.036-1.664
		l37.029-88.952c0.281-0.694,0-1.529-0.699-1.948C407.628,209.106,406.789,209.525,406.515,210.22z"/>
	<path fill="#2B3B4E" d="M419.598,215.926l-39.95,87.697l0,0c-0.694,1.532,0,3.34,1.67,4.034c1.533,0.695,3.34,0,4.035-1.669
		l37.028-88.946c0.281-0.697,0-1.532-0.693-1.951C420.854,214.813,420.017,215.232,419.598,215.926z"/>
	<path fill="#2B3B4E" d="M432.824,221.633l-39.955,87.694l0,0c-0.695,1.532,0,3.346,1.676,4.04c1.531,0.694,3.338,0,4.033-1.675
		l37.025-88.943c0.28-0.697,0-1.532-0.695-1.951C434.07,220.66,433.101,220.938,432.824,221.633z"/>
	<path fill="#2B3B4E" d="M446.046,227.48l-39.95,87.694l0,0c-0.695,1.531,0,3.341,1.67,4.035c1.532,0.699,3.345,0,4.039-1.666
		l37.024-88.95c0.276-0.695,0-1.53-0.693-1.949C447.16,226.367,446.326,226.646,446.046,227.48z"/>
	<path fill="#2B3B4E" d="M459.13,233.188l-39.951,87.697l0,0c-0.693,1.531,0,3.34,1.676,4.034c1.526,0.695,3.34,0,4.033-1.67
		l37.025-88.948c0.276-0.694,0-1.53-0.694-1.948C460.381,232.075,459.548,232.353,459.13,233.188z"/>
	<path fill="#2B3B4E" d="M77.033,66.849l-39.948,87.694l0,0c-0.697,1.53,0,3.34,1.669,4.037c1.53,0.694,3.34,0,4.037-1.672
		l37.027-88.945c0.278-0.698,0-1.532-0.697-1.949C78.286,65.732,77.452,66.013,77.033,66.849z"/>
	<path fill="#2B3B4E" d="M472.351,238.895l-39.945,87.693l0,0c-0.694,1.532,0,3.346,1.665,4.039c1.533,0.696,3.345,0,4.04-1.674
		l37.028-88.945c0.276-0.694,0-1.53-0.693-1.948C473.607,237.781,472.633,238.2,472.351,238.895z"/>
</g>
<path fill="#324A5E" d="M502.145,251.84L464.14,339.26c-8.906,20.458-32.571,29.781-53.029,20.875L32.769,195.466
	c-20.462-8.909-29.788-32.571-20.879-53.035l38-87.416c9.466,4.175,13.918,15.172,9.744,24.638l-26.448,60.689l417.871,181.93
	l26.447-60.689C481.677,252.119,492.678,247.804,502.145,251.84z"/>
<path fill="#ACB3BA" d="M76.338,428.066c-6.264,15.729-6.542,32.152-1.951,45.792c4.594,13.784,14.059,24.917,27.283,30.069
	c13.225,5.286,27.702,3.621,40.508-3.202c12.805-6.823,23.803-18.93,29.928-34.659l59.715-151.31l42.734-4.592l53.172-296.351
	L206.626,320.189c-1.113,2.778-2.783,5.286-4.732,7.374l-1.951,1.951c-25.61,26.586-56.79,46.768-90.337,62.222
	c-7.101,3.197-13.642,8.069-19.35,14.197C84.55,412.057,79.679,419.573,76.338,428.066z M85.247,431.544
	c10.439-26.448,36.608-41.063,58.044-32.571c21.436,8.493,30.485,37.025,19.907,63.473c-10.58,26.586-36.611,41.202-58.047,32.571
	C83.715,486.528,74.668,458.131,85.247,431.544z"/>
<path fill="#FF7058" d="M188.67,340.372c-23.246,21.295-50.25,38.138-79.063,51.364c-7.101,3.197-13.642,8.069-19.35,14.197
	c-5.707,6.123-10.438,13.64-13.918,22.133c-6.264,15.729-6.542,32.152-1.951,45.792c4.594,13.784,14.059,24.917,27.283,30.069
	c13.225,5.286,27.702,3.621,40.508-3.202c12.805-6.823,23.803-18.93,29.928-34.659L221.66,340.51h-32.99V340.372L188.67,340.372z
	 M163.198,462.445c-10.58,26.586-36.611,41.202-58.047,32.571c-21.576-8.488-30.482-37.025-19.904-63.473
	c10.439-26.448,36.608-41.063,58.044-32.571C164.727,407.466,173.776,435.998,163.198,462.445z"/>
<path fill="#E6E9EE" d="M401.224,405.934c-5.709-6.128-12.39-11-19.345-14.197c-33.552-15.454-64.59-35.636-90.34-62.222
	l-1.951-1.951c-2.089-2.088-3.62-4.596-4.733-7.374L163.754,13.814l53.172,296.351l42.737,4.592l59.576,151.31
	c6.261,15.729,17.261,27.836,29.926,34.659c12.809,6.823,27.281,8.488,40.507,3.197c13.223-5.285,22.686-16.425,27.281-30.064
	c4.597-13.782,4.315-30.063-1.95-45.792C411.662,419.573,406.932,412.057,401.224,405.934z M386.188,495.159
	c-21.437,8.488-47.605-6.128-58.044-32.571c-10.437-26.452-1.532-54.985,19.906-63.478c21.572-8.487,47.606,6.128,58.045,32.571
	C416.677,458.131,407.766,486.528,386.188,495.159z"/>
<path fill="#FF7058" d="M401.224,405.934c-5.709-6.128-12.39-11-19.345-14.197c-28.817-13.227-55.684-30.069-79.069-51.364h-33.127
	l49.557,125.556c6.261,15.73,17.261,27.838,29.926,34.655c12.809,6.822,27.281,8.492,40.507,3.207
	c13.223-5.291,22.686-16.429,27.281-30.069c4.597-13.778,4.315-30.068-1.95-45.797C411.662,419.573,406.932,412.057,401.224,405.934
	z M386.188,495.159c-21.437,8.488-47.605-6.128-58.044-32.571c-10.437-26.452-1.532-54.985,19.906-63.478
	c21.572-8.487,47.606,6.128,58.045,32.571C416.677,458.131,407.766,486.528,386.188,495.159z"/>
<circle fill="#ACB3BA" cx="241.564" cy="284.968" r="11.137"/>
</svg>
