<?xml version="1.0" encoding="utf-8"?>
<svg version="1.1" xmlns:xlink="http://www.w3.org/1999/xlink" width="55px" height="53px" xmlns="http://www.w3.org/2000/svg">
  <defs>
    <path d="M 0 0  L 200 0  L 200 200  L 0 200  Z " fill-rule="evenodd" fill="black" id="path22" />
    <clipPath id="clip23">
      <use xlink:href="#path22" />
    </clipPath>
    <filter x="-50.00%" y="-50.00%" width="200.00%" height="200.00%" filterUnits="objectBoundingBox" id="filter24">
      <feColorMatrix type="matrix" values="1 0 0 0 0  0 1 0 0 0  0 0 1 0 0  0 0 0 1 0  " in="SourceGraphic" />
    </filter>
  </defs>
  <g>
    <g transform="matrix(0.265 0 0 0.265 1 0 )" clip-path="url(#clip23)" filter="url(#filter24)">
      <circle fill="#F4C018" cx="100.07" cy="99.72" r="100.385" />
      <g>
	<defs>
		<circle id="SVGID_1_" cx="100.07" cy="99.72" r="100.385" />
	</defs>
	<clipPath id="SVGID_2_">
		<use xlink:href="#SVGID_1_" overflow="visible" />
	</clipPath>
	<g clip-path="url(#SVGID_2_)">
		<g>
			<path fill="#F2CAA5" d="M148.145,161.509c-6.471-12.249-48.075-19.937-48.075-19.937s-41.604,7.688-48.075,19.937     c-4.783,17-8.784,38.6-8.784,38.6h56.859h56.859C156.929,200.108,154.227,176.948,148.145,161.509z" />
			<path fill="#E4B692" d="M100.069,141.572c0,0,41.604,7.688,48.075,19.937c6.082,15.439,8.784,38.6,8.784,38.6h-56.859V141.572z" />
			<rect x="88.743" y="116.668" fill="#F2CAA5" width="22.652" height="37.91" />
			<rect x="100.069" y="116.668" fill="#E4B692" width="11.326" height="37.91" />
			<path opacity="0.1" fill="#DDAD8D" d="M88.743,134.234c2.037,5.849,10.259,9.2,16.297,9.2c2.185,0,4.309-0.365,6.355-1.036     v-25.73H88.743V134.234z" />
			<path fill="#F2CAA5" d="M129.192,92.747c0-23.679-13.039-37.144-29.123-37.144S70.946,69.068,70.946,92.747     c0,31.85,13.039,42.876,29.123,42.876S129.192,123.269,129.192,92.747z" />
			<path fill="#E4B692" d="M124.76,109.167c-5.279-0.553-8.844-6.241-7.95-12.698c0.884-6.463,5.884-11.261,11.165-10.711     c5.276,0.55,8.836,6.235,7.944,12.698C135.033,104.918,130.039,109.713,124.76,109.167z" />
			<path fill="#F2CAA5" d="M64.425,98.456c-0.891-6.463,2.668-12.148,7.942-12.698c5.284-0.55,10.284,4.249,11.17,10.711     c0.891,6.457-2.676,12.146-7.952,12.698C70.306,109.713,65.311,104.918,64.425,98.456z" />
			<path fill="#E4B692" d="M129.192,92.747c0-23.679-13.039-37.144-29.123-37.144v80.02     C116.153,135.623,129.192,123.269,129.192,92.747z" />
		</g>
		<path fill="#303030" d="M126.267,112.593c-1.566,4.404-4.217,9.7-9.006,9.7c-5.986,0-10.267-4.865-17.133-4.865    c-0.019,0-0.038,0.003-0.057,0.003c-0.021,0-0.04-0.003-0.06-0.003c-6.865,0-11.145,4.865-17.132,4.865    c-4.789,0-7.438-5.296-9.004-9.7l-1.356-8.484v10.153c0,0,2.275,11.957,6.643,14.846c3.558,3.161,15.169,8.574,20.848,8.574h0.001    c0.019,0,0.039-0.003,0.06-0.003c0.019,0,0.039,0.003,0.057,0.003h0.003c5.68,0,17.292-5.413,20.848-8.574    c4.367-2.889,6.643-14.846,6.643-14.846v-10.153L126.267,112.593z" />
		<path fill="#303030" d="M85.967,60.134c0,0,5.409,21.894,35.547,32.969c-2.835-4.895-3.35-10.818-3.35-10.818    s4.895,5.151,12.878,9.273c4.38-8.757,9.532-21.894-2.06-29.105C117.393,55.239,89.831,42.36,85.967,60.134z" />
		<path fill="#303030" d="M75.922,91.301c0,0,2.237-24.995,11.55-30.523c-7.943-3.466-20.049,7.084-18.763,13.522    C69.998,80.74,75.922,91.301,75.922,91.301z" />
		<path fill="#F26426" d="M148.145,161.509c-3.78-7.153-19.529-12.746-31.987-16.164c-0.487,8.474-7.492,15.199-16.088,15.199    s-15.6-6.726-16.088-15.199c-12.458,3.418-28.208,9.011-31.987,16.164c-4.783,17-8.784,38.6-8.784,38.6h56.859h56.859    C156.929,200.108,154.227,176.948,148.145,161.509z" />
		<path opacity="0.2" fill="#E44125" d="M83.05,149.505c0.516,8.474,7.925,15.199,17.02,15.199c9.094,0,16.504-6.726,17.02-15.199    c11.418,2.96,25.434,7.557,31.581,13.383c-0.172-0.466-0.347-0.926-0.525-1.379c-3.78-7.153-19.529-12.746-31.987-16.164    c-0.487,8.474-7.492,15.199-16.088,15.199s-15.6-6.726-16.088-15.199c-12.458,3.418-28.208,9.011-31.987,16.164    c-0.112,0.401-0.225,0.808-0.337,1.213C57.895,156.975,71.741,152.437,83.05,149.505z" />
		<path fill="#E44125" d="M79.244,146.709c1.578,10.097,10.287,17.83,20.825,17.83s19.247-7.733,20.825-17.83    c-1.61-0.487-3.199-0.942-4.737-1.364c-0.487,8.474-7.492,15.199-16.088,15.199s-15.6-6.726-16.088-15.199    C82.443,145.767,80.854,146.222,79.244,146.709z" />
		<path fill="#FFFFFF" d="M104.808,125.06c0,0-0.693-3.087-4.738-3.087c-3.699,0-4.739,3.087-4.739,3.087H104.808z" />
	</g>
</g>
    </g>
  </g>
</svg>