<?xml version="1.0" encoding="utf-8"?>
<!-- Generator: Adobe Illustrator 16.0.0, SVG Export Plug-In . SVG Version: 6.00 Build 0)  -->
<!DOCTYPE svg PUBLIC "-//W3C//DTD SVG 1.1//EN" "http://www.w3.org/Graphics/SVG/1.1/DTD/svg11.dtd">
<svg version="1.1" id="Layer_2" xmlns="http://www.w3.org/2000/svg" xmlns:xlink="http://www.w3.org/1999/xlink" x="0px" y="0px"
	 width="512px" height="512px" viewBox="0 0 512 512" enable-background="new 0 0 512 512" xml:space="preserve">
<rect x="2.926" y="354.421" fill="#80CBC4" width="506.573" height="40.782"/>
<g>
	<path fill="#26A69A" d="M509.499,365.387v-10.966H355.153v40.782h154.346v-4.668c-0.978-1.153-1.993-2.278-3.07-3.359
		c-4-4-8.517-7.297-13.391-9.838C499.331,374.522,504.924,370.423,509.499,365.387z"/>
	<rect x="89.994" y="354.421" fill="#26A69A" width="162.262" height="40.782"/>
</g>
<path fill="#82B1FF" d="M388.005,122.375c-6.064-11.132-17.727-18.059-30.404-18.059h-26.687v13.853
	c0,13.66-11.077,24.735-24.735,24.735s-24.735-11.075-24.735-24.735v-13.853h-26.725c-12.683,0-24.35,6.933-30.415,18.071
	l-25.665,47.14l26.309,14.831l21.374-36.507h4.161l11.67,67.278v72.224h84.099v-72.224l14.918-67.278h3.88l22.133,36.634
	l26.525-14.949L388.005,122.375z"/>
<path fill="#448AFF" d="M346.252,223.442l-39.405,39.404c-0.23,0.228-0.448,0.469-0.668,0.699c-0.221-0.23-0.438-0.472-0.668-0.699
	l-43.36-43.364v67.872h84.099v-63.912H346.252z"/>
<path fill="#FDD8A8" d="M492.433,401.168c6.265,6.262,10.141,14.929,10.141,24.487H394.731c-10.933,0-19.789-8.856-19.789-19.789
	v-51.445H2.926v-43.536h106.854c12.605-26.356,42.259-39.95,70.455-32.284l31.455,8.54c0,0,168.426,0.007,168.783,0.021
	c7.903,0.275,15.028,3.601,20.25,8.825c5.463,5.46,8.847,12.998,8.847,21.328h23.747l10.884-14.839h28.69
	c8.192,0,15.61,3.321,20.986,8.698c5.37,5.369,8.695,12.791,8.695,20.983c0,16.395-13.287,29.685-29.682,29.685h-28.69
	l-10.884-14.843H409.57v44.025h58.375C477.504,391.024,486.172,394.907,492.433,401.168z"/>
<g>
	<path fill="#FFC477" d="M252.256,307.531l3.834,3.831c6.6,6.599,15.495,10.564,24.827,10.592c4.671,0.014,9.19-0.888,13.369-2.623
		c4.154-1.711,7.955-4.254,11.231-7.518c0.228-0.227,0.44-0.465,0.661-0.695c0.22,0.23,0.434,0.469,0.664,0.695
		c6.537,6.54,15.238,10.141,24.487,10.141c4.63,0,9.111-0.901,13.256-2.623c4.158-1.711,7.958-4.254,11.231-7.518l24.656-24.656
		c-0.007-0.014,0-0.003-0.007-0.017H211.69l-31.453-8.54c-28.198-7.669-57.851,5.924-70.456,32.284H89.994v23.743H2.926v19.789
		h372.016l0,0c0-10.929-8.86-19.789-19.789-19.789H252.256V307.531z"/>
	<path fill="#FFC477" d="M472.896,342.766h-28.694l-10.884-8.908v13.142l10.884,14.843h28.694c16.391,0,29.678-13.29,29.678-29.685
		c0-3.611-0.647-7.07-1.831-10.278C496.563,333.203,485.672,341.278,472.896,342.766z"/>
</g>
<path fill="#FDD8A8" d="M306.179,142.905c13.658,0,24.735-11.075,24.735-24.735v-13.853H320.78V84.529l14.843-10.884v-32.65
	c0-16.394-13.287-29.684-29.682-29.684c-16.392,0-29.682,13.29-29.682,29.684v32.65l14.842,10.884v19.787h-9.658v13.853
	C281.443,131.828,292.517,142.905,306.179,142.905z"/>
<g>
	<rect x="44.316" y="395.203" fill="#B0BEC5" width="29.682" height="114.768"/>
	<rect x="426.392" y="425.655" fill="#B0BEC5" width="29.682" height="84.315"/>
</g>
<path fill="#F8BBD0" d="M211.69,287.141l-31.455-8.544c-28.2-7.662-57.845,5.928-70.454,32.288v129.83h122.687V287.141H211.69z"/>
<g>
	<path fill="#FDD8A8" d="M178.754,206.052l91.781,91.773c5.793,5.796,15.19,5.796,20.987,0l0,0c5.796-5.797,5.796-15.19,0-20.983
		L215.382,200.7l9.566-16.341l-26.309-14.831L178.754,206.052z"/>
	<path fill="#FDD8A8" d="M413.704,169.535l-26.525,14.951l9.797,16.213l-76.141,76.14c-5.793,5.793-5.793,15.19,0,20.987l0,0
		c5.797,5.796,15.194,5.796,20.987,0l91.784-91.774L413.704,169.535z"/>
</g>
<g>
	<rect x="426.392" y="425.655" fill="#90A4AE" width="29.682" height="19.789"/>
	<rect x="44.316" y="395.203" fill="#90A4AE" width="29.682" height="19.785"/>
</g>
<path fill="#FFC477" d="M306.179,121.137c-10.891,0-20.13-7.043-23.435-16.82h-1.301v13.853c0,13.66,11.077,24.735,24.735,24.735
	s24.735-11.075,24.735-24.735v-13.853h-1.302C326.312,114.094,317.069,121.137,306.179,121.137z"/>
<rect x="262.15" y="395.203" fill="#82B1FF" width="84.099" height="114.768"/>
<rect x="262.15" y="395.203" fill="#448AFF" width="84.099" height="19.785"/>
<path d="M510.49,387.781h-24.239c-5.639-2.729-11.858-4.179-18.306-4.179h-50.954v-29.182h12.563l10.885,14.839h32.456
	c20.456,0,37.099-16.643,37.099-37.103c0-9.907-3.858-19.222-10.87-26.233c-7.008-7.008-16.322-10.87-26.229-10.87h-32.456
	l-10.885,14.839h-13.297c-1.435-7.207-4.963-13.834-10.285-19.155c-7.107-7.107-16.546-11.019-26.58-11.019h-8.97l72.354-72.341
	l-48.252-88.551c-7.373-13.526-21.521-21.93-36.927-21.93h-29.396V88.29l14.843-10.884V40.995c0-20.46-16.646-37.103-37.106-37.103
	c-20.456,0-37.1,16.643-37.1,37.103v36.409l14.843,10.884v8.607h-28.964c-15.41,0-29.563,8.408-36.929,21.944l-48.206,88.539
	l72.349,72.341H212.68l-30.496-8.281c-30.124-8.188-61.702,5.204-76.897,32.025H2.926v14.843h99.435v28.693H2.926v14.839h99.435
	v25.943H2.926v14.843h33.969v107.347h14.841V402.624h14.842v107.347h14.841V402.624h20.944v45.512H239.89v-45.512h14.84v107.347
	h14.841V402.624h26.715v107.347h14.842V402.624h27.703v107.347h14.842V402.624h13.852v3.242c0,15.005,12.206,27.207,27.207,27.207
	h24.239v76.897h14.843v-76.897h14.842v76.897h14.84v-76.897h46.499v-7.418c0-8.313-2.396-16.25-6.856-23.031h7.353V387.781z
	 M336.576,292.579c-1.401,1.401-3.267,2.172-5.249,2.172c-1.979,0-3.842-0.774-5.246-2.172c-1.397-1.404-2.169-3.267-2.169-5.246
	c0-1.982,0.771-3.848,2.173-5.245l80.246-80.25l-8.847-14.641l13.308-7.499l13.638,25.031L336.576,292.579z M387.619,199.562
	L353.67,233.51v-17.567l11.769-53.092L387.619,199.562z M283.681,40.995c0-12.276,9.985-22.262,22.261-22.262
	c12.274,0,22.26,9.986,22.26,22.262v28.89l-14.842,10.884v30.969h10.133v6.43c0,9.547-7.769,17.316-17.313,17.316
	c-9.549,0-17.314-7.769-17.314-17.316v-6.43h9.655V80.769l-14.839-10.884V40.995L283.681,40.995z M201.555,179.689l13.178,7.428
	l-8.65,14.777l80.189,80.19c1.401,1.401,2.172,3.267,2.172,5.246c0,1.979-0.771,3.845-2.172,5.249
	c-1.4,1.397-3.267,2.169-5.245,2.169c-1.979,0-3.846-0.771-5.246-2.169l-87.859-87.852L201.555,179.689z M245.685,163.621
	l9.044,52.146v13.786l-30.048-30.05L245.685,163.621z M117.202,433.294V312.65c11.443-22.191,36.858-33.481,61.091-26.887
	l32.408,8.798h14.347v138.732H117.202z M239.888,387.781v-25.943h127.632v25.943H239.888z M394.731,418.234
	c-6.822,0-12.371-5.545-12.371-12.368v-58.867H239.888v-52.44h16.887l8.511,8.512c4.206,4.207,9.796,6.52,15.741,6.52
	c5.944,0,11.534-2.316,15.74-6.52c4.203-4.206,6.52-9.796,6.52-15.74c0-5.945-2.316-11.535-6.52-15.741l-27.196-27.195v-29.903
	l-12.846-74.061h-14.66l-19.833,33.879l-13.58-7.655l22.169-40.719c4.769-8.758,13.925-14.199,23.895-14.199h19.306v6.432
	c0,17.729,14.426,32.155,32.156,32.155s32.156-14.426,32.156-32.155v-6.432h19.266c9.969,0,19.121,5.437,23.892,14.188l22.199,40.74
	l-13.883,7.824l-20.573-34.058h-14.023l-16.381,73.889v34.034l-23.241,23.236c-4.207,4.206-6.52,9.796-6.52,15.744
	c0,5.944,2.313,11.531,6.52,15.737c4.206,4.207,9.792,6.52,15.737,6.52c0,0,0,0,0.003,0c5.944,0,11.535-2.313,15.737-6.52
	l8.513-8.509h23.813c6.072,0,11.783,2.368,16.085,6.671c4.307,4.303,6.675,10.014,6.675,16.082v7.421h34.924l10.884-14.843h24.936
	c5.94,0,11.531,2.32,15.737,6.526c4.206,4.207,6.52,9.797,6.52,15.738c0,12.274-9.982,22.26-22.257,22.26H447.96l-10.884-14.839
	h-34.924v58.867h65.793c7.27,0,14.099,2.829,19.241,7.965c3.339,3.339,5.7,7.397,6.946,11.824H394.731L394.731,418.234z"/>
<g>
	<path fill="#FFFFFF" d="M146.883,419.938h-14.841v-14.843h14.841V419.938z M146.883,390.253h-14.841v-14.842h14.841V390.253z
		 M146.883,360.571h-14.841v-14.839h14.841V360.571z M146.883,330.89h-14.841v-14.842h14.841V330.89z"/>
	<path fill="#FFFFFF" d="M210.207,419.938h-14.841v-14.843h14.841V419.938z M210.207,390.253h-14.841v-14.842h14.841V390.253z
		 M210.207,360.571h-14.841v-14.839h14.841V360.571z M210.207,330.89h-14.841v-14.842h14.841V330.89z"/>
	<rect x="296.286" y="163.188" fill="#FFFFFF" width="14.839" height="14.841"/>
	<rect x="296.286" y="198.557" fill="#FFFFFF" width="14.839" height="14.842"/>
	<rect x="296.286" y="233.928" fill="#FFFFFF" width="14.839" height="14.841"/>
</g>
</svg>
