<?xml version="1.0" encoding="utf-8"?>
<!-- Generator: Adobe Illustrator 16.0.0, SVG Export Plug-In . SVG Version: 6.00 Build 0)  -->
<!DOCTYPE svg PUBLIC "-//W3C//DTD SVG 1.1//EN" "http://www.w3.org/Graphics/SVG/1.1/DTD/svg11.dtd">
<svg version="1.1" id="Layer_2" xmlns="http://www.w3.org/2000/svg" xmlns:xlink="http://www.w3.org/1999/xlink" x="0px" y="0px"
	 width="512px" height="512px" viewBox="0 0 512 512" enable-background="new 0 0 512 512" xml:space="preserve">
<path fill="#F9545B" d="M208.72,12.888c-15.119,0-27.374,12.257-27.374,27.375v208.888c0,10.196,2.501,19.857,6.98,28.549
	c1.514,2.933,3.253,5.755,5.198,8.446c4.863,6.729,11.016,12.648,18.143,17.476c1.427,0.969,2.893,1.889,4.393,2.764
	c1.502,0.876,3.041,1.707,4.613,2.489c1.571,0.783,3.178,1.515,4.815,2.197c1.638,0.688,3.308,1.318,5.007,1.902
	c1.698,0.577,3.425,1.105,5.181,1.579c7.018,1.896,14.461,2.915,22.17,2.915c7.71,0,15.156-1.02,22.174-2.915
	c1.752-0.474,3.482-0.999,5.178-1.579c1.703-0.584,3.372-1.215,5.01-1.902c1.638-0.68,3.244-1.414,4.816-2.197
	c0.783-0.391,1.563-0.796,2.332-1.208c2.307-1.246,4.535-2.596,6.671-4.045c2.853-1.93,5.548-4.037,8.068-6.3
	c1.888-1.696,3.681-3.481,5.362-5.346c0.56-0.621,1.109-1.253,1.648-1.892c3.217-3.835,5.994-7.986,8.268-12.385
	c4.477-8.692,6.977-18.354,6.977-28.549V40.264c0-15.119-12.254-27.375-27.371-27.375H208.72z"/>
<path fill="#FFDAAE" d="M369.334,499.379V195.806c0-33.753-13.445-64.187-34.982-85.66v139.006c0,10.196-2.5,19.857-6.977,28.549
	c-2.273,4.398-5.051,8.55-8.268,12.385c-0.539,0.642-1.089,1.271-1.648,1.892c-1.682,1.867-3.475,3.649-5.362,5.346
	c-2.521,2.263-5.216,4.37-8.068,6.3c-2.136,1.449-4.364,2.799-6.671,4.045c-0.77,0.412-1.549,0.817-2.332,1.208
	c-1.572,0.783-3.179,1.515-4.816,2.197c-1.638,0.688-3.307,1.318-5.01,1.902c-1.695,0.577-3.423,1.105-5.178,1.579
	c-7.018,1.896-14.461,2.912-22.172,2.912c-7.711,0-15.155-1.017-22.172-2.912c-1.753-0.474-3.481-1.002-5.181-1.582
	c-1.698-0.581-3.368-1.212-5.006-1.899c-1.639-0.683-3.245-1.418-4.817-2.197c-1.572-0.782-3.111-1.613-4.611-2.492
	c-1.502-0.872-2.966-1.796-4.393-2.761c-7.129-4.827-13.282-10.746-18.145-17.476c-1.945-2.691-3.684-5.514-5.197-8.449
	c-4.479-8.689-6.981-18.351-6.981-28.546V110.148c-21.536,21.472-34.98,51.905-34.98,85.658v303.573"/>
<path fill="#FF6E79" d="M208.72,12.888c-15.119,0-27.374,12.257-27.374,27.375v112.524c0-10.195,2.501-19.855,6.98-28.546
	c2.27-4.402,5.049-8.551,8.268-12.388c0.537-0.64,1.086-1.269,1.646-1.892c1.684-1.864,3.473-3.65,5.363-5.346
	c2.521-2.263,5.215-4.367,8.067-6.298c2.139-1.449,4.365-2.798,6.673-4.044c0.769-0.414,1.546-0.817,2.333-1.209
	c1.572-0.783,3.179-1.516,4.815-2.201c1.638-0.683,3.308-1.316,5.008-1.898c1.698-0.58,3.426-1.109,5.181-1.583
	c7.018-1.894,14.461-2.913,22.173-2.913c7.709,0,15.152,1.02,22.17,2.913c1.755,0.474,3.482,1.003,5.182,1.583
	c1.699,0.582,3.368,1.215,5.01,1.898c1.634,0.684,3.24,1.418,4.813,2.201c1.572,0.783,3.111,1.612,4.615,2.489
	c1.5,0.875,2.966,1.797,4.391,2.764c7.128,4.827,13.28,10.745,18.146,17.476c1.943,2.692,3.681,5.514,5.198,8.448
	c4.477,8.691,6.977,18.353,6.977,28.546V40.264c0-15.119-12.254-27.375-27.371-27.375H208.72z"/>
<path d="M288.502,150.421c-0.642,0-1.297-0.069-1.93-0.197c-0.631-0.119-1.256-0.318-1.847-0.565
	c-0.604-0.247-1.178-0.542-1.71-0.91c-0.545-0.355-1.051-0.771-1.504-1.226c-1.84-1.838-2.897-4.389-2.897-6.99
	c0-0.644,0.062-1.296,0.186-1.928c0.13-0.633,0.329-1.257,0.577-1.849c0.247-0.604,0.542-1.178,0.906-1.712
	c0.357-0.544,0.772-1.049,1.229-1.502c0.453-0.455,0.959-0.87,1.504-1.228c0.532-0.355,1.105-0.663,1.71-0.91
	c0.591-0.247,1.216-0.435,1.847-0.563c1.277-0.258,2.582-0.258,3.859,0c0.632,0.128,1.254,0.316,1.848,0.563
	c0.601,0.247,1.174,0.555,1.709,0.91c0.543,0.357,1.048,0.772,1.504,1.228c0.453,0.453,0.873,0.958,1.223,1.502
	c0.357,0.534,0.666,1.107,0.914,1.712c0.246,0.592,0.442,1.215,0.563,1.849c0.127,0.632,0.199,1.284,0.199,1.928
	c0,2.601-1.061,5.152-2.898,6.99c-0.456,0.455-0.961,0.871-1.504,1.226c-0.535,0.367-1.108,0.663-1.709,0.91
	c-0.598,0.247-1.216,0.446-1.851,0.565C289.801,150.352,289.145,150.421,288.502,150.421z"/>
<path d="M312.965,447.961c-0.642,0-1.287-0.068-1.926-0.199c-0.636-0.116-1.257-0.315-1.851-0.563
	c-0.594-0.248-1.168-0.554-1.714-0.907c-0.531-0.356-1.043-0.775-1.5-1.229s-0.868-0.958-1.226-1.504
	c-0.357-0.532-0.663-1.105-0.91-1.71c-0.247-0.591-0.436-1.216-0.566-1.847c-0.123-0.632-0.192-1.288-0.192-1.93
	c0-0.643,0.069-1.298,0.192-1.93c0.131-0.632,0.319-1.257,0.566-1.848c0.247-0.604,0.553-1.178,0.91-1.709
	c0.357-0.546,0.769-1.051,1.226-1.504s0.969-0.872,1.5-1.229c0.55-0.354,1.12-0.659,1.714-0.906s1.215-0.446,1.851-0.563
	c1.273-0.261,2.589-0.261,3.866,0c0.631,0.117,1.253,0.316,1.847,0.563s1.167,0.553,1.71,0.906c0.535,0.357,1.037,0.776,1.493,1.229
	c0.464,0.453,0.869,0.958,1.236,1.504c0.354,0.531,0.662,1.105,0.91,1.709c0.247,0.591,0.432,1.216,0.563,1.848
	s0.199,1.287,0.199,1.93c0,0.642-0.068,1.298-0.199,1.93c-0.131,0.631-0.315,1.256-0.563,1.847c-0.248,0.604-0.557,1.178-0.91,1.71
	c-0.367,0.546-0.772,1.051-1.236,1.504c-0.456,0.453-0.958,0.872-1.493,1.229c-0.543,0.354-1.119,0.659-1.71,0.907
	c-0.594,0.247-1.216,0.446-1.847,0.563C314.26,447.893,313.617,447.961,312.965,447.961z"/>
<path d="M344.239,106.151V40.264C344.239,19.715,327.525,3,306.98,3h-98.26c-20.547,0-37.262,16.715-37.262,37.264v65.888
	c-22.586,24.028-34.98,55.696-34.98,89.655v303.573c0,5.459,4.426,9.888,9.888,9.888c5.46,0,9.888-4.429,9.888-9.888v-51.418
	h121.509c5.46,0,9.888-4.429,9.888-9.888s-4.428-9.889-9.888-9.889H156.253V195.806c0-20.513,5.289-40.017,15.205-56.889v13.869
	v96.365c0,11.544,2.718,22.672,8.081,33.079c1.727,3.348,3.735,6.616,5.971,9.706c5.551,7.684,12.487,14.372,20.614,19.872
	c1.602,1.085,3.27,2.136,4.954,3.117c1.689,0.985,3.437,1.93,5.193,2.802c1.765,0.875,3.584,1.706,5.411,2.469
	c1.842,0.769,3.73,1.486,5.617,2.132c1.9,0.649,3.853,1.246,5.802,1.771c8,2.16,16.328,3.255,24.75,3.255s16.748-1.095,24.748-3.255
	c1.949-0.525,3.9-1.119,5.802-1.771c1.888-0.646,3.776-1.363,5.617-2.132c1.833-0.763,3.653-1.597,5.411-2.473
	c0.885-0.439,1.761-0.893,2.63-1.359c2.581-1.394,5.108-2.925,7.516-4.556c3.206-2.17,6.279-4.566,9.132-7.128
	c2.14-1.926,4.192-3.969,6.095-6.084c0.639-0.707,1.264-1.425,1.882-2.156c3.7-4.415,6.894-9.194,9.482-14.214
	c5.359-10.402,8.075-21.534,8.075-33.077v-96.365v-13.869c9.915,16.872,15.206,36.376,15.206,56.887v303.576
	c0,5.459,4.43,9.888,9.889,9.888c5.462,0,9.888-4.429,9.888-9.888V195.806C379.222,161.845,366.827,130.18,344.239,106.151z
	 M191.234,40.264c0-9.644,7.845-17.488,17.486-17.488h98.26c9.641,0,17.486,7.845,17.486,17.488v62.7
	c-4.371-4.788-9.356-9.084-14.891-12.833c-1.604-1.087-3.271-2.136-4.958-3.118c-1.695-0.989-3.44-1.931-5.19-2.802
	c-1.758-0.875-3.578-1.706-5.411-2.472s-3.722-1.483-5.617-2.129c-1.909-0.652-3.858-1.25-5.802-1.773
	c-8-2.16-16.33-3.255-24.748-3.255c-8.42,0-16.748,1.095-24.75,3.255c-1.945,0.525-3.898,1.123-5.802,1.773
	c-1.89,0.646-3.78,1.361-5.617,2.129c-1.827,0.762-3.648,1.593-5.415,2.472c-0.882,0.439-1.756,0.893-2.623,1.36
	c-2.585,1.396-5.117,2.93-7.519,4.558c-3.208,2.171-6.279,4.57-9.129,7.129c-2.014,1.808-3.948,3.727-5.761,5.711V40.264
	L191.234,40.264z M324.463,249.152c0,8.364-1.978,16.444-5.878,24.014c-1.915,3.715-4.291,7.269-7.052,10.562
	c-0.46,0.549-0.934,1.092-1.414,1.627c-1.446,1.597-3.001,3.151-4.629,4.611c-2.184,1.964-4.539,3.801-7.004,5.473
	c-0.034,0.021-0.064,0.037-0.096,0.059V175.742c0-5.461-4.43-9.888-9.889-9.888c-5.462,0-9.888,4.427-9.888,9.888v128.932
	c-0.392,0.11-0.782,0.23-1.174,0.337c-12.638,3.412-26.548,3.412-39.187,0c-1.535-0.416-3.068-0.886-4.56-1.395
	c-1.475-0.505-2.955-1.064-4.396-1.668c-1.427-0.595-2.846-1.243-4.223-1.927c-1.363-0.676-2.721-1.411-4.032-2.177
	c-1.305-0.762-2.594-1.568-3.83-2.41c-6.209-4.202-11.481-9.273-15.675-15.079c-1.66-2.297-3.148-4.714-4.422-7.186
	c-3.903-7.574-5.883-15.654-5.883-24.018v-96.364c0-8.364,1.979-16.444,5.881-24.016c1.916-3.713,4.288-7.267,7.052-10.561
	c0.461-0.551,0.936-1.092,1.415-1.625c1.445-1.6,3-3.152,4.626-4.613c2.182-1.957,4.537-3.797,7.005-5.469
	c1.857-1.258,3.818-2.445,5.82-3.526c0.674-0.364,1.356-0.716,2.042-1.059c1.375-0.683,2.795-1.332,4.223-1.928
	c1.437-0.599,2.917-1.159,4.396-1.667c1.495-0.512,3.03-0.98,4.558-1.392c12.642-3.413,26.547-3.413,39.188,0
	c1.528,0.412,3.063,0.88,4.56,1.392c1.482,0.506,2.959,1.068,4.395,1.667c1.432,0.597,2.85,1.246,4.223,1.93
	c1.359,0.674,2.719,1.408,4.034,2.177c1.302,0.76,2.593,1.57,3.831,2.41c6.208,4.202,11.481,9.277,15.674,15.079
	c1.662,2.297,3.152,4.716,4.422,7.184c3.904,7.578,5.885,15.658,5.885,24.018V249.152L324.463,249.152z"/>
</svg>
