<?xml version="1.0" encoding="utf-8"?>
<!-- Generator: Adobe Illustrator 16.0.0, SVG Export Plug-In . SVG Version: 6.00 Build 0)  -->
<!DOCTYPE svg PUBLIC "-//W3C//DTD SVG 1.1//EN" "http://www.w3.org/Graphics/SVG/1.1/DTD/svg11.dtd">
<svg version="1.1" id="Layer_1" xmlns="http://www.w3.org/2000/svg" xmlns:xlink="http://www.w3.org/1999/xlink" x="0px" y="0px"
	 width="512px" height="326.5px" viewBox="0 0 512 326.5" enable-background="new 0 0 512 326.5" xml:space="preserve">
<g id="Page-1">
	<g id="_x30_42---Send-Email">
		<path id="Shape" fill="#444444" d="M206.924,309.781l0.014,0.034c0.011,0.049,0.041,0.087,0.053,0.133
			c0.149,0.526,0.386,1.023,0.7,1.47c0.04,0.058,0.045,0.126,0.088,0.183c0.049,0.068,0.131,0.09,0.185,0.153
			c0.421,0.533,0.95,0.972,1.551,1.287l0.046,0.032c0.45,0.219,0.931,0.368,1.427,0.442c0.241,0.034,0.484,0.051,0.729,0.052h0.002
			h0.011c0.474-0.005,0.944-0.08,1.396-0.222c0.134-0.04,0.257-0.107,0.389-0.16c0.33-0.128,0.644-0.293,0.938-0.488
			c0.069-0.047,0.148-0.063,0.213-0.112l56.95-42.714l65.614,37.559c2.749,1.513,6.055,1.623,8.898,0.297
			c2.842-1.325,4.882-3.929,5.489-7.007l51.597-264.683l0.003-0.01c1.09-5.665-1.221-11.445-5.914-14.798
			c-4.693-3.354-10.91-3.666-15.916-0.798L113.229,176.855c-3.112,1.853-4.956,5.265-4.797,8.884
			c0.158,3.618,2.292,6.856,5.553,8.43l73.81,34.315L206.924,309.781z M242.112,246.81c-0.03,0.042-0.031,0.094-0.06,0.137
			c-0.049,0.073-0.114,0.127-0.158,0.204l-28.217,48.375l-16.192-68.821L362.594,74.656L242.112,246.81z M228.211,290.131
			l19.723-33.812l14.381,8.232L228.211,290.131z M386.295,28.959c1.667-0.948,3.734-0.841,5.293,0.275
			c1.562,1.117,2.329,3.038,1.97,4.922l-51.52,264.694l-88.777-50.818L370.717,80.203c2.842-4.09,2.095-9.672-1.721-12.873
			c-3.742-3.305-9.375-3.255-13.057,0.115L191.128,219.185l-72.905-33.852L386.295,28.959z"/>
	</g>
</g>
</svg>
