<?xml version="1.0" encoding="utf-8"?>
<!-- Generator: Adobe Illustrator 16.0.0, SVG Export Plug-In . SVG Version: 6.00 Build 0)  -->
<!DOCTYPE svg PUBLIC "-//W3C//DTD SVG 1.1//EN" "http://www.w3.org/Graphics/SVG/1.1/DTD/svg11.dtd">
<svg version="1.1" xmlns="http://www.w3.org/2000/svg" xmlns:xlink="http://www.w3.org/1999/xlink" x="0px" y="0px" width="512px"
	 height="512px" viewBox="0 0 512 512" enable-background="new 0 0 512 512" xml:space="preserve">
<g id="Layer_2">
	<g opacity="0.7">
		<polygon fill="#EE4823" points="195.274,285.394 174.709,285.394 174.709,216.53 182.826,216.53 		"/>
		<g>
			<rect x="174.709" y="94.015" fill="#EE4823" width="16.233" height="112.591"/>
			<path fill="#EE4823" d="M190.942,206.607c0,0-4.588,2.546-8.118,9.923h-8.116v-9.923H190.942z"/>
			<path fill="#EE4823" d="M190.942,94.016l18.37,9.137c2.22,1.104,1.436,4.452-1.047,4.452h-17.322V94.016z"/>
			<path fill="#EE4823" d="M190.942,206.607l18.37-9.138c2.22-1.105,1.436-4.453-1.047-4.453h-17.322V206.607z"/>
			<path fill="#EE4823" d="M190.942,116.333v-4.699h24.97c1.297,0,2.348,1.052,2.348,2.35l0,0c0,1.298-1.051,2.349-2.348,2.349
				H190.942z"/>
			<path fill="#EE4823" d="M190.942,126.713v-4.699h24.97c1.297,0,2.348,1.051,2.348,2.349v0.001c0,1.296-1.051,2.349-2.348,2.349
				H190.942z"/>
			<path fill="#EE4823" d="M190.942,137.093v-4.699h24.97c1.297,0,2.348,1.051,2.348,2.349v0.001c0,1.297-1.051,2.349-2.348,2.349
				H190.942z"/>
			<path fill="#EE4823" d="M190.942,147.472v-4.699h24.97c1.297,0,2.348,1.053,2.348,2.349l0,0c0,1.298-1.051,2.35-2.348,2.35
				H190.942z"/>
			<path fill="#EE4823" d="M190.942,157.852v-4.699h24.97c1.297,0,2.348,1.052,2.348,2.35l0,0c0,1.297-1.051,2.349-2.348,2.349
				H190.942z"/>
			<path fill="#EE4823" d="M190.942,168.231v-4.699h24.97c1.297,0,2.348,1.052,2.348,2.35c0,1.297-1.051,2.349-2.348,2.349H190.942z
				"/>
			<path fill="#EE4823" d="M190.942,178.611v-4.7h24.97c1.297,0,2.348,1.053,2.348,2.35v0.001c0,1.297-1.051,2.349-2.348,2.349
				H190.942z"/>
			<path fill="#EE4823" d="M190.942,188.992v-4.699h24.97c1.297,0,2.348,1.051,2.348,2.349v0c0,1.298-1.051,2.35-2.348,2.35H190.942
				z"/>
		</g>
		<g>
			<g>
				<g>
					
						<rect x="245" y="106.128" transform="matrix(-0.9908 -0.1354 0.1354 -0.9908 494.0265 251.1638)" fill="#99D6F2" width="21.105" height="5.317"/>
					
						<rect x="243.642" y="116.056" transform="matrix(-0.9908 -0.1353 0.1353 -0.9908 489.992 270.7296)" fill="#99D6F2" width="21.108" height="5.316"/>
					
						<rect x="242.288" y="125.984" transform="matrix(-0.9908 -0.1354 0.1354 -0.9908 485.9419 290.3235)" fill="#99D6F2" width="21.106" height="5.316"/>
					
						<rect x="240.931" y="135.91" transform="matrix(-0.9908 -0.1354 0.1354 -0.9908 481.8969 309.9058)" fill="#99D6F2" width="21.108" height="5.317"/>
					
						<rect x="239.575" y="145.837" transform="matrix(-0.9908 -0.1353 0.1353 -0.9908 477.864 329.473)" fill="#99D6F2" width="21.109" height="5.317"/>
					
						<rect x="238.219" y="155.767" transform="matrix(-0.9908 -0.1353 0.1353 -0.9908 473.8286 349.0465)" fill="#99D6F2" width="21.108" height="5.315"/>
					
						<rect x="236.862" y="165.693" transform="matrix(-0.9908 -0.1354 0.1354 -0.9908 469.7651 368.645)" fill="#99D6F2" width="21.108" height="5.316"/>
					
						<rect x="235.504" y="175.62" transform="matrix(-0.9908 -0.1354 0.1354 -0.9908 465.7235 388.2208)" fill="#99D6F2" width="21.11" height="5.316"/>
					
						<rect x="234.15" y="185.547" transform="matrix(-0.9908 -0.1353 0.1353 -0.9908 461.6899 407.7928)" fill="#99D6F2" width="21.109" height="5.317"/>
					
						<rect x="232.794" y="195.474" transform="matrix(-0.9908 -0.1353 0.1353 -0.9908 457.6396 427.3782)" fill="#99D6F2" width="21.108" height="5.317"/>
				</g>
				<g>
					
						<rect x="305.31" y="114.365" transform="matrix(-0.9908 -0.1354 0.1354 -0.9908 612.9784 275.7257)" fill="#99D6F2" width="21.106" height="5.318"/>
					
						<rect x="303.952" y="124.294" transform="matrix(-0.9908 -0.1353 0.1353 -0.9908 608.9373 295.3016)" fill="#99D6F2" width="21.109" height="5.316"/>
					
						<rect x="302.596" y="134.22" transform="matrix(-0.9908 -0.1353 0.1353 -0.9908 604.8932 314.8816)" fill="#99D6F2" width="21.108" height="5.317"/>
					
						<rect x="301.24" y="144.149" transform="matrix(-0.9908 -0.1353 0.1353 -0.9908 600.8577 334.4503)" fill="#99D6F2" width="21.108" height="5.316"/>
					
						<rect x="299.885" y="154.075" transform="matrix(-0.9908 -0.1354 0.1354 -0.9908 596.8036 354.0479)" fill="#99D6F2" width="21.108" height="5.317"/>
					
						<rect x="298.529" y="164.003" transform="matrix(-0.9908 -0.1353 0.1353 -0.9908 592.7683 373.6187)" fill="#99D6F2" width="21.107" height="5.317"/>
					
						<rect x="297.173" y="173.932" transform="matrix(-0.9908 -0.1353 0.1353 -0.9908 588.7367 393.1838)" fill="#99D6F2" width="21.108" height="5.315"/>
					
						<rect x="295.816" y="183.858" transform="matrix(-0.9908 -0.1353 0.1353 -0.9908 584.6796 412.7778)" fill="#99D6F2" width="21.107" height="5.316"/>
					
						<rect x="294.461" y="193.785" transform="matrix(-0.9908 -0.1354 0.1354 -0.9908 580.6309 432.3647)" fill="#99D6F2" width="21.106" height="5.317"/>
					
						<rect x="293.106" y="203.712" transform="matrix(-0.9908 -0.1354 0.1354 -0.9908 576.5911 451.9432)" fill="#99D6F2" width="21.107" height="5.316"/>
				</g>
			</g>
			
				<rect x="261.864" y="90.346" transform="matrix(0.9908 0.1353 -0.1353 0.9908 15.9266 -38.0389)" fill="#644FA0" width="51.728" height="15.54"/>
			
				<rect x="242.104" y="213.23" transform="matrix(0.9908 0.1354 -0.1354 0.9908 32.4057 -34.6385)" fill="#644FA0" width="57.677" height="15.539"/>
			
				<rect x="255.741" y="105.315" transform="matrix(0.9908 0.1353 -0.1353 0.9908 24.1594 -36.3305)" fill="#71C5E1" width="47.188" height="108.485"/>
			<polygon fill="#6F5AA5" points="241.318,224.794 254.38,245.043 280.448,248.604 298.465,232.601 			"/>
			
				<rect x="253.761" y="246.79" transform="matrix(0.9908 0.1353 -0.1353 0.9908 36.3515 -33.8176)" fill="#EE4823" width="26.314" height="7.362"/>
			
				<rect x="250.19" y="253.91" transform="matrix(0.9908 0.1354 -0.1354 0.9908 39.8735 -33.1068)" fill="#644FA0" width="26.314" height="45.394"/>
			<g>
				<g>
					
						<rect x="265.859" y="107.899" transform="matrix(0.9908 0.1353 -0.1353 0.9908 17.4253 -35.3101)" fill="#99D6F2" width="5.316" height="5.317"/>
					
						<rect x="264.502" y="117.826" transform="matrix(0.9908 0.1355 -0.1355 0.9908 18.7842 -35.0805)" fill="#99D6F2" width="5.317" height="5.317"/>
					
						<rect x="263.146" y="127.754" transform="matrix(0.9908 0.1352 -0.1352 0.9908 20.0674 -34.7322)" fill="#99D6F2" width="5.317" height="5.317"/>
					
						<rect x="261.79" y="137.681" transform="matrix(0.9908 0.1352 -0.1352 0.9908 21.4084 -34.4738)" fill="#99D6F2" width="5.318" height="5.316"/>
					
						<rect x="260.434" y="147.609" transform="matrix(0.9908 0.1354 -0.1354 0.9908 22.772 -34.2429)" fill="#99D6F2" width="5.319" height="5.317"/>
					
						<rect x="259.077" y="157.537" transform="matrix(0.9908 0.1354 -0.1354 0.9908 24.1087 -33.9736)" fill="#99D6F2" width="5.318" height="5.316"/>
					
						<rect x="257.721" y="167.463" transform="matrix(0.9908 0.1353 -0.1353 0.9908 25.4037 -33.6558)" fill="#99D6F2" width="5.317" height="5.317"/>
					
						<rect x="256.367" y="177.39" transform="matrix(0.9908 0.1354 -0.1354 0.9908 26.7534 -33.4025)" fill="#99D6F2" width="5.317" height="5.317"/>
					
						<rect x="255.011" y="187.318" transform="matrix(0.9908 0.1355 -0.1355 0.9908 28.1105 -33.1541)" fill="#99D6F2" width="5.317" height="5.317"/>
					
						<rect x="253.654" y="197.244" transform="matrix(0.9908 0.1353 -0.1353 0.9908 29.4061 -32.8431)" fill="#99D6F2" width="5.315" height="5.317"/>
				</g>
				<g>
					
						<rect x="277.319" y="109.465" transform="matrix(0.9908 0.1356 -0.1356 0.9908 17.7906 -36.9305)" fill="#99D6F2" width="5.315" height="5.316"/>
					
						<rect x="275.964" y="119.392" transform="matrix(0.9908 0.1354 -0.1354 0.9908 19.0835 -36.5887)" fill="#99D6F2" width="5.317" height="5.316"/>
					
						<rect x="274.607" y="129.319" transform="matrix(0.9908 0.1354 -0.1354 0.9908 20.4148 -36.3137)" fill="#99D6F2" width="5.317" height="5.317"/>
					
						<rect x="273.251" y="139.248" transform="matrix(0.9908 0.1356 -0.1356 0.9908 21.7946 -36.1081)" fill="#99D6F2" width="5.318" height="5.315"/>
					
						<rect x="271.896" y="149.173" transform="matrix(0.9908 0.135 -0.135 0.9908 23.0181 -35.6848)" fill="#99D6F2" width="5.315" height="5.317"/>
					
						<rect x="270.538" y="159.101" transform="matrix(0.9908 0.1353 -0.1353 0.9908 24.3904 -35.4662)" fill="#99D6F2" width="5.317" height="5.317"/>
					
						<rect x="269.182" y="169.029" transform="matrix(0.9908 0.1354 -0.1354 0.9908 25.7533 -35.2302)" fill="#99D6F2" width="5.319" height="5.317"/>
					
						<rect x="267.828" y="178.956" transform="matrix(0.9908 0.1353 -0.1353 0.9908 27.0564 -34.9231)" fill="#99D6F2" width="5.316" height="5.317"/>
					
						<rect x="266.47" y="188.883" transform="matrix(0.9908 0.1352 -0.1352 0.9908 28.3608 -34.6204)" fill="#99D6F2" width="5.317" height="5.317"/>
					
						<rect x="265.115" y="198.811" transform="matrix(0.9908 0.1353 -0.1353 0.9908 29.7214 -34.3777)" fill="#99D6F2" width="5.319" height="5.316"/>
				</g>
				<g>
					
						<rect x="288.78" y="111.029" transform="matrix(0.9908 0.1354 -0.1354 0.9908 18.0735 -38.407)" fill="#99D6F2" width="5.317" height="5.317"/>
					
						<rect x="287.422" y="120.958" transform="matrix(0.9908 0.1355 -0.1355 0.9908 19.4196 -38.1565)" fill="#99D6F2" width="5.317" height="5.316"/>
					
						<rect x="286.067" y="130.884" transform="matrix(0.9908 0.1354 -0.1354 0.9908 20.7406 -37.8636)" fill="#99D6F2" width="5.316" height="5.317"/>
					
						<rect x="284.711" y="140.813" transform="matrix(0.9908 0.1353 -0.1353 0.9908 22.0469 -37.5513)" fill="#99D6F2" width="5.317" height="5.316"/>
					
						<rect x="283.355" y="150.739" transform="matrix(0.9908 0.1355 -0.1355 0.9908 23.426 -37.3439)" fill="#99D6F2" width="5.315" height="5.317"/>
					
						<rect x="281.999" y="160.666" transform="matrix(0.9908 0.1353 -0.1353 0.9908 24.7125 -37.0085)" fill="#99D6F2" width="5.316" height="5.318"/>
					
						<rect x="280.642" y="170.595" transform="matrix(0.9908 0.1353 -0.1353 0.9908 26.0517 -36.7444)" fill="#99D6F2" width="5.318" height="5.316"/>
					
						<rect x="279.286" y="180.521" transform="matrix(0.9908 0.1354 -0.1354 0.9908 27.3881 -36.4758)" fill="#99D6F2" width="5.317" height="5.317"/>
					
						<rect x="277.931" y="190.449" transform="matrix(0.9908 0.1355 -0.1355 0.9908 28.7458 -36.2302)" fill="#99D6F2" width="5.317" height="5.316"/>
					
						<rect x="276.575" y="200.376" transform="matrix(0.9908 0.1354 -0.1354 0.9908 30.0623 -35.9384)" fill="#99D6F2" width="5.316" height="5.317"/>
				</g>
				<g>
					
						<rect x="300.241" y="112.596" transform="matrix(0.9908 0.1354 -0.1354 0.9908 18.3909 -39.9441)" fill="#99D6F2" width="5.317" height="5.317"/>
					
						<rect x="298.884" y="122.523" transform="matrix(0.9908 0.1354 -0.1354 0.9908 19.7182 -39.6621)" fill="#99D6F2" width="5.317" height="5.316"/>
					
						<rect x="297.528" y="132.45" transform="matrix(0.9908 0.1354 -0.1354 0.9908 21.0581 -39.401)" fill="#99D6F2" width="5.316" height="5.317"/>
					
						<rect x="296.172" y="142.378" transform="matrix(0.9908 0.1353 -0.1353 0.9908 22.3761 -39.1055)" fill="#99D6F2" width="5.318" height="5.316"/>
					
						<rect x="294.815" y="152.305" transform="matrix(0.9908 0.1354 -0.1354 0.9908 23.7295 -38.8623)" fill="#99D6F2" width="5.318" height="5.316"/>
					
						<rect x="293.459" y="162.231" transform="matrix(0.9908 0.1351 -0.1351 0.9908 25.0009 -38.5064)" fill="#99D6F2" width="5.318" height="5.318"/>
					
						<rect x="292.103" y="172.16" transform="matrix(0.9908 0.1355 -0.1355 0.9908 26.399 -38.3186)" fill="#99D6F2" width="5.317" height="5.316"/>
					
						<rect x="290.749" y="182.087" transform="matrix(0.9908 0.1352 -0.1352 0.9908 27.6759 -37.9776)" fill="#99D6F2" width="5.315" height="5.317"/>
					
						<rect x="289.392" y="192.015" transform="matrix(0.9908 0.1354 -0.1354 0.9908 29.0424 -37.7444)" fill="#99D6F2" width="5.317" height="5.317"/>
					
						<rect x="288.035" y="201.942" transform="matrix(0.9908 0.1354 -0.1354 0.9908 30.3898 -37.4866)" fill="#99D6F2" width="5.318" height="5.316"/>
				</g>
			</g>
		</g>
		<g>
			<path fill="#878D8D" d="M111.855,190.776l-5.889-18.443c-0.379-1.185,0.273-2.449,1.458-2.828l70.035-22.361
				c1.185-0.378,2.45,0.275,2.827,1.46l5.889,18.443c0.378,1.184-0.274,2.452-1.459,2.828l-70.034,22.361
				C113.499,192.615,112.233,191.96,111.855,190.776L111.855,190.776z"/>
			<path fill="#6F5AA5" d="M213.275,310.189c-17.075-43.081-40.853-80.518-40.853-80.518l-16.187-50.702l-6.532,2.085
				l50.214,157.265l0,0C211.664,334.57,217.817,321.652,213.275,310.189L213.275,310.189z"/>
			<path fill="#644FA0" d="M172.729,323.136c-11.051-45.005-13.369-89.293-13.369-89.293l-16.189-50.702l6.532-2.086l50.214,157.265
				C188.167,342.071,175.669,335.112,172.729,323.136L172.729,323.136z"/>
			<path fill="#323333" d="M152.173,215.507c-1.329,0.425-2.754-0.308-3.179-1.641l-2.508-7.855c-0.424-1.332,0.31-2.756,1.64-3.18
				l15.48-4.943c1.331-0.424,2.754,0.31,3.179,1.642l2.509,7.854c0.425,1.333-0.309,2.756-1.64,3.181L152.173,215.507z"/>
			<path fill="#4B4D4D" d="M159.054,115.397c0,0,6.967,8.87,15.655,32.625l-7.255,2.317l-10.9-34.142L159.054,115.397z"/>
			<polygon fill="#323333" points="156.972,117.509 161.453,152.255 164.454,151.297 161.327,127.695 			"/>
			<path fill="#4B4D4D" d="M148.799,118.672c0,0,6.967,8.87,15.655,32.624l-7.253,2.317l-10.902-34.142L148.799,118.672z"/>
			<polygon fill="#323333" points="146.719,120.784 151.195,155.53 154.197,154.571 151.073,130.97 			"/>
			<path fill="#4B4D4D" d="M138.544,121.947c0,0,6.967,8.869,15.653,32.624l-7.252,2.316l-10.903-34.142L138.544,121.947z"/>
			<polygon fill="#323333" points="136.461,124.059 140.941,158.804 143.942,157.845 140.814,134.245 			"/>
			<path fill="#4B4D4D" d="M128.288,125.221c0,0,6.968,8.87,15.654,32.624l-7.253,2.316l-10.902-34.142L128.288,125.221z"/>
			<polygon fill="#323333" points="126.206,127.333 130.685,162.079 133.686,161.121 130.561,137.519 			"/>
			<path fill="#4B4D4D" d="M118.032,128.496c0,0,6.968,8.87,15.654,32.624l-7.253,2.316l-10.901-34.143L118.032,128.496z"/>
			<polygon fill="#323333" points="115.951,130.608 120.43,165.353 123.433,164.395 120.305,140.793 			"/>
			<path fill="#4B4D4D" d="M107.777,131.77c0,0,6.968,8.87,15.655,32.625l-7.255,2.316l-10.901-34.142L107.777,131.77z"/>
			<polygon fill="#323333" points="105.696,133.882 110.174,168.628 113.177,167.67 110.05,144.068 			"/>
			<polygon fill="#323333" points="170.435,111.765 166.948,112.877 171.707,148.98 174.709,148.022 			"/>
			<polygon fill="#323333" points="92.645,136.602 96.133,135.489 113.177,167.669 110.177,168.626 			"/>
		</g>
		<polygon fill="#EE4823" points="222.632,273.982 222.632,410.709 174.074,410.709 162.844,273.982 		"/>
		<polygon fill="#A43A23" points="282.421,273.982 271.192,410.709 222.632,410.709 222.632,273.982 		"/>
		<polygon fill="#7F7F7F" points="222.632,410.709 222.632,425.624 175.296,425.624 174.075,410.709 		"/>
		<polygon fill="#1C3740" points="282.421,273.982 281.197,288.896 164.069,288.896 162.844,273.982 		"/>
		<rect x="174.075" y="410.709" fill="#1C3740" width="97.116" height="14.915"/>
		<g>
			<path fill="#478CCA" d="M277.099,160.699l-2.641,9.137l-9.807-2.832c-6.044-1.745-3.405-10.883,2.64-9.137
				C267.291,157.868,277.059,160.688,277.099,160.699z"/>
			<path fill="#59A5DA" d="M340.256,146.273l-21.727,17.419l-5.398-7.83l24.361-13.685
				C340.044,140.743,342.732,144.288,340.256,146.273z"/>
			<path fill="#478CCA" d="M204.83,191.697c5.551,2.969,9.525,8.212,10.656,14.406c3.521,19.275,3.75,8.753,26.33,43.726l6.674-9.75
				c-17.846-27.634-19.331-21.579-22.16-35.75c-1.104-5.534,1.043-11.239,5.577-14.599c7.711-5.714,12.386-15.672,11.415-26.508
				c-1.431-16.005-14.638-27.949-29.438-26.625C187.273,138.977,179.818,178.324,204.83,191.697z M233.85,164.067
				c0.965,10.782-6.042,20.251-15.62,21.109c-9.575,0.856-18.151-7.219-19.116-18C196.786,141.128,231.544,138.325,233.85,164.067z"
				/>
			<path fill="#478CCA" d="M304.557,145.321c-14.278-4.126-29.521,5.081-33.972,20.52c-3.028,10.453-0.338,21.121,6.147,28.204
				c3.805,4.161,4.827,10.169,2.688,15.396c-5.777,14.081-30.723,29.666-37.06,33.766c-2.612,1.686-2.604-1.332-7.951,30.775h25.181
				l4.803-23.52c4.086-20.348,17.04-15.989,25.335-37.212c2.286-5.864,7.194-10.256,13.203-12.113
				c8.914-2.742,16.495-10.196,19.429-20.339C326.822,165.359,318.834,149.448,304.557,145.321z M313.221,178.16
				c-3.002,10.401-12.963,16.685-22.196,14.021c-9.24-2.666-14.31-13.3-11.313-23.701c3.009-10.392,12.965-16.685,22.205-14.02
				C311.15,157.125,316.221,167.758,313.221,178.16z"/>
			<path fill="#99D6F2" d="M242.485,260.749c0.387-4.013,3.95-6.951,7.961-6.566c4.012,0.387,6.951,3.952,6.565,7.964
				c-0.387,4.012-3.953,6.95-7.964,6.563C245.037,268.325,242.099,264.76,242.485,260.749L242.485,260.749z"/>
			<path fill="#4B4D4D" d="M246.797,261.164c0.158-1.63,1.605-2.822,3.233-2.667c1.629,0.156,2.823,1.605,2.667,3.235
				c-0.156,1.627-1.606,2.822-3.233,2.664C247.834,264.239,246.641,262.792,246.797,261.164L246.797,261.164z"/>
		</g>
	</g>
</g>
<g id="Layer_3">
	<g opacity="0.7">
		<g>
			<path fill="#20C2EF" d="M417.464,368.792c0,23.233-11.397,43.804-28.911,56.432h-40.536V272.69h30.323v33.548
				C401.505,317.524,417.464,341.289,417.464,368.792z"/>
			<path fill="#7DC7EE" d="M348.017,272.69v152.533h-40.716c-17.513-12.628-28.912-33.198-28.912-56.432
				c0-27.503,15.96-51.268,39.126-62.554V272.69H348.017z"/>
		</g>
		<rect x="330.146" y="251.164" fill="#20C2EF" width="35.561" height="21.524"/>
		<g>
			<rect x="330.146" y="230.577" fill="#AB89BE" width="17.781" height="20.588"/>
			<rect x="347.927" y="230.577" fill="#995AA3" width="17.781" height="20.588"/>
		</g>
		<g>
			<path fill="#363636" d="M387.23,366.271c0,0.55-0.013,1.093-0.038,1.636c-0.618,15.104-9.752,28.007-22.729,34.032
				c-5.022,2.334-10.625,3.639-16.534,3.639c-5.472,0-10.674-1.118-15.403-3.132c-14.051-5.996-23.901-19.934-23.901-36.175
				c0-21.706,17.6-39.307,39.305-39.307c2.958,0,5.835,0.326,8.604,0.943C374.104,331.83,387.23,347.522,387.23,366.271z"/>
			<path fill="#FFFFFF" d="M387.23,366.271c0,0.55-0.013,1.093-0.038,1.636c-3.881,2.426-8.467,3.823-13.383,3.823
				c-13.981,0-25.318-11.336-25.318-25.317c0-7.307,3.094-13.889,8.042-18.505C374.104,331.83,387.23,347.522,387.23,366.271z"/>
			<g>
				<path fill="#FDCF9B" d="M364.463,367.331v34.607c-5.022,2.334-10.625,3.639-16.534,3.639c-5.472,0-10.674-1.118-15.403-3.132
					v-35.114c0-8.822,7.145-15.972,15.966-15.972S364.463,358.509,364.463,367.331z"/>
				<g>
					<path fill="#EF5789" d="M357.97,374.455v3.755c-2.849,1.244-6.069,1.944-9.478,1.944c-3.412,0-6.63-0.7-9.478-1.944v-3.755
						c2.848,1.243,6.065,1.944,9.478,1.944C351.9,376.399,355.121,375.698,357.97,374.455z"/>
					<path fill="#EC1862" d="M357.793,352.938l-18.778,9.636v-8.452c0-2.21,1.79-4.001,4.002-4.001h10.951
						C355.766,350.121,357.286,351.305,357.793,352.938z"/>
					<path fill="#EC1862" d="M357.97,363.45v11.005c-2.849,1.243-6.069,1.944-9.478,1.944c-3.412,0-6.63-0.701-9.478-1.944v-1.281
						L357.97,363.45z"/>
					<path fill="#EC1862" d="M357.97,354.122v9.328l-18.955,9.724v-10.6l18.778-9.636C357.906,353.313,357.97,353.71,357.97,354.122
						z"/>
					<circle fill="#FFFFFF" cx="342.753" cy="359.754" r="1.849"/>
				</g>
			</g>
		</g>
	</g>
</g>
</svg>
