<?xml version="1.0" encoding="utf-8"?>
<!-- Generator: Adobe Illustrator 16.0.0, SVG Export Plug-In . SVG Version: 6.00 Build 0)  -->
<!DOCTYPE svg PUBLIC "-//W3C//DTD SVG 1.1//EN" "http://www.w3.org/Graphics/SVG/1.1/DTD/svg11.dtd">
<svg version="1.1" id="Layer_1" xmlns="http://www.w3.org/2000/svg" xmlns:xlink="http://www.w3.org/1999/xlink" x="0px" y="0px"
	 width="100px" height="100px" viewBox="0 0 100 100" enable-background="new 0 0 100 100" xml:space="preserve">
<g>
	<g>
		<g display="none" opacity="0.5">
			
				<image display="inline" overflow="visible" enable-background="new    " width="1042" height="496" xlink:href="E39F8AC.png"  transform="matrix(0.111 0 0 0.1101 -9.0957 57.8271)">
			</image>
		</g>
		<g>
			
				<image overflow="visible" opacity="0.15" enable-background="new    " width="800" height="871" xlink:href="E39F8AD.png"  transform="matrix(0.1111 0 0 0.1108 6.5166 2.8057)">
			</image>
			<g>
				<g>
					<g>
						
							<linearGradient id="SVGID_1_" gradientUnits="userSpaceOnUse" x1="8.3696" y1="45.2563" x2="40.0581" y2="45.2563" gradientTransform="matrix(1 0 0 -1 0 102)">
							<stop  offset="0" style="stop-color:#5AC2B0"/>
							<stop  offset="1" style="stop-color:#2AAAE2"/>
						</linearGradient>
						<polygon fill="url(#SVGID_1_)" points="40.058,95.37 8.37,75.121 8.37,18.118 40.008,37.371 						"/>
					</g>
					<g>
						
							<linearGradient id="SVGID_2_" gradientUnits="userSpaceOnUse" x1="40.084" y1="41.9736" x2="91.5781" y2="41.9736" gradientTransform="matrix(1 0 0 -1 0 102)">
							<stop  offset="0" style="stop-color:#5AC2B0"/>
							<stop  offset="1" style="stop-color:#2AAAE2"/>
						</linearGradient>
						<polygon fill="url(#SVGID_2_)" points="91.578,80.11 40.084,95.556 40.084,37.371 91.578,24.497 						"/>
					</g>
					<g>
						
							<linearGradient id="SVGID_3_" gradientUnits="userSpaceOnUse" x1="8.4717" y1="80.9844" x2="91.5781" y2="80.9844" gradientTransform="matrix(1 0 0 -1 0 102)">
							<stop  offset="0" style="stop-color:#5AC2B0"/>
							<stop  offset="1" style="stop-color:#2AAAE2"/>
						</linearGradient>
						<polygon fill="url(#SVGID_3_)" points="91.578,24.497 40.084,37.371 8.472,18.118 56.563,4.659 						"/>
					</g>
				</g>
			</g>
		</g>
	</g>
</g>
<path fill="#E82264" d="M72.396,37.464c9.762,0,17.401,7.781,17.401,20.233c0,12.451-7.71,20.375-17.401,20.375
	c-5.802,0-9.976-2.618-12.17-6.085v5.519H48.13V35.36L32.003,24.497l10.825-3.714l17.397,11.553v11.283
	C62.42,40.081,66.735,37.464,72.396,37.464z M68.786,48.005c-4.527,0-8.631,3.468-8.631,9.763c0,6.297,4.104,9.763,8.631,9.763
	c4.598,0,8.702-3.537,8.702-9.833C77.488,51.4,73.385,48.005,68.786,48.005z"/>
<circle fill="#E82264" cx="70.157" cy="59.032" r="11.585"/>
<linearGradient id="SVGID_4_" gradientUnits="userSpaceOnUse" x1="64.9043" y1="43.3682" x2="80.5342" y2="43.3682" gradientTransform="matrix(1 0 0 -1 0 102)">
	<stop  offset="0" style="stop-color:#5AC2B0"/>
	<stop  offset="1" style="stop-color:#2AAAE2"/>
</linearGradient>
<circle fill="url(#SVGID_4_)" cx="72.72" cy="58.632" r="7.814"/>
</svg>
