<?xml version="1.0" encoding="utf-8"?>
<!-- Generator: Adobe Illustrator 16.0.0, SVG Export Plug-In . SVG Version: 6.00 Build 0)  -->
<!DOCTYPE svg PUBLIC "-//W3C//DTD SVG 1.1//EN" "http://www.w3.org/Graphics/SVG/1.1/DTD/svg11.dtd">
<svg version="1.1" id="Layer_1" xmlns="http://www.w3.org/2000/svg" xmlns:xlink="http://www.w3.org/1999/xlink" x="0px" y="0px"
	 width="512px" height="512px" viewBox="0 0 512 512" enable-background="new 0 0 512 512" xml:space="preserve">
<g id="Layer_22">
	<path fill="#E82264" d="M503.35,373.995c-1.43,0.117-144.214,11.402-230.912-7.638c-11.529-2.539-18.878,0.947-36.662,9.387
		c-12.938,6.133-32.512,15.402-65.216,28.16C97.461,432.405,58.133,433.973,51.573,422.89c-6.155-10.44,7.776-56.531,24.224-93.344
		c1.828-4.021,0.049-8.766-3.974-10.593c-4.022-1.828-8.765-0.05-10.593,3.973c-0.012,0.027-0.024,0.056-0.036,0.081
		c-1.067,2.368-2.848,6.464-4.96,11.573C37.44,321.568,16,302.123,16,290.453c1.227-5.27,19.552-21.141,40.533-35.477
		c0.337,1.045,0.59,2.115,0.757,3.2c-0.39,3.521-1.01,7.014-1.856,10.453c-2.56,7.719-3.229,15.938-1.952,23.969
		c2.432,7.328,10.027,9.909,15.574,11.81c0.789,0.267,1.824,0.616,2.634,0.917c2.134,4.747,6.592,12.513,9.718,17.75
		c0.49,1.973,1.546,5.973,3.008,10.102c2.157,6.117,7.121,10.827,13.344,12.661c6.157,1.843,12.825,0.586,17.888-3.371
		c2.133-1.675,4.917-3.979,7.989-6.646l-5.536,20.811c-1.137,4.264,1.397,8.644,5.661,9.778c0.676,0.181,1.373,0.271,2.072,0.271
		c0.804,0.005,1.603-0.115,2.368-0.361c19.823-6.601,38.718-15.711,56.224-27.114c39.051-25.835,45.333-53.333,45.579-54.528
		c0.945-4.313-1.784-8.574-6.096-9.52c-4.312-0.946-8.574,1.783-9.52,6.096c-1.378,4.414-3.371,8.611-5.92,12.469l-32.128,2.998
		c-4.418,0.203-7.835,3.949-7.632,8.367c0.203,4.419,3.95,7.836,8.368,7.633h0.747l16.267-1.515
		c-5.7,5.462-11.891,10.386-18.496,14.709c-12.036,7.834-24.782,14.52-38.069,19.968l8.042-30.197
		c10.689-9.109,19.825-19.899,27.051-31.945c1.833-9.422,0.854-19.174-2.816-28.042c-1.892-3.993-6.662-5.696-10.655-3.805
		c-3.821,1.81-5.573,6.28-4.001,10.206c2.177,5.521,2.868,11.516,2.005,17.387c-15.462,18.406-32.65,35.289-51.328,50.422
		c-1.006,0.794-2.335,1.049-3.563,0.683c-1.293-0.382-2.325-1.362-2.773-2.635c-1.098-3.149-2.035-6.354-2.805-9.602
		c-0.193-0.816-0.51-1.603-0.938-2.323c-4.267-7.469-6.678-12.256-9.675-17.517c-2.582-4.497-6.851-7.778-11.861-9.118
		c-1.919-0.591-3.785-1.34-5.579-2.24c0.413-5.07,1.233-10.103,2.453-15.041c1.379-4.945,2.096-10.053,2.133-15.188
		c-1.764-8.659-4.405-17.115-7.882-25.238c-2.848-7.851-6.485-17.92-10.912-30.752c-0.469-1.376-0.79-2.763-1.142-4.149
		c14.795,8.085,37.664,7.84,61.494,5.685c25.408-2.272,61.61-4.139,82.549,5.813c3.991,1.897,8.764,0.199,10.661-3.792
		c1.897-3.991,0.199-8.765-3.792-10.661l0,0c-18.891-8.971-46.933-11.253-90.858-7.296c-53.686,4.8-59.445-6.325-60.565-17.163
		c-1.568-15.221,17.75-35.392,25.323-41.888c1.204-1.027,2.073-2.39,2.496-3.915c3.596-10.784,11.491-19.601,21.813-24.362
		c8.846-3.898,18.342-6.112,28-6.528c8.906,12.849,22.437,21.755,37.76,24.854c40.448,10.549,46.464,20.875,47.349,23.787
		c1.34,4.748,1.792,9.702,1.333,14.613c-5.187-2.32-10.534-4.262-16-5.813c-12.954-3.463-26.178-5.821-39.531-7.05
		c-9.675-1.227-21.024-2.646-34.955-4.864c-10.742-1.428-21.153-4.72-30.763-9.728c-3.829-2.197-8.715-0.875-10.912,2.955
		c-2.197,3.83-0.875,8.715,2.955,10.912c11.271,6.016,23.529,9.961,36.192,11.648c14.155,2.261,25.664,3.712,35.488,4.95
		c12.459,1.146,24.803,3.314,36.907,6.485c18.741,5.687,26.037,10.837,26.891,19.051c0.088,10.051-4.593,19.549-12.619,25.6
		c-3.586,2.591-4.393,7.599-1.802,11.185c0.705,0.975,1.619,1.778,2.676,2.352l17.845,9.6c1.168,0.627,2.472,0.957,3.797,0.96
		c0.389-0.002,0.778-0.031,1.163-0.085l22.4-3.307c4.37-0.645,7.392-4.711,6.745-9.083c-0.646-4.371-4.711-7.392-9.083-6.747
		l-19.755,2.912l-5.941-3.2c7.683-8.771,11.475-20.285,10.507-31.904c-0.645-6.189-3.314-11.994-7.595-16.512
		c2.254-9.776,2.038-19.96-0.629-29.632c-4.267-14.123-23.467-25.451-58.667-34.624c-9.656-2.058-18.481-6.94-25.355-14.026
		c10.24-4.45,21.532-5.904,32.565-4.192c11.371,0.811,20.91,8.887,23.584,19.968c1.168,4.261,5.57,6.768,9.831,5.6
		c4.122-1.131,6.627-5.302,5.689-9.472c-4.173-17.035-18.477-29.694-35.893-31.765c-16.945-2.604-34.278,0.392-49.366,8.533
		c-12.798-0.022-25.457,2.653-37.152,7.851c-13.946,6.332-24.772,17.988-30.059,32.363c-7.243,6.57-31.563,30.496-29.141,54.059
		c0.064,0.629,0.213,1.173,0.309,1.781c-0.163,0.318-0.299,0.65-0.405,0.992c-1.947,10.83-1.072,21.979,2.539,32.373
		c4.448,12.939,8.117,23.083,10.998,30.998c0.288,0.811,0.533,1.493,0.821,2.272C30.934,252.619,0,275.479,0,290.133
		c0,23.798,34.741,49.494,50.208,59.733c-10.166,27.083-21.675,65.473-12.416,81.174c5.952,10.08,18.496,14.069,34.656,14.069
		c28.875,0,69.258-12.802,103.925-26.272c33.227-12.96,53.109-22.397,66.261-28.605c16.65-7.915,20.373-9.536,26.368-8.227
		c89.077,19.574,229.717,8.438,235.637,7.947c4.401-0.356,7.682-4.213,7.323-8.613c-0.355-4.398-4.213-7.68-8.613-7.323l0,0
		L503.35,373.995L503.35,373.995z"/>
	<path fill="#E82264" d="M249.877,280.438c2.708,4.082,7.387,6.412,12.277,6.111c2.291-0.029,4.57-0.346,6.783-0.938
		c14.656-4.877,28.4-12.154,40.674-21.537c1.996,9.037,10.94,14.742,19.979,12.746c2.803-0.62,5.399-1.949,7.541-3.86
		c30.709-27.637,31.541-31.146,32.213-33.941c0.928-3.904,1.803-8.288,2.539-12.267l58.666,1.28h0.184
		c4.418,0.047,8.037-3.497,8.086-7.915c0.047-4.418-3.497-8.038-7.915-8.085l-50.698-1.067l129.47-130.421
		c3.337-2.896,3.695-7.948,0.8-11.285c-2.895-3.337-7.945-3.696-11.285-0.8c-0.31,0.269-0.599,0.562-0.862,0.875L360.299,208.235
		c-1.186,1.204-1.965,2.748-2.229,4.416c0,0.128-1.92,12.426-4.063,21.674c-8.604,9.511-17.825,18.444-27.604,26.741l-1.065-1.002
		l17.804-23.616c2.644-3.54,1.918-8.553-1.623-11.197c-2.967-2.215-7.063-2.106-9.908,0.264l-21.846,18.336
		c-13.416,11.145-28.568,20.016-44.854,26.26c-0.47,0.119-0.886,0.203-1.248,0.277c3.39-10.748,9.009-20.661,16.489-29.088
		c13.724-14.165,30.334-25.21,48.705-32.384c1.453-0.55,2.716-1.515,3.627-2.773l89.065-123.339
		c2.589-3.582,1.784-8.584-1.798-11.173c-3.581-2.589-8.584-1.784-11.173,1.797l-87.67,121.472
		c-20.199,8.031-38.361,20.452-53.173,36.363C261.334,239.285,240.928,266.539,249.877,280.438z"/>
	<path fill="#E82264" d="M498.549,177.504l-67.05,62.357l-16.203-1.856c-11.218-1.283-22.532,1.379-32,7.531
		c-45.302,29.632-47.307,39.626-45.644,46.655c2.281,9.842,9.988,17.511,19.841,19.742c5.778,1.027,11.646,1.479,17.515,1.347
		c6.561,0,13.143-0.354,17.59-0.693c23.062-0.638,45.143-9.459,62.293-24.886l53.152-30.869c3.829-2.221,5.133-7.125,2.912-10.955
		c-2.222-3.829-7.126-5.133-10.955-2.912l-54.133,31.488c-0.76,0.453-1.446,1.018-2.038,1.675
		c-0.618,0.726-15.861,17.589-52.49,20.501c-10.067,1.012-20.216,0.911-30.262-0.299c-3.461-0.785-6.278-3.289-7.466-6.635
		c1.406-2.324,8.139-10.934,38.463-30.762c6.346-4.138,13.938-5.917,21.462-5.037l19.851,2.272c2.34,0.238,4.671-0.539,6.4-2.134
		l69.749-64.864c3.24-3.01,3.426-8.077,0.416-11.317c-3.011-3.24-8.077-3.426-11.317-0.416L498.549,177.504z"/>
</g>
</svg>
