<?xml version="1.0" encoding="utf-8"?>
<!-- Generator: Adobe Illustrator 16.0.0, SVG Export Plug-In . SVG Version: 6.00 Build 0)  -->
<!DOCTYPE svg PUBLIC "-//W3C//DTD SVG 1.1//EN" "http://www.w3.org/Graphics/SVG/1.1/DTD/svg11.dtd">
<svg version="1.1" id="Capa_1" xmlns="http://www.w3.org/2000/svg" xmlns:xlink="http://www.w3.org/1999/xlink" x="0px" y="0px"
	 width="512px" height="512px" viewBox="0 0 512 512" enable-background="new 0 0 512 512" xml:space="preserve">
<g>
	<g>
		<path fill="#E82264" d="M94.108,456.102c0.12,0.008,0.239,0.011,0.358,0.011c3.98,0,7.297-3.13,7.486-7.147
			c1.509-32.046,24.313-59.863,55.457-67.646l22.752-5.688c3.16,19.377,11.339,34.734,18.105,44.668
			c4.543,6.671,11.763,10.998,19.809,11.87c1.005,0.109,2.008,0.163,3.007,0.163c7.049,0,13.859-2.681,19.043-7.577L256,409.76
			l15.875,14.993c5.184,4.896,11.993,7.576,19.043,7.576c0.999,0,2.003-0.054,3.007-0.163c8.045-0.872,15.265-5.199,19.81-11.87
			c6.767-9.933,14.944-25.29,18.104-44.668l22.753,5.688c31.143,7.781,53.948,35.601,55.456,67.646
			c0.189,4.02,3.505,7.147,7.486,7.147c0.119,0,0.239-0.003,0.356-0.011c4.14-0.192,7.334-3.706,7.141-7.844
			c-0.897-19.056-7.764-36.94-19.854-51.727c-12.126-14.827-28.36-25.121-46.948-29.769l-30.209-7.552l-24.113-11.907V324.13
			c10.419-5.135,20.051-11.98,28.539-20.407c18.896-18.758,30.029-43.211,31.811-69.519h10.941
			c13.048,0,23.664-10.615,23.664-23.662v-28.285c0-9.661-5.823-17.983-14.144-21.655V128.72c0-34.466-13.444-66.847-37.856-91.176
			C322.557,13.323,290.304,0,256,0c-0.151,0-0.303,0-0.455,0.001c-36.578,0.122-71.512,16.114-95.845,43.877
			c-2.73,3.115-2.418,7.854,0.697,10.584c3.115,2.729,7.854,2.417,10.583-0.697c21.498-24.527,52.338-38.656,84.616-38.764
			C255.731,15,255.862,15,255.998,15c30.307,0,58.805,11.771,80.275,33.17c21.567,21.494,33.445,50.1,33.445,80.551v29.876h-12.703
			c-4.143,0-7.5,3.357-7.5,7.5v32.686L330.17,165.37c-1.648-2.852-4.972-4.292-8.177-3.55c-3.209,0.74-5.562,3.488-5.795,6.773
			l-0.14,1.935c-13.625-10.28-17.562-23.041-17.744-23.653c-0.92-3.243-3.846-5.492-7.258-5.484
			c-3.373,0.023-6.305,2.262-7.18,5.519c-0.352,1.211-7.916,25.559-47.254,32.866c2.191-2.839,3.856-5.929,4.506-9.177
			c0.558-2.792-0.513-5.658-2.765-7.401c-2.251-1.742-5.296-2.059-7.859-0.819c-0.318,0.154-32.085,15.413-53.299,15.413
			c-2.763,0-5.302,1.52-6.609,3.954l-8.115,15.123v-30.77c0-4.143-3.358-7.5-7.5-7.5H142.28v-28.556
			c0-17.02,3.624-33.434,10.77-48.785c1.748-3.755,0.121-8.217-3.634-9.965c-3.754-1.748-8.216-0.121-9.964,3.635
			c-8.076,17.349-12.171,35.893-12.171,55.115v30.563c-8.318,3.672-14.142,11.994-14.142,21.655v28.285
			c0,13.047,10.615,23.662,23.663,23.662h11.032c3.103,39.295,26.868,72.937,60.261,89.681v23.418l-24.112,11.906l-30.211,7.553
			c-18.589,4.646-34.824,14.939-46.95,29.769c-12.091,14.785-18.957,32.672-19.854,51.727
			C86.774,452.396,89.97,455.907,94.108,456.102L94.108,456.102z M301.336,411.853c-2.097,3.079-5.304,4.997-9.027,5.401
			c-3.721,0.403-7.414-0.838-10.135-3.406l-10.215-9.646c17.122-6.069,29.805-21.604,31.701-40.288l13.751,6.79
			C315.021,388.587,307.502,402.8,301.336,411.853L301.336,411.853z M364.516,173.596H375.2c4.774,0,8.661,3.886,8.661,8.662v28.285
			c0,4.776-3.885,8.662-8.661,8.662h-10.685V173.596z M128.138,210.544v-28.285c0-4.776,3.886-8.662,8.663-8.662h10.683v45.609
			h-10.683C132.025,219.206,128.138,215.32,128.138,210.544z M162.538,228.49l19.249-35.872c7.578-0.548,15.732-2.347,23.387-4.574
			c-0.174,1.002-0.147,2.05,0.108,3.085c0.828,3.349,3.832,5.701,7.281,5.701c46.507,0,68.425-18.091,78.305-31.588
			c5.306,8.076,14.207,17.9,28.558,24.789c2.239,1.073,4.863,0.97,7.012-0.275c0.129-0.076,0.258-0.155,0.383-0.238l22.673,39.161
			c-0.5,24.37-10.261,47.172-27.614,64.399c-17.65,17.521-41.021,27.144-65.875,27.144c-0.237,0-0.476-0.001-0.714-0.003
			C205.124,319.848,164.133,278.977,162.538,228.49L162.538,228.49z M255.178,335.219c10.156,0.14,23.207-1.663,33.729-5.057v28.875
			c0,18.144-14.763,32.906-32.906,32.906c-18.144,0-32.906-14.764-32.906-32.906v-28.995
			C233.232,333.326,244.009,335.136,255.178,335.219z M208.34,363.912c1.897,18.684,14.578,34.219,31.7,40.288l-10.215,9.646
			c-2.72,2.569-6.413,3.81-10.134,3.407c-3.725-0.404-6.931-2.322-9.028-5.401c-6.166-9.053-13.686-23.266-16.074-41.148
			L208.34,363.912z"/>
		<path fill="#E82264" d="M417.63,476.11c-4.142,0-7.5,3.355-7.5,7.5V497h-54.705v-30.886c0-4.145-3.358-7.5-7.5-7.5h-48.487
			c-4.143,0-7.5,3.355-7.5,7.5V497H101.87v-13.39c0-4.145-3.358-7.5-7.5-7.5s-7.5,3.355-7.5,7.5v20.89c0,4.143,3.358,7.5,7.5,7.5
			h323.26c4.142,0,7.5-3.357,7.5-7.5v-20.89C425.13,479.468,421.771,476.11,417.63,476.11z M306.938,473.614h33.487V497h-33.487
			V473.614z"/>
	</g>
</g>
</svg>
