<?xml version="1.0" encoding="utf-8"?>
<!-- Generator: Adobe Illustrator 16.0.0, SVG Export Plug-In . SVG Version: 6.00 Build 0)  -->
<!DOCTYPE svg PUBLIC "-//W3C//DTD SVG 1.1//EN" "http://www.w3.org/Graphics/SVG/1.1/DTD/svg11.dtd">
<svg version="1.1" id="Capa_1" xmlns="http://www.w3.org/2000/svg" xmlns:xlink="http://www.w3.org/1999/xlink" x="0px" y="0px"
	 width="512px" height="512px" viewBox="0 0 512 512" enable-background="new 0 0 512 512" xml:space="preserve">
<g>
	<path fill="#E82264" d="M7.107,511.947c-4.113-0.494-7.046-4.229-6.553-8.34C14.542,387.038,27.447,294.997,44.96,224.69
		c19.09-76.635,42.842-122.619,74.725-144.656c17.948-43.576,43.176-52.855,79.421-52.152C205.435,19.368,223.413,0,256,0
		s50.566,19.368,56.895,27.884c35.383-0.669,61.072,8.347,78.947,50.993c0.162,0.386,0.322,0.772,0.483,1.164
		c31.88,22.039,55.628,68.02,74.716,144.65c17.513,70.305,30.418,162.346,44.406,278.917c0.493,4.109-2.44,7.847-6.557,8.34
		c-4.104,0.488-7.846-2.441-8.34-6.557c-13.921-116.01-26.743-207.521-44.064-277.076c-14.121-56.688-30.472-95.427-50.539-119.179
		c11.141,41.249,20.457,105.589,31.608,214.519c0.425,4.121-2.572,7.803-6.693,8.225c-4.115,0.421-7.807-2.576-8.229-6.697
		c-11.521-112.532-22.104-191.792-38.513-235.188c-14.323-8.716-30.646-11.94-49.492-9.736C352.372,100.369,366,129.122,366,161
		v16.614c1.577-0.401,3.229-0.614,4.928-0.614c11.028,0,20,8.972,20,20v21.765c0,11.163-4.335,24.205-23.511,27.249
		c1.666,3.479,4.701,5.759,8.587,8.679C382.755,259.764,392,266.707,392,282.5s-9.245,22.736-15.996,27.808
		C369.98,314.833,366,317.823,366,326.122c0,4.142-3.357,7.5-7.5,7.5s-7.5-3.358-7.5-7.5c0-15.793,9.245-22.737,15.996-27.808
		C373.02,293.789,377,290.799,377,282.5s-3.98-11.289-10.004-15.814c-2.262-1.699-4.805-3.605-7.184-5.99
		c-8.778,29.025-26.319,53.293-48.918,68.481c0.586,30.479,8.895,40.62,39.349,50.166c32.782,10.275,57.855,21.079,73.685,40.405
		C439.049,438.214,445.5,463.56,445.5,504.5c0,4.142-3.358,7.5-7.5,7.5s-7.5-3.358-7.5-7.5c0-72.658-20.121-90.589-84.743-110.843
		c-33.761-10.582-47.032-24.938-49.47-56.271c-12.48,5.731-26.075,8.882-40.287,8.882s-27.805-3.147-40.287-8.882
		c-2.438,31.33-15.709,45.688-49.47,56.271c-15.77,4.939-27.54,9.37-37.038,13.93c-3.734,1.791-8.214,0.219-10.007-3.515
		c-1.793-3.734-0.219-8.214,3.515-10.007c10.163-4.883,22.569-9.561,39.044-14.725c30.454-9.545,38.763-19.688,39.349-50.166
		c-22.599-15.188-40.139-39.455-48.917-68.479c-2.38,2.383-4.922,4.291-7.184,5.99C138.98,271.211,135,274.201,135,282.5
		s3.98,11.289,10.004,15.814C151.755,303.384,161,310.33,161,326.122c0,4.142-3.358,7.5-7.5,7.5s-7.5-3.358-7.5-7.5
		c0-8.299-3.98-11.289-10.004-15.815C129.246,305.236,120,298.293,120,282.5s9.245-22.736,15.996-27.808
		c3.887-2.919,6.922-5.2,8.587-8.679c-19.176-3.044-23.511-16.086-23.511-27.249V197c0-11.028,8.972-20,20-20
		c1.7,0,3.351,0.213,4.928,0.614V161c0-12.982,2.242-25.694,6.662-37.782c1.423-3.89,5.73-5.889,9.62-4.468
		c3.89,1.423,5.89,5.73,4.468,9.62C162.935,138.802,161,149.781,161,161v27.919c0.713-0.588,1.452-1.165,2.218-1.73
		c5.908-4.357,13.027-7.794,21.38-11.118c2.679-1.367,5.635-2.472,8.756-3.313c3.275-1.19,6.707-2.4,10.299-3.666
		c1.974-0.696,3.994-1.408,6.058-2.141c1.573-0.56,3.166-1.121,4.774-1.689c34.255-12.082,73.08-25.777,73.08-67.303
		c0-4.142,3.358-7.5,7.5-7.5c4.146,0,7.5,3.358,7.5,7.5c0,18.561,13.604,29.7,28.012,41.493c1.66,1.362,3.314,2.716,4.938,4.073
		c5.914,4.951,11.125,11.181,15.487,18.344V161c0-32.228-16.131-60.759-40.744-77.944c-1.149-0.417-2.19-1.111-3.018-2.023
		C292.446,71.521,274.857,66,256,66c-18.375,0-36.038,5.261-51.129,14.91c-0.882,1.018-2.024,1.779-3.294,2.205
		c-6.905,4.832-13.21,10.618-18.728,17.267c-2.646,3.188-7.373,3.628-10.561,0.983c-3.188-2.646-3.628-7.373-0.983-10.561
		c3.119-3.759,6.458-7.282,9.988-10.553c-18.813-2.183-35.117,1.042-49.422,9.748c-0.408,1.078-0.813,2.18-1.216,3.306
		C113.243,141.983,102.09,232.808,87.6,383.383c-0.397,4.124-4.063,7.149-8.184,6.747c-4.123-0.396-7.144-4.061-6.747-8.184
		c12.776-132.761,23.033-219.595,37.409-272.838c-20.084,23.749-36.437,62.495-50.564,119.209
		C42.19,297.869,29.368,389.383,15.447,505.394c-0.457,3.813-3.694,6.607-7.437,6.607C7.712,512.001,7.41,511.983,7.107,511.947z
		 M325.885,155.028c-1.58-1.322-3.191-2.642-4.813-3.969c-8.6-7.041-17.826-14.596-24.415-24.204
		c-4.741,10.369-12.358,19.385-22.94,27.216c-12.492,9.247-27.596,15.639-42.14,21.003c0.909,0.398,1.793,0.824,2.647,1.278
		c3.658,1.943,5.049,6.483,3.106,10.142c-1.943,3.659-6.485,5.05-10.142,3.107c-7.665-4.07-19.471-4.952-28.93-2.644
		c-26.291,9.65-37.186,16.301-37.186,35.712c0,0.035,0,0.069-0.001,0.104C163.019,282.995,204.854,331.27,256,331.27
		c52.383,0,95-50.644,95-112.893C351,192.27,341.377,167.996,325.885,155.028z M146,196.153c-0.403-2.355-2.46-4.153-4.928-4.153
		c-2.757,0-5,2.243-5,5v21.765c0,5.535,0.886,10.609,9.928,12.307v-12.695V196.153z M366,196.153v34.918
		c9.042-1.697,9.928-6.771,9.928-12.307V197c0-2.757-2.242-5-5-5C368.46,192,366.404,193.798,366,196.153L366,196.153z
		 M197.437,67.858C214.769,56.943,234.98,51,256,51c21.479,0,41.538,6.187,58.492,16.874c20.617-4.737,38.969-4.428,55.486,0.987
		c-14.32-22.865-32.75-26.946-60.69-25.866c-2.772,0.099-5.384-1.353-6.781-3.741C301.928,38.263,287.951,15,256,15
		s-45.928,23.263-46.488,24.221c-1.386,2.426-4.013,3.873-6.8,3.773c-28.124-1.081-46.462,3.024-60.723,25.877
		c8.796-2.887,18.112-4.327,28.014-4.327C178.684,64.545,187.815,65.651,197.437,67.858z M251.271,510.321
		c-2.991-2.434-5.811-4.622-8.298-6.559c-12.272-9.539-21.139-16.43-21.139-30.68c0-6.804,3.092-12.896,7.945-16.954
		C215.26,448.07,202.943,444,193,444c-27.294,0-49.5,22.206-49.5,49.5v11c0,4.142-3.358,7.5-7.5,7.5s-7.5-3.358-7.5-7.5v-11
		c0-35.565,28.935-64.5,64.5-64.5c16.552,0,36.465,7.957,60.708,24.285c0.789,0.39,1.555,0.827,2.292,1.309
		c0.738-0.479,1.503-0.919,2.293-1.309C282.536,436.957,302.449,429,319,429c35.564,0,64.5,28.935,64.5,64.5v11
		c0,4.142-3.357,7.5-7.5,7.5s-7.5-3.358-7.5-7.5v-11c0-27.294-22.206-49.5-49.5-49.5c-9.943,0-22.259,4.07-36.78,12.133
		c4.854,4.055,7.945,10.15,7.945,16.954c0,14.249-8.867,21.141-21.14,30.68c-2.486,1.937-5.31,4.125-8.297,6.559
		C259.352,511.44,257.676,512,256,512C254.325,512,252.649,511.44,251.271,510.321L251.271,510.321z M265.616,466.442
		c-0.949,0.646-1.905,1.304-2.869,1.977c-0.192,0.22-0.374,0.454-0.54,0.7c-1.396,2.057-3.721,3.288-6.206,3.288
		c-2.486,0-4.81-1.232-6.206-3.288c-0.167-0.246-0.348-0.48-0.54-0.7c-0.964-0.673-1.92-1.332-2.869-1.977
		c-0.777-0.289-1.61-0.442-2.463-0.442c-3.908,0-7.087,3.179-7.087,7.087c0,6.596,3.687,9.776,15.344,18.836
		c1.202,0.938,2.48,1.927,3.822,2.982c1.342-1.059,2.62-2.048,3.822-2.982c11.656-9.06,15.344-12.241,15.344-18.836
		c0-3.908-3.179-7.087-7.087-7.087C267.227,466,266.395,466.153,265.616,466.442z M66.5,504.5c0-43.682,7.562-70.287,25.285-88.96
		c2.852-3.004,7.598-3.129,10.603-0.277c3.004,2.854,3.128,7.603,0.277,10.604C87.632,441.705,81.5,464.486,81.5,504.5
		c0,4.142-3.358,7.5-7.5,7.5S66.5,508.642,66.5,504.5z M424.4,383.383c-0.771-7.979-1.526-15.779-2.275-23.399
		c-0.405-4.123,2.608-7.796,6.73-8.197c4.127-0.416,7.793,2.604,8.193,6.729c0.75,7.638,1.511,15.444,2.278,23.437
		c0.396,4.123-2.624,7.788-6.747,8.184c-0.245,0.024-0.487,0.035-0.729,0.035C428.038,390.165,424.773,387.261,424.4,383.383z
		 M223.41,290.407c-2.753-3.095-2.476-7.837,0.62-10.589c3.095-2.752,7.836-2.478,10.588,0.621
		c5.766,6.479,13.359,10.053,21.383,10.053c8.022,0,15.617-3.57,21.383-10.053c2.753-3.098,7.492-3.373,10.589-0.621
		c3.094,2.752,3.371,7.494,0.619,10.589c-8.65,9.727-20.226,15.084-32.591,15.084C243.635,305.491,232.061,300.134,223.41,290.407z
		 M191.697,226.547c-2.929-2.929-2.929-7.678,0-10.606c2.929-2.929,7.678-2.929,10.606,0c2.917,2.917,6.795,4.523,10.921,4.523
		c4.125,0,8.003-1.607,10.92-4.523c2.929-2.929,7.678-2.928,10.606-0.001c2.929,2.929,2.929,7.678,0,10.607
		c-5.75,5.751-13.395,8.917-21.527,8.917C205.093,235.464,197.447,232.298,191.697,226.547L191.697,226.547z M277.249,226.547
		c-2.929-2.929-2.929-7.678,0-10.607s7.678-2.928,10.606,0.001c2.918,2.917,6.795,4.523,10.92,4.523s8.005-1.607,10.922-4.523
		c2.929-2.929,7.678-2.929,10.604,0c2.932,2.929,2.932,7.678,0,10.606c-5.75,5.751-13.396,8.917-21.525,8.917
		C290.645,235.464,282.999,232.298,277.249,226.547L277.249,226.547z M320.908,189.601c-9.783-5.196-26.313-5.196-36.096,0
		c-3.66,1.943-8.199,0.552-10.146-3.107c-1.94-3.658-0.552-8.199,3.104-10.142c14.064-7.469,36.104-7.47,50.166,0
		c3.658,1.943,5.052,6.483,3.105,10.142c-1.348,2.538-3.945,3.984-6.63,3.984C323.232,190.478,322.029,190.196,320.908,189.601z"/>
</g>
</svg>
