<?xml version="1.0" encoding="utf-8"?>
<!-- Generator: Adobe Illustrator 16.0.0, SVG Export Plug-In . SVG Version: 6.00 Build 0)  -->
<!DOCTYPE svg PUBLIC "-//W3C//DTD SVG 1.1//EN" "http://www.w3.org/Graphics/SVG/1.1/DTD/svg11.dtd">
<svg version="1.1" id="Capa_1" xmlns="http://www.w3.org/2000/svg" xmlns:xlink="http://www.w3.org/1999/xlink" x="0px" y="0px"
	 width="512px" height="512px" viewBox="0 0 512 512" enable-background="new 0 0 512 512" xml:space="preserve">
<path fill="#E82264" d="M260.598,398.887c-0.889-2.382-0.514-5.052,0.998-7.096c5.797-7.842,8.016-15.38,6.598-22.404
	c-1.68-8.318-8.021-14.644-12.19-18.013c-4.178,3.375-10.514,9.696-12.194,18.013c-1.418,7.025,0.8,14.563,6.598,22.405
	c1.511,2.044,1.887,4.714,0.997,7.096c-8.569,22.952-14.678,50.776-16.395,59.002c0.156,0.322,0.313,0.646,0.468,0.964
	c7.724,15.816,15.514,27.195,20.523,33.779c5.09-6.707,13.063-18.404,20.979-34.82C275.24,449.494,269.15,421.794,260.598,398.887
	L260.598,398.887z M229.104,366.271c3.965-19.248,22.331-30.154,23.11-30.607c2.34-1.365,5.231-1.365,7.571-0.001
	c0.779,0.454,19.146,11.359,23.111,30.608c2.119,10.281-0.191,20.717-6.867,31.062c4.455,12.516,8.156,25.802,10.894,36.692
	c8.697-24.279,15.519-55.057,15.519-91.872v-27.979c0-0.048,0-0.097,0-0.146v-1.552c-14.45,8.783-30.221,13.41-46.438,13.41
	s-31.989-4.628-46.441-13.41v1.558v0.136v27.981c0,37.416,7.136,68.411,15.511,91.898c2.737-10.896,6.441-24.191,10.902-36.722
	C229.295,386.989,226.985,376.556,229.104,366.271L229.104,366.271z M326.989,105.589c-6.933-5.473-7.869-11.624-7.869-16.919
	V72.957c-1.425,1.415-2.95,2.743-4.575,3.981c-24.068,18.34-63.384,11.247-84.674,5.386c-14.858-4.09-27.006-6.871-36.992-7.69
	V88.67c0,5.296-0.935,11.448-7.869,16.919c-5.675,4.479-24.192,21.41-24.192,51.211v31.937c0,30.672,10.393,61.73,28.514,85.212
	c18.37,23.805,42.046,36.914,66.668,36.914s48.298-13.109,66.668-36.914c18.121-23.483,28.514-54.542,28.514-85.212V156.8
	C351.182,126.999,332.665,110.068,326.989,105.589L326.989,105.589z M140.779,151.289c-2.762,0-5.01,2.248-5.01,5.01v31.826
	c0,6.3,4.529,11.563,10.501,12.703c-0.319-4.027-0.482-8.062-0.482-12.089V156.3C145.789,153.537,143.542,151.289,140.779,151.289z
	 M366.211,156.299v32.438c0,4.028-0.163,8.063-0.482,12.089c5.976-1.139,10.502-6.402,10.502-12.703v-31.825
	c0-2.762-2.248-5.01-5.01-5.01C368.457,151.288,366.211,153.537,366.211,156.299z M160.817,86.163v23.47
	c5.839-8.173,11.847-13.445,14.883-15.841c1.868-1.475,2.15-2.145,2.15-5.122V75.256C170.752,76.747,165.219,80.212,160.817,86.163z
	 M334.148,88.669c0,2.977,0.281,3.647,2.148,5.123c3.036,2.396,9.042,7.668,14.885,15.841V83.815
	c0-12.335-6.256-25.447-17.033-36.879V88.669z M482.417,504.465c0-20.059-3.823-47.821-10.49-76.172
	c-6.957-29.577-13.578-45.187-16.212-48.271c-0.563-0.437-3.371-2.217-14.666-5.481c-3.986-1.153-6.283-5.32-5.129-9.307
	c1.152-3.986,5.319-6.281,9.307-5.133c12.229,3.537,18.454,6.348,21.506,9.69c11.851,13.004,30.716,88.835,30.716,134.671
	c0,4.149-3.364,7.516-7.518,7.516C485.781,511.979,482.418,508.614,482.417,504.465L482.417,504.465z M216.381,258.281
	c-2.758-3.1-2.48-7.85,0.621-10.607c3.102-2.758,7.85-2.48,10.609,0.621c7.637,8.586,17.72,13.316,28.389,13.316
	s20.75-4.729,28.389-13.316c2.758-3.101,7.508-3.378,10.607-0.621c3.102,2.757,3.378,7.507,0.621,10.607
	C285.09,270.119,271.02,276.639,256,276.639c-0.001,0,0,0-0.001,0C240.981,276.639,226.909,270.119,216.381,258.281z
	 M191.573,185.902c-2.935-2.935-2.935-7.692,0.001-10.627c2.934-2.934,7.692-2.935,10.626,0.001
	c2.922,2.922,6.808,4.531,10.941,4.531c4.133,0,8.02-1.61,10.943-4.532c2.933-2.934,7.691-2.935,10.626,0.001
	c2.935,2.935,2.935,7.692-0.001,10.626c-5.761,5.762-13.421,8.934-21.568,8.934S197.334,191.665,191.573,185.902L191.573,185.902z
	 M277.289,185.902c-2.936-2.935-2.936-7.692,0-10.627s7.693-2.934,10.627,0.001c2.923,2.922,6.809,4.531,10.941,4.531
	c4.132,0,8.02-1.61,10.938-4.531c2.938-2.935,7.693-2.935,10.627,0c2.937,2.935,2.937,7.692,0,10.626
	c-5.762,5.762-13.422,8.934-21.565,8.934C290.71,194.836,283.051,191.665,277.289,185.902L277.289,185.902z M321.031,155.899
	c-9.803-5.206-26.363-5.206-36.164,0c-3.668,1.947-8.215,0.553-10.162-3.113c-1.946-3.665-0.553-8.215,3.113-10.162
	c14.092-7.483,36.17-7.484,50.262,0c3.665,1.947,5.059,6.496,3.111,10.162c-1.353,2.543-3.951,3.992-6.646,3.992
	C323.361,156.778,322.154,156.495,321.031,155.899z M180.808,152.786c-1.946-3.665-0.553-8.215,3.112-10.162
	c14.091-7.484,36.171-7.484,50.262,0c3.665,1.947,5.059,6.496,3.112,10.162c-1.946,3.665-6.493,5.059-10.162,3.113
	c-9.802-5.205-26.363-5.205-36.165,0c-1.124,0.596-2.329,0.879-3.518,0.879C184.76,156.778,182.157,155.328,180.808,152.786z
	 M207.115,511.979c-1.712,0-3.434-0.579-4.843-1.771c-1.173-0.99-28.935-24.574-47.239-52.517
	c-2.274-3.475-1.303-8.133,2.168-10.404c3.471-2.274,8.127-1.304,10.404,2.168c17.115,26.128,44.091,49.041,44.362,49.27
	c3.171,2.68,3.571,7.418,0.894,10.591C211.374,511.072,209.251,511.979,207.115,511.979z M427.917,463.419
	c0,17.508-10.642,25.778-26.749,38.3c-3.261,2.534-6.957,5.407-10.887,8.602c-1.381,1.123-3.063,1.683-4.738,1.683
	s-3.357-0.562-4.738-1.683c-3.928-3.191-7.623-6.064-10.885-8.601c-12.398-9.639-21.561-16.759-25.121-27.512l0.008-0.045
	c-16.229,19.995-33.715,34.895-35.074,36.043c-3.172,2.676-7.907,2.277-10.588-0.896c-2.678-3.17-2.276-7.907,0.894-10.588
	c16.092-13.603,57.854-55.287,57.854-84.433c0-18.947-11.229-55.713-14.686-66.579c-10.891-5.154-19.438-10.959-25.73-16.014v10.455
	c0,55.788-15.092,98.182-27.75,123.922c-13.832,28.123-27.678,42.933-28.26,43.55c-1.42,1.502-3.396,2.353-5.462,2.353
	c-2.066,0-4.042-0.852-5.462-2.353c-0.582-0.617-14.428-15.426-28.258-43.55c-12.659-25.74-27.749-68.134-27.749-123.922v-10.456
	c-6.296,5.056-14.845,10.857-25.733,16.015c-3.049,9.583-12.146,39.331-14.256,59.386c-0.435,4.127-4.117,7.118-8.26,6.688
	c-4.127-0.438-7.121-4.132-6.687-8.261c1.685-16.004,7.251-36.932,11.338-50.819c-1.906,0.602-3.861,1.175-5.868,1.716
	c-10.168,2.743-22.67,5.625-34.761,8.413c-19.628,4.524-49.243,11.354-54.016,15.181c-2.631,3.074-9.255,18.686-16.215,48.275
	c-6.667,28.35-10.491,56.111-10.491,76.172c0,4.148-3.363,7.514-7.514,7.514c-4.151,0-7.515-3.361-7.515-7.514
	c0-45.836,18.865-121.667,30.715-134.671c5.626-6.174,23.108-10.714,61.659-19.604c11.958-2.756,24.32-5.604,34.221-8.275
	c30.624-8.266,48.223-25.079,53.38-30.633v-9.855c-6.058-5.295-11.784-11.409-17.096-18.293
	c-14.695-19.043-24.81-42.539-29.193-67.051c-15.206-0.247-27.5-12.692-27.5-27.955v-31.824c0-11.049,8.989-20.038,20.039-20.038
	c1.729,0,3.407,0.22,5.01,0.634V83.923c-0.001-0.081-0.001-0.161,0-0.241c0.045-18.021,9.217-36.423,25.84-51.829
	c3.043-2.821,7.798-2.641,10.62,0.403c2.82,3.044,2.641,7.798-0.403,10.619c-6.773,6.277-12.082,13.207-15.672,20.289
	c5.485-2.321,11.48-3.461,17.901-3.723c0.711-0.124,1.475-0.144,2.194-0.056c14.211-0.156,30.36,3.708,47.588,8.45
	c14.984,4.124,51.954,12.102,71.577-2.851c8.519-6.489,12.985-16.611,13.608-30.872C302.402,22.724,280.453,15.029,256,15.029
	c-16.142,0-32.351,3.458-46.875,9.998c-3.782,1.703-8.234,0.02-9.938-3.765c-1.703-3.784-0.018-8.234,3.766-9.937
	C219.402,3.916,237.747,0,256,0c28.377,0,55.805,9.161,77.227,25.795c20.961,16.277,32.983,37.424,32.983,58.021v53.08
	c1.603-0.414,3.281-0.634,5.011-0.634c11.049,0,20.038,8.989,20.038,20.038v31.826c0,15.263-12.294,27.71-27.5,27.955
	c-4.383,24.512-14.497,48.008-29.192,67.05c-5.313,6.887-11.035,12.998-17.096,18.295v9.876
	c3.954,4.298,15.321,15.339,34.635,23.962c0.186,0.073,0.365,0.153,0.541,0.24c5.442,2.399,11.508,4.604,18.203,6.409
	c9.905,2.673,22.276,5.521,34.239,8.282l5.729,1.32c4.044,0.938,6.563,4.975,5.628,9.018c-0.938,4.044-4.976,6.561-9.018,5.628
	l-5.719-1.319c-12.096-2.789-24.604-5.673-34.774-8.417c-2.009-0.542-3.966-1.115-5.869-1.717
	c4.873,16.569,11.85,43.157,11.85,59.586c0,7.349-1.854,14.989-4.916,22.606c0.58-0.038,1.163-0.063,1.752-0.063
	c5.768,0,11.279,1.864,15.791,5.197c4.512-3.332,10.023-5.197,15.791-5.197C415.992,436.835,427.917,448.761,427.917,463.419
	L427.917,463.419z M369.751,451.864c-6.371,0-11.556,5.184-11.556,11.555c0,9.692,5.033,14.067,20.945,26.435
	c1.983,1.546,4.131,3.213,6.398,5.009c2.271-1.796,4.415-3.463,6.4-5.009c15.91-12.364,20.943-16.739,20.943-26.434
	c0-6.371-5.184-11.555-11.556-11.555c-3.835,0-7.413,1.896-9.573,5.08c-1.398,2.062-3.727,3.296-6.217,3.296
	c-2.491,0-4.82-1.234-6.219-3.296C377.166,453.764,373.586,451.864,369.751,451.864L369.751,451.864z"/>
</svg>
