<?xml version="1.0" encoding="utf-8"?>
<!-- Generator: Adobe Illustrator 16.0.0, SVG Export Plug-In . SVG Version: 6.00 Build 0)  -->
<!DOCTYPE svg PUBLIC "-//W3C//DTD SVG 1.1//EN" "http://www.w3.org/Graphics/SVG/1.1/DTD/svg11.dtd">
<svg version="1.1" id="Layer_1" xmlns="http://www.w3.org/2000/svg" xmlns:xlink="http://www.w3.org/1999/xlink" x="0px" y="0px"
	 width="496px" height="496px" viewBox="0 0 496 496" enable-background="new 0 0 496 496" xml:space="preserve">
<path fill="#E82264" d="M162.213,124.744c12.811,0,24.837-4.984,33.888-14.023c18.679-18.679,18.679-49.085,0-67.764
	c-9.051-9.051-21.085-14.023-33.888-14.023c-12.802,0-24.836,4.98-33.888,14.023c-18.679,18.687-18.679,49.085,0,67.764
	C137.369,119.76,149.403,124.744,162.213,124.744z M139.619,54.243c6.029-6.033,14.058-9.348,22.594-9.348
	c8.537,0,16.562,3.323,22.595,9.348c12.459,12.459,12.459,32.726,0,45.177c-12.062,12.062-33.127,12.062-45.189,0
	C127.16,86.968,127.16,66.702,139.619,54.243z"/>
<path fill="#E82264" d="M71.871,239.047c19.198,0,37.25-7.483,50.816-21.05c7.987-7.987,13.809-17.556,17.291-27.96l90.176,90.183
	c0.074,0.078,0.097,0.177,0.167,0.255c0.074,0.082,0.176,0.104,0.257,0.168l14.686,14.688L110.149,430.484c0,0,0,0.008-0.008,0.008
	c-7.78,7.779-7.788,20.438-0.016,28.21c3.779,3.782,8.794,5.859,14.136,5.859c5.334,0,10.342-2.077,14.121-5.846
	c0-0.008,0.008-0.008,0.008-0.008l0.008-0.008l135.1-135.158l117.68,117.68c0.023,0.027,0.063,0.035,0.09,0.061
	c0.094,0.107,0.125,0.236,0.224,0.343c9.989,9.999,22.618,15.158,36.548,15.158c5.159,0,10.494-0.71,15.945-2.148
	c2.778-0.731,4.95-2.896,5.688-5.686c5.319-20.144,0.694-38.79-13.013-52.505c-0.063-0.063-0.152-0.087-0.215-0.146
	c-0.063-0.07-0.078-0.156-0.146-0.215L318.613,278.406l167.603-167.685c0.129-0.113,0.288-0.152,0.409-0.273
	C492.67,104.412,496,96.386,496,87.85c0.008-8.54-3.322-16.573-9.375-22.618c-0.082-0.074-0.176-0.097-0.25-0.167l-61.82-61.911
	c-1.561-1.568-3.609-2.34-5.652-2.34c-0.81,0-1.594,0.214-2.375,0.46c-0.199,0.066-0.432,0.043-0.628,0.129
	c-0.113,0.039-0.188,0.144-0.289,0.191c-0.848,0.386-1.661,0.862-2.355,1.56c0,0,0,0.008-0.008,0.008l-16.98,16.978
	c-3.124,3.12-3.124,8.169,0,11.293l56.408,56.4l-5.646,5.643l-56.418-56.408c-3.122-3.12-8.168-3.12-11.293,0
	c-3.123,3.124-3.123,8.182,0,11.293l56.417,56.408l-5.646,5.655l-56.416-56.409c-3.123-3.12-8.17-3.12-11.293,0
	c-3.124,3.124-3.124,8.178,0,11.293l56.416,56.409l-5.654,5.654l-56.407-56.408c-3.125-3.124-8.17-3.124-11.295,0
	c-3.123,3.124-3.123,8.169,0,11.293l56.408,56.409l-5.652,5.654l-56.408-56.424c-3.124-3.124-8.17-3.124-11.294,0
	c-3.119,3.116-3.119,8.17,0,11.293l56.407,56.424l-5.646,5.646l-56.416-56.408c-3.119-3.124-8.17-3.124-11.293,0
	c-3.12,3.124-3.12,8.178,0,11.293l56.42,56.408l-5.646,5.655l-56.42-56.409c-3.119-3.124-8.17-3.124-11.289,0
	c-3.125,3.12-3.125,8.178,0,11.293l56.416,56.409l-5.646,5.654l-56.416-56.42c-3.124-3.12-8.17-3.12-11.294,0
	c-3.123,3.124-3.123,8.173,0,11.293l56.416,56.417l-5.646,5.646l-56.395-56.408l-0.018-0.016c-3.121-3.124-8.17-3.124-11.293,0
	c-0.055,0.059-0.068,0.128-0.129,0.183c-12.292,12.475-12.264,32.609,0.129,45.021l39.521,39.5l-9.836,9.838L185.14,144.917
	c10.389-3.49,19.931-9.289,27.902-17.26c28.019-28.027,28.019-73.629,0-101.652c-13.575-13.578-31.634-21.054-50.824-21.054
	c-19.19,0-37.249,7.476-50.828,21.054c-19.642,19.65-25.464,47.923-17.556,72.736c-7.012-2.234-14.382-3.443-21.955-3.443
	c-19.198,0-37.25,7.476-50.816,21.054C7.483,129.931,0,147.979,0,167.176c0,19.202,7.483,37.25,21.062,50.828
	C34.621,231.571,52.672,239.047,71.871,239.047z M236.014,263.479l-92.449-92.447c0.063-1.287,0.183-2.566,0.183-3.861
	c0-2.546-0.16-5.078-0.417-7.577l98.291,98.279L236.014,263.479z M127.089,447.416c-1.021,1.021-2.211,1.174-2.827,1.174
	c-0.616,0-1.813-0.159-2.827-1.166c-1.548-1.56-1.548-4.09,0-5.639c0,0,0,0,0-0.008h0.008L256.564,306.62l5.633,5.631
	L127.089,447.416z M272.02,189.556c-4.16-4.161-5.479-10.065-4.064-15.392L322.773,229c1.558,1.556,3.604,2.34,5.646,2.34
	c2.044,0,4.088-0.784,5.646-2.34l16.914-16.917c0.013-0.008,0.021-0.008,0.026-0.016c0.007-0.008,0.007-0.016,0.015-0.023
	l67.72-67.717c0.016-0.016,0.03-0.016,0.047-0.031c0.016-0.015,0.016-0.031,0.031-0.047l16.885-16.885
	c0.008-0.008,0.016-0.008,0.021-0.016c0.009-0.008,0.01-0.016,0.018-0.023l33.86-33.864c3.122-3.12,3.122-8.17,0-11.293
	l-56.408-56.397l5.688-5.689l56.391,56.475c0.059,0.047,0.129,0.063,0.18,0.117c2.942,3.014,4.565,6.965,4.565,11.168
	c0,4.169-1.614,8.08-4.506,11.075c-0.081,0.074-0.183,0.097-0.265,0.175l-167.931,168.02l-5.615-5.621l15.384-15.396
	c0.813-0.815,1.39-1.759,1.778-2.757c1.193-2.89,0.624-6.341-1.731-8.688L272.02,189.556z M301.665,284.045
	C301.673,284.045,301.673,284.053,301.665,284.045c0.008,0.008,0.017,0.008,0.017,0.016l123.325,123.326
	c0.066,0.063,0.152,0.09,0.219,0.146c0.063,0.068,0.077,0.159,0.146,0.214c10.436,10.447,11.477,22.739,9.862,32.457
	c-9.724,1.599-22.012,0.577-32.448-9.87c-0.023-0.023-0.066-0.031-0.09-0.055c-0.096-0.113-0.129-0.241-0.225-0.345L247.308,274.779
	l10.872-10.861c0.146-0.128,0.328-0.167,0.461-0.313c3.123-3.123,3.123-8.168,0-11.293L154.633,148.298
	c2.5,0.266,5.034,0.414,7.581,0.414c1.326,0,2.628-0.117,3.939-0.191L301.665,284.045z M122.679,37.302
	c10.561-10.56,24.599-16.375,39.535-16.375s28.975,5.814,39.535,16.375c21.795,21.795,21.795,57.263,0,79.058
	c-10.56,10.556-24.599,16.371-39.535,16.371c-14.854,0-28.822-5.764-39.367-16.218c-0.055-0.055-0.102-0.113-0.16-0.168
	c-0.054-0.055-0.109-0.097-0.167-0.152C100.892,94.389,100.942,59.051,122.679,37.302z M32.344,127.646
	c10.552-10.56,24.591-16.375,39.527-16.375c14.861,0,28.822,5.768,39.367,16.222c0.055,0.047,0.094,0.113,0.148,0.168
	c0.058,0.055,0.121,0.094,0.167,0.152c10.455,10.541,16.223,24.509,16.223,39.363c0,14.936-5.822,28.97-16.378,39.535
	c-10.553,10.556-24.591,16.371-39.527,16.371s-28.975-5.822-39.527-16.371c-10.557-10.557-16.378-24.599-16.378-39.535
	C15.965,152.245,21.787,138.202,32.344,127.646z"/>
<path fill="#E82264" d="M71.871,215.08c12.81,0,24.829-4.984,33.88-14.023c18.679-18.679,18.679-49.084,0-67.764
	c-9.051-9.051-21.078-14.027-33.88-14.027c-12.803,0-24.829,4.984-33.88,14.027c-18.679,18.688-18.679,49.085,0,67.764
	C47.042,210.104,59.068,215.08,71.871,215.08z M49.284,144.585c6.029-6.033,14.05-9.347,22.587-9.347
	c8.536,0,16.554,3.322,22.586,9.347c12.459,12.456,12.459,32.726,0,45.178c-12.062,12.062-33.112,12.062-45.173,0
	C36.832,177.304,36.832,157.041,49.284,144.585z"/>
<path fill="#E82264" d="M275.838,288.541c4.406,0,7.986-3.572,7.986-7.986c0-4.418-3.58-7.986-7.986-7.986h-0.09
	c-4.406,0-7.936,3.568-7.936,7.986C267.813,284.969,271.428,288.541,275.838,288.541z"/>
</svg>
