<?xml version="1.0" encoding="utf-8"?>
<!-- Generator: Adobe Illustrator 16.0.0, SVG Export Plug-In . SVG Version: 6.00 Build 0)  -->
<!DOCTYPE svg PUBLIC "-//W3C//DTD SVG 1.1//EN" "http://www.w3.org/Graphics/SVG/1.1/DTD/svg11.dtd">
<svg version="1.1" id="Layer_1" xmlns="http://www.w3.org/2000/svg" xmlns:xlink="http://www.w3.org/1999/xlink" x="0px" y="0px"
	 width="511px" height="511px" viewBox="0 0 511 511" enable-background="new 0 0 511 511" xml:space="preserve">
<path fill="#E82264" d="M243.474,272.5h12.187c4.137,0,7.485-3.35,7.485-7.484c0-4.138-3.351-7.484-7.485-7.484h-10.378v-18.156
	c0-4.136-3.353-7.485-7.485-7.485c-4.137,0-7.485,3.349-7.485,7.485V259.4C230.313,266.625,236.219,272.5,243.474,272.5z"/>
<path fill="#E82264" d="M216.757,216.313c-2.912-2.928-7.653-2.944-10.585-0.031c-9.863,9.801-25.91,9.801-35.77,0
	c-2.932-2.913-7.672-2.897-10.585,0.031c-2.916,2.936-2.9,7.672,0.031,10.588c7.84,7.793,18.137,11.688,28.437,11.688
	c10.3,0,20.6-3.899,28.44-11.688C219.657,223.985,219.673,219.249,216.757,216.313z"/>
<path fill="#E82264" d="M305.174,238.59c10.297,0,20.602-3.895,28.441-11.688c2.932-2.916,2.943-7.653,0.031-10.584
	c-2.914-2.932-7.654-2.948-10.586-0.035c-9.863,9.805-25.91,9.805-35.773,0c-2.932-2.913-7.672-2.897-10.589,0.035
	c-2.912,2.932-2.896,7.668,0.034,10.584C284.574,234.695,294.87,238.59,305.174,238.59z"/>
<path fill="#E82264" d="M207.077,289.132c-2.917,2.933-2.901,7.673,0.031,10.585c10.858,10.791,25.127,16.185,39.427,16.185
	c14.4,0,28.826-5.468,39.82-16.392c2.933-2.916,2.942-7.656,0.03-10.589c-2.911-2.933-7.651-2.942-10.585-0.03
	c-16.09,15.992-42.172,16.086-58.141,0.211C214.729,286.184,209.989,286.199,207.077,289.132z"/>
<path fill="#E82264" d="M414.578,171.529c12.834,5.099,15.762,8.023,20.855,20.854c1.583,3.988,5.376,6.565,9.665,6.565
	c4.288,0,8.078-2.577,9.66-6.563c5.104-12.834,8.027-15.758,20.858-20.856c3.988-1.583,6.562-5.376,6.562-9.665
	c0-4.289-2.571-8.082-6.558-9.665c-12.835-5.1-15.759-8.023-20.862-20.87c-1.586-3.977-5.38-6.546-9.66-6.546
	c-4.283,0-8.077,2.569-9.659,6.554c-5.102,12.838-8.027,15.762-20.857,20.862c-3.984,1.583-6.563,5.376-6.563,9.665
	C408.021,166.157,410.598,169.946,414.578,171.529z M445.101,146.161c3.938,7.236,8.47,11.766,15.707,15.704
	c-7.237,3.938-11.77,8.468-15.707,15.704c-3.938-7.236-8.464-11.762-15.704-15.704C436.637,157.927,441.163,153.396,445.101,146.161
	z"/>
<path fill="#E82264" d="M31.38,171.829c12.834,5.104,15.762,8.027,20.857,20.858c1.579,3.988,5.373,6.562,9.665,6.562
	c4.285,0,8.078-2.569,9.661-6.554c5.1-12.838,8.023-15.762,20.862-20.866c3.984-1.583,6.557-5.372,6.557-9.661
	s-2.573-8.082-6.557-9.661c-12.838-5.104-15.762-8.027-20.862-20.866c-1.583-3.984-5.376-6.558-9.661-6.558
	c-4.292,0-8.086,2.577-9.661,6.558c-5.099,12.838-8.027,15.762-20.865,20.866c-3.98,1.583-6.554,5.376-6.554,9.661
	S27.396,170.247,31.38,171.829z M61.903,146.465c3.938,7.236,8.468,11.766,15.704,15.704c-7.236,3.938-11.766,8.468-15.704,15.704
	c-3.938-7.236-8.468-11.766-15.704-15.704C53.435,158.231,57.965,153.701,61.903,146.465z"/>
<path fill="#E82264" d="M79.435,57.716C89.462,61.7,91.571,63.81,95.556,73.837c1.501,3.774,5.092,6.214,9.154,6.214
	c4.058,0,7.649-2.437,9.146-6.21c3.988-10.031,6.098-12.141,16.125-16.125c3.774-1.497,6.21-5.087,6.21-9.15
	c0-4.055-2.433-7.646-6.21-9.15c-10.027-3.988-12.137-6.097-16.121-16.121c-1.501-3.774-5.092-6.214-9.15-6.214
	c-4.063,0-7.653,2.437-9.15,6.21c-3.984,10.027-6.098,12.136-16.136,16.128c-3.766,1.501-6.199,5.092-6.199,9.146
	C73.224,52.628,75.665,56.219,79.435,57.716z M104.706,38.671c2.627,4.234,5.665,7.271,9.895,9.895
	c-4.23,2.624-7.267,5.661-9.895,9.891c-2.624-4.23-5.657-7.267-9.891-9.891C99.049,45.938,102.082,42.905,104.706,38.671z"/>
<path fill="#E82264" d="M507.19,435.272l-4.884-4.853c-2.932-2.912-7.672-2.898-10.584,0.031c-2.917,2.933-2.899,7.673,0.031,10.585
	l3.419,3.397l-33.526,33.33l-33.666-33.462c-1.896-1.887-4.654-2.61-7.239-1.914c-3.454,0.939-7.021,1.419-10.604,1.419
	c-10.628,0-20.619-4.107-28.125-11.569l-71.794-71.369c-0.575-0.572-0.881-1.302-0.881-2.104c0-0.804,0.306-1.53,0.881-2.104
	c1.179-1.17,3.189-1.17,4.359-0.004l40.688,40.447c2.92,2.899,7.635,2.899,10.555-0.005l6.098-6.064
	c1.415-1.403,2.206-3.313,2.206-5.308c0-1.991-0.791-3.9-2.206-5.311l-54.24-53.917c-0.578-0.577-0.886-1.306-0.886-2.109
	c0-0.803,0.308-1.53,0.882-2.104c1.178-1.17,3.186-1.174,4.361,0.004l54.25,53.918c2.916,2.904,7.634,2.9,10.554,0l6.103-6.066
	c1.41-1.401,2.205-3.315,2.205-5.306c0-1.996-0.795-3.907-2.205-5.311l-54.246-53.924c-0.576-0.572-0.881-1.303-0.881-2.104
	s0.305-1.532,0.881-2.104c1.179-1.176,3.183-1.17,4.361,0l54.246,53.923c2.92,2.898,7.635,2.902,10.556,0l6.102-6.066
	c1.415-1.403,2.211-3.314,2.211-5.312c0-1.991-0.796-3.901-2.207-5.307l-40.688-40.439c-0.574-0.572-0.881-1.301-0.881-2.108
	c0-0.804,0.311-1.532,0.881-2.103c1.18-1.172,3.188-1.172,4.367,0l52.167,51.859c2.146,2.132,5.361,2.766,8.152,1.604
	c2.791-1.161,4.608-3.889,4.608-6.912v-18.727c0.004-3.143,2.597-5.704,5.785-5.704c3.186,0,5.78,2.56,5.78,5.704v46.963
	c0,1.39,0.382,2.744,1.11,3.928c5.685,9.233,7.283,20.554,4.387,31.053c-0.718,2.604,0.023,5.392,1.941,7.298l5.224,5.193
	c2.935,2.916,7.669,2.898,10.585-0.031c2.912-2.932,2.9-7.673-0.031-10.585l-2.271-2.261c2.351-12.495,0.245-25.528-5.974-36.624
	v-44.934c0-11.398-9.312-20.675-20.758-20.675c-11.438,0.005-20.748,9.274-20.752,20.675v0.729l-23.884-23.742
	c0.41-2.608,0.628-5.274,0.628-7.996c0-8.998-2.304-17.467-6.356-24.856c2.515-4.151,3.969-9.002,3.969-14.188v-24.479
	c0-10.69-6.164-19.98-15.162-24.597v-29.205c0-36.62-14.386-67.622-41.606-89.657c-6.816-5.521-14.369-10.363-22.514-14.495
	c-3.837-38.316-36.434-68.339-75.946-68.339c-39.517,0-72.109,30.023-75.949,68.339c-8.145,4.132-15.696,8.975-22.511,14.495
	c-27.221,22.035-41.61,53.037-41.61,89.657v29.205c-8.994,4.62-15.158,13.911-15.158,24.597v24.479
	c0,7.833,3.318,14.899,8.62,19.946l-2.624,39.785c-2.479,0.442-4.76,1.612-6.573,3.419l-10.008,9.947
	c-2.367,2.354-3.669,5.485-3.669,8.827c0,2.951,1.021,5.738,2.889,7.975L4.803,424.5C1.704,427.654,0,431.822,0,436.251
	c0,4.499,1.762,8.729,4.959,11.906c3.181,3.166,7.416,4.908,11.911,4.908c4.429,0,8.592-1.688,11.762-4.762l83.403-74.937
	c2.253,1.911,5.08,2.964,8.078,2.964c3.333,0,6.464-1.291,8.815-3.63l10.012-9.949c1.817-1.81,2.998-4.082,3.454-6.55l43.279-2.823
	c1.248-0.081,2.444-0.343,3.571-0.748c6.409,2.977,13.166,5.317,20.191,6.979v13.904h-49.872c-44.768,0-81.189,36.229-81.189,80.753
	v26.595c0,7.002,5.7,12.7,12.706,12.7h311.291c7.01,0,12.71-5.698,12.71-12.7V458.55c1.766-0.155,3.528-0.394,5.271-0.721
	l32.168,31.973c2.44,2.425,5.687,3.764,9.127,3.764c3.446,0,6.688-1.339,9.128-3.764l36.413-36.199
	c2.426-2.407,3.813-5.75,3.813-9.166C511.003,441.026,509.611,437.682,507.19,435.272z M284.023,359.615
	c3.57-0.838,7.07-1.859,10.492-3.055c-0.086,0.728-0.148,1.458-0.148,2.203c0,4.809,1.883,9.325,5.299,12.727l2.042,2.025h-17.685
	V359.615z M388.195,283.357c-3.403-3.385-7.926-5.248-12.736-5.248c-4.807,0-9.33,1.863-12.736,5.252
	c-3.066,3.053-4.896,7.006-5.234,11.26l-3.875-3.848c-3.404-3.391-7.928-5.252-12.733-5.252s-9.329,1.867-12.735,5.252
	c-3.416,3.396-5.295,7.914-5.295,12.725c0,1.088,0.099,2.164,0.283,3.217c-1.066-0.194-2.162-0.293-3.273-0.293
	c-0.568,0-1.135,0.027-1.695,0.082c-2.257-4.771-3.516-10.098-3.516-15.707c0-20.461,16.76-37.1,37.363-37.1
	c18.223,0,33.432,13.018,36.705,30.18L388.195,283.357z M386.986,251.748c0,0.113-0.012,0.226-0.012,0.339
	c-6.146-5.497-13.592-9.575-21.82-11.7v-25.859h8.748c7.217,0,13.084,5.715,13.084,12.741V251.748z M246.729,15.946
	c28.753,0,52.947,19.75,59.563,46.312c-18.074-6.522-38.293-9.965-59.563-9.965c-21.271,0-41.489,3.442-59.567,9.965
	C193.782,35.696,217.977,15.946,246.729,15.946z M106.472,227.268c0-7.025,5.871-12.741,13.083-12.741h8.749v39.704
	c-6.023,0.144-12.109,0.975-18.121,2.484c-0.795,0.198-1.556,0.475-2.277,0.807c-0.913-1.733-1.435-3.69-1.435-5.772
	L106.472,227.268L106.472,227.268z M18.503,437.276c-0.094,0.086-0.183,0.171-0.273,0.261c-0.464,0.46-0.994,0.558-1.36,0.558
	c-0.363,0-0.893-0.098-1.357-0.558c-0.448-0.44-0.542-0.943-0.542-1.286s0.094-0.846,0.542-1.291
	c0.09-0.085,0.175-0.179,0.261-0.272l74.955-82.433l10.64,10.573L18.503,437.276z M120.113,360.355l-26.842-26.684l6.468-6.429
	l26.842,26.682L120.113,360.355z M183.303,338.531l-47.833,3.119l-0.756-0.753l26.815-15.846c3.559-2.102,4.741-6.688,2.635-10.249
	c-2.102-3.56-6.69-4.739-10.25-2.64l-30.023,17.738l17.801-29.771c2.121-3.552,0.967-8.146-2.585-10.269
	c-3.548-2.121-8.14-0.965-10.265,2.584l-15.98,26.729l-0.815-0.813l3.131-47.454c5.014-1.153,10.063-1.739,15.029-1.739
	c15.263,0,29.205,5.51,39.263,15.506C182.936,298.061,188.059,318.106,183.303,338.531z M180.024,274.061
	c-9.899-9.842-22.647-16.27-36.749-18.726v-69.419h29.388c4.137,0,7.485-3.349,7.485-7.485c0-4.133-3.349-7.485-7.485-7.485H141.95
	c-7.524,0-13.646,6.104-13.646,13.61v15.002h-6.674v-26.09c0-31.946,12.468-58.924,36.059-78.023
	c22.448-18.172,54.07-28.184,89.041-28.184s66.593,10.012,89.042,28.184c23.586,19.099,36.056,46.078,36.056,78.023v26.09h-6.671
	v-15.002c0-7.505-6.121-13.61-13.646-13.61h-32.113c-13.428,0-26.227-7.08-33.396-18.468c-2.506-4-6.826-6.382-11.56-6.382
	c-4.729,0-9.053,2.382-11.561,6.375c-7.17,11.396-19.965,18.479-33.396,18.479h-21.891c-4.132,0-7.485,3.349-7.485,7.485
	c0,4.132,3.353,7.485,7.485,7.485h21.891c17.852,0,34.889-9.061,44.957-23.782c10.065,14.717,27.104,23.782,44.955,23.782h30.787
	v52.85c-28.017,0.967-50.512,23.925-50.512,52.028c0,8.327,1.989,16.198,5.501,23.188c-2.164,3.018-3.349,6.614-3.349,10.403
	c0,3.932,1.277,7.657,3.605,10.749c-13.438,7.832-29.08,12.335-45.773,12.335H233.81c-12.62,0-24.64-2.575-35.56-7.212
	C203.529,315.311,196.838,290.773,180.024,274.061z M209.833,388.488c8.039,0,14.573-6.521,14.573-14.53v-11.934
	c3.1,0.271,6.234,0.421,9.404,0.421h25.848c3.166,0,6.3-0.146,9.396-0.421v11.934c0,8.012,6.539,14.53,14.578,14.53h1.773
	l-38.675,59.213l-38.674-59.213H209.833z M93.345,478.594v-24.321c0-36.273,29.704-65.782,66.218-65.782h0.807l58.85,90.104H93.345
	L93.345,478.594z M274.234,478.594l16.734-25.626c2.264-3.462,1.287-8.097-2.171-10.356c-3.462-2.263-8.102-1.286-10.36,2.172
	l-17.084,26.16c-2.651,4.062-6.877,6.829-11.653,7.65h-5.945c-4.772-0.82-8.998-3.591-11.649-7.65L178.25,388.49h11.922
	l50.289,76.998c1.384,2.111,3.739,3.389,6.269,3.389c2.526,0,4.885-1.275,6.265-3.389l50.289-76.998h11.922l-17.863,27.35
	c-2.262,3.462-1.286,8.103,2.177,10.362c3.457,2.261,8.099,1.286,10.357-2.176l16.788-25.699l44.795,44.53
	c7.926,7.879,17.858,13.027,28.651,15.006v20.73H274.234L274.234,478.594z"/>
</svg>
