<?xml version="1.0" encoding="utf-8"?>
<!-- Generator: Adobe Illustrator 16.0.0, SVG Export Plug-In . SVG Version: 6.00 Build 0)  -->
<!DOCTYPE svg PUBLIC "-//W3C//DTD SVG 1.1//EN" "http://www.w3.org/Graphics/SVG/1.1/DTD/svg11.dtd">
<svg version="1.1" id="Layer_1" xmlns="http://www.w3.org/2000/svg" xmlns:xlink="http://www.w3.org/1999/xlink" x="0px" y="0px"
	 width="512px" height="512px" viewBox="0 0 512 512" enable-background="new 0 0 512 512" xml:space="preserve">
<path id="Shape" fill="#E82264" d="M30.208,468.207c41.668,26.078,114.21,37.367,163.396,41.31
	c80.496,6.46,220.561,1.009,288.188-41.31c2.62-1.636,4.151-4.56,4.005-7.645c-0.146-3.087-1.949-5.852-4.713-7.229
	c-7.186-3.566-29.192-15.633-40.056-21.837c-56.942-33.177-45.509-0.69-108.229-59.732v-49.622
	c16.214-15.357,25.651-28.833,26.743-52.54c17.735-8.949,29.692-26.315,31.728-46.08c1.812-9.147,5.734-35.157-4.521-47.206
	c13.087-29.538,14.985-62.828,5.342-93.662c-13.518-40.567-60.383-53.658-72.19-56.32C300.006,7.68,271.301,0,221.867,0
	c-31.784-0.059-61.82,14.536-81.417,39.561c-30.379,37.052-43.58,94.319-14.174,135.68c-11.452,11.494-7.381,38.869-5.547,48.281
	c2.062,19.74,13.99,37.089,31.685,46.08c1.032,23.621,10.368,37.021,26.786,52.574v49.622
	c-63.062,59.34-50.893,26.291-108.169,59.665c-10.88,6.212-33.126,18.397-40.106,21.87c-2.765,1.378-4.569,4.142-4.717,7.228
	C26.059,463.646,27.589,466.57,30.208,468.207L30.208,468.207z M432.504,446.293c8.798,5.035,17.731,9.934,26.7,14.78
	c-33.86,14.227-69.591,23.51-106.095,27.563c14.938-17.617,24.801-38.969,28.525-61.765
	C396.382,431.897,403.183,429.227,432.504,446.293z M374.298,221.688c-1.194,10.978-6.589,21.068-15.054,28.16
	c-0.971-11.15-0.162-22.384,2.398-33.28c2.313-12.023-1.555-0.691,14.268-22.955C376.702,203,376.159,212.453,374.298,221.688z
	 M153.643,50.347c16.412-20.997,41.574-33.271,68.224-33.28c81.135,0,82.219,23.612,92.339,25.464
	c0.495,0.094,49.681,9.429,61.704,45.5c8.021,24.09,7.424,64-7.543,86.434c-4.814,7.619-10.188,14.87-16.077,21.692
	c-5.8-8.208-9.636-17.638-11.213-27.563c-4.796-25.817-22.634-47.303-47.13-56.764c-3.191-1.592-7.038-1.031-9.645,1.408
	c-18.088,15.656-37.604,29.578-58.299,41.583c-21.413,13.468-45.656,21.789-70.827,24.312c-4.668-2.27-20.949-12.339-27.307-44.271
	C123.597,113.689,131.106,77.875,153.643,50.347L153.643,50.347z M137.711,221.705c-0.025-0.362-0.077-0.721-0.153-1.075
	c-2.987-15.087-2.202-30.336,0.23-32.785c2.805,2.367,5.851,4.432,9.088,6.161c3.106,27.802,7.125,28.706,5.879,55.791
	C144.321,242.71,138.935,232.652,137.711,221.705L137.711,221.705z M169.736,252.629c1.502-30.72-2.372-32.273-5.538-57.242
	c25.039-3.807,49.05-12.63,70.597-25.941c19.912-11.708,38.852-24.998,56.637-39.74c17.596,7.836,30.045,24.03,33.092,43.051
	c5.486,21.956,12.102,34.475,20.615,39.253c-3.105,13.261-4.084,26.932-2.893,40.499c1.05,23.04,0.521,37.437-19.37,55.467
	c-28.954,26.302-29.185,50.426-52.369,50.426c-40.508,0-40.107,3.53-56.32-20.269c-6.123-9.333-13.127-18.057-20.915-26.053
	C172.374,291.217,168.175,285.184,169.736,252.629z M179.2,394.905V409.6c0,4.715,3.82,8.534,8.533,8.534s8.533-3.821,8.533-8.534
	V342.24c12.57,17.868,20.634,33.229,45.227,33.229c46.934,0,48.29,3.723,74.239-33.221V409.6c0,4.715,3.819,8.534,8.533,8.534
	c4.713,0,8.532-3.821,8.532-8.534v-14.692c10.017,9.422,21.003,17.755,32.776,24.856c-3.123,19.475-13.799,61.229-48.708,72.766
	c-40.483,3.204-81.158,3.204-121.643,0c-34.987-11.503-45.679-53.282-48.793-72.772C158.201,412.651,169.185,404.322,179.2,394.905
	L179.2,394.905z M79.556,446.242c29.125-16.956,36.182-14.379,50.808-19.371c3.729,22.795,13.591,44.146,28.527,61.765
	c-36.503-4.063-72.234-13.351-106.095-27.58C61.773,456.209,70.693,451.271,79.556,446.242L79.556,446.242z"/>
</svg>
