<?xml version="1.0" encoding="utf-8"?>
<!-- Generator: Adobe Illustrator 16.0.0, SVG Export Plug-In . SVG Version: 6.00 Build 0)  -->
<!DOCTYPE svg PUBLIC "-//W3C//DTD SVG 1.1//EN" "http://www.w3.org/Graphics/SVG/1.1/DTD/svg11.dtd">
<svg version="1.1" id="Layer_1" xmlns="http://www.w3.org/2000/svg" xmlns:xlink="http://www.w3.org/1999/xlink" x="0px" y="0px"
	 width="512px" height="512px" viewBox="0 0 512 512" enable-background="new 0 0 512 512" xml:space="preserve">
<g id="Outline">
	<path fill="#E82264" d="M128,360h64v16h-64V360z"/>
	<path fill="#E82264" d="M112,392h96v16h-96V392z"/>
	<path fill="#E82264" d="M128,424h64v16h-64V424z"/>
	<path fill="#E82264" d="M425.538,182.464c-1.245-1.245-2.512-2.442-3.786-3.592c-1.654-38.521-34.225-68.409-72.745-66.754
		c-36.209,1.555-65.207,30.559-66.755,66.768c-7.045,6.361-13.186,13.655-18.252,21.68V160
		c0.078-27.597-10.892-54.078-30.462-73.536c-1.245-1.245-2.512-2.442-3.786-3.592c-1.654-38.522-34.224-68.409-72.746-66.754
		C120.798,17.673,91.8,46.677,90.252,82.886C68.424,102.576,55.975,130.603,56,160v336h16V160
		c-0.017-19.721,6.61-38.872,18.81-54.366l3.265,94.675c1.252,36.409,31.783,64.91,68.192,63.658
		c34.651-1.191,62.465-29.007,63.657-63.658l3.264-94.664C241.419,121.118,248.05,140.277,248,160v336h16V256
		c-0.018-19.721,6.609-38.872,18.811-54.366l3.268,94.675c1.253,36.41,31.781,64.91,68.189,63.657
		c34.651-1.188,62.469-29.006,63.657-63.657l3.268-94.664C433.419,217.118,440.05,236.277,440,256v240h16V256
		C456.078,228.403,445.108,201.922,425.538,182.464z M160,248c-13.917,0.046-27.218-5.734-36.68-15.94
		C133.5,226.888,146.422,224,160,224s26.5,2.888,36.68,8.06C187.218,242.266,173.917,248.046,160,248z M213.8,87.687l-3.864,112.071
		c-0.214,6.528-1.699,12.951-4.373,18.91C192.842,211.832,176.729,208,160,208s-32.842,3.832-45.562,10.668
		c-2.674-5.959-4.159-12.382-4.373-18.91L106.2,87.687c-1.009-29.713,22.26-54.618,51.973-55.626
		c29.713-1.009,54.618,22.26,55.626,51.973C213.841,85.251,213.841,86.47,213.8,87.687z M352,344
		c-13.917,0.047-27.219-5.734-36.68-15.94C325.5,322.888,338.422,320,352,320s26.5,2.888,36.68,8.06
		C379.219,338.266,365.917,344.047,352,344z M405.8,183.687l-3.864,112.071c-0.214,6.527-1.696,12.951-4.373,18.91
		C384.842,307.832,368.729,304,352,304s-32.842,3.832-45.563,10.668c-2.674-5.959-4.158-12.383-4.373-18.91L298.2,183.687
		c-1.009-29.713,22.261-54.618,51.974-55.626c29.713-1.008,54.617,22.26,55.626,51.973
		C405.842,181.251,405.842,182.47,405.8,183.687L405.8,183.687z"/>
	<path fill="#E82264" d="M320,432h64v16h-64V432z"/>
	<path fill="#E82264" d="M304,464h96v16h-96V464z"/>
</g>
</svg>
