<?xml version="1.0" encoding="utf-8"?>
<!-- Generator: Adobe Illustrator 16.0.0, SVG Export Plug-In . SVG Version: 6.00 Build 0)  -->
<!DOCTYPE svg PUBLIC "-//W3C//DTD SVG 1.1//EN" "http://www.w3.org/Graphics/SVG/1.1/DTD/svg11.dtd">
<svg version="1.1" id="Capa_1" xmlns="http://www.w3.org/2000/svg" xmlns:xlink="http://www.w3.org/1999/xlink" x="0px" y="0px"
	 width="1280px" height="800px" viewBox="0 0 1280 800" enable-background="new 0 0 1280 800" xml:space="preserve">
<g>
	<g>
		<path fill="#444444" d="M1029.557,10.423c-0.039-0.038-0.082-0.07-0.119-0.108C1022.82,3.758,1013.701,0,1004.394,0h-0.047
			c-8.045,0-15.92,2.766-22.17,7.78C897.1,75.733,811.709,145.874,728.367,216.249c-20.266,17.111-40.549,34.356-60.813,51.697
			L436.183,36.577c-22.847-22.844-60.019-22.841-82.864,0L243.433,146.464c-4.576,4.578-4.576,11.997,0,16.574
			c4.577,4.575,11.997,4.575,16.572,0l76.742-76.741l16.77,16.771l-76.741,76.74c-4.576,4.578-4.576,11.997,0,16.574
			c2.288,2.288,5.288,3.431,8.286,3.431s5.999-1.144,8.286-3.431l76.742-76.741l16.77,16.771l-76.742,76.74
			c-4.577,4.578-4.577,11.997,0,16.574c2.288,2.288,5.288,3.431,8.286,3.431s5.999-1.144,8.286-3.431l76.742-76.742l16.771,16.77
			l-76.741,76.741c-4.577,4.578-4.577,11.997,0,16.574c2.288,2.287,5.288,3.431,8.286,3.431s5.999-1.144,8.286-3.431l76.741-76.741
			l16.77,16.77l-76.74,76.741c-4.577,4.578-4.577,11.997,0,16.574c2.288,2.287,5.288,3.431,8.286,3.431
			c2.998,0,5.998-1.144,8.286-3.431l76.741-76.741l16.771,16.77l-76.741,76.741c-4.576,4.578-4.576,11.996,0,16.573
			c2.288,2.287,5.288,3.431,8.286,3.431c2.999,0,5.999-1.144,8.286-3.431l76.74-76.741l16.771,16.77l-76.74,76.741
			c-4.577,4.578-4.577,11.996,0,16.573c2.287,2.287,5.287,3.431,8.286,3.431c2.998,0,5.998-1.144,8.285-3.431l76.741-76.741
			l16.771,16.772l-76.74,76.74c-4.577,4.578-4.577,11.997,0,16.573c2.287,2.288,5.287,3.432,8.286,3.432
			c2.998,0,5.998-1.144,8.285-3.432l76.742-76.742l17.361,17.361c-35.982,31.336-71.779,62.857-107.174,94.419
			c-0.016,0-0.016,0-0.016,0.017c-10.514,9.352-21.982,20.124-33.297,30.327c-6.931,5.014-5.61,13.828-2.172,17.267
			c0,0,0,0.016,0.016,0.016c11.281,13.656,17.516,31.094,17.516,49.124c0,21.078-8.109,40.797-22.842,55.516
			c-0.148,0.148-35.19,35.192-35.344,35.344c-50.961,52.148-140.706,16.563-140.758-57.294
			c0.031-44.839,36.245-81.873,81.999-81.906c24.92,0.016,48.186,11.109,63.827,30.406c4.242,5.229,12.031,5.794,16.969,1.313
			c0.063-0.047,0.109-0.094,0.172-0.156l0.109-0.096c5.489-4.934,5.102-13.826-1.031-18.219
			c-20.031-23.313-49.172-36.686-79.967-36.686h-0.156c-58.591,0-105.425,47.711-105.356,105.344
			c-0.051,43.428,26.488,81.787,65.749,97.734c23.313,9.44,48.85,10.091,71.919,2.695C355.681,730.627,406.854,800,477.979,800
			h0.125c58.119,0,105.484-47.05,105.421-105.406c0.031-27.734-10.656-53.906-30.047-73.721
			c0.011-0.012,23.928-27.201,23.928-27.201c42.219-46.979,83.979-94.174,125.234-141.481l17.656,17.656l-76.74,76.741
			c-4.577,4.578-4.577,11.996,0,16.573c2.289,2.287,5.289,3.431,8.287,3.431s5.998-1.144,8.287-3.431l76.741-76.741l16.771,16.771
			l-76.741,76.741c-4.576,4.578-4.576,11.996,0,16.573c2.289,2.287,5.289,3.431,8.288,3.431c2.998,0,5.998-1.144,8.287-3.431
			l76.74-76.741l16.77,16.769l-76.741,76.741c-4.576,4.578-4.576,11.997,0,16.573c2.289,2.287,5.289,3.432,8.288,3.432
			c2.998,0,5.998-1.144,8.287-3.432l76.74-76.74l16.77,16.769l-76.741,76.742c-4.576,4.578-4.576,11.997,0,16.573
			c2.289,2.287,5.289,3.432,8.288,3.432c2.998,0,5.998-1.145,8.287-3.432l76.74-76.742l16.771,16.771l-76.74,76.74
			c-4.577,4.578-4.577,11.997,0,16.573c2.289,2.288,5.289,3.432,8.287,3.432c2.999,0,5.999-1.144,8.288-3.432l76.74-76.74
			l16.769,16.769l-76.74,76.741c-4.577,4.578-4.577,11.996,0,16.573c2.289,2.287,5.289,3.431,8.287,3.431s5.998-1.144,8.287-3.431
			l76.741-76.741l16.769,16.77l-76.74,76.74c-4.577,4.578-4.577,11.997,0,16.573c2.289,2.288,5.289,3.432,8.287,3.432
			s5.998-1.144,8.287-3.432l76.741-76.74l16.769,16.769l-76.741,76.74c-4.576,4.578-4.576,11.997,0,16.574
			c2.289,2.287,5.289,3.431,8.288,3.431c2.998,0,5.998-1.144,8.287-3.431l85.016-85.018c0.003-0.003,0.008-0.008,0.013-0.011
			s0.008-0.008,0.011-0.013l24.847-24.847c11.067-11.067,17.163-25.781,17.163-41.433c0-15.652-6.096-30.366-17.161-41.434
			L771.8,372.195C861.65,267.38,948.753,162.247,1032.211,57.797C1043.536,43.624,1042.393,23.258,1029.557,10.423z M353.32,69.724
			l16.572-16.572c13.707-13.706,36.011-13.706,49.719,0l230.105,230.108c-14.845,12.753-29.678,25.541-44.48,38.383L353.32,69.724z
			 M986.85,620.391c6.641,6.639,10.299,15.467,10.299,24.857s-3.658,18.219-10.299,24.858l-16.571,16.571
			c-7.744-7.74-235.586-235.584-252.213-252.209c12.859-14.802,25.675-29.612,38.429-44.433L986.85,620.391z M566.494,570.725
			c-5.68-4.348-20.824-11.876-23.343-33.258c-0.703-5.904-5.688-10.344-11.609-10.344c-7.079,0-12.475,6.148-11.672,13.096
			c0.016,0,0.016,0,0.016,0c2.234,19.107,12.609,36,28.453,46.326c0.828,0.549,1.656,1.109,2.516,1.734
			c-8.128,9.273-14.837,17.082-22.531,25.578c-2.141,2.375-3.234,5.577-2.984,8.765c0.234,3.188,1.813,6.188,4.297,8.203
			c19.667,16.055,30.435,39.161,30.453,63.767c-0.032,45.163-36.415,81.938-82.029,81.969c-45.085-0.059-82.03-36.395-82.03-81.969
			c0.054-37.089,23.512-56.951,25.313-59.5l34.766-34.766c19.153-19.152,29.718-45.065,29.718-72.095
			c0.016-19.75-5.641-38.828-16.327-55.14c9.176-8.391,17.155-15.836,26.422-24.095l0.047-0.063
			C750.052,222.384,993.813,27.639,998.394,25.016c-3.142,3.142-460.367,460.17-462.477,462.547
			c-4.297,4.844-3.844,12.266,0.984,16.547c4.854,4.322,12.286,3.815,16.547-0.984c1.401-1.597,458.171-458.198,461.519-461.547
			C1014.01,43.264,825.283,282.311,566.494,570.725z"/>
	</g>
</g>
<g>
	<g>
		<path fill="#444444" d="M386.916,520.432c-36.964-36.963-100.034-10.328-100.031,41.423c0,15.643,6.099,30.354,17.172,41.425
			c11.423,11.422,26.423,17.13,41.43,17.13c15.001,0,30.008-5.711,41.43-17.13C409.786,580.414,409.789,543.299,386.916,520.432z
			 M370.345,586.705c-13.708,13.701-36.011,13.704-49.719,0c-21.953-21.952-6.581-59.98,24.859-59.98
			C377.017,526.727,392.198,564.854,370.345,586.705z"/>
	</g>
</g>
<g>
	<g>
		<path fill="#444444" d="M478.064,636.018c-24.096,0-44.794,13.834-54.02,36.105c-9.27,22.382-4.445,46.867,12.591,63.9
			c11.315,11.313,25.893,17.244,40.945,17.244c7.604,0,15.333-1.516,22.817-4.616c22.364-9.266,36.258-29.978,36.258-54.055
			C536.654,662.297,510.372,636.018,478.064,636.018z M491.427,727c-10.484,4.341-26.03,4.639-38.222-7.55
			c-12.199-12.197-11.875-27.812-7.508-38.358c4.332-10.461,15.11-21.639,32.365-21.639c19.385,0,35.154,15.766,35.154,35.144
			C513.217,711.831,501.961,722.636,491.427,727z"/>
	</g>
</g>
</svg>
