<?xml version="1.0" encoding="utf-8"?>
<!-- Generator: Adobe Illustrator 16.0.0, SVG Export Plug-In . SVG Version: 6.00 Build 0)  -->
<!DOCTYPE svg PUBLIC "-//W3C//DTD SVG 1.1//EN" "http://www.w3.org/Graphics/SVG/1.1/DTD/svg11.dtd">
<svg version="1.1" id="Layer_1" xmlns="http://www.w3.org/2000/svg" xmlns:xlink="http://www.w3.org/1999/xlink" x="0px" y="0px"
	 width="512px" height="512px" viewBox="0 0 512 512" enable-background="new 0 0 512 512" xml:space="preserve">
<g id="Page-1">
	<g id="_x30_42---Send-Email">
		<path id="Shape" fill="#444444" d="M170.892,505.43l0.024,0.06c0.02,0.085,0.071,0.151,0.093,0.231
			c0.259,0.912,0.669,1.774,1.214,2.55c0.069,0.1,0.079,0.219,0.152,0.317c0.085,0.116,0.228,0.154,0.32,0.265
			c0.732,0.925,1.648,1.686,2.691,2.234l0.08,0.055c0.781,0.38,1.616,0.64,2.475,0.768c0.419,0.06,0.841,0.089,1.264,0.091h0.004
			h0.019c0.821-0.01,1.637-0.141,2.421-0.387c0.233-0.069,0.446-0.187,0.674-0.277c0.571-0.223,1.117-0.507,1.627-0.848
			c0.119-0.08,0.256-0.107,0.37-0.193l98.802-74.105l113.835,65.161c4.769,2.625,10.503,2.816,15.437,0.516
			c4.933-2.301,8.472-6.817,9.525-12.158l89.515-459.2l0.004-0.017c1.892-9.827-2.116-19.856-10.259-25.674
			s-18.929-6.359-27.613-1.384L8.341,274.816c-5.399,3.214-8.597,9.135-8.322,15.412s3.976,11.896,9.635,14.625l128.055,59.533
			L170.892,505.43z M231.942,396.18c-0.052,0.073-0.055,0.163-0.104,0.238c-0.085,0.126-0.198,0.22-0.275,0.354l-48.954,83.925
			l-28.092-119.397l286.45-263.79L231.942,396.18z M207.824,471.337l34.219-58.657l24.949,14.281L207.824,471.337z M482.086,18.229
			c2.893-1.645,6.478-1.458,9.184,0.479c2.707,1.937,4.04,5.27,3.416,8.539l-89.381,459.221l-154.021-88.165L455.06,107.133
			c4.929-7.097,3.634-16.781-2.986-22.333c-6.492-5.733-16.264-5.647-22.653,0.2L143.488,348.253L17.004,289.525L482.086,18.229z"/>
	</g>
</g>
</svg>
