<?xml version="1.0" encoding="utf-8"?>
<!-- Generator: Adobe Illustrator 16.0.0, SVG Export Plug-In . SVG Version: 6.00 Build 0)  -->
<!DOCTYPE svg PUBLIC "-//W3C//DTD SVG 1.1//EN" "http://www.w3.org/Graphics/SVG/1.1/DTD/svg11.dtd">
<svg version="1.1" id="Layer_1" xmlns="http://www.w3.org/2000/svg" xmlns:xlink="http://www.w3.org/1999/xlink" x="0px" y="0px"
	 width="512px" height="512px" viewBox="0 0 512 512" enable-background="new 0 0 512 512" xml:space="preserve">
<g id="_x30_23---Moisturising-Face">
	<path id="Shape" fill="#E82264" d="M88.235,353.817l-21.112-49.263c-6.569-14.881-23.957-21.613-38.835-15.047
		c-14.878,6.57-21.614,23.957-15.044,38.836c38.886,85.547,40.781,94.813,58.027,112.043l69.12,69.119
		c1.6,1.603,3.77,2.5,6.033,2.501h92.51c4.712,0,8.533-3.82,8.533-8.533c1.148-17.303,0.199-34.681-2.825-51.755
		c7.555,0.717,15.161,0.717,22.715,0c-3.678,15.616-2.824,25.207-2.824,51.746c0,4.713,3.82,8.533,8.533,8.533h92.545
		c2.262,0,4.433-0.899,6.031-2.5l69.119-69.12c17.223-17.229,18.596-25.353,58.026-112.043c4.25-9.624,3.043-20.785-3.168-29.276
		c-6.21-8.492-16.479-13.027-26.939-11.896s-19.521,7.758-23.771,17.382l-21.146,49.271c-9.904-6.854-22.217-9.272-33.979-6.683
		c3.949-9.685,7.301-19.602,10.035-29.695c16.938-3.413,57.976-18.288,57.976-82.772c0-21.854-3.806-48.785-25.54-51.754
		c30.723-47.548,42.998-104.688,34.52-160.657L463.36,6.682c-0.871-3.919-4.356-6.701-8.372-6.682H57.011
		c-3.999,0-7.461,2.778-8.329,6.682l-3.584,16.213c-8.329,55.809,4,112.739,34.671,160.102c-21.521,3.209-25.25,30.063-25.25,51.704
		c0,64.512,41.071,79.358,58.026,82.771c2.751,10.123,6.117,20.068,10.078,29.782C110.749,344.498,98.26,346.881,88.235,353.817
		L88.235,353.817z M230.4,494.934h-80.478l-66.56-66.609c-13.935-13.901-13.918-17.587-54.58-107.042
		c-1.786-4.047-1.278-8.74,1.333-12.313c2.612-3.571,6.93-5.478,11.328-5.001s8.208,3.265,9.995,7.313
		c34.568,80.674,21.128,61.021,88.917,128.854c2.143,2.218,5.315,3.107,8.298,2.326c2.984-0.78,5.313-3.11,6.095-6.094
		c0.781-2.983-0.109-6.156-2.327-8.299c-46.746-46.737-48.956-48.034-56.081-58.948c9.556-7.936,23.401-7.955,32.981-0.052
		c17.773,16.298,38.306,29.301,60.638,38.398c19.959,6.63,40.439,32.495,40.439,68.693v18.772L230.4,494.934L230.4,494.934z
		 M238.566,433.707c-7.927-19.505-23.563-34.865-43.204-42.445c-16.769-6.783-32.33-16.233-46.08-27.987
		c-29.321-51.951-33.092-114.562-33.135-174.216C134.229,157.192,181.658,83.695,256,38.853
		c74.504,45.175,122.027,118.784,140.169,150.732c-0.137,60.587-3.755,120.32-32.7,173.116
		c-13.955,11.997-29.769,21.644-46.822,28.561c-19.656,7.598-35.303,22.979-43.229,42.505
		C261.865,435.527,250.112,435.507,238.566,433.707L238.566,433.707z M415.658,369.075c-7.091,10.871-9.147,12.015-56.08,58.948
		c-3.234,3.349-3.188,8.671,0.104,11.962c3.291,3.292,8.613,3.338,11.963,0.104c67.142-67.132,54.331-48.094,88.918-128.811
		c1.785-4.048,5.597-6.835,9.993-7.313c4.398-0.477,8.719,1.431,11.328,5.001c2.611,3.57,3.12,8.265,1.333,12.313
		c-40.055,88.123-40.303,92.8-54.525,107.042l-66.611,66.609H281.6V476.16c-0.291-18.524,5.694-36.604,16.982-51.294
		c20.01-25.021,26.393-7.229,84.096-55.8C392.247,361.15,406.093,361.154,415.658,369.075L415.658,369.075z M440.729,234.667
		c0,42.965-20.828,58.343-36.315,63.854c5.765-30.383,8.645-61.244,8.602-92.167c7.895-5.606,14.893-7.944,18.773-6.067
		C433.877,201.293,440.729,206.771,440.729,234.667z M448.162,17.066c11.302,57.036-1.35,116.208-34.986,163.636
		c-0.811-63.736-17.646-107.401-51.49-133.291c-3.744-2.863-9.102-2.148-11.963,1.596c-2.863,3.745-2.147,9.101,1.596,11.964
		c24.671,18.867,38.811,49.741,43.223,93.44c-34.22-51.968-87.066-107.324-142.209-137.344L448.162,17.066z M63.855,17.066h116.386
		c-19.04,12.611-36.021,28.082-50.347,45.867c-2.946,3.681-2.35,9.052,1.331,11.998c3.681,2.946,9.052,2.35,11.998-1.331
		c19.074-23.553,43.101-42.616,70.374-55.833c8.669,3.407,17.154,7.264,25.421,11.554
		C167.39,75.435,121.643,144.324,100.173,182.613C65.482,134.923,52.314,74.899,63.855,17.066L63.855,17.066z M71.586,234.667
		c0-27.929,6.827-33.408,8.96-34.415c3.806-1.835,10.948,0.538,18.773,6.067c-0.043,30.94,2.84,61.814,8.61,92.211
		C92.441,293.052,71.586,277.684,71.586,234.667z"/>
	<path id="Shape_1_" fill="#E82264" d="M157.415,185.472c8.898-4.473,19.215-5.204,28.655-2.031l33.101,11.034
		c2.896,0.963,6.086,0.309,8.369-1.718c2.282-2.027,3.31-5.117,2.696-8.107c-0.614-2.99-2.776-5.425-5.672-6.389l-33.101-11.008
		c-13.731-4.613-28.736-3.546-41.677,2.961c-2.752,1.349-4.569,4.069-4.762,7.127c-0.193,3.058,1.271,5.985,3.832,7.668
		c2.562,1.682,5.829,1.862,8.559,0.471V185.472L157.415,185.472z"/>
	<path id="Shape_2_" fill="#E82264" d="M290.133,194.91c1.988,0,0,0.47,35.84-11.469c9.439-3.182,19.76-2.45,28.656,2.031
		c2.73,1.391,5.996,1.211,8.559-0.471c2.563-1.683,4.023-4.609,3.832-7.667c-0.191-3.059-2.011-5.779-4.763-7.127
		c-12.944-6.507-27.95-7.573-41.685-2.961l-33.094,11.034c-3.968,1.318-6.396,5.315-5.735,9.443
		C282.4,191.849,285.953,194.892,290.133,194.91L290.133,194.91z"/>
	<path id="Shape_3_" fill="#E82264" d="M221.397,227.661c-1.513-4.454-6.345-6.843-10.803-5.342
		c-0.299,0.094-29.396,9.583-51.874-7.279c-3.38-2.519-8.093-2.193-11.094,0.768c-2.996,3.1-6.866,5.213-11.093,6.059
		c-4.713,0-8.533,3.82-8.533,8.533s3.82,8.534,8.533,8.534c6.372-0.342,12.494-2.593,17.57-6.46c1.289,0.768,2.56,1.451,3.874,2.108
		c-1.144,1.736-2.634,3.218-4.377,4.352c-4.713,0-8.534,3.82-8.534,8.533c0,10.487,15.761,14.506,29.637-6.989
		c13.749,2.809,27.982,2.119,41.395-2.005C220.54,236.941,222.908,232.109,221.397,227.661L221.397,227.661z"/>
	<path id="Shape_4_" fill="#E82264" d="M353.28,215.04c-22.366,16.768-51.271,7.484-51.866,7.279
		c-4.461-1.522-9.311,0.86-10.832,5.321c-1.523,4.46,0.859,9.311,5.32,10.833c13.41,4.131,27.646,4.821,41.395,2.005
		C341.632,247.211,349.064,256,358.4,256c4.752,0.024,8.641-3.78,8.721-8.533c0.049-2.247-0.811-4.418-2.383-6.023
		c-1.572-1.606-3.725-2.511-5.971-2.51c-1.894-1.086-3.504-2.596-4.711-4.412c1.277-0.657,2.561-1.322,3.84-2.09
		c5.069,3.882,11.191,6.148,17.568,6.502c4.714,0,8.533-3.821,8.533-8.534s-3.82-8.533-8.533-8.533
		c-4.204-0.848-8.051-2.951-11.031-6.033C361.432,212.831,356.678,212.493,353.28,215.04z"/>
	<path id="Shape_5_" fill="#E82264" d="M225.664,297.232c18.359,12.282,42.313,12.282,60.672,0c2.537-1.691,3.979-4.607,3.781-7.65
		c-0.198-3.043-2.003-5.75-4.736-7.1c-2.734-1.354-5.98-1.143-8.517,0.551c-12.63,8.441-29.1,8.441-41.729,0
		c-3.921-2.615-9.22-1.557-11.835,2.363C220.685,289.318,221.743,294.617,225.664,297.232z"/>
	<path id="Shape_6_" fill="#E82264" d="M307.2,348.16c-0.026-2.858-1.231-5.58-3.333-7.521c-2.1-1.938-4.908-2.924-7.762-2.722
		c-7.072,0-28.016-13.653-40.105-13.653c-12.254,0-32.904,13.653-40.064,13.653c-2.858-0.212-5.677,0.77-7.786,2.708
		c-2.11,1.939-3.322,4.666-3.35,7.532c0,12.04,24.107,27.307,51.2,27.307C283.094,375.467,307.2,360.192,307.2,348.16z M256,341.333
		c9.184,2.69,18.107,6.197,26.666,10.479c-16.693,8.778-36.639,8.778-53.333,0C237.888,347.521,246.813,344.015,256,341.333z"/>
	<path id="Shape_7_" fill="#E82264" d="M264.533,392.533h-17.066c-4.713,0-8.533,3.818-8.533,8.533c0,4.713,3.82,8.531,8.533,8.531
		h17.066c4.713,0,8.533-3.818,8.533-8.531C273.066,396.353,269.246,392.533,264.533,392.533z"/>
	<circle id="Oval" fill="#E82264" cx="110.933" cy="93.867" r="8.533"/>
</g>
</svg>
