<?xml version="1.0" encoding="utf-8"?>
<!-- Generator: Adobe Illustrator 16.0.0, SVG Export Plug-In . SVG Version: 6.00 Build 0)  -->
<!DOCTYPE svg PUBLIC "-//W3C//DTD SVG 1.1//EN" "http://www.w3.org/Graphics/SVG/1.1/DTD/svg11.dtd">
<svg version="1.1" id="Capa_1" xmlns="http://www.w3.org/2000/svg" xmlns:xlink="http://www.w3.org/1999/xlink" x="0px" y="0px"
	 width="1280px" height="800px" viewBox="0 0 1280 800" enable-background="new 0 0 1280 800" xml:space="preserve">
<g>
	<g>
		<path fill="#E82264" d="M938.114,568.862l-210.905-61.315v-18.076h54.211c45.489,0,82.496-37.007,82.496-82.496V223.916
			C863.916,100.447,763.467,0,640,0S416.084,100.447,416.084,223.916v183.061c0,45.489,37.007,82.495,82.496,82.495h54.211v18.077
			L341.75,568.903c-31.667,9.62-52.944,38.319-52.944,71.415v158.705h23.57V640.318c0-22.645,14.558-42.281,36.089-48.823
			l128.901-37.476v140.51h66.3L640,800l96.334-105.471h66.301V554.019l128.765,37.438c21.667,6.582,36.225,26.219,36.225,48.863
			v158.705h23.57V640.318C991.193,607.224,969.916,578.523,938.114,568.862z M678.815,448.717c-0.24,0.075-0.482,0.15-0.725,0.225
			c-1.753,0.541-3.522,1.044-5.308,1.51c-0.196,0.052-0.393,0.106-0.591,0.159c-1.885,0.481-3.785,0.919-5.699,1.317
			c-0.422,0.088-0.846,0.166-1.271,0.249c-1.509,0.298-3.028,0.57-4.556,0.815c-0.515,0.081-1.026,0.17-1.542,0.245
			c-1.877,0.277-3.763,0.524-5.663,0.722c-0.333,0.035-0.669,0.057-1.005,0.088c-1.634,0.158-3.277,0.281-4.928,0.375
			c-0.541,0.031-1.083,0.062-1.625,0.084c-1.961,0.088-3.929,0.15-5.909,0.15c-1.981,0-3.948-0.062-5.909-0.15
			c-0.543-0.023-1.085-0.055-1.625-0.084c-1.652-0.096-3.294-0.221-4.929-0.375c-0.334-0.033-0.669-0.053-1.005-0.088
			c-1.901-0.196-3.787-0.443-5.662-0.722c-0.517-0.076-1.028-0.164-1.542-0.245c-1.526-0.245-3.047-0.519-4.558-0.815
			c-0.423-0.083-0.847-0.161-1.269-0.249c-1.916-0.397-3.817-0.836-5.7-1.317c-0.198-0.051-0.392-0.106-0.591-0.159
			c-1.784-0.468-3.555-0.972-5.308-1.51c-0.242-0.073-0.482-0.146-0.725-0.225c-52.576-16.535-90.817-65.729-90.817-123.69v-80.138
			c0-43.397,32.441-79.356,74.35-84.898c6.4,80.378,73.856,143.823,155.852,143.823h29.07v21.213
			C769.636,382.987,731.393,432.182,678.815,448.717z M498.58,465.901c-32.492,0-58.926-26.434-58.926-58.926v-183.06
			C439.654,113.444,529.528,23.57,640,23.57s200.346,89.874,200.346,200.345v183.061c0,32.492-26.434,58.926-58.926,58.926h-54.211
			v-14.989c39.851-27.691,65.996-73.79,65.996-125.887v-44.783h-52.641c-73.214,0-132.777-59.564-132.777-132.778V135.68h-11.784
			c-60.217,0-109.208,48.991-109.208,109.208v80.138c0,52.097,26.146,98.192,65.996,125.887v14.989L498.58,465.901L498.58,465.901z
			 M554.06,670.961h-53.122V547.169l55.979-16.275l58.275,206.995L554.06,670.961z M639.997,739.041l-63.64-226.051v-48.576h0.004
			c5.85,2.675,11.858,4.961,17.986,6.87c0.065,0.021,0.131,0.042,0.198,0.063c0.964,0.3,1.933,0.585,2.901,0.866
			c0.336,0.097,0.672,0.196,1.011,0.292c0.802,0.226,1.604,0.442,2.41,0.653c0.514,0.136,1.026,0.27,1.545,0.4
			c0.683,0.174,1.367,0.34,2.052,0.501c0.646,0.155,1.295,0.306,1.943,0.452c0.593,0.133,1.185,0.264,1.777,0.389
			c0.744,0.156,1.489,0.308,2.237,0.456c0.526,0.103,1.052,0.205,1.58,0.303c0.817,0.15,1.638,0.294,2.458,0.433
			c0.477,0.08,0.951,0.163,1.43,0.238c0.871,0.139,1.746,0.266,2.623,0.389c0.439,0.062,0.877,0.127,1.315,0.187
			c0.913,0.121,1.83,0.229,2.745,0.333c0.416,0.047,0.828,0.099,1.242,0.144c0.934,0.1,1.871,0.185,2.81,0.266
			c0.403,0.033,0.808,0.074,1.213,0.106c0.95,0.075,1.906,0.135,2.86,0.192c0.395,0.022,0.788,0.055,1.182,0.075
			c0.997,0.052,1.995,0.087,2.997,0.119c0.354,0.014,0.706,0.031,1.06,0.041c1.349,0.034,2.701,0.056,4.06,0.056
			s2.71-0.021,4.06-0.056c0.354-0.01,0.706-0.027,1.061-0.041c1.002-0.032,2.002-0.066,2.997-0.119
			c0.394-0.021,0.787-0.053,1.181-0.075c0.955-0.058,1.911-0.115,2.861-0.192c0.404-0.031,0.81-0.071,1.213-0.106
			c0.938-0.081,1.876-0.166,2.809-0.266c0.416-0.043,0.83-0.095,1.244-0.144c0.916-0.104,1.833-0.212,2.744-0.331
			c0.438-0.059,0.876-0.122,1.315-0.187c0.876-0.124,1.751-0.25,2.625-0.39c0.478-0.075,0.953-0.157,1.43-0.237
			c0.821-0.139,1.641-0.28,2.458-0.433c0.526-0.097,1.053-0.2,1.579-0.304c0.749-0.146,1.494-0.298,2.237-0.456
			c0.594-0.125,1.187-0.255,1.777-0.389c0.648-0.146,1.299-0.295,1.944-0.45c0.684-0.164,1.368-0.33,2.051-0.503
			c0.517-0.129,1.031-0.266,1.546-0.4c0.806-0.212,1.607-0.427,2.409-0.653c0.336-0.095,0.672-0.192,1.01-0.29
			c0.973-0.281,1.943-0.566,2.909-0.867c0.061-0.019,0.118-0.038,0.18-0.057c6.132-1.911,12.146-4.198,18-6.875v48.573
			L639.997,739.041z M779.064,670.961L779.064,670.961H725.94l-61.132,66.928l58.274-206.995l55.979,16.275v123.792H779.064z"/>
	</g>
</g>
<g>
	<g>
		<rect x="398.799" y="706.315" fill="#E82264" width="23.57" height="92.71"/>
	</g>
</g>
<g>
	<g>
		<rect x="857.628" y="706.315" fill="#E82264" width="23.57" height="92.71"/>
	</g>
</g>
</svg>
